<?xml version="1.0" encoding="utf-8"?>
<!-- Generator: Adobe Illustrator 19.2.1, SVG Export Plug-In . SVG Version: 6.00 Build 0)  -->
<svg version="1.1" id="Layer_1" xmlns="http://www.w3.org/2000/svg" xmlns:xlink="http://www.w3.org/1999/xlink" x="0px" y="0px"
	 viewBox="0 0 300 100" style="enable-background:new 0 0 300 100;" xml:space="preserve">
<style type="text/css">
	.st0{fill:#D9272E;}
	.st1{fill:#D9272E;stroke:#979F38;stroke-miterlimit:10;}
</style>
<g>
	<polygon class="st0" points="259.3,66 277.8,37.3 270.2,37.3 255.5,60.1 	"/>
	<polygon class="st0" points="264.3,73.8 265.2,73.8 288.7,37.3 281,37.3 261,68.6 	"/>
	<polygon class="st0" points="268.5,73.8 291.9,37.3 299.5,37.3 276.1,73.8 	"/>
	<path class="st1" d="M16.4,34"/>
	<path d="M27.6,44.5H16.4v-7.2h206.4l4.6,7.2H37.8v29.3H27.6V44.5z"/>
	<path d="M40.7,49.4H52c4.4,0,6,0.3,7.5,1.8c0.7,0.7,1.7,2.1,1.7,4.7c0,2.7-1.1,3.8-2.2,4.5c-1.6,1-3,1.1-3.7,1.2v0.1
		c4.7,0.1,5,2.2,5.5,6c0.2,1.7,0.6,4.3,1.1,6h-7.3c-0.4-1.5-0.6-3.3-0.8-5.5c-0.3-2.9-0.4-4-3.4-4h-2.8v9.5h-6.8V49.4z M47.5,59.9
		H50c1.5,0,2.2,0,2.8-0.2c1.5-0.5,1.8-2,1.8-2.8c0-3-2.6-3-4.6-3h-2.5V59.9z"/>
	<path d="M72.3,49.4h8.2l9.6,24.3h-7.6l-1.7-4.9h-9.7l-1.7,4.9h-6.7L72.3,49.4z M79.3,64.4l-3.1-10.2H76l-3.4,10.2H79.3z"/>
	<path d="M91.2,49.4h9.3l8.2,18.1l-0.1-18.1h5.9v24.3h-9.1l-8.4-18.9l0.1,18.9h-5.9V49.4z"/>
	<path d="M123.1,66c0,1,0.1,3.8,4.1,3.8c0.6,0,3.6,0,3.6-2.8c0-1.1-0.5-1.9-2.1-2.4l-6-1.6c-1.7-0.4-6-1.6-6-6.7
		c0-3.9,3-7.6,10.2-7.6c9.5,0,9.9,5.2,9.9,7.8h-6.8c0-0.7,0-3.4-3.2-3.4c-2,0-3.2,1.1-3.2,2.6c0,1.8,1.5,2.2,2.5,2.5l4.6,1.2
		c3.2,0.8,7.1,1.9,7.1,7c0,5.4-4.7,7.9-10.8,7.9c-2.5,0-6.6-0.4-8.8-2.9c-1.8-2-1.8-4.3-1.9-5.4H123.1z"/>
	<path d="M139.3,49.4h11.2c1.9,0,4.3,0,6.3,1.2c2.1,1.2,3.4,3.4,3.4,6.6c0,4.3-2.7,6.1-3.7,6.6c-1.9,1-4.8,1-6.1,1l-4.4,0v8.8h-6.8
		V49.4z M146.1,60.4h3c1.7,0,4.3,0,4.3-3.3c0-3-2.4-3.1-4.3-3.1h-3V60.4z"/>
	<path d="M165.5,49.4h8.2l9.6,24.3h-7.6l-1.7-4.9h-9.7l-1.7,4.9h-6.7L165.5,49.4z M172.5,64.4l-3.1-10.2h-0.1l-3.4,10.2H172.5z"/>
	<path d="M184.2,49.4h10.3c2.9,0,6.7,0.3,9.3,2c3.6,2.5,4.6,6.5,4.6,10.1c0,5.4-1.7,9.4-6.6,11.3c-2.5,0.9-5.5,0.9-7.1,0.9h-10.3
		V49.4z M191.1,69.1h2.9c4.5,0,7.4-2,7.4-7.6c0-7.4-5.5-7.4-7.6-7.4l-2.7,0V69.1z"/>
	<path d="M209.8,49.5h18.3v4.7h-11.6v5.1h10.9v4.7h-10.9V69h11.9v4.7h-18.5V49.5z"/>
	<path d="M239.4,73.8h-11.8l13.9-19l-12.8-17.5h13l7.1,11.3l7.4-11.3h11.1l-11.3,17.7l12.5,18.8h-12.9l-8-13L239.4,73.8z"/>
	<g>
		<path d="M186.4,79.4h3l-2.3,12h5.7l-0.5,2.4h-8.7L186.4,79.4z"/>
		<path d="M200.7,81.5c2.5,0,4.8,1.6,4.8,4.4c0,4-2.2,8.1-6.7,8.1c-3.2,0-4.7-2.2-4.7-4.6C194.1,85.7,196.3,81.5,200.7,81.5z
			 M198.9,91.9c2.6,0,3.6-3.8,3.6-5.9c0-2.1-1.1-2.5-2-2.5c-2.5,0-3.4,3.7-3.4,6.1C197.1,91.2,198,91.9,198.9,91.9z"/>
		<path d="M218.7,83.3h-2.6c0.4,0.4,0.7,1.3,0.7,1.8c0,1.9-1.8,4.1-5.1,4.1c-0.6,0-0.9,0-1.1-0.1c-0.2,0.1-0.4,0.4-0.4,0.7
			c0,1.1,5.9,0.9,5.9,4c0,2-1.8,4.1-6.1,4.1c-3.2,0-4.8-1.3-4.8-2.8c0-1.4,1.3-2.7,2.9-3.3c-0.3-0.2-0.5-0.6-0.5-1
			c0-0.8,0.6-1.5,1.6-2c-1.2-0.6-1.9-1.5-1.9-3c0-2.1,2.1-4.3,5.1-4.3c0.6,0,1.6,0.1,1.9,0.2h4.7L218.7,83.3z M209.5,92.5
			c-1,0.5-1.8,1.3-1.8,2.1c0,0.9,0.8,1.5,2.4,1.5c2.6,0,3.3-0.9,3.3-1.6C213.4,93.3,212,93.3,209.5,92.5z M212.4,83.4
			c-1.3,0-2.4,0.9-2.4,2.2c0,1.1,0.7,1.6,1.9,1.6c1.5,0,2.4-1.1,2.4-2.2C214.2,84,213.5,83.4,212.4,83.4z"/>
		<path d="M220.4,81.7h2.9L221,93.8h-2.9L220.4,81.7z M221.1,78.1h2.9l-0.4,2.2h-2.9L221.1,78.1z"/>
		<path d="M225.9,90.2c0,1,0.8,1.8,1.9,1.8c1.5,0,2.1-1,2.1-1.7c0-2.1-5.2-0.8-5.2-4.8c0-2.1,1.8-4,4.8-4c2.5,0,3.8,1.3,4.2,2.8
			l-2.5,0.7c-0.1-0.8-0.6-1.5-1.8-1.5c-1.4,0-1.9,0.9-1.9,1.6c0,2,5.4,0.9,5.4,4.7c0,2.3-1.8,4.3-5.2,4.3c-2.6,0-3.9-1.2-4.4-3.1
			L225.9,90.2z"/>
		<path d="M237.8,80l3.1-1.2l-0.8,3.9h2.8l-0.4,2.1h-2.8c-1.1,5.5-1.1,5.7-1.1,6c0,0.7,0.6,1,1.3,1c0.5,0,0.9-0.1,1.4-0.2l-0.4,2.1
			c-0.3,0.1-1.4,0.3-2.4,0.3c-1.5,0-2.8-0.8-2.8-2.7c0-0.5,0.1-0.8,1.2-6.5H235l0.4-2.1h1.9L237.8,80z"/>
		<path d="M244.7,81.7h2.9l-2.3,12.1h-2.9L244.7,81.7z M245.4,78.1h2.9l-0.4,2.2H245L245.4,78.1z"/>
		<path d="M257.8,90.5c-1,2.3-2.5,3.5-5,3.5c-3.4,0-4.5-2.5-4.5-4.7c0-3.3,2-7.9,6.2-7.9c2.9,0,4,1.6,4.2,3.3l-2.6,0.7
			c0-1.3-0.6-2.1-1.7-2.1c-2.5,0-3.2,4.4-3.2,6.2c0,1.8,0.9,2.3,1.8,2.3c1.4,0,2.2-1.6,2.3-2.1L257.8,90.5z"/>
		<path d="M261.1,90.2c0,1,0.8,1.8,1.9,1.8c1.5,0,2.1-1,2.1-1.7c0-2.1-5.2-0.8-5.2-4.8c0-2.1,1.8-4,4.8-4c2.5,0,3.8,1.3,4.2,2.8
			l-2.5,0.7c-0.1-0.8-0.6-1.5-1.8-1.5c-1.4,0-1.9,0.9-1.9,1.6c0,2,5.4,0.9,5.4,4.7c0,2.3-1.8,4.3-5.2,4.3c-2.6,0-3.9-1.2-4.4-3.1
			L261.1,90.2z"/>
	</g>
	<polygon class="st0" points="299.5,33.5 295.3,26.3 12.2,26.3 16.3,33.3 16.4,33.5 	"/>
	<polygon class="st0" points="289,15.3 5.9,15.3 10,22.5 293.2,22.5 	"/>
	<path class="st0" d="M286.8,11.5H3.7L0.7,6.4l0-0.1C0.6,6.2,0.5,5.9,0.5,5.7c0-0.8,0.6-1.4,1.4-1.4h280.8L286.8,11.5z"/>
</g>
</svg>
