<?xml version="1.0" encoding="utf-8"?>
<!-- Generator: Adobe Illustrator 19.2.1, SVG Export Plug-In . SVG Version: 6.00 Build 0)  -->
<svg version="1.1" id="Layer_1" xmlns="http://www.w3.org/2000/svg" xmlns:xlink="http://www.w3.org/1999/xlink" x="0px" y="0px"
	 viewBox="0 0 200 200" style="enable-background:new 0 0 200 200;" xml:space="preserve">
<style type="text/css">
	.st0{fill:#423938;}
</style>
<g>
	<path class="st0" d="M100,197.6c-53.8,0-97.6-43.8-97.6-97.6S46.2,2.4,100,2.4c53.8,0,97.6,43.8,97.6,97.6S153.8,197.6,100,197.6z
		 M100,7.4C48.9,7.4,7.4,48.9,7.4,100s41.6,92.6,92.6,92.6s92.6-41.6,92.6-92.6S151.1,7.4,100,7.4z"/>
</g>
<g transform="translate(1 1)">
	<g>
		<path class="st0" d="M152.2,81.6H143h-7.3h-9.2c-1.1,0-1.8,0.7-1.8,1.8v9.2h-5.5c-1.1,0-1.8,0.7-1.8,1.8v22h-5.6
			c-1.1-43.8-10.4-69.7-25.6-69.7H58.7c-1.1,0-1.8,0.7-1.8,1.8v7.3c0,1.1,0.7,1.8,1.8,1.8h1.8l-5.4,30.4c-1.1-0.7-2.4-1-3.7-1
			c-4,0-7.3,3.3-7.3,7.3c0,2.5,1.3,4.7,3.2,6c-1.9,1.7-3.2,4.2-3.2,7v7.2v11v10.8c0,4.2,3.3,7.5,7.5,7.5h1.8c0.8,4.2,4.5,7.3,9,7.3
			s8.2-3.1,9-7.3h13.2c0.8,4.2,4.5,7.3,9,7.3c4.5,0,8.2-3.1,9-7.3h1.8c4.2,0,7.5-3.3,7.5-7.5v-1.6h5.5v7.3c0,1.1,0.7,1.8,1.8,1.8
			h25.7c5.1,0,9.2-4,9.2-9.2v-25.7V83.4C154,82.3,153.3,81.6,152.2,81.6z M128.3,110.9h5.5v5.5c0,1.1,0.7,1.8,1.8,1.8h7.3
			c1.1,0,1.8-0.7,1.8-1.8v-5.5h5.5v22h-22V110.9z M137.5,110.9h3.7v3.7h-3.7V110.9z M141.2,85.2v3.7h-3.7v-3.7H141.2z M128.3,85.2
			h5.5v5.5c0,1.1,0.7,1.8,1.8,1.8h7.3c1.1,0,1.8-0.7,1.8-1.8v-5.5h5.5v22H143h-7.3h-7.3V94.4L128.3,85.2L128.3,85.2z M117.3,120.1
			v3.7h-5.5c0-1.2,0-2.5,0-3.7L117.3,120.1L117.3,120.1z M60.5,50.4h25.7c13.2,0,21.8,28.8,22,73.3h-3.7c0-3.1,0-5.9-0.1-8.6
			c0.1-0.2,0.1-0.3,0.1-0.6l-0.2-4.4c0,0,0,0,0-0.1c-0.6-17.5-2.5-26.8-5.7-37.3C95.2,61,90.6,54.1,86.2,54.1H70h-7.3h-2.2V50.4z
			 M47.7,116.4h16.5h18.3h13.9h4.3c0,2.3,0.1,4.7,0.1,7.3H47.7V116.4z M55,101.8h7.3v11H47.7v-5.3c0-3.1,2.6-5.7,5.7-5.7H55z
			 M86.2,57.7c1.3,0,5.3,4,9,16.1c2.6,8.7,4.3,16.6,5.1,29.5l-7.6-12.3c1.8-2.1,1.7-5.2-0.4-7.3c-2-2.2-5.5-2.2-7.7,0l-6.4,6.4
			c-2.2,2-2.2,5.5,0,7.7c1.1,1.1,2.4,1.7,3.9,1.7c0.9,0,1.8-0.2,2.6-0.6l8.7,13.8h-8.7v-3.9c0-3.9-3.1-7-7-7h-1.5
			c-1.5,0-2.8-1.3-2.8-2.8v-7c0-6.2-3.9-7-5.5-7h-0.1l3.9-27.5L86.2,57.7L86.2,57.7z M89.7,88.9l-6.4,6.4c-0.7,0.7-1.8,0.7-2.6,0
			c-0.7-0.7-0.7-1.8,0-2.6l6.6-6.6c0.4-0.4,0.7-0.5,1.3-0.5c0.4,0,0.9,0.2,1.1,0.7C90.4,87.1,90.4,88.2,89.7,88.9z M90,93.7l10.6,17
			c0,0.4,0,0.8,0,1.3v0.8h-3.1L87.3,96.4L90,93.7z M66,99.8C66,99.8,66,99.8,66,99.8l0-11.1h1.7c0.6,0,1.8,0,1.8,3.3v7
			c0,3.5,2.9,6.4,6.4,6.4h1.5c1.8,0,3.3,1.5,3.3,3.3v4H66L66,99.8C66,99.9,66,99.9,66,99.8z M68,57.7l-3.9,27.5
			c-1.1,0-1.8,0.7-1.8,1.8v11h-4.6c0.3-0.6,0.5-1.2,0.7-1.8c0.1-0.4,0.2-0.9,0.2-1.4c0,0,0,0,0-0.1c0-0.2,0-0.3,0-0.5
			c0-0.1,0-0.2,0-0.3c0-0.9-0.2-1.7-0.5-2.4l6.2-33.9H68z M51.3,90.7c1.5,0,2.8,0.9,3.4,2.2c0.1,0.4,0.2,0.8,0.3,1.2
			c0,0.1,0,0.2,0,0.2c0,0.1,0,0.2,0,0.3c-0.1,0.8-0.4,1.6-1.1,2.2c-0.2,0.1-0.3,0.2-0.4,0.4c-0.6,0.4-1.3,0.7-2.2,0.7
			c-2,0-3.7-1.7-3.7-3.7C47.7,92.4,49.3,90.7,51.3,90.7z M62.3,147.6c-3.1,0-5.5-2.4-5.5-5.5s2.4-5.5,5.5-5.5s5.5,2.4,5.5,5.5
			S65.5,147.6,62.3,147.6z M93.5,147.6c-3.1,0-5.5-2.4-5.5-5.5s2.4-5.5,5.5-5.5s5.5,2.4,5.5,5.5S96.6,147.6,93.5,147.6z
			 M108.2,136.4c0,2.2-1.8,3.9-3.9,3.9h-1.8c-0.8-4-4-6.9-8.2-7.3c0,0-0.1,0-0.1,0c-0.1,0-0.2,0-0.3,0c-0.1,0-0.3,0-0.4,0
			c-0.1,0-0.3,0-0.4,0c-0.1,0-0.2,0-0.3,0c0,0-0.1,0-0.1,0c-4.1,0.4-7.4,3.3-8.2,7.3H71.3c-0.8-4-4-6.9-8.2-7.3c0,0-0.1,0-0.1,0
			c-0.1,0-0.2,0-0.3,0c-0.1,0-0.3,0-0.4,0s-0.3,0-0.4,0c-0.1,0-0.2,0-0.3,0c0,0-0.1,0-0.1,0c-4.1,0.4-7.4,3.3-8.2,7.3h-1.8
			c-2.2,0-3.9-1.6-3.9-3.9v-9h55h5.5V136.4z M111.8,131.1v-3.7h5.5v3.7H111.8z M144.8,140.3H121v-44h3.7v12.8v25.7
			c0,1.1,0.7,1.8,1.8,1.8H150C149.2,138.8,147.2,140.3,144.8,140.3z"/>
	</g>
</g>
</svg>
