<?xml version="1.0" encoding="utf-8"?>
<!-- Generator: Adobe Illustrator 19.2.1, SVG Export Plug-In . SVG Version: 6.00 Build 0)  -->
<svg version="1.1" id="Layer_1" xmlns="http://www.w3.org/2000/svg" xmlns:xlink="http://www.w3.org/1999/xlink" x="0px" y="0px"
	 viewBox="0 0 91.8 42.6" style="enable-background:new 0 0 91.8 42.6;" xml:space="preserve">
<style type="text/css">
	.st0{fill:#A2A0B7;}
	.st1{fill:#A9A6BB;}
	.st2{fill:#AEABC0;}
	.st3{fill:#B3B1C5;}
	.st4{fill:#B9B8CA;}
	.st5{fill:#C0BECF;}
	.st6{fill:#C2C1D2;}
	.st7{fill:#C6C5D5;}
	.st8{fill:#CAC8D7;}
	.st9{fill:#CECCDA;}
	.st10{fill:#D0D0DD;}
	.st11{fill:#D5D4E0;}
	.st12{fill:#D9D7E2;}
	.st13{fill:#DDDBE5;}
	.st14{fill:#E2DFE8;}
	.st15{fill:#E4E3EB;}
	.st16{fill:#EBE7EE;}
	.st17{fill:#EBEBF0;}
	.st18{fill:#F3F1F5;}
	.st19{fill:#FBF8F9;}
	.st20{fill:#FFFFFF;}
	.st21{fill:#FFFFFB;}
	.st22{fill:#FFF8F5;}
	.st23{fill:#FBF4EF;}
	.st24{fill:#FBF4ED;}
	.st25{fill:#FBF2EA;}
	.st26{fill:#F8EDE5;}
	.st27{fill:#F8EDE3;}
	.st28{fill:#F8EBE2;}
	.st29{fill:#F8EBE0;}
	.st30{fill:#F8E9DD;}
	.st31{fill:#F6E6D9;}
	.st32{fill:#F5E4D6;}
	.st33{fill:#F3E2D3;}
	.st34{fill:#F3E0D0;}
	.st35{fill:#F3DECD;}
	.st36{fill:#F3DECC;}
	.st37{fill:#F1DCC8;}
	.st38{fill:#F1DAC7;}
	.st39{fill:#F1D8C3;}
	.st40{fill:#F1D7C1;}
	.st41{fill:#EFD5BD;}
	.st42{fill:#EFD3BB;}
	.st43{fill:#EDD1B8;}
	.st44{fill:#ECCFB7;}
	.st45{fill:#ECCDB4;}
	.st46{fill:#ECCDB3;}
	.st47{fill:#EACAAF;}
	.st48{fill:#EAC8AD;}
	.st49{fill:#E8C6AA;}
	.st50{fill:#E8C4A7;}
	.st51{fill:#E8C2A5;}
	.st52{fill:#E5BFA1;}
	.st53{fill:#E5BF9F;}
	.st54{fill:#E5BD9D;}
	.st55{fill:#E3BB9A;}
	.st56{fill:#E3B999;}
	.st57{fill:#E3B797;}
	.st58{fill:#E2B695;}
	.st59{fill:#E0B494;}
	.st60{fill:#E0B492;}
	.st61{fill:#DEB190;}
	.st62{fill:#DEB18F;}
	.st63{fill:#DEAF8C;}
	.st64{fill:#DCAC8A;}
	.st65{fill:#DCAA87;}
	.st66{fill:#DBA886;}
	.st67{fill:#D9A685;}
	.st68{fill:#D9A583;}
	.st69{fill:#D9A381;}
	.st70{fill:#D7A17E;}
	.st71{fill:#D7A07D;}
	.st72{fill:#D79E7B;}
	.st73{fill:#D49B78;}
	.st74{fill:#D49977;}
	.st75{fill:#D49976;}
	.st76{fill:#D29674;}
	.st77{fill:#D29673;}
	.st78{fill:#D29472;}
	.st79{fill:#D29372;}
	.st80{fill:#CF906F;}
	.st81{fill:#CF8E6E;}
	.st82{fill:#CF8E6D;}
	.st83{fill:#CD8B6B;}
	.st84{fill:#CD8969;}
	.st85{fill:#CD8868;}
	.st86{fill:#CC8667;}
	.st87{fill:#CC8466;}
	.st88{fill:#CA8364;}
	.st89{fill:#CA8264;}
	.st90{fill:#C87F62;}
	.st91{fill:#C87D62;}
	.st92{fill:#C87C60;}
	.st93{fill:#C77A5F;}
	.st94{fill:#C7775D;}
	.st95{fill:#C5745C;}
	.st96{fill:#C5715A;}
	.st97{fill:#C26F58;}
	.st98{fill:#C26C57;}
	.st99{fill:#C26A57;}
	.st100{fill:#C26756;}
	.st101{fill:#BF6253;}
	.st102{fill:#BE5850;}
	.st103{fill:#BE4F4D;}
	.st104{fill:#BF6053;}
	.st105{fill:#C26956;}
	.st106{fill:#C5765C;}
	.st107{fill:#C87D60;}
	.st108{fill:#CA8365;}
	.st109{fill:#CF8C6C;}
	.st110{fill:#D49B7A;}
	.st111{fill:#D9A683;}
	.st112{fill:#E3B796;}
	.st113{fill:#E8C4A6;}
	.st114{fill:#E8C4A9;}
	.st115{fill:#ECCBB0;}
	.st116{fill:#ECCFB5;}
	.st117{fill:#EFD3B9;}
	.st118{fill:#F1D9C5;}
	.st119{fill:#F3DECA;}
	.st120{fill:#F3E0CE;}
	.st121{fill:#F8EBDE;}
	.st122{fill:#FBF0E9;}
	.st123{fill:#FFFBF7;}
	.st124{fill:#F8EFE8;}
	.st125{fill:#F6E8DC;}
	.st126{fill:#F6E6D7;}
	.st127{fill:#F1D8C2;}
	.st128{fill:#E0B291;}
	.st129{fill:#DCAB89;}
	.st130{fill:#D9A581;}
	.st131{fill:#D69C7B;}
	.st132{fill:#D29875;}
	.st133{fill:#D0916F;}
	.st134{fill:#C47059;}
	.st135{fill:#C16455;}
	.st136{fill:#CD8869;}
	.st137{fill:#E5C0A3;}
	.st138{fill:#EFD5BF;}
	.st139{fill:#EED3BD;}
	.st140{fill:#EAC8AB;}
	.st141{fill:#D7A17F;}
	.st142{fill:#D09171;}
	.st143{fill:#C7795F;}
	.st144{fill:#C5735B;}
	.st145{fill-rule:evenodd;clip-rule:evenodd;fill:#6C6C8A;}
	.st146{fill:#6C6C8A;}
</style>
<g>
	<path class="st0" d="M3,14.9c0-5.2,4.2-9.5,9.5-9.5c5.2,0,9.5,4.2,9.5,9.5c0,5.2-4.2,9.5-9.5,9.5C7.2,24.4,3,20.2,3,14.9L3,14.9
		L3,14.9z M21.9,14.9L21.9,14.9c0,5.2-4.2,9.4-9.4,9.4s-9.4-4.2-9.4-9.4c0-5.2,4.2-9.4,9.4-9.4S21.9,9.8,21.9,14.9L21.9,14.9
		L21.9,14.9z"/>
	<path class="st1" d="M21.9,14.9c0-5.2-4.2-9.4-9.4-9.4c-5.2,0-9.4,4.2-9.4,9.4c0,5.2,4.2,9.4,9.4,9.4
		C17.7,24.3,21.9,20.1,21.9,14.9L21.9,14.9z M21.6,14.9L21.6,14.9c0,5-4.1,9.1-9.1,9.1S3.3,20,3.3,14.9c0-5,4.1-9.1,9.1-9.1
		C17.5,5.8,21.6,9.9,21.6,14.9L21.6,14.9z"/>
	<path class="st2" d="M21.6,15c0-5-4.1-9.1-9.1-9.1c-5,0-9.1,4.1-9.1,9.1c0,5,4.1,9.1,9.1,9.1C17.5,24.1,21.6,20,21.6,15L21.6,15z
		 M21.4,14.9L21.4,14.9c0,4.9-4,8.9-8.9,8.9c-4.9,0-8.9-4-8.9-8.9c0-4.9,4-8.9,8.9-8.9C17.4,6.1,21.4,10,21.4,14.9L21.4,14.9z"/>
	<path class="st3" d="M21.3,14.9c0-4.9-4-8.9-8.9-8.9c-4.9,0-8.9,4-8.9,8.9c0,4.9,4,8.9,8.9,8.9C17.4,23.8,21.3,19.8,21.3,14.9
		L21.3,14.9z M21.1,14.9L21.1,14.9c0,4.8-3.9,8.6-8.6,8.6s-8.6-3.9-8.6-8.6c0-4.8,3.9-8.6,8.6-8.6S21.1,10.2,21.1,14.9L21.1,14.9
		L21.1,14.9z"/>
	<path class="st4" d="M21.1,14.9c0-4.8-3.9-8.6-8.6-8.6c-4.8,0-8.6,3.9-8.6,8.6c0,4.8,3.9,8.6,8.6,8.6
		C17.3,23.6,21.1,19.7,21.1,14.9L21.1,14.9z M20.8,14.9L20.8,14.9c0,4.6-3.8,8.4-8.4,8.4c-4.6,0-8.4-3.8-8.4-8.4
		c0-4.6,3.8-8.4,8.4-8.4C17.1,6.6,20.8,10.3,20.8,14.9L20.8,14.9z"/>
	<path class="st5" d="M20.8,15c0-4.6-3.8-8.4-8.4-8.4c-4.6,0-8.4,3.8-8.4,8.4s3.8,8.4,8.4,8.4C17.1,23.3,20.8,19.6,20.8,15L20.8,15z
		 M20.6,14.9L20.6,14.9c0,4.5-3.6,8.1-8.1,8.1c-4.5,0-8.1-3.6-8.1-8.1c0-4.5,3.6-8.1,8.1-8.1C16.9,6.8,20.6,10.5,20.6,14.9
		L20.6,14.9z"/>
	<path class="st5" d="M20.9,14.9c0-4.7-3.8-8.5-8.5-8.5C7.8,6.5,4,10.3,4,14.9s3.8,8.5,8.5,8.5C17.1,23.4,20.9,19.6,20.9,14.9
		L20.9,14.9z M20.7,14.9L20.7,14.9c0,4.6-3.7,8.2-8.2,8.2c-4.5,0-8.2-3.7-8.2-8.2c0-4.5,3.7-8.2,8.2-8.2C17,6.7,20.7,10.4,20.7,14.9
		L20.7,14.9z"/>
	<path class="st6" d="M20.7,14.9c0-4.5-3.7-8.2-8.2-8.2c-4.6,0-8.2,3.7-8.2,8.2c0,4.6,3.7,8.2,8.2,8.2C17,23.2,20.7,19.5,20.7,14.9
		L20.7,14.9z M20.5,14.9L20.5,14.9c0,4.4-3.6,8-8,8s-8-3.6-8-8c0-4.4,3.6-8,8-8S20.5,10.5,20.5,14.9L20.5,14.9z"/>
	<path class="st7" d="M20.5,14.9c0-4.4-3.6-8-8-8c-4.4,0-8,3.6-8,8c0,4.4,3.6,8,8,8C16.9,22.9,20.5,19.4,20.5,14.9L20.5,14.9z
		 M20.2,14.9L20.2,14.9c0,4.3-3.5,7.8-7.8,7.8s-7.8-3.5-7.8-7.8c0-4.3,3.5-7.8,7.8-7.8S20.2,10.7,20.2,14.9L20.2,14.9z"/>
	<path class="st8" d="M20.2,15c0-4.3-3.5-7.8-7.8-7.8c-4.3,0-7.8,3.5-7.8,7.8c0,4.3,3.5,7.8,7.8,7.8C16.7,22.7,20.2,19.3,20.2,15
		L20.2,15z M20,14.9L20,14.9c0,4.2-3.4,7.5-7.5,7.5c-4.2,0-7.5-3.4-7.5-7.5c0-4.2,3.4-7.5,7.5-7.5C16.6,7.4,20,10.8,20,14.9L20,14.9
		z"/>
	<path class="st9" d="M20,14.9c0-4.2-3.4-7.5-7.5-7.5C8.3,7.4,5,10.8,5,14.9s3.4,7.5,7.5,7.5C16.6,22.5,20,19.1,20,14.9L20,14.9z
		 M19.8,14.9L19.8,14.9c0,4-3.3,7.3-7.3,7.3c-4,0-7.3-3.3-7.3-7.3c0-4,3.3-7.3,7.3-7.3C16.5,7.7,19.8,10.9,19.8,14.9L19.8,14.9z"/>
	<path class="st10" d="M19.8,14.9c0-4-3.3-7.3-7.3-7.3c-4,0-7.3,3.3-7.3,7.3c0,4,3.3,7.3,7.3,7.3C16.5,22.2,19.8,19,19.8,14.9
		L19.8,14.9z M19.5,14.9L19.5,14.9c0,3.9-3.2,7.1-7.1,7.1c-3.9,0-7.1-3.2-7.1-7.1c0-3.9,3.2-7.1,7.1-7.1
		C16.4,7.9,19.5,11.1,19.5,14.9L19.5,14.9z"/>
	<path class="st11" d="M19.5,15c0-3.9-3.2-7.1-7.1-7.1c-3.9,0-7.1,3.2-7.1,7.1c0,3.9,3.2,7.1,7.1,7.1C16.4,22,19.5,18.9,19.5,15
		L19.5,15z M19.3,14.9L19.3,14.9c0,3.8-3.1,6.8-6.8,6.8s-6.8-3.1-6.8-6.8c0-3.8,3.1-6.8,6.8-6.8S19.3,11.2,19.3,14.9L19.3,14.9z"/>
	<path class="st12" d="M19.3,14.9c0-3.8-3.1-6.8-6.8-6.8c-3.8,0-6.8,3.1-6.8,6.8c0,3.8,3.1,6.8,6.8,6.8
		C16.2,21.8,19.3,18.7,19.3,14.9L19.3,14.9z M19,14.9L19,14.9c0,3.6-2.9,6.6-6.6,6.6c-3.6,0-6.6-2.9-6.6-6.6c0-3.6,2.9-6.6,6.6-6.6
		C16.1,8.4,19,11.3,19,14.9L19,14.9z"/>
	<path class="st13" d="M19,14.9c0-3.6-2.9-6.6-6.6-6.6c-3.6,0-6.6,2.9-6.6,6.6c0,3.6,2.9,6.6,6.6,6.6C16.1,21.5,19,18.6,19,14.9
		L19,14.9z M18.8,14.9L18.8,14.9c0,3.5-2.8,6.3-6.3,6.3c-3.5,0-6.3-2.8-6.3-6.3c0-3.5,2.8-6.3,6.3-6.3C16,8.6,18.8,11.4,18.8,14.9
		L18.8,14.9z"/>
	<path class="st14" d="M18.8,15c0-3.5-2.8-6.3-6.3-6.3C9,8.6,6.1,11.5,6.1,15c0,3.5,2.8,6.3,6.3,6.3C16,21.3,18.8,18.5,18.8,15
		L18.8,15z M18.6,14.9L18.6,14.9c0,3.4-2.7,6.1-6.1,6.1c-3.4,0-6.1-2.7-6.1-6.1c0-3.4,2.7-6.1,6.1-6.1C15.8,8.8,18.6,11.6,18.6,14.9
		L18.6,14.9z"/>
	<path class="st15" d="M18.6,14.9c0-3.4-2.7-6.1-6.1-6.1c-3.4,0-6.1,2.7-6.1,6.1c0,3.4,2.7,6.1,6.1,6.1C15.9,21,18.6,18.3,18.6,14.9
		L18.6,14.9z M18.3,14.9L18.3,14.9c0,3.2-2.6,5.9-5.9,5.9s-5.9-2.6-5.9-5.9c0-3.2,2.6-5.9,5.9-5.9S18.3,11.7,18.3,14.9L18.3,14.9z"
		/>
	<path class="st16" d="M18.4,14.9c0-3.2-2.6-5.9-5.9-5.9c-3.2,0-5.9,2.6-5.9,5.9c0,3.2,2.6,5.9,5.9,5.9
		C15.7,20.8,18.4,18.2,18.4,14.9L18.4,14.9z M18.1,14.9L18.1,14.9c0,3.1-2.5,5.6-5.6,5.6s-5.6-2.5-5.6-5.6c0-3.1,2.5-5.6,5.6-5.6
		S18.1,11.8,18.1,14.9L18.1,14.9z"/>
	<path class="st17" d="M18.1,15c0-3.1-2.5-5.6-5.6-5.6c-3.1,0-5.6,2.5-5.6,5.6s2.5,5.6,5.6,5.6C15.6,20.6,18.1,18.1,18.1,15L18.1,15
		z M17.9,14.9L17.9,14.9c0,3-2.4,5.4-5.4,5.4s-5.4-2.4-5.4-5.4c0-3,2.4-5.4,5.4-5.4S17.9,12,17.9,14.9L17.9,14.9z"/>
	<path class="st18" d="M17.9,14.9c0-3-2.4-5.4-5.4-5.4c-3,0-5.4,2.4-5.4,5.4c0,3,2.4,5.4,5.4,5.4C15.4,20.3,17.9,17.9,17.9,14.9
		L17.9,14.9z M17.6,14.9L17.6,14.9c0,2.8-2.3,5.2-5.2,5.2c-2.8,0-5.2-2.3-5.2-5.2c0-2.8,2.3-5.2,5.2-5.2
		C15.3,9.8,17.6,12.1,17.6,14.9L17.6,14.9z"/>
	<path class="st19" d="M17.6,14.9c0-2.8-2.3-5.2-5.2-5.2c-2.8,0-5.2,2.3-5.2,5.2c0,2.8,2.3,5.2,5.2,5.2
		C15.3,20.1,17.6,17.8,17.6,14.9L17.6,14.9z M17.4,14.9L17.4,14.9c0,2.7-2.2,4.9-4.9,4.9s-4.9-2.2-4.9-4.9c0-2.7,2.2-4.9,4.9-4.9
		S17.4,12.2,17.4,14.9L17.4,14.9z"/>
	<path class="st20" d="M17.4,15c0-2.7-2.2-4.9-4.9-4.9c-2.7,0-4.9,2.2-4.9,4.9s2.2,4.9,4.9,4.9C15.2,19.9,17.4,17.7,17.4,15L17.4,15
		z M17.2,14.9L17.2,14.9c0,2.6-2.1,4.7-4.7,4.7c-2.6,0-4.7-2.1-4.7-4.7c0-2.6,2.1-4.7,4.7-4.7C15.1,10.3,17.2,12.4,17.2,14.9
		L17.2,14.9z"/>
	<path class="st20" d="M17.4,15c0-2.7-2.2-4.9-4.9-4.9S7.5,12.3,7.5,15s2.2,4.9,4.9,4.9S17.4,17.7,17.4,15L17.4,15z"/>
	<path class="st20" d="M9.2,6.1c-0.1,0.2-0.1,0.4,0,0.5c0.3,0.2,0.9,0.7,4.2,0.7c-2.1,0.3-3.7,0.2-4.6-0.4C8.6,6.8,8.5,6.6,8.5,6.4
		C8.7,6.3,8.9,6.2,9.2,6.1L9.2,6.1z"/>
	<path class="st20" d="M7,7.2C6.9,7.5,6.9,7.7,7,7.8C7,8,7.9,9,11.2,9.1c-2,0.5-4-0.3-4.8-0.9C6.3,8.1,6.2,8,6.2,7.8
		C6.5,7.6,6.7,7.4,7,7.2L7,7.2z"/>
	<path class="st20" d="M4.9,9.3c-0.1,0.2-0.1,0.5,0,0.7c0.1,0.2,1.3,1.3,4.6,1.4c-2,0.5-4.3-0.4-5.1-1c-0.1,0-0.1-0.1-0.1-0.1
		C4.4,9.9,4.6,9.6,4.9,9.3L4.9,9.3z"/>
	<path class="st20" d="M3.5,11.9c0,0.2,0.1,0.4,0.2,0.6c0.2,0.1,1.9,1.2,4.5,1.7c-2,0.2-4.2-0.7-5-1.3l0,0
		C3.3,12.5,3.4,12.2,3.5,11.9L3.5,11.9z"/>
	<path class="st20" d="M3,15.2c0.1,0.2,0.3,0.3,0.4,0.4c0.4,0.2,1.4,0.9,4.7,1.6c-2.2,0.1-4.2-0.7-5-1.3C3,15.8,3,15.5,3,15.2
		L3,15.2z"/>
	<path class="st20" d="M4,18.7c0.4,0.2,1.9,1.4,6.4,1.8c-4.1,0.1-5.5-0.5-6.3-1.1c-0.2-0.3-0.3-0.7-0.5-1C3.8,18.5,3.9,18.6,4,18.7
		L4,18.7L4,18.7z"/>
	<path class="st20" d="M87.5,20.7l-1.8,6.9l5.1-7C90.8,20.5,89.6,20.6,87.5,20.7L87.5,20.7z"/>
	<path class="st20" d="M84.2,20.7l-1.9,6.9c1.9,0.1,3.1,0.2,3.1,0.2l0.2-0.3l1.8-6.9C86.6,20.7,85.5,20.7,84.2,20.7L84.2,20.7z"/>
	<polygon class="st20" points="84.1,20.7 82.3,27.6 82.5,27.7 84.3,20.7 84.1,20.7 	"/>
	<polygon class="st21" points="83.9,20.7 82,27.6 82.2,27.6 84.1,20.7 83.9,20.7 	"/>
	<polygon class="st22" points="83.6,20.7 81.8,27.6 82,27.6 83.9,20.7 83.6,20.7 	"/>
	<polygon class="st23" points="83.4,20.7 81.6,27.6 81.8,27.6 83.6,20.7 83.4,20.7 	"/>
	<polygon class="st24" points="83.2,20.7 81.3,27.6 81.5,27.6 83.4,20.7 83.2,20.7 	"/>
	<polygon class="st25" points="82.9,20.7 81.1,27.6 81.3,27.6 83.1,20.7 82.9,20.7 	"/>
	<polygon class="st26" points="82.7,20.7 80.9,27.5 81.1,27.6 82.9,20.7 82.7,20.7 	"/>
	<polygon class="st27" points="82.4,20.7 80.6,27.5 80.8,27.5 82.7,20.7 82.4,20.7 	"/>
	<polygon class="st28" points="82.2,20.7 80.4,27.5 80.6,27.5 82.4,20.7 82.2,20.7 	"/>
	<polygon class="st29" points="82,20.7 80.2,27.5 80.4,27.5 82.2,20.7 82,20.7 	"/>
	<polygon class="st30" points="81.7,20.7 79.9,27.5 80.1,27.5 82,20.7 81.7,20.7 	"/>
	<polygon class="st31" points="81.5,20.7 79.7,27.5 79.9,27.5 81.7,20.7 81.5,20.7 	"/>
	<polygon class="st32" points="81.3,20.7 79.5,27.4 79.7,27.5 81.5,20.7 81.3,20.7 	"/>
	<polygon class="st33" points="81,20.7 79.2,27.4 79.4,27.4 81.2,20.7 81,20.7 	"/>
	<polygon class="st34" points="80.8,20.7 79,27.4 79.2,27.4 81,20.7 80.8,20.7 	"/>
	<polygon class="st35" points="80.5,20.7 78.8,27.4 79,27.4 80.8,20.7 80.5,20.7 	"/>
	<polygon class="st36" points="80.3,20.7 78.5,27.4 78.7,27.4 80.5,20.7 80.3,20.7 	"/>
	<polygon class="st37" points="80.1,20.7 78.3,27.3 78.5,27.4 80.3,20.7 80.1,20.7 	"/>
	<polygon class="st38" points="79.8,20.7 78.1,27.3 78.3,27.3 80.1,20.7 79.8,20.7 	"/>
	<polygon class="st39" points="79.6,20.7 77.8,27.3 78,27.3 79.8,20.7 79.6,20.7 	"/>
	<polygon class="st39" points="79.4,20.7 77.6,27.3 77.8,27.3 79.6,20.7 79.4,20.7 	"/>
	<polygon class="st40" points="79.1,20.7 77.4,27.3 77.6,27.3 79.3,20.7 79.1,20.7 	"/>
	<polygon class="st41" points="78.9,20.7 77.1,27.2 77.3,27.3 79.1,20.7 78.9,20.7 	"/>
	<polygon class="st42" points="78.7,20.7 76.9,27.2 77.1,27.2 78.9,20.7 78.7,20.7 	"/>
	<polygon class="st43" points="78.4,20.7 76.7,27.2 76.9,27.2 78.6,20.7 78.4,20.7 	"/>
	<polygon class="st44" points="78.2,20.7 76.4,27.2 76.7,27.2 78.4,20.7 78.2,20.7 	"/>
	<polygon class="st45" points="77.9,20.7 76.2,27.2 76.4,27.2 78.2,20.7 77.9,20.7 	"/>
	<polygon class="st46" points="77.7,20.7 76,27.1 76.2,27.2 77.9,20.7 77.7,20.7 	"/>
	<polygon class="st47" points="77.5,20.6 75.7,27.1 76,27.1 77.7,20.7 77.5,20.6 	"/>
	<polygon class="st47" points="77.2,20.6 75.5,27.1 75.7,27.1 77.5,20.6 77.2,20.6 	"/>
	<polygon class="st48" points="77,20.6 75.3,27.1 75.5,27.1 77.2,20.6 77,20.6 	"/>
	<polygon class="st49" points="76.8,20.6 75.1,27 75.3,27.1 77,20.6 76.8,20.6 	"/>
	<polygon class="st50" points="76.5,20.6 74.8,27 75,27 76.8,20.6 76.5,20.6 	"/>
	<polygon class="st50" points="76.3,20.6 74.6,27 74.8,27 76.5,20.6 76.3,20.6 	"/>
	<polygon class="st51" points="76.1,20.6 74.4,27 74.6,27 76.3,20.6 76.1,20.6 	"/>
	<polygon class="st52" points="75.8,20.6 74.1,26.9 74.3,27 76,20.6 75.8,20.6 	"/>
	<polygon class="st53" points="75.6,20.6 73.9,26.9 74.1,26.9 75.8,20.6 75.6,20.6 	"/>
	<polygon class="st54" points="75.4,20.6 73.7,26.9 73.9,26.9 75.6,20.6 75.4,20.6 	"/>
	<polygon class="st55" points="75.1,20.6 73.4,26.9 73.7,26.9 75.3,20.6 75.1,20.6 	"/>
	<polygon class="st56" points="74.9,20.5 73.2,26.8 73.4,26.8 75.1,20.6 74.9,20.5 	"/>
	<polygon class="st57" points="74.7,20.5 73,26.8 73.2,26.8 74.9,20.5 74.7,20.5 	"/>
	<polygon class="st58" points="74.4,20.5 72.8,26.8 73,26.8 74.6,20.5 74.4,20.5 	"/>
	<polygon class="st59" points="74.2,20.5 72.5,26.7 72.7,26.8 74.4,20.5 74.2,20.5 	"/>
	<polygon class="st60" points="74,20.5 72.3,26.7 72.5,26.7 74.2,20.5 74,20.5 	"/>
	<polygon class="st61" points="73.7,20.5 72.1,26.7 72.3,26.7 73.9,20.5 73.7,20.5 	"/>
	<polygon class="st62" points="73.5,20.5 71.8,26.6 72,26.7 73.7,20.5 73.5,20.5 	"/>
	<polygon class="st63" points="73.3,20.4 71.6,26.6 71.8,26.6 73.5,20.5 73.3,20.4 	"/>
	<polygon class="st63" points="73,20.4 71.4,26.6 71.6,26.6 73.2,20.4 73,20.4 	"/>
	<polygon class="st64" points="72.8,20.4 71.1,26.6 71.4,26.6 73,20.4 72.8,20.4 	"/>
	<polygon class="st65" points="72.6,20.4 70.9,26.5 71.1,26.6 72.8,20.4 72.6,20.4 	"/>
	<polygon class="st66" points="72.3,20.4 70.7,26.5 70.9,26.5 72.5,20.4 72.3,20.4 	"/>
	<polygon class="st67" points="72.1,20.4 70.5,26.5 70.7,26.5 72.3,20.4 72.1,20.4 	"/>
	<polygon class="st68" points="71.9,20.3 70.2,26.4 70.4,26.5 72.1,20.4 71.9,20.3 	"/>
	<polygon class="st69" points="71.6,20.3 70,26.4 70.2,26.4 71.8,20.3 71.6,20.3 	"/>
	<polygon class="st69" points="71.4,20.3 69.8,26.4 70,26.4 71.6,20.3 71.4,20.3 	"/>
	<polygon class="st70" points="71.2,20.3 69.5,26.3 69.8,26.4 71.4,20.3 71.2,20.3 	"/>
	<polygon class="st71" points="70.9,20.3 69.3,26.3 69.5,26.3 71.1,20.3 70.9,20.3 	"/>
	<polygon class="st72" points="70.7,20.2 69.1,26.3 69.3,26.3 70.9,20.3 70.7,20.2 	"/>
	<polygon class="st72" points="70.5,20.2 68.9,26.2 69.1,26.3 70.7,20.2 70.5,20.2 	"/>
	<polygon class="st73" points="70.2,20.2 68.6,26.2 68.8,26.2 70.4,20.2 70.2,20.2 	"/>
	<polygon class="st74" points="70,20.2 68.4,26.1 68.6,26.2 70.2,20.2 70,20.2 	"/>
	<polygon class="st75" points="69.8,20.2 68.2,26.1 68.4,26.1 70,20.2 69.8,20.2 	"/>
	<polygon class="st76" points="69.5,20.1 68,26.1 68.2,26.1 69.8,20.2 69.5,20.1 	"/>
	<polygon class="st77" points="69.3,20.1 67.7,26 67.9,26.1 69.5,20.1 69.3,20.1 	"/>
	<polygon class="st78" points="69.1,20.1 67.5,26 67.7,26 69.3,20.1 69.1,20.1 	"/>
	<polygon class="st79" points="68.8,20.1 67.3,25.9 67.5,26 69.1,20.1 68.8,20.1 	"/>
	<polygon class="st80" points="68.6,20 67,25.9 67.3,25.9 68.8,20.1 68.6,20 	"/>
	<polygon class="st81" points="68.4,20 66.8,25.9 67,25.9 68.6,20 68.4,20 	"/>
	<polygon class="st82" points="68.2,20 66.6,25.8 66.8,25.9 68.4,20 68.2,20 	"/>
	<polygon class="st83" points="67.9,20 66.4,25.8 66.6,25.8 68.1,20 67.9,20 	"/>
	<polygon class="st84" points="67.7,19.9 66.1,25.7 66.3,25.8 67.9,19.9 67.7,19.9 	"/>
	<polygon class="st85" points="67.5,19.9 65.9,25.7 66.1,25.7 67.7,19.9 67.5,19.9 	"/>
	<polygon class="st86" points="67.2,19.9 65.7,25.6 65.9,25.7 67.5,19.9 67.2,19.9 	"/>
	<polygon class="st87" points="67,19.8 65.5,25.6 65.7,25.6 67.2,19.9 67,19.8 	"/>
	<polygon class="st88" points="66.8,19.8 65.2,25.6 65.4,25.6 67,19.8 66.8,19.8 	"/>
	<polygon class="st89" points="66.6,19.8 65,25.5 65.2,25.5 66.8,19.8 66.6,19.8 	"/>
	<polygon class="st90" points="66.3,19.7 64.8,25.5 65,25.5 66.5,19.8 66.3,19.7 	"/>
	<path class="st91" d="M66.1,19.7l-1.5,5.7l0.2,0l1.5-5.7C66.2,19.7,66.2,19.7,66.1,19.7L66.1,19.7z"/>
	<polygon class="st92" points="65.9,19.7 64.3,25.4 64.5,25.4 66.1,19.7 65.9,19.7 	"/>
	<polygon class="st93" points="65.6,19.6 64.1,25.3 64.3,25.4 65.9,19.7 65.6,19.6 	"/>
	<polygon class="st94" points="65.4,19.6 63.9,25.3 64.1,25.3 65.6,19.6 65.4,19.6 	"/>
	<path class="st95" d="M65.2,19.6l-1.5,5.7l0.2,0l1.5-5.7C65.3,19.6,65.3,19.6,65.2,19.6L65.2,19.6z"/>
	<polygon class="st95" points="65,19.5 63.4,25.1 63.7,25.2 65.2,19.5 65,19.5 	"/>
	<polygon class="st96" points="64.7,19.5 63.2,25.1 63.4,25.1 64.9,19.5 64.7,19.5 	"/>
	<polygon class="st97" points="64.5,19.4 63,25 63.2,25.1 64.7,19.5 64.5,19.4 	"/>
	<polygon class="st98" points="64.3,19.4 62.8,25 63,25 64.5,19.4 64.3,19.4 	"/>
	<polygon class="st99" points="64.1,19.3 62.6,24.9 62.8,25 64.3,19.4 64.1,19.3 	"/>
	<polygon class="st100" points="63.8,19.3 62.3,24.9 62.5,24.9 64,19.3 63.8,19.3 	"/>
	<path class="st101" d="M63.6,19.3l-1.5,5.5l0.2,0.1l1.5-5.6C63.7,19.3,63.7,19.3,63.6,19.3L63.6,19.3z"/>
	<path class="st102" d="M63.4,19.2l-1.5,5.5l0.2,0.1l1.5-5.5C63.5,19.2,63.4,19.2,63.4,19.2L63.4,19.2z"/>
	<path class="st103" d="M63.2,19.2l-1.5,5.5c0.1,0,0.1,0,0.2,0.1l1.5-5.5L63.2,19.2L63.2,19.2z"/>
	<path class="st103" d="M62.9,19.1l-1.5,5.5l0.1,0l0.1,0l1.5-5.5C63.1,19.1,63,19.1,62.9,19.1L62.9,19.1z"/>
	<polygon class="st103" points="62.7,19.1 61.2,24.5 61.4,24.6 62.9,19.1 62.7,19.1 	"/>
	<path class="st103" d="M50.1,13.9L49,18.2c3.7,2.3,7.3,4.9,12.4,6.4l1.5-5.5c-0.1,0-0.2,0-0.2-0.1C57.6,17.9,53.9,15.8,50.1,13.9
		L50.1,13.9z"/>
	<path class="st103" d="M37,10.6l-0.7,2.8c0.7,0,1.5,0.1,2.4,0.3c4,0.7,7.2,2.6,10.4,4.6l1.1-4.3c-2.7-1.3-5.4-2.5-8.6-3l0,0
		C39.9,10.6,38.4,10.5,37,10.6L37,10.6z"/>
	<path class="st103" d="M36.9,10.6l-0.7,2.8c0.1,0,0.1,0,0.2,0l0.7-2.8C37,10.6,36.9,10.6,36.9,10.6L36.9,10.6z"/>
	<path class="st103" d="M36.6,10.6l-0.7,2.7c0.1,0,0.1,0,0.2,0l0.7-2.8C36.8,10.6,36.7,10.6,36.6,10.6L36.6,10.6z"/>
	<path class="st104" d="M36.4,10.6l-0.7,2.7c0.1,0,0.1,0,0.2,0l0.7-2.7C36.5,10.6,36.4,10.6,36.4,10.6L36.4,10.6z"/>
	<path class="st105" d="M36.1,10.6l-0.7,2.7c0.1,0,0.1,0,0.2,0l0.7-2.7C36.3,10.6,36.2,10.6,36.1,10.6L36.1,10.6z"/>
	<path class="st98" d="M35.9,10.6l-0.7,2.7c0.1,0,0.1,0,0.2,0l0.7-2.7C36,10.6,36,10.6,35.9,10.6L35.9,10.6z"/>
	<path class="st96" d="M35.6,10.6l-0.7,2.7c0.1,0,0.1,0,0.2,0l0.7-2.7C35.8,10.6,35.7,10.6,35.6,10.6L35.6,10.6z"/>
	<path class="st106" d="M35.4,10.7l-0.7,2.6c0.1,0,0.1,0,0.2,0l0.7-2.7C35.5,10.6,35.5,10.7,35.4,10.7L35.4,10.7z"/>
	<path class="st93" d="M35.2,10.7l-0.7,2.6c0.1,0,0.1,0,0.2,0l0.7-2.6C35.3,10.7,35.2,10.7,35.2,10.7L35.2,10.7z"/>
	<path class="st107" d="M34.9,10.7l-0.7,2.6l0.2,0l0.7-2.6C35.1,10.7,35,10.7,34.9,10.7L34.9,10.7z"/>
	<path class="st90" d="M34.7,10.7L34,13.3l0.2,0l0.7-2.6C34.8,10.7,34.7,10.7,34.7,10.7L34.7,10.7z"/>
	<path class="st108" d="M34.4,10.8l-0.7,2.6l0.2,0l0.7-2.6C34.6,10.8,34.5,10.8,34.4,10.8L34.4,10.8z"/>
	<path class="st86" d="M34.2,10.8l-0.7,2.5l0.2,0l0.7-2.6C34.3,10.8,34.2,10.8,34.2,10.8L34.2,10.8z"/>
	<path class="st84" d="M33.9,10.9l-0.7,2.5l0.2,0l0.7-2.5C34.1,10.8,34,10.8,33.9,10.9L33.9,10.9z"/>
	<path class="st109" d="M33.7,10.9L33,13.4l0.2,0l0.7-2.5C33.8,10.9,33.7,10.9,33.7,10.9L33.7,10.9z"/>
	<polygon class="st80" points="33.4,10.9 32.8,13.4 33,13.4 33.6,10.9 33.4,10.9 	"/>
	<path class="st78" d="M33.2,11l-0.7,2.4l0.2,0l0.7-2.5C33.3,11,33.2,11,33.2,11L33.2,11z"/>
	<path class="st77" d="M32.9,11l-0.6,2.4l0.2,0l0.7-2.4C33.1,11,33,11,32.9,11L32.9,11z"/>
	<polygon class="st74" points="32.7,11.1 32,13.5 32.2,13.4 32.9,11 32.7,11.1 	"/>
	<polygon class="st110" points="32.4,11.1 31.8,13.5 32,13.5 32.6,11.1 32.4,11.1 	"/>
	<polygon class="st72" points="32.2,11.2 31.5,13.5 31.8,13.5 32.4,11.1 32.2,11.2 	"/>
	<polygon class="st71" points="31.9,11.3 31.3,13.5 31.5,13.5 32.1,11.2 31.9,11.3 	"/>
	<polygon class="st69" points="31.6,11.3 31.1,13.5 31.3,13.5 31.9,11.3 31.6,11.3 	"/>
	<polygon class="st111" points="31.4,11.4 30.8,13.5 31,13.5 31.6,11.3 31.4,11.4 	"/>
	<polygon class="st65" points="31.1,11.4 30.6,13.5 30.8,13.5 31.4,11.4 31.1,11.4 	"/>
	<polygon class="st64" points="30.9,11.5 30.3,13.6 30.5,13.5 31.1,11.4 30.9,11.5 	"/>
	<polygon class="st63" points="30.6,11.6 30.1,13.6 30.2,13.6 30.3,13.6 30.9,11.5 30.6,11.6 	"/>
	<path class="st61" d="M30.4,11.6l-0.5,2c0.1,0,0.1,0,0.2,0l0.5-2L30.4,11.6L30.4,11.6z"/>
	<path class="st60" d="M30.1,11.7l-0.5,1.9c0.1,0,0.2,0,0.2,0l0.5-2L30.1,11.7L30.1,11.7z"/>
	<path class="st112" d="M29.8,11.8l-0.5,1.9c0.1,0,0.2,0,0.2,0l0.5-1.9L29.8,11.8L29.8,11.8z"/>
	<path class="st56" d="M29.6,11.8l-0.5,1.9c0.1,0,0.2,0,0.2,0l0.5-1.9L29.6,11.8L29.6,11.8z"/>
	<path class="st54" d="M29.3,11.9l-0.5,1.8c0.1,0,0.2,0,0.2,0l0.5-1.9L29.3,11.9L29.3,11.9z"/>
	<path class="st52" d="M29.1,12l-0.5,1.8c0.1,0,0.2,0,0.2,0l0.5-1.8L29.1,12L29.1,12z"/>
	<path class="st113" d="M28.8,12.1l-0.5,1.8c0.1,0,0.2,0,0.2,0l0.5-1.8L28.8,12.1L28.8,12.1z"/>
	<path class="st114" d="M28.6,12.1l-0.5,1.8c0.1,0,0.2,0,0.2-0.1l0.5-1.8L28.6,12.1L28.6,12.1z"/>
	<path class="st47" d="M28.3,12.2L27.8,14c0.1,0,0.2,0,0.2-0.1l0.5-1.8L28.3,12.2L28.3,12.2z"/>
	<path class="st115" d="M28,12.3L27.6,14c0.1,0,0.2,0,0.2-0.1l0.5-1.8L28,12.3L28,12.3z"/>
	<path class="st116" d="M27.8,12.4l-0.5,1.7c0.1,0,0.2,0,0.2-0.1l0.5-1.8C27.9,12.3,27.9,12.3,27.8,12.4L27.8,12.4z"/>
	<path class="st117" d="M27.5,12.4l-0.5,1.7c0.1,0,0.2,0,0.2-0.1l0.5-1.7C27.7,12.4,27.6,12.4,27.5,12.4L27.5,12.4z"/>
	<path class="st41" d="M27.3,12.5l-0.5,1.7c0.1,0,0.2,0,0.2-0.1l0.5-1.7C27.4,12.5,27.3,12.5,27.3,12.5L27.3,12.5z"/>
	<path class="st39" d="M27,12.6l-0.5,1.7c0.1,0,0.2-0.1,0.2-0.1l0.5-1.7C27.1,12.6,27.1,12.6,27,12.6L27,12.6z"/>
	<path class="st118" d="M26.7,12.7l-0.5,1.7c0.1,0,0.2-0.1,0.2-0.1l0.5-1.7C26.9,12.7,26.8,12.7,26.7,12.7L26.7,12.7z"/>
	<path class="st119" d="M26.5,12.8L26,14.5c0.1,0,0.2-0.1,0.2-0.1l0.5-1.7C26.6,12.8,26.5,12.8,26.5,12.8L26.5,12.8z"/>
	<path class="st120" d="M26.2,13l-0.4,1.6c0.1,0,0.2-0.1,0.2-0.1l0.4-1.7C26.3,12.9,26.3,12.9,26.2,13L26.2,13z"/>
	<path class="st33" d="M25.9,13.1l-0.4,1.6c0.1,0,0.2-0.1,0.2-0.1l0.4-1.6C26.1,13,26,13.1,25.9,13.1L25.9,13.1z"/>
	<path class="st32" d="M25.6,13.2l-0.4,1.6c0.1,0,0.2-0.1,0.2-0.1l0.4-1.6C25.8,13.1,25.7,13.2,25.6,13.2L25.6,13.2z"/>
	<path class="st121" d="M25.4,13.4l-0.4,1.6l0.2-0.1l0.4-1.6C25.5,13.3,25.4,13.3,25.4,13.4L25.4,13.4z"/>
	<path class="st27" d="M25.1,13.5L24.7,15l0.2-0.1l0.4-1.5C25.3,13.4,25.2,13.5,25.1,13.5L25.1,13.5z"/>
	<path class="st122" d="M24.8,13.7l-0.4,1.5l0.2-0.1l0.4-1.5C25,13.6,24.9,13.6,24.8,13.7L24.8,13.7z"/>
	<path class="st24" d="M24.5,13.8l-0.4,1.4l0.2-0.1l0.4-1.5C24.7,13.7,24.6,13.8,24.5,13.8L24.5,13.8z"/>
	<path class="st123" d="M24.2,14l-0.4,1.4l0.2-0.1l0.4-1.4C24.4,13.9,24.3,13.9,24.2,14L24.2,14z"/>
	<polygon class="st20" points="24,14.1 23.6,15.5 23.9,15.4 24.2,14 24,14.1 	"/>
	<path class="st20" d="M19.8,16.3l-0.2,0.7c1.5-0.4,2.8-1,4.2-1.5l0.4-1.4C22.8,14.8,21.5,15.6,19.8,16.3L19.8,16.3z"/>
	<path class="st20" d="M19.6,16.9l0.2-0.7c-1.1,0.5-2.4,0.9-4,1.2C17.2,17.5,18.5,17.3,19.6,16.9L19.6,16.9z"/>
	<path class="st20" d="M84,34.8l-3.9,4.1c1.5,0.2,2.4,0.3,2.4,0.3L84,34.8L84,34.8z"/>
	<path class="st20" d="M83.7,32.1l-6,6.4c0.9,0.1,1.8,0.2,2.5,0.3l3.9-4.1l0.8-2.6C84.9,32.2,84.4,32.2,83.7,32.1L83.7,32.1z"/>
	<polygon class="st20" points="83.6,32.1 77.6,38.5 77.9,38.6 83.9,32.1 83.6,32.1 	"/>
	<polygon class="st123" points="83.3,32.1 77.3,38.5 77.6,38.5 83.6,32.1 83.3,32.1 	"/>
	<polygon class="st23" points="83,32.1 77,38.5 77.3,38.5 83.3,32.1 83,32.1 	"/>
	<polygon class="st24" points="82.7,32.1 76.8,38.4 77,38.5 83,32.1 82.7,32.1 	"/>
	<polygon class="st124" points="82.4,32.1 76.5,38.4 76.7,38.4 82.7,32.1 82.4,32.1 	"/>
	<polygon class="st27" points="82.1,32 76.2,38.3 76.5,38.4 82.4,32.1 82.1,32 	"/>
	<polygon class="st29" points="81.8,32 75.9,38.3 76.2,38.3 82.1,32 81.8,32 	"/>
	<polygon class="st125" points="81.5,32 75.7,38.3 75.9,38.3 81.8,32 81.5,32 	"/>
	<polygon class="st126" points="81.2,32 75.4,38.2 75.6,38.3 81.5,32 81.2,32 	"/>
	<polygon class="st33" points="80.9,31.9 75.1,38.2 75.4,38.2 81.2,32 80.9,31.9 	"/>
	<polygon class="st120" points="80.6,31.9 74.8,38.1 75.1,38.2 80.9,31.9 80.6,31.9 	"/>
	<polygon class="st36" points="80.3,31.9 74.6,38.1 74.8,38.1 80.6,31.9 80.3,31.9 	"/>
	<polygon class="st38" points="80,31.9 74.3,38 74.6,38.1 80.3,31.9 80,31.9 	"/>
	<polygon class="st39" points="79.8,31.8 74,38 74.3,38 80,31.9 79.8,31.8 	"/>
	<polygon class="st127" points="79.5,31.8 73.7,38 74,38 79.7,31.8 79.5,31.8 	"/>
	<polygon class="st41" points="79.2,31.8 73.5,37.9 73.7,38 79.5,31.8 79.2,31.8 	"/>
	<polygon class="st42" points="78.9,31.8 73.2,37.9 73.5,37.9 79.2,31.8 78.9,31.8 	"/>
	<polygon class="st44" points="78.6,31.7 72.9,37.8 73.2,37.9 78.9,31.8 78.6,31.7 	"/>
	<polygon class="st45" points="78.3,31.7 72.7,37.8 72.9,37.8 78.6,31.7 78.3,31.7 	"/>
	<polygon class="st115" points="78,31.7 72.4,37.7 72.7,37.8 78.3,31.7 78,31.7 	"/>
	<polygon class="st47" points="77.7,31.7 72.1,37.7 72.4,37.7 78,31.7 77.7,31.7 	"/>
	<polygon class="st49" points="77.5,31.6 71.9,37.6 72.1,37.7 77.7,31.7 77.5,31.6 	"/>
	<polygon class="st50" points="77.2,31.6 71.6,37.6 71.9,37.6 77.4,31.6 77.2,31.6 	"/>
	<polygon class="st113" points="76.9,31.6 71.3,37.5 71.6,37.6 77.2,31.6 76.9,31.6 	"/>
	<polygon class="st52" points="76.6,31.5 71.1,37.5 71.3,37.5 76.9,31.6 76.6,31.5 	"/>
	<polygon class="st53" points="76.3,31.5 70.8,37.4 71.1,37.5 76.6,31.5 76.3,31.5 	"/>
	<polygon class="st55" points="76,31.5 70.5,37.4 70.8,37.4 76.3,31.5 76,31.5 	"/>
	<polygon class="st56" points="75.7,31.4 70.3,37.3 70.5,37.4 76,31.5 75.7,31.4 	"/>
	<polygon class="st112" points="75.5,31.4 70,37.3 70.3,37.3 75.7,31.4 75.5,31.4 	"/>
	<polygon class="st60" points="75.2,31.4 69.7,37.2 70,37.3 75.5,31.4 75.2,31.4 	"/>
	<polygon class="st128" points="74.9,31.3 69.5,37.2 69.7,37.2 75.2,31.4 74.9,31.3 	"/>
	<polygon class="st62" points="74.6,31.3 69.2,37.1 69.5,37.2 74.9,31.3 74.6,31.3 	"/>
	<polygon class="st63" points="74.3,31.3 69,37 69.2,37.1 74.6,31.3 74.3,31.3 	"/>
	<polygon class="st129" points="74.1,31.2 68.7,37 68.9,37 74.3,31.3 74.1,31.2 	"/>
	<polygon class="st65" points="73.8,31.2 68.4,36.9 68.7,37 74.1,31.2 73.8,31.2 	"/>
	<polygon class="st111" points="73.5,31.2 68.2,36.9 68.4,36.9 73.8,31.2 73.5,31.2 	"/>
	<polygon class="st130" points="73.2,31.1 67.9,36.8 68.2,36.9 73.5,31.2 73.2,31.1 	"/>
	<polygon class="st69" points="72.9,31.1 67.7,36.8 67.9,36.8 73.2,31.1 72.9,31.1 	"/>
	<polygon class="st71" points="72.7,31 67.4,36.7 67.6,36.8 72.9,31.1 72.7,31 	"/>
	<polygon class="st72" points="72.4,31 67.1,36.6 67.4,36.7 72.7,31 72.4,31 	"/>
	<polygon class="st131" points="72.1,31 66.9,36.6 67.1,36.6 72.4,31 72.1,31 	"/>
	<polygon class="st74" points="71.8,30.9 66.6,36.5 66.9,36.6 72.1,31 71.8,30.9 	"/>
	<polygon class="st132" points="71.6,30.9 66.4,36.5 66.6,36.5 71.8,30.9 71.6,30.9 	"/>
	<polygon class="st76" points="71.3,30.8 66.1,36.4 66.4,36.5 71.6,30.9 71.3,30.8 	"/>
	<polygon class="st78" points="71,30.8 65.9,36.3 66.1,36.4 71.3,30.8 71,30.8 	"/>
	<polygon class="st133" points="70.7,30.8 65.6,36.3 65.9,36.3 71,30.8 70.7,30.8 	"/>
	<polygon class="st81" points="70.5,30.7 65.3,36.2 65.6,36.3 70.7,30.7 70.5,30.7 	"/>
	<polygon class="st83" points="70.2,30.7 65.1,36.1 65.3,36.2 70.5,30.7 70.2,30.7 	"/>
	<polygon class="st84" points="69.9,30.6 64.8,36.1 65.1,36.1 70.2,30.7 69.9,30.6 	"/>
	<polygon class="st86" points="69.7,30.6 64.6,36 64.8,36.1 69.9,30.6 69.7,30.6 	"/>
	<polygon class="st87" points="69.4,30.5 64.3,35.9 64.6,36 69.7,30.6 69.4,30.5 	"/>
	<polygon class="st88" points="69.1,30.5 64.1,35.9 64.3,35.9 69.4,30.5 69.1,30.5 	"/>
	<polygon class="st90" points="68.9,30.4 63.8,35.8 64.1,35.9 69.1,30.5 68.9,30.4 	"/>
	<polygon class="st92" points="68.6,30.4 63.6,35.7 63.8,35.8 68.8,30.4 68.6,30.4 	"/>
	<polygon class="st93" points="68.3,30.3 63.3,35.7 63.6,35.7 68.6,30.4 68.3,30.3 	"/>
	<polygon class="st106" points="68,30.3 63.1,35.6 63.3,35.7 68.3,30.3 68,30.3 	"/>
	<path class="st95" d="M67.8,30.2l-4.9,5.3c0.1,0,0.2,0,0.2,0.1l4.9-5.3L67.8,30.2L67.8,30.2z"/>
	<polygon class="st134" points="67.5,30.2 62.6,35.4 62.8,35.5 67.8,30.2 67.5,30.2 	"/>
	<path class="st98" d="M67.3,30.1l-4.9,5.2l0.2,0.1l4.9-5.3C67.4,30.2,67.3,30.1,67.3,30.1L67.3,30.1z"/>
	<polygon class="st105" points="67,30.1 62.1,35.3 62.4,35.4 67.2,30.1 67,30.1 	"/>
	<polygon class="st135" points="66.7,30 61.9,35.2 62.1,35.3 67,30.1 66.7,30 	"/>
	<polygon class="st102" points="66.5,30 61.6,35.1 61.9,35.2 66.7,30 66.5,30 	"/>
	<polygon class="st103" points="66.2,29.9 61.4,35.1 61.6,35.1 66.5,30 66.2,29.9 	"/>
	<polygon class="st103" points="65.9,29.9 61.1,35 61.4,35.1 66.2,29.9 65.9,29.9 	"/>
	<path class="st103" d="M52.1,24.2l-3.2,3.5c2,1.9,4.1,3.8,7.1,5.3c1.6,0.8,3.4,1.5,5.3,2.1l4.8-5.1c-2.9-0.6-5.7-1.4-8-2.3
		C55.7,26.6,53.8,25.4,52.1,24.2L52.1,24.2z"/>
	<path class="st103" d="M39.7,16.9l-2.4,2.5c0.3,0.1,0.5,0.2,0.8,0.3c4.9,1.7,7.6,4.9,10.8,8l3.2-3.5c-3.7-2.6-6.6-5.5-11.3-7l0,0
		C40.5,17.1,40.1,17,39.7,16.9L39.7,16.9z"/>
	<polygon class="st103" points="39.6,16.8 37.2,19.4 37.4,19.5 39.8,16.9 39.6,16.8 	"/>
	<polygon class="st103" points="39.3,16.8 37,19.3 37.2,19.4 39.6,16.8 39.3,16.8 	"/>
	<polygon class="st135" points="39.1,16.7 36.7,19.2 37,19.3 39.3,16.8 39.1,16.7 	"/>
	<polygon class="st98" points="38.8,16.6 36.5,19.1 36.7,19.2 39.1,16.7 38.8,16.6 	"/>
	<polygon class="st134" points="38.6,16.6 36.2,19.1 36.5,19.1 38.8,16.6 38.6,16.6 	"/>
	<polygon class="st95" points="38.3,16.5 36,19 36.2,19.1 38.6,16.6 38.3,16.5 	"/>
	<polygon class="st93" points="38.1,16.4 35.8,18.9 36,19 38.3,16.5 38.1,16.4 	"/>
	<polygon class="st91" points="37.8,16.4 35.5,18.8 35.8,18.9 38.1,16.4 37.8,16.4 	"/>
	<polygon class="st89" points="37.6,16.3 35.3,18.8 35.5,18.8 37.8,16.4 37.6,16.3 	"/>
	<path class="st87" d="M37.3,16.2L35,18.7l0.2,0.1l2.3-2.5C37.5,16.3,37.4,16.2,37.3,16.2L37.3,16.2z"/>
	<path class="st136" d="M37.1,16.2l-2.3,2.5l0.2,0.1l2.3-2.5C37.2,16.2,37.2,16.2,37.1,16.2L37.1,16.2z"/>
	<path class="st83" d="M36.8,16.1l-2.3,2.4l0.2,0.1l2.3-2.5C37,16.1,36.9,16.1,36.8,16.1L36.8,16.1z"/>
	<path class="st80" d="M36.6,16.1l-2.3,2.4l0.2,0.1l2.3-2.4C36.7,16.1,36.6,16.1,36.6,16.1L36.6,16.1z"/>
	<path class="st78" d="M36.3,16L34,18.4c0.1,0,0.2,0,0.2,0.1l2.3-2.4C36.5,16,36.4,16,36.3,16L36.3,16z"/>
	<path class="st76" d="M36,15.9l-2.2,2.4l0.2,0.1l2.3-2.4C36.2,16,36.1,16,36,15.9L36,15.9z"/>
	<path class="st74" d="M35.8,15.9l-2.2,2.4c0.1,0,0.2,0,0.2,0.1l2.2-2.4C35.9,15.9,35.8,15.9,35.8,15.9L35.8,15.9z"/>
	<path class="st72" d="M35.5,15.9l-2.2,2.4c0.1,0,0.2,0,0.3,0.1l2.2-2.4C35.7,15.9,35.6,15.9,35.5,15.9L35.5,15.9z"/>
	<path class="st71" d="M35.2,15.8L33,18.2c0.1,0,0.2,0,0.3,0.1l2.2-2.4C35.4,15.8,35.3,15.8,35.2,15.8L35.2,15.8z"/>
	<path class="st69" d="M34.9,15.8l-2.2,2.3c0.1,0,0.2,0,0.3,0.1l2.2-2.4C35.1,15.8,35,15.8,34.9,15.8L34.9,15.8z"/>
	<path class="st111" d="M34.7,15.7l-2.2,2.3l0.3,0.1l2.2-2.3C34.8,15.8,34.8,15.7,34.7,15.7L34.7,15.7z"/>
	<path class="st65" d="M34.4,15.7L32.2,18c0.1,0,0.2,0,0.3,0.1l2.2-2.3C34.6,15.7,34.5,15.7,34.4,15.7L34.4,15.7z"/>
	<path class="st63" d="M34.1,15.7L32,18c0.1,0,0.2,0,0.3,0.1l2.2-2.3C34.3,15.7,34.2,15.7,34.1,15.7L34.1,15.7z"/>
	<path class="st62" d="M33.8,15.6l-2.1,2.3c0.1,0,0.2,0,0.3,0l2.1-2.3C34,15.6,33.9,15.6,33.8,15.6L33.8,15.6z"/>
	<path class="st60" d="M33.5,15.6l-2.1,2.3c0.1,0,0.2,0,0.3,0l2.1-2.3C33.7,15.6,33.6,15.6,33.5,15.6L33.5,15.6z"/>
	<path class="st112" d="M33.2,15.6l-2.1,2.2c0.1,0,0.2,0,0.3,0l2.1-2.2C33.4,15.6,33.3,15.6,33.2,15.6L33.2,15.6z"/>
	<path class="st56" d="M32.9,15.6l-2.1,2.2c0.1,0,0.2,0,0.3,0l2.1-2.2C33.1,15.6,33,15.6,32.9,15.6L32.9,15.6z"/>
	<path class="st53" d="M32.6,15.6l-2,2.2c0.1,0,0.2,0,0.3,0l2.1-2.2C32.8,15.6,32.7,15.6,32.6,15.6L32.6,15.6z"/>
	<path class="st137" d="M32.3,15.5l-2,2.2c0.1,0,0.2,0,0.3,0l2-2.2C32.5,15.5,32.4,15.5,32.3,15.5L32.3,15.5z"/>
	<path class="st50" d="M32,15.5l-2,2.1c0.1,0,0.2,0,0.3,0l2-2.2C32.2,15.5,32.1,15.5,32,15.5L32,15.5z"/>
	<path class="st48" d="M31.7,15.5l-2,2.1c0.1,0,0.2,0,0.3,0l2-2.1C31.9,15.5,31.8,15.5,31.7,15.5L31.7,15.5z"/>
	<path class="st115" d="M31.4,15.5l-1.9,2.1c0.1,0,0.2,0,0.3,0l2-2.1C31.6,15.5,31.5,15.5,31.4,15.5L31.4,15.5z"/>
	<path class="st116" d="M31.1,15.5l-1.9,2c0.1,0,0.2,0,0.3,0l1.9-2.1C31.3,15.5,31.2,15.5,31.1,15.5L31.1,15.5z"/>
	<path class="st42" d="M30.8,15.6l-1.9,2c0.1,0,0.2,0,0.3,0l1.9-2C31,15.5,30.9,15.6,30.8,15.6L30.8,15.6z"/>
	<path class="st138" d="M30.4,15.6l-1.8,2c0.1,0,0.2,0,0.3,0l1.9-2C30.7,15.6,30.5,15.6,30.4,15.6L30.4,15.6z"/>
	<path class="st39" d="M30.1,15.6l-1.8,1.9c0.1,0,0.2,0,0.3,0l1.8-2C30.3,15.6,30.2,15.6,30.1,15.6L30.1,15.6z"/>
	<path class="st37" d="M29.8,15.6L28,17.5c0.1,0,0.1,0,0.2,0l0.1,0l1.8-1.9C30,15.6,29.9,15.6,29.8,15.6L29.8,15.6z"/>
	<path class="st35" d="M29.4,15.6l-1.7,1.9c0.1,0,0.2,0,0.3,0l1.8-1.9C29.7,15.6,29.5,15.6,29.4,15.6L29.4,15.6z"/>
	<path class="st33" d="M29.1,15.7l-1.7,1.8c0.1,0,0.2,0,0.3,0l1.7-1.9C29.3,15.6,29.2,15.7,29.1,15.7L29.1,15.7z"/>
	<path class="st31" d="M28.7,15.7L27,17.5c0.1,0,0.2,0,0.3,0l1.7-1.8C29,15.7,28.9,15.7,28.7,15.7L28.7,15.7z"/>
	<path class="st29" d="M28.4,15.7l-1.7,1.8c0.1,0,0.2,0,0.3,0l1.7-1.8C28.6,15.7,28.5,15.7,28.4,15.7L28.4,15.7z"/>
	<path class="st26" d="M28,15.8l-1.7,1.8c0.1,0,0.2,0,0.4,0l1.7-1.8C28.3,15.8,28.2,15.8,28,15.8L28,15.8z"/>
	<path class="st24" d="M27.7,15.8L26,17.7c0.1,0,0.2,0,0.4-0.1l1.7-1.8C27.9,15.8,27.8,15.8,27.7,15.8L27.7,15.8z"/>
	<path class="st22" d="M27.3,15.9l-1.7,1.9c0.1,0,0.3-0.1,0.4-0.1l1.7-1.9l-0.1,0C27.5,15.9,27.4,15.9,27.3,15.9L27.3,15.9z"/>
	<path class="st20" d="M26.9,16l-1.8,1.9c0.1,0,0.3-0.1,0.4-0.1l1.7-1.9C27.2,15.9,27.1,15.9,26.9,16L26.9,16z"/>
	<path class="st20" d="M20.2,18.8l-0.9,0.9c2.1-0.6,4.1-1.5,6-1.9l1.8-1.9C25,16.4,22.8,17.7,20.2,18.8L20.2,18.8z"/>
	<path class="st20" d="M19.4,19.7l0.9-0.9c-1.6,0.7-3.5,1.3-5.5,1.5C16.3,20.4,17.9,20.2,19.4,19.7L19.4,19.7z"/>
	<path class="st20" d="M89.6,7.8l-2.7,7.5c2-0.1,3.2-0.2,3.2-0.2V7.7C90.1,7.7,89.9,7.8,89.6,7.8L89.6,7.8z"/>
	<path class="st20" d="M86.3,8.2l-2.6,7.3c1.2,0,2.3-0.1,3.3-0.1l2.7-7.5C89,7.9,87.8,8,86.3,8.2L86.3,8.2z"/>
	<polygon class="st20" points="86.1,8.2 83.5,15.4 83.7,15.4 86.4,8.2 86.1,8.2 	"/>
	<polygon class="st21" points="85.9,8.2 83.3,15.4 83.5,15.4 86.1,8.2 85.9,8.2 	"/>
	<polygon class="st123" points="85.6,8.2 83,15.4 83.2,15.4 85.9,8.2 85.6,8.2 	"/>
	<polygon class="st23" points="85.4,8.3 82.8,15.4 83,15.4 85.6,8.2 85.4,8.3 	"/>
	<polygon class="st24" points="85.1,8.3 82.5,15.5 82.8,15.4 85.4,8.3 85.1,8.3 	"/>
	<polygon class="st25" points="84.9,8.3 82.3,15.5 82.5,15.5 85.1,8.3 84.9,8.3 	"/>
	<polygon class="st124" points="84.6,8.3 82,15.5 82.3,15.5 84.9,8.3 84.6,8.3 	"/>
	<polygon class="st27" points="84.4,8.4 81.8,15.5 82,15.5 84.6,8.3 84.4,8.4 	"/>
	<polygon class="st28" points="84.1,8.4 81.5,15.5 81.8,15.5 84.4,8.4 84.1,8.4 	"/>
	<polygon class="st29" points="83.9,8.4 81.3,15.5 81.5,15.5 84.1,8.4 83.9,8.4 	"/>
	<polygon class="st121" points="83.6,8.4 81,15.5 81.3,15.5 83.9,8.4 83.6,8.4 	"/>
	<polygon class="st31" points="83.4,8.4 80.8,15.5 81,15.5 83.6,8.4 83.4,8.4 	"/>
	<polygon class="st32" points="83.1,8.5 80.6,15.5 80.8,15.5 83.4,8.4 83.1,8.5 	"/>
	<polygon class="st33" points="82.9,8.5 80.3,15.5 80.5,15.5 83.1,8.5 82.9,8.5 	"/>
	<polygon class="st34" points="82.6,8.5 80.1,15.5 80.3,15.5 82.9,8.5 82.6,8.5 	"/>
	<polygon class="st120" points="82.4,8.5 79.8,15.5 80.1,15.5 82.6,8.5 82.4,8.5 	"/>
	<polygon class="st35" points="82.1,8.6 79.6,15.5 79.8,15.5 82.4,8.5 82.1,8.6 	"/>
	<polygon class="st119" points="81.9,8.6 79.3,15.5 79.6,15.5 82.1,8.6 81.9,8.6 	"/>
	<polygon class="st38" points="81.6,8.6 79.1,15.5 79.3,15.5 81.8,8.6 81.6,8.6 	"/>
	<polygon class="st118" points="81.4,8.6 78.8,15.5 79.1,15.5 81.6,8.6 81.4,8.6 	"/>
	<polygon class="st39" points="81.1,8.6 78.6,15.5 78.8,15.5 81.3,8.6 81.1,8.6 	"/>
	<polygon class="st127" points="80.9,8.7 78.4,15.5 78.6,15.5 81.1,8.6 80.9,8.7 	"/>
	<polygon class="st41" points="80.6,8.7 78.1,15.5 78.3,15.5 80.8,8.7 80.6,8.7 	"/>
	<polygon class="st139" points="80.4,8.7 77.9,15.5 78.1,15.5 80.6,8.7 80.4,8.7 	"/>
	<polygon class="st42" points="80.1,8.7 77.6,15.5 77.9,15.5 80.3,8.7 80.1,8.7 	"/>
	<polygon class="st44" points="79.9,8.7 77.4,15.5 77.6,15.5 80.1,8.7 79.9,8.7 	"/>
	<polygon class="st44" points="79.6,8.8 77.1,15.5 77.4,15.5 79.8,8.7 79.6,8.8 	"/>
	<polygon class="st46" points="79.4,8.8 76.9,15.5 77.1,15.5 79.6,8.8 79.4,8.8 	"/>
	<polygon class="st46" points="79.1,8.8 76.6,15.5 76.9,15.5 79.3,8.8 79.1,8.8 	"/>
	<polygon class="st47" points="78.9,8.8 76.4,15.5 76.6,15.5 79.1,8.8 78.9,8.8 	"/>
	<polygon class="st47" points="78.6,8.8 76.2,15.5 76.4,15.5 78.8,8.8 78.6,8.8 	"/>
	<polygon class="st140" points="78.4,8.8 75.9,15.5 76.2,15.5 78.6,8.8 78.4,8.8 	"/>
	<polygon class="st114" points="78.1,8.9 75.7,15.5 75.9,15.5 78.4,8.8 78.1,8.9 	"/>
	<polygon class="st50" points="77.9,8.9 75.4,15.5 75.7,15.5 78.1,8.9 77.9,8.9 	"/>
	<polygon class="st113" points="77.6,8.9 75.2,15.5 75.4,15.5 77.9,8.9 77.6,8.9 	"/>
	<polygon class="st137" points="77.4,8.9 74.9,15.5 75.2,15.5 77.6,8.9 77.4,8.9 	"/>
	<polygon class="st53" points="77.1,8.9 74.7,15.5 74.9,15.5 77.4,8.9 77.1,8.9 	"/>
	<polygon class="st53" points="76.9,8.9 74.5,15.5 74.7,15.5 77.1,8.9 76.9,8.9 	"/>
	<polygon class="st54" points="76.6,8.9 74.2,15.5 74.5,15.5 76.9,8.9 76.6,8.9 	"/>
	<polygon class="st56" points="76.4,9 74,15.5 74.2,15.5 76.6,8.9 76.4,9 	"/>
	<polygon class="st56" points="76.1,9 73.7,15.5 74,15.5 76.4,9 76.1,9 	"/>
	<polygon class="st57" points="75.9,9 73.5,15.5 73.7,15.5 76.1,9 75.9,9 	"/>
	<polygon class="st58" points="75.6,9 73.3,15.5 73.5,15.5 75.9,9 75.6,9 	"/>
	<polygon class="st59" points="75.4,9 73,15.5 73.2,15.5 75.6,9 75.4,9 	"/>
	<polygon class="st60" points="75.1,9 72.8,15.5 73,15.5 75.4,9 75.1,9 	"/>
	<polygon class="st61" points="74.9,9 72.5,15.5 72.8,15.5 75.1,9 74.9,9 	"/>
	<polygon class="st62" points="74.6,9 72.3,15.5 72.5,15.5 74.9,9 74.6,9 	"/>
	<polygon class="st63" points="74.4,9.1 72,15.5 72.3,15.5 74.6,9 74.4,9.1 	"/>
	<polygon class="st63" points="74.1,9.1 71.8,15.5 72,15.5 74.4,9.1 74.1,9.1 	"/>
	<polygon class="st64" points="73.9,9.1 71.6,15.5 71.8,15.5 74.1,9.1 73.9,9.1 	"/>
	<polygon class="st65" points="73.6,9.1 71.3,15.5 71.6,15.5 73.9,9.1 73.6,9.1 	"/>
	<polygon class="st65" points="73.4,9.1 71.1,15.5 71.3,15.5 73.6,9.1 73.4,9.1 	"/>
	<polygon class="st67" points="73.2,9.1 70.8,15.5 71.1,15.5 73.4,9.1 73.2,9.1 	"/>
	<polygon class="st68" points="72.9,9.1 70.6,15.5 70.8,15.5 73.1,9.1 72.9,9.1 	"/>
	<polygon class="st130" points="72.7,9.1 70.4,15.4 70.6,15.5 72.9,9.1 72.7,9.1 	"/>
	<polygon class="st69" points="72.4,9.1 70.1,15.4 70.4,15.4 72.7,9.1 72.4,9.1 	"/>
	<polygon class="st141" points="72.2,9.1 69.9,15.4 70.1,15.4 72.4,9.1 72.2,9.1 	"/>
	<polygon class="st71" points="71.9,9.1 69.6,15.4 69.9,15.4 72.2,9.1 71.9,9.1 	"/>
	<polygon class="st72" points="71.7,9.2 69.4,15.4 69.6,15.4 71.9,9.1 71.7,9.2 	"/>
	<polygon class="st72" points="71.4,9.2 69.2,15.4 69.4,15.4 71.7,9.2 71.4,9.2 	"/>
	<polygon class="st110" points="71.2,9.2 68.9,15.4 69.2,15.4 71.4,9.2 71.2,9.2 	"/>
	<polygon class="st74" points="70.9,9.2 68.7,15.4 68.9,15.4 71.2,9.2 70.9,9.2 	"/>
	<polygon class="st74" points="70.7,9.2 68.4,15.4 68.7,15.4 70.9,9.2 70.7,9.2 	"/>
	<polygon class="st76" points="70.5,9.2 68.2,15.3 68.4,15.4 70.7,9.2 70.5,9.2 	"/>
	<polygon class="st76" points="70.2,9.2 68,15.3 68.2,15.3 70.4,9.2 70.2,9.2 	"/>
	<polygon class="st78" points="70,9.2 67.7,15.3 68,15.3 70.2,9.2 70,9.2 	"/>
	<polygon class="st79" points="69.7,9.2 67.5,15.3 67.7,15.3 70,9.2 69.7,9.2 	"/>
	<polygon class="st142" points="69.5,9.2 67.3,15.3 67.5,15.3 69.7,9.2 69.5,9.2 	"/>
	<polygon class="st80" points="69.2,9.2 67,15.3 67.3,15.3 69.5,9.2 69.2,9.2 	"/>
	<polygon class="st82" points="69,9.2 66.8,15.2 67,15.3 69.2,9.2 69,9.2 	"/>
	<polygon class="st83" points="68.7,9.2 66.6,15.2 66.8,15.2 69,9.2 68.7,9.2 	"/>
	<polygon class="st84" points="68.5,9.2 66.3,15.2 66.5,15.2 68.7,9.2 68.5,9.2 	"/>
	<polygon class="st84" points="68.3,9.2 66.1,15.2 66.3,15.2 68.5,9.2 68.3,9.2 	"/>
	<polygon class="st86" points="68,9.2 65.8,15.2 66.1,15.2 68.3,9.2 68,9.2 	"/>
	<polygon class="st86" points="67.8,9.2 65.6,15.1 65.8,15.2 68,9.2 67.8,9.2 	"/>
	<polygon class="st108" points="67.5,9.2 65.4,15.1 65.6,15.1 67.8,9.2 67.5,9.2 	"/>
	<polygon class="st88" points="67.3,9.2 65.1,15.1 65.4,15.1 67.5,9.2 67.3,9.2 	"/>
	<polygon class="st90" points="67,9.2 64.9,15.1 65.1,15.1 67.3,9.2 67,9.2 	"/>
	<polygon class="st107" points="66.8,9.2 64.7,15.1 64.9,15.1 67,9.2 66.8,9.2 	"/>
	<polygon class="st107" points="66.6,9.2 64.4,15 64.7,15.1 66.8,9.2 66.6,9.2 	"/>
	<path class="st92" d="M66.3,9.2L64.2,15c0.1,0,0.2,0,0.2,0l2.1-5.9L66.3,9.2L66.3,9.2z"/>
	<path class="st143" d="M66.1,9.2L64,15c0.1,0,0.1,0,0.2,0l2.1-5.8L66.1,9.2L66.1,9.2z"/>
	<path class="st94" d="M65.8,9.2l-2.1,5.8c0.1,0,0.1,0,0.2,0l2.1-5.8L65.8,9.2L65.8,9.2z"/>
	<polygon class="st95" points="65.6,9.2 63.5,14.9 63.7,14.9 65.8,9.2 65.6,9.2 	"/>
	<polygon class="st144" points="65.4,9.1 63.3,14.9 63.5,14.9 65.6,9.1 65.4,9.1 	"/>
	<polygon class="st134" points="65.1,9.1 63,14.9 63.3,14.9 65.4,9.1 65.1,9.1 	"/>
	<path class="st97" d="M64.9,9.1l-2.1,5.7c0.1,0,0.1,0,0.2,0l2.1-5.7L64.9,9.1L64.9,9.1z"/>
	<path class="st98" d="M64.6,9.1l-2.1,5.7c0.1,0,0.1,0,0.2,0l2.1-5.7L64.6,9.1L64.6,9.1z"/>
	<path class="st105" d="M64.4,9.1l-2.1,5.6c0.1,0,0.1,0,0.2,0l2.1-5.7L64.4,9.1L64.4,9.1z"/>
	<path class="st100" d="M64.2,9.1l-2,5.6c0.1,0,0.1,0,0.2,0l2.1-5.6L64.2,9.1L64.2,9.1z"/>
	<path class="st101" d="M63.9,9.1l-2,5.6c0.1,0,0.1,0,0.2,0l2-5.6L63.9,9.1L63.9,9.1z"/>
	<path class="st102" d="M63.7,9.1l-2,5.6c0.1,0,0.1,0,0.2,0l2-5.6L63.7,9.1L63.7,9.1z"/>
	<path class="st103" d="M63.4,9.1l-2,5.5c0.1,0,0.1,0,0.2,0l2-5.6L63.4,9.1L63.4,9.1z"/>
	<path class="st103" d="M63.2,9l-2,5.5c0.1,0,0.1,0,0.2,0l2-5.5L63.2,9L63.2,9z"/>
	<path class="st103" d="M63,9l-2,5.5c0.1,0,0.1,0,0.2,0l2-5.5L63,9L63,9z"/>
	<path class="st103" d="M50.3,6.1l-1.4,3.8c4.5,1.6,8.2,3.7,10.9,4.4c0.4,0.1,0.8,0.2,1.2,0.3l2-5.5c-1-0.1-2.1-0.2-3-0.3
		C56.2,8.3,53.3,7.1,50.3,6.1L50.3,6.1z"/>
	<path class="st103" d="M37,4.7l-1.2,3.4c0.5-0.1,1-0.1,1.5-0.1c4.2-0.2,8.2,0.7,11.7,1.9l1.4-3.8c-3-1.1-5.9-1.9-9.9-1.7l0,0
		C39.2,4.4,38,4.5,37,4.7L37,4.7z"/>
	<path class="st103" d="M36.8,4.7l-1.2,3.4c0.1,0,0.2,0,0.2,0l1.2-3.4C37,4.7,36.9,4.7,36.8,4.7L36.8,4.7z"/>
	<path class="st103" d="M36.6,4.8l-1.2,3.4c0.1,0,0.2,0,0.2,0l1.2-3.4C36.7,4.7,36.7,4.8,36.6,4.8L36.6,4.8z"/>
	<path class="st101" d="M36.3,4.8l-1.2,3.4c0.1,0,0.2,0,0.2,0l1.2-3.4C36.5,4.8,36.4,4.8,36.3,4.8L36.3,4.8z"/>
	<path class="st99" d="M36.1,4.9l-1.2,3.4c0.1,0,0.2,0,0.3,0l1.2-3.4C36.2,4.8,36.1,4.9,36.1,4.9L36.1,4.9z"/>
	<path class="st97" d="M35.8,4.9l-1.2,3.4c0.1,0,0.2,0,0.3,0l1.2-3.4C36,4.9,35.9,4.9,35.8,4.9L35.8,4.9z"/>
	<path class="st95" d="M35.5,5l-1.2,3.4c0.1,0,0.2,0,0.3-0.1l1.2-3.4C35.7,4.9,35.6,5,35.5,5L35.5,5z"/>
	<path class="st94" d="M35.3,5l-1.2,3.3c0.1,0,0.2,0,0.3-0.1L35.5,5C35.4,5,35.4,5,35.3,5L35.3,5z"/>
	<path class="st92" d="M35,5.1l-1.2,3.3c0.1,0,0.2,0,0.3-0.1L35.3,5C35.2,5.1,35.1,5.1,35,5.1L35,5.1z"/>
	<path class="st90" d="M34.7,5.2l-1.2,3.3l0.3-0.1L35,5.1C34.9,5.1,34.8,5.1,34.7,5.2L34.7,5.2z"/>
	<path class="st88" d="M34.5,5.2l-1.2,3.3l0.3-0.1l1.2-3.3C34.6,5.2,34.6,5.2,34.5,5.2L34.5,5.2z"/>
	<path class="st86" d="M34.2,5.3L33,8.6l0.3-0.1l1.2-3.3C34.4,5.3,34.3,5.3,34.2,5.3L34.2,5.3z"/>
	<path class="st84" d="M33.9,5.4l-1.2,3.3L33,8.6l1.2-3.3C34.1,5.3,34,5.4,33.9,5.4L33.9,5.4z"/>
	<path class="st82" d="M33.7,5.5l-1.2,3.3l0.3-0.1l1.2-3.3C33.8,5.4,33.7,5.4,33.7,5.5L33.7,5.5z"/>
	<path class="st80" d="M33.4,5.6l-1.2,3.3l0.3-0.1l1.2-3.3C33.6,5.5,33.5,5.5,33.4,5.6L33.4,5.6z"/>
	<path class="st78" d="M33.1,5.7l-1.2,3.3l0.3-0.1l1.2-3.3C33.3,5.6,33.2,5.6,33.1,5.7L33.1,5.7z"/>
	<path class="st76" d="M32.8,5.7L31.6,9l0.3-0.1l1.2-3.3C33,5.7,32.9,5.7,32.8,5.7L32.8,5.7z"/>
	<path class="st74" d="M32.5,5.8l-1.2,3.2L31.6,9l1.2-3.2C32.7,5.8,32.6,5.8,32.5,5.8L32.5,5.8z"/>
	<path class="st72" d="M32.3,5.9l-1.2,3.2l0.3-0.1l1.2-3.2C32.4,5.9,32.4,5.9,32.3,5.9L32.3,5.9z"/>
	<path class="st71" d="M32,6.1l-1.1,3.1l0.3-0.1L32.3,6C32.2,6,32.1,6,32,6.1L32,6.1z"/>
	<path class="st69" d="M31.7,6.2l-1.1,3.1l0.1,0l0.2,0L32,6.1C31.9,6.1,31.8,6.1,31.7,6.2L31.7,6.2z"/>
	<path class="st68" d="M31.4,6.3l-1.1,3c0.1,0,0.2,0,0.3-0.1l1.1-3.1C31.6,6.2,31.5,6.3,31.4,6.3L31.4,6.3z"/>
	<path class="st66" d="M31.1,6.4l-1.1,3c0.1,0,0.2,0,0.3-0.1l1.1-3C31.3,6.3,31.2,6.4,31.1,6.4L31.1,6.4z"/>
	<path class="st64" d="M30.8,6.5l-1.1,2.9c0.1,0,0.2-0.1,0.3-0.1l1.1-3C31,6.5,30.9,6.5,30.8,6.5L30.8,6.5z"/>
	<path class="st63" d="M30.6,6.7l-1.1,2.9c0.1,0,0.2-0.1,0.3-0.1l1.1-2.9C30.7,6.6,30.6,6.6,30.6,6.7L30.6,6.7z"/>
	<path class="st61" d="M30.3,6.8l-1,2.8c0.1,0,0.2-0.1,0.3-0.1l1-2.9C30.4,6.7,30.4,6.8,30.3,6.8L30.3,6.8z"/>
	<path class="st59" d="M30,7l-1,2.8c0.1,0,0.2-0.1,0.3-0.1l1-2.8C30.2,6.9,30.1,6.9,30,7L30,7z"/>
	<path class="st57" d="M29.7,7.1l-1,2.7c0.1,0,0.2-0.1,0.3-0.1L30,7l0,0C29.8,7,29.8,7.1,29.7,7.1L29.7,7.1z"/>
	<path class="st55" d="M29.4,7.3l-1,2.7c0.1,0,0.2-0.1,0.3-0.1l1-2.7C29.6,7.2,29.5,7.2,29.4,7.3L29.4,7.3z"/>
	<path class="st53" d="M29.1,7.4l-1,2.6c0.1,0,0.2-0.1,0.3-0.1l1-2.7C29.3,7.3,29.2,7.4,29.1,7.4L29.1,7.4z"/>
	<path class="st51" d="M28.8,7.6l-0.9,2.6c0.1,0,0.2-0.1,0.3-0.1l1-2.6C29,7.5,28.9,7.5,28.8,7.6L28.8,7.6z"/>
	<path class="st50" d="M28.5,7.8l-0.9,2.5c0.1,0,0.2-0.1,0.3-0.1l0.9-2.6C28.7,7.6,28.6,7.7,28.5,7.8L28.5,7.8z"/>
	<path class="st48" d="M28.1,7.9l-0.9,2.5c0.1,0,0.2-0.1,0.3-0.1l0.9-2.5C28.3,7.8,28.2,7.9,28.1,7.9L28.1,7.9z"/>
	<path class="st47" d="M27.8,8.1L27,10.5c0.1,0,0.2-0.1,0.3-0.1l0.9-2.5C28,8,27.9,8.1,27.8,8.1L27.8,8.1z"/>
	<path class="st45" d="M27.5,8.3l-0.8,2.3c0.1,0,0.2-0.1,0.3-0.1l0.9-2.4C27.7,8.2,27.6,8.3,27.5,8.3L27.5,8.3z"/>
	<path class="st43" d="M27.2,8.5l-0.8,2.3c0.1,0,0.2-0.1,0.3-0.1l0.8-2.3C27.4,8.4,27.3,8.5,27.2,8.5L27.2,8.5z"/>
	<path class="st41" d="M26.9,8.7l-0.8,2.2c0.1,0,0.2-0.1,0.3-0.1l0.8-2.2C27.1,8.6,27,8.7,26.9,8.7L26.9,8.7z"/>
	<path class="st39" d="M26.6,9l-0.8,2.1c0.1,0,0.2-0.1,0.3-0.1l0.8-2.2C26.8,8.8,26.7,8.9,26.6,9L26.6,9z"/>
	<path class="st38" d="M26.2,9.2l-0.7,2l0.3-0.1L26.6,9C26.4,9,26.3,9.1,26.2,9.2L26.2,9.2z"/>
	<path class="st36" d="M25.9,9.4l-0.7,1.9l0.3-0.1l0.7-2C26.1,9.3,26,9.3,25.9,9.4L25.9,9.4z"/>
	<path class="st34" d="M25.6,9.7l-0.7,1.8l0.3-0.1l0.7-1.9C25.8,9.5,25.7,9.6,25.6,9.7L25.6,9.7z"/>
	<polygon class="st32" points="25.3,9.9 24.6,11.6 24.9,11.5 25.6,9.7 25.3,9.9 	"/>
	<polygon class="st30" points="24.9,10.1 24.3,11.8 24.6,11.6 25.2,9.9 24.9,10.1 	"/>
	<polygon class="st28" points="24.6,10.4 24,11.9 24.3,11.8 24.9,10.1 24.6,10.4 	"/>
	<path class="st26" d="M24.3,10.6l-0.5,1.5l0.3-0.1l0.6-1.5C24.5,10.5,24.4,10.5,24.3,10.6L24.3,10.6z"/>
	<path class="st24" d="M23.9,10.8l-0.5,1.4l0.3-0.1l0.5-1.5C24.2,10.7,24,10.8,23.9,10.8L23.9,10.8z"/>
	<path class="st22" d="M23.6,11.1l-0.5,1.3l0.3-0.1l0.5-1.4C23.8,10.9,23.7,11,23.6,11.1L23.6,11.1z"/>
	<path class="st20" d="M23.3,11.3l-0.4,1.2c0.1,0,0.2-0.1,0.3-0.1l0.5-1.3C23.5,11.1,23.4,11.2,23.3,11.3L23.3,11.3z"/>
	<path class="st20" d="M20,13.1l-0.2,0.6c1.1-0.3,2.2-0.7,3.2-1.3l0.5-1.2C22.4,11.9,21.3,12.5,20,13.1L20,13.1z"/>
	<path class="st20" d="M19.8,13.7l0.2-0.6c-0.9,0.4-1.9,0.7-3.1,1C17.9,14.1,18.9,13.9,19.8,13.7L19.8,13.7z"/>
	<path class="st145" d="M1.9,31.8C1.8,32,1.8,32,1.6,32l0,0.1h0.9l0-0.1c-0.2,0-0.3,0-0.2-0.2l0.1-0.6h0.2c0.4,0,0.5-0.1,0.7-0.2
		c0.2-0.1,0.2-0.3,0.3-0.5c0-0.2,0-0.4-0.2-0.5C3.2,30,3,30,2.7,30H1.9l0,0.1c0.2,0,0.2,0,0.2,0.2L1.9,31.8L1.9,31.8L1.9,31.8z
		 M2.7,30.1c0.2,0,0.3,0,0.3,0.1c0.1,0.1,0.1,0.2,0.1,0.4c0,0.2-0.1,0.3-0.2,0.4C2.8,31,2.7,31,2.5,31H2.4l0.1-0.8
		c0-0.1,0-0.2,0.1-0.2H2.7L2.7,30.1L2.7,30.1z"/>
	<path class="st145" d="M5,31.2c0-0.1,0-0.3-0.1-0.3c-0.1-0.1-0.2-0.1-0.4-0.1c-0.2,0-0.3,0-0.4,0.1C4,30.8,3.9,30.9,3.9,31
		c0,0.1,0,0.1,0.1,0.1c0.1,0,0.1,0,0.2-0.1c0-0.1,0.1-0.1,0.1-0.2c0,0,0.1-0.1,0.2-0.1c0.1,0,0.1,0,0.2,0.1c0,0.1,0,0.1,0,0.2l0,0.1
		l-0.2,0c-0.2,0-0.4,0.1-0.5,0.2c-0.2,0.1-0.2,0.2-0.2,0.4c0,0.1,0,0.2,0.1,0.3c0.1,0.1,0.2,0.1,0.3,0.1c0.2,0,0.4-0.1,0.5-0.2h0
		c0,0.1,0.1,0.2,0.3,0.2c0.1,0,0.2,0,0.3,0l0-0.1c0,0-0.1,0-0.1,0C5,32,4.9,32,5,31.8L5,31.2L5,31.2L5,31.2z M4.6,31.9
		C4.5,31.9,4.4,32,4.3,32c-0.1,0-0.1,0-0.1-0.1c0,0,0-0.1,0-0.2c0-0.1,0.1-0.2,0.2-0.3c0.1-0.1,0.2-0.1,0.3-0.1L4.6,31.9L4.6,31.9
		L4.6,31.9z"/>
	<path class="st146" d="M6.2,30.9l0-0.2l0,0c-0.2,0.1-0.4,0.1-0.5,0.1l0,0.1c0.1,0,0.2,0,0.1,0.2l-0.1,0.7c0,0.2,0,0.2-0.2,0.2
		l0,0.1h0.7l0-0.1c-0.2,0-0.2,0-0.2-0.2l0.1-0.7c0.1-0.1,0.2-0.2,0.2-0.2c0,0,0.1,0,0.1,0.1c0,0.1,0.1,0.1,0.1,0.1
		c0.1,0,0.1-0.1,0.2-0.2c0-0.1,0-0.1-0.1-0.2c0,0-0.1-0.1-0.2-0.1C6.5,30.7,6.4,30.8,6.2,30.9L6.2,30.9L6.2,30.9L6.2,30.9z"/>
	<path class="st146" d="M7.2,30.9h0.1l-0.1,1c0,0.3,0.1,0.4,0.3,0.4c0.1,0,0.2,0,0.3-0.1L7.8,32c0,0-0.1,0-0.1,0
		c-0.1,0-0.1-0.1-0.1-0.2l0.1-1H8l0-0.1H7.8l0.1-0.4H7.7c-0.1,0.3-0.3,0.5-0.5,0.5L7.2,30.9L7.2,30.9L7.2,30.9z"/>
	<path class="st146" d="M9.9,31.1c0-0.2,0-0.3-0.1-0.4c-0.1-0.1-0.2-0.1-0.3-0.1c-0.2,0-0.3,0.1-0.5,0.2h0l0-0.2l0,0
		c-0.2,0.1-0.3,0.1-0.5,0.1l0,0.1c0.2,0,0.2,0,0.1,0.2l-0.1,0.7c0,0.2,0,0.2-0.2,0.2l0,0.1H9L9,32c-0.1,0-0.1,0-0.1-0.2L9,31.1
		c0.1-0.2,0.3-0.2,0.4-0.2c0.1,0,0.1,0,0.1,0.1c0,0.1,0,0.1,0,0.3l-0.1,0.7c0,0.2,0,0.2-0.2,0.2l0,0.1h0.7l0-0.1
		c-0.1,0-0.1,0-0.1-0.2L9.9,31.1L9.9,31.1L9.9,31.1z"/>
	<path class="st145" d="M11.7,31.4c0-0.2,0-0.4-0.1-0.6c-0.1-0.1-0.2-0.2-0.4-0.2c-0.2,0-0.3,0.1-0.4,0.2c-0.1,0.1-0.2,0.3-0.3,0.6
		c0,0.3,0,0.5,0.1,0.6c0.1,0.1,0.3,0.2,0.5,0.2c0.2,0,0.3,0,0.4-0.1c0.1-0.1,0.2-0.1,0.2-0.2l-0.1-0.1c0,0.1-0.1,0.1-0.1,0.2
		C11.3,32,11.2,32,11.1,32c-0.1,0-0.2-0.1-0.2-0.2c0-0.1-0.1-0.3,0-0.5H11.7L11.7,31.4L11.7,31.4z M10.9,31.3c0-0.2,0.1-0.3,0.1-0.4
		c0.1-0.1,0.1-0.1,0.2-0.1c0.1,0,0.1,0,0.1,0.1c0,0.1,0,0.2,0,0.4H10.9L10.9,31.3L10.9,31.3z"/>
	<path class="st146" d="M12.8,30.9l0-0.2l0,0c-0.2,0.1-0.4,0.1-0.5,0.1l0,0.1c0.1,0,0.2,0,0.1,0.2l-0.1,0.7c0,0.2,0,0.2-0.2,0.2
		l0,0.1h0.7l0-0.1c-0.2,0-0.2,0-0.2-0.2l0.1-0.7c0.1-0.1,0.2-0.2,0.2-0.2c0,0,0.1,0,0.1,0.1c0,0.1,0.1,0.1,0.1,0.1
		c0.1,0,0.1-0.1,0.2-0.2c0-0.1,0-0.1-0.1-0.2c0,0-0.1-0.1-0.2-0.1C13,30.7,12.9,30.8,12.8,30.9L12.8,30.9L12.8,30.9L12.8,30.9z"/>
	<path class="st146" d="M14.7,31.1c0-0.2,0-0.2,0-0.3c-0.1,0-0.2-0.1-0.4-0.1c-0.2,0-0.3,0-0.4,0.1c-0.1,0.1-0.2,0.2-0.2,0.3
		c0,0.1,0,0.2,0.1,0.3c0.1,0.1,0.1,0.1,0.2,0.2c0.1,0.1,0.2,0.1,0.2,0.2c0,0,0,0.1,0,0.1c0,0.1,0,0.1-0.1,0.2c0,0-0.1,0.1-0.2,0.1
		c-0.2,0-0.3-0.1-0.3-0.3l-0.1,0c0,0.1,0,0.2,0,0.4c0.1,0,0.2,0.1,0.4,0.1c0.2,0,0.3-0.1,0.4-0.1c0.1-0.1,0.2-0.2,0.2-0.3
		c0-0.1,0-0.2-0.1-0.3c0-0.1-0.1-0.1-0.2-0.2c-0.1-0.1-0.2-0.1-0.2-0.2c-0.1-0.1-0.1-0.1-0.1-0.2c0-0.1,0-0.1,0.1-0.1
		c0,0,0.1,0,0.2,0c0.2,0,0.2,0.1,0.2,0.3L14.7,31.1L14.7,31.1L14.7,31.1z"/>
	<path class="st146" d="M15.4,31.8c0,0.2,0,0.2-0.2,0.2l0,0.1h0.7l0-0.1c-0.1,0-0.1,0-0.1-0.2l0.1-0.7c0.1-0.1,0.3-0.2,0.4-0.2
		c0.1,0,0.1,0,0.1,0.1c0,0.1,0,0.1,0,0.3l-0.1,0.6c0,0.2,0,0.2-0.2,0.2l0,0.1h0.7l0-0.1c-0.1,0-0.1,0-0.1-0.2l0.1-0.6
		c0-0.2,0-0.3-0.1-0.4c-0.1-0.1-0.2-0.1-0.3-0.1c-0.2,0-0.4,0.1-0.5,0.2h0L16,30l0,0c-0.2,0.1-0.4,0.1-0.5,0.1l0,0.1
		c0.2,0,0.2,0,0.1,0.2L15.4,31.8L15.4,31.8L15.4,31.8z"/>
	<path class="st145" d="M17.8,30.1c-0.1,0-0.2,0.1-0.2,0.2c0,0.1,0.1,0.2,0.2,0.2c0.1,0,0.2-0.1,0.2-0.2C18,30.2,18,30.1,17.8,30.1
		L17.8,30.1L17.8,30.1L17.8,30.1z M18,30.7L18,30.7c-0.2,0.1-0.4,0.1-0.6,0.1l0,0.1c0.2,0,0.2,0,0.2,0.2l-0.1,0.7
		c0,0.2,0,0.2-0.2,0.2l0,0.1h0.7l0-0.1c-0.2,0-0.2,0-0.1-0.2L18,30.7L18,30.7L18,30.7z"/>
	<path class="st145" d="M18.9,32L18.9,32c0.1,0.1,0.2,0.1,0.3,0.1c0.2,0,0.3-0.1,0.4-0.2c0.1-0.1,0.2-0.3,0.2-0.6
		c0-0.3,0-0.5-0.1-0.6c-0.1-0.1-0.2-0.2-0.3-0.2c-0.2,0-0.3,0.1-0.4,0.2h0l0-0.2l0,0c-0.2,0.1-0.4,0.1-0.5,0.1l0,0.1
		c0.2,0,0.2,0,0.1,0.2l-0.2,1.4c0,0.2,0,0.2-0.2,0.2l0,0.1H19l0-0.1c-0.1,0-0.1,0-0.1-0.2L18.9,32L18.9,32L18.9,32z M19.1,31
		c0.1-0.1,0.2-0.2,0.3-0.2c0.1,0,0.1,0,0.1,0.1c0,0.1,0,0.2,0,0.4c0,0.2-0.1,0.4-0.1,0.5C19.3,32,19.2,32,19.2,32
		C19.1,32,19,32,19,31.9L19.1,31L19.1,31L19.1,31z"/>
	<path class="st145" d="M22.6,31.5l0.1,0.3c0,0.1,0,0.2-0.2,0.2l0,0.1h0.8l0-0.1c-0.1,0-0.1,0-0.2-0.2l-0.5-1.9h-0.2l-0.9,1.9
		C21.4,32,21.4,32,21.3,32l0,0.1h0.5l0-0.1c-0.2,0-0.2,0-0.1-0.2l0.1-0.3H22.6L22.6,31.5L22.6,31.5z M22.5,31.3h-0.6l0.4-1h0
		L22.5,31.3L22.5,31.3L22.5,31.3z"/>
	<path class="st145" d="M24.2,32c-0.1,0-0.2,0-0.2-0.1c0-0.1,0.1-0.1,0.1-0.2c0.1,0,0.2,0.1,0.3,0.1c0.3,0,0.6-0.2,0.7-0.5
		c0-0.1,0-0.2-0.1-0.3l0.3,0l0-0.2l-0.4,0.1c-0.1,0-0.2-0.1-0.4-0.1c-0.4,0-0.6,0.2-0.7,0.5c0,0.2,0,0.3,0.2,0.4
		c-0.1,0.1-0.3,0.2-0.3,0.3c0,0.1,0.1,0.2,0.2,0.2c-0.2,0.1-0.3,0.2-0.4,0.4c0,0.2,0.2,0.4,0.6,0.4c0.4,0,0.8-0.2,0.8-0.5
		c0-0.2-0.1-0.4-0.5-0.4H24.2L24.2,32L24.2,32z M24.4,31.6c-0.1,0-0.2-0.2-0.2-0.4c0-0.2,0.1-0.4,0.3-0.4c0.2,0,0.2,0.2,0.2,0.4
		C24.7,31.5,24.6,31.6,24.4,31.6L24.4,31.6L24.4,31.6L24.4,31.6z M24.4,32.2c0.3,0,0.3,0.1,0.3,0.2c0,0.2-0.2,0.3-0.5,0.3
		c-0.3,0-0.4-0.1-0.4-0.3c0-0.1,0.1-0.2,0.2-0.3H24.4L24.4,32.2L24.4,32.2z"/>
	<path class="st145" d="M27,31.2c0-0.1,0-0.3-0.1-0.3c-0.1-0.1-0.2-0.1-0.4-0.1c-0.2,0-0.3,0-0.4,0.1c-0.1,0.1-0.2,0.1-0.2,0.2
		c0,0.1,0,0.1,0.1,0.1c0.1,0,0.1,0,0.2-0.1c0-0.1,0.1-0.1,0.1-0.2c0,0,0.1-0.1,0.2-0.1c0.1,0,0.1,0,0.2,0.1c0,0.1,0,0.1,0,0.2l0,0.1
		l-0.2,0c-0.2,0-0.4,0.1-0.5,0.2c-0.2,0.1-0.2,0.2-0.2,0.4c0,0.1,0,0.2,0.1,0.3c0.1,0.1,0.2,0.1,0.3,0.1c0.2,0,0.4-0.1,0.5-0.2h0
		c0,0.1,0.1,0.2,0.3,0.2c0.1,0,0.2,0,0.3,0l0-0.1c0,0-0.1,0-0.1,0c-0.1,0-0.1-0.1-0.1-0.2L27,31.2L27,31.2L27,31.2z M26.5,31.9
		c-0.1,0.1-0.1,0.1-0.3,0.1c-0.1,0-0.1,0-0.1-0.1c0,0,0-0.1,0-0.2c0-0.1,0.1-0.2,0.2-0.3c0.1-0.1,0.2-0.1,0.3-0.1L26.5,31.9
		L26.5,31.9L26.5,31.9z"/>
	<path class="st145" d="M28.1,30.1c-0.1,0-0.2,0.1-0.2,0.2c0,0.1,0.1,0.2,0.2,0.2c0.1,0,0.2-0.1,0.2-0.2
		C28.3,30.2,28.2,30.1,28.1,30.1L28.1,30.1L28.1,30.1L28.1,30.1z M28.2,30.7L28.2,30.7c-0.2,0.1-0.4,0.1-0.6,0.1l0,0.1
		c0.2,0,0.2,0,0.2,0.2l-0.1,0.7c0,0.2,0,0.2-0.2,0.2l0,0.1h0.7l0-0.1c-0.2,0-0.2,0-0.1-0.2L28.2,30.7L28.2,30.7L28.2,30.7z"/>
	<path class="st146" d="M30.2,31.1c0-0.2,0-0.3-0.1-0.4c-0.1-0.1-0.2-0.1-0.3-0.1c-0.2,0-0.3,0.1-0.5,0.2h0l0-0.2l0,0
		c-0.2,0.1-0.3,0.1-0.5,0.1l0,0.1c0.2,0,0.2,0,0.1,0.2l-0.1,0.7c0,0.2,0,0.2-0.2,0.2l0,0.1h0.7l0-0.1c-0.1,0-0.1,0-0.1-0.2l0.1-0.7
		c0.1-0.2,0.3-0.2,0.4-0.2c0.1,0,0.1,0,0.1,0.1c0,0.1,0,0.1,0,0.3l-0.1,0.7c0,0.2,0,0.2-0.2,0.2l0,0.1h0.7l0-0.1
		c-0.1,0-0.1,0-0.1-0.2L30.2,31.1L30.2,31.1L30.2,31.1z"/>
	<path class="st146" d="M31.8,31.1c0-0.2,0-0.2,0-0.3c-0.1,0-0.2-0.1-0.4-0.1c-0.2,0-0.3,0-0.4,0.1c-0.1,0.1-0.2,0.2-0.2,0.3
		c0,0.1,0,0.2,0.1,0.3c0.1,0.1,0.1,0.1,0.2,0.2c0.1,0.1,0.2,0.1,0.2,0.2c0,0,0,0.1,0,0.1c0,0.1,0,0.1-0.1,0.2c0,0-0.1,0.1-0.2,0.1
		c-0.2,0-0.3-0.1-0.3-0.3l-0.1,0c0,0.1,0,0.2,0,0.4c0.1,0,0.2,0.1,0.4,0.1c0.2,0,0.3-0.1,0.4-0.1c0.1-0.1,0.2-0.2,0.2-0.3
		c0-0.1,0-0.2-0.1-0.3c0-0.1-0.1-0.1-0.2-0.2c-0.1-0.1-0.2-0.1-0.2-0.2c-0.1-0.1-0.1-0.1-0.1-0.2c0-0.1,0-0.1,0.1-0.1
		c0,0,0.1,0,0.2,0c0.2,0,0.2,0.1,0.2,0.3L31.8,31.1L31.8,31.1L31.8,31.1z"/>
	<path class="st146" d="M32.4,30.9h0.1l-0.1,1c0,0.3,0.1,0.4,0.3,0.4c0.1,0,0.2,0,0.3-0.1L33,32c0,0-0.1,0-0.1,0
		c-0.1,0-0.1-0.1-0.1-0.2l0.1-1h0.2l0-0.1h-0.2l0.1-0.4h-0.1c-0.1,0.3-0.3,0.5-0.5,0.5L32.4,30.9L32.4,30.9L32.4,30.9z"/>
	<path class="st146" d="M35.9,30.1h0.3c0.2,0,0.2,0,0.2,0.4h0.2l0-0.5h-1.7l-0.1,0.5h0.2c0.1-0.4,0.1-0.4,0.3-0.4h0.3l-0.2,1.7
		c0,0.2,0,0.2-0.3,0.2l0,0.1h0.9l0-0.1c-0.3,0-0.3,0-0.2-0.2L35.9,30.1L35.9,30.1L35.9,30.1z"/>
	<path class="st145" d="M37.8,31.4c0-0.2,0-0.4-0.1-0.6c-0.1-0.1-0.2-0.2-0.4-0.2c-0.2,0-0.3,0.1-0.4,0.2c-0.1,0.1-0.2,0.3-0.3,0.6
		c0,0.3,0,0.5,0.1,0.6c0.1,0.1,0.3,0.2,0.5,0.2c0.2,0,0.3,0,0.4-0.1c0.1-0.1,0.2-0.1,0.2-0.2l-0.1-0.1c0,0.1-0.1,0.1-0.1,0.2
		C37.4,32,37.4,32,37.3,32c-0.1,0-0.2-0.1-0.2-0.2c0-0.1-0.1-0.3,0-0.5H37.8L37.8,31.4L37.8,31.4z M37,31.3c0-0.2,0.1-0.3,0.1-0.4
		c0.1-0.1,0.1-0.1,0.2-0.1c0.1,0,0.1,0,0.1,0.1c0,0.1,0,0.2,0,0.4H37L37,31.3L37,31.3z"/>
	<path class="st146" d="M38.9,30.9l0-0.2l0,0c-0.2,0.1-0.4,0.1-0.5,0.1l0,0.1c0.1,0,0.2,0,0.1,0.2l-0.1,0.7c0,0.2,0,0.2-0.2,0.2
		l0,0.1h0.7l0-0.1c-0.2,0-0.2,0-0.2-0.2l0.1-0.7c0.1-0.1,0.2-0.2,0.2-0.2c0,0,0.1,0,0.1,0.1c0,0.1,0.1,0.1,0.1,0.1
		c0.1,0,0.1-0.1,0.2-0.2c0-0.1,0-0.1-0.1-0.2c0,0-0.1-0.1-0.2-0.1C39.1,30.7,39.1,30.8,38.9,30.9L38.9,30.9L38.9,30.9L38.9,30.9z"/>
	<path class="st146" d="M40.5,30.9l0-0.2l0,0c-0.2,0.1-0.4,0.1-0.5,0.1l0,0.1c0.1,0,0.2,0,0.1,0.2L40,31.8c0,0.2,0,0.2-0.2,0.2
		l0,0.1h0.7l0-0.1c-0.2,0-0.2,0-0.2-0.2l0.1-0.7c0.1-0.1,0.2-0.2,0.2-0.2c0,0,0.1,0,0.1,0.1c0,0.1,0.1,0.1,0.1,0.1
		c0.1,0,0.1-0.1,0.2-0.2c0-0.1,0-0.1-0.1-0.2c0,0-0.1-0.1-0.2-0.1C40.7,30.7,40.6,30.8,40.5,30.9L40.5,30.9L40.5,30.9L40.5,30.9z"/>
	<path class="st145" d="M42,32.2c0.2,0,0.4-0.1,0.5-0.2c0.1-0.1,0.2-0.3,0.3-0.6c0-0.2,0-0.4-0.1-0.6c-0.1-0.1-0.3-0.2-0.5-0.2
		c-0.2,0-0.4,0.1-0.5,0.2c-0.1,0.1-0.2,0.3-0.3,0.6c0,0.3,0,0.5,0.1,0.6C41.7,32.1,41.8,32.2,42,32.2L42,32.2L42,32.2L42,32.2z
		 M42.2,30.8c0.1,0,0.1,0,0.2,0.1c0,0.1,0.1,0.3,0,0.5c0,0.3-0.1,0.4-0.2,0.5c-0.1,0.1-0.1,0.1-0.2,0.1c-0.1,0-0.1,0-0.2-0.1
		c0-0.1-0.1-0.3,0-0.5c0-0.3,0.1-0.4,0.2-0.5C42,30.8,42.1,30.8,42.2,30.8L42.2,30.8L42.2,30.8L42.2,30.8z"/>
	<path class="st146" d="M43.9,30.9l0-0.2l0,0c-0.2,0.1-0.4,0.1-0.5,0.1l0,0.1c0.1,0,0.2,0,0.1,0.2l-0.1,0.7c0,0.2,0,0.2-0.2,0.2
		l0,0.1h0.7l0-0.1c-0.2,0-0.2,0-0.2-0.2l0.1-0.7c0.1-0.1,0.2-0.2,0.2-0.2c0,0,0.1,0,0.1,0.1c0,0.1,0.1,0.1,0.1,0.1
		c0.1,0,0.1-0.1,0.2-0.2c0-0.1,0-0.1-0.1-0.2c0,0-0.1-0.1-0.2-0.1C44.1,30.7,44,30.8,43.9,30.9L43.9,30.9L43.9,30.9L43.9,30.9z"/>
	<path class="st145" d="M45.4,30.1c-0.1,0-0.2,0.1-0.2,0.2c0,0.1,0.1,0.2,0.2,0.2c0.1,0,0.2-0.1,0.2-0.2
		C45.6,30.2,45.5,30.1,45.4,30.1L45.4,30.1L45.4,30.1L45.4,30.1z M45.5,30.7L45.5,30.7c-0.2,0.1-0.4,0.1-0.6,0.1l0,0.1
		c0.2,0,0.2,0,0.2,0.2L45,31.8c0,0.2,0,0.2-0.2,0.2l0,0.1h0.7l0-0.1c-0.2,0-0.2,0-0.1-0.2L45.5,30.7L45.5,30.7L45.5,30.7z"/>
	<path class="st146" d="M47.1,31.1c0-0.2,0-0.2,0-0.3c-0.1,0-0.2-0.1-0.4-0.1c-0.2,0-0.3,0-0.4,0.1c-0.1,0.1-0.2,0.2-0.2,0.3
		c0,0.1,0,0.2,0.1,0.3c0.1,0.1,0.1,0.1,0.2,0.2c0.1,0.1,0.2,0.1,0.2,0.2c0,0,0,0.1,0,0.1c0,0.1,0,0.1-0.1,0.2c0,0-0.1,0.1-0.2,0.1
		c-0.2,0-0.3-0.1-0.3-0.3l-0.1,0c0,0.1,0,0.2,0,0.4c0.1,0,0.2,0.1,0.4,0.1c0.2,0,0.3-0.1,0.4-0.1C47,32,47,31.9,47,31.8
		c0-0.1,0-0.2-0.1-0.3c0-0.1-0.1-0.1-0.2-0.2c-0.1-0.1-0.2-0.1-0.2-0.2c-0.1-0.1-0.1-0.1-0.1-0.2c0-0.1,0-0.1,0.1-0.1
		c0,0,0.1,0,0.2,0c0.2,0,0.2,0.1,0.2,0.3L47.1,31.1L47.1,31.1L47.1,31.1z"/>
	<path class="st146" d="M49.7,31.2c0-0.2,0-0.3-0.1-0.4c-0.1-0.1-0.2-0.1-0.3-0.1c-0.2,0-0.4,0.1-0.5,0.2h0c0-0.1,0-0.1-0.1-0.2
		c-0.1,0-0.1-0.1-0.2-0.1c-0.2,0-0.3,0.1-0.4,0.2h0l0-0.2l0,0c-0.2,0.1-0.4,0.1-0.5,0.1l0,0.1c0.2,0,0.2,0,0.1,0.2l-0.1,0.7
		c0,0.2,0,0.2-0.2,0.2l0,0.1h0.7l0-0.1c-0.1,0-0.1,0-0.1-0.2l0.1-0.7c0.1-0.1,0.2-0.2,0.3-0.2c0.1,0,0.1,0,0.1,0.1
		c0,0.1,0,0.2,0,0.3l-0.1,0.6c0,0.2,0,0.2-0.2,0.2l0,0.1H49l0-0.1c-0.1,0-0.1,0-0.1-0.2l0.1-0.8c0.1-0.1,0.2-0.2,0.3-0.2
		c0.1,0,0.1,0,0.1,0.1c0,0.1,0,0.2,0,0.3l-0.1,0.6c0,0.2,0,0.2-0.2,0.2l0,0.1h0.6l0-0.1c-0.1,0-0.1,0-0.1-0.2L49.7,31.2L49.7,31.2
		L49.7,31.2z"/>
	<path class="st146" d="M4.5,28c-0.1,0.1-0.2,0.3-0.3,0.3c-0.1,0.1-0.2,0.1-0.4,0.1c-0.2,0-0.3-0.1-0.4-0.2
		c-0.1-0.2-0.1-0.5-0.1-0.8c0-0.4,0.2-0.6,0.3-0.8c0.1-0.1,0.3-0.2,0.5-0.2c0.2,0,0.2,0,0.3,0.1c0.1,0.1,0.1,0.2,0.1,0.4l0.2,0
		c0-0.2,0-0.4,0-0.5c-0.1,0-0.1-0.1-0.2-0.1c-0.1,0-0.2,0-0.3,0c-0.3,0-0.6,0.1-0.8,0.3c-0.2,0.2-0.4,0.5-0.4,0.9
		c-0.1,0.4,0,0.7,0.2,0.9c0.1,0.2,0.4,0.3,0.7,0.3c0.2,0,0.4-0.1,0.6-0.2c0.1-0.1,0.2-0.2,0.3-0.4L4.5,28L4.5,28L4.5,28z"/>
	<path class="st146" d="M6.7,28.5c-0.2,0-0.2,0-0.1-0.2l0.1-1.1l0,0c-0.2,0.1-0.3,0.1-0.5,0.1l0,0.1c0.1,0,0.1,0,0.1,0.2l-0.1,0.7
		c-0.1,0.1-0.2,0.2-0.3,0.2c-0.1,0-0.1,0-0.2-0.1c0-0.1,0-0.2,0-0.3l0.1-0.9l0,0c-0.2,0.1-0.4,0.1-0.5,0.1l0,0.1
		c0.1,0,0.1,0,0.1,0.2l-0.1,0.5c0,0.2,0,0.3,0.1,0.4c0.1,0.1,0.2,0.1,0.3,0.1c0.2,0,0.4-0.1,0.5-0.2h0l0,0.2l0,0c0.1,0,0.2,0,0.3,0
		c0.1,0,0.2,0,0.2,0L6.7,28.5L6.7,28.5L6.7,28.5z"/>
	<path class="st146" d="M8.3,27.5c0-0.2,0-0.2,0-0.3c-0.1,0-0.2-0.1-0.4-0.1c-0.2,0-0.3,0-0.4,0.1c-0.1,0.1-0.2,0.2-0.2,0.3
		c0,0.1,0,0.2,0.1,0.3c0.1,0.1,0.1,0.1,0.2,0.2c0.1,0.1,0.2,0.1,0.2,0.2c0,0,0,0.1,0,0.1c0,0.1,0,0.1-0.1,0.2c0,0-0.1,0.1-0.2,0.1
		c-0.2,0-0.3-0.1-0.3-0.3l-0.1,0c0,0.1,0,0.2,0,0.4c0.1,0,0.2,0.1,0.4,0.1c0.2,0,0.3-0.1,0.4-0.1c0.1-0.1,0.2-0.2,0.2-0.3
		c0-0.1,0-0.2-0.1-0.3c0-0.1-0.1-0.1-0.2-0.2c-0.1-0.1-0.2-0.1-0.2-0.2c-0.1-0.1-0.1-0.1-0.1-0.2c0-0.1,0-0.1,0.1-0.1
		c0,0,0.1,0,0.2,0c0.2,0,0.2,0.1,0.2,0.3L8.3,27.5L8.3,27.5L8.3,27.5z"/>
	<path class="st146" d="M8.8,27.3H9l-0.1,1c0,0.3,0.1,0.4,0.3,0.4c0.1,0,0.2,0,0.3-0.1l-0.1-0.1c0,0-0.1,0-0.1,0
		c-0.1,0-0.1-0.1-0.1-0.2l0.1-1h0.2l0-0.1H9.4l0.1-0.4H9.3C9.2,27,9,27.2,8.8,27.2L8.8,27.3L8.8,27.3L8.8,27.3z"/>
	<path class="st145" d="M10.6,28.6c0.2,0,0.4-0.1,0.5-0.2c0.1-0.1,0.2-0.3,0.3-0.6c0-0.2,0-0.4-0.1-0.6c-0.1-0.1-0.3-0.2-0.5-0.2
		c-0.2,0-0.4,0.1-0.5,0.2c-0.1,0.1-0.2,0.3-0.3,0.6c0,0.3,0,0.5,0.1,0.6C10.2,28.6,10.4,28.6,10.6,28.6L10.6,28.6L10.6,28.6
		L10.6,28.6z M10.7,27.3c0.1,0,0.1,0,0.2,0.1c0,0.1,0.1,0.3,0,0.5c0,0.3-0.1,0.4-0.2,0.5c-0.1,0.1-0.1,0.1-0.2,0.1
		c-0.1,0-0.1,0-0.2-0.1c0-0.1-0.1-0.3,0-0.5c0-0.3,0.1-0.4,0.2-0.5C10.6,27.3,10.7,27.3,10.7,27.3L10.7,27.3L10.7,27.3L10.7,27.3z"
		/>
	<path class="st146" d="M14,27.6c0-0.2,0-0.3-0.1-0.4c-0.1-0.1-0.2-0.1-0.3-0.1c-0.2,0-0.4,0.1-0.5,0.2h0c0-0.1,0-0.1-0.1-0.2
		c-0.1,0-0.1-0.1-0.2-0.1c-0.2,0-0.3,0.1-0.4,0.2h0l0-0.2l0,0c-0.2,0.1-0.4,0.1-0.5,0.1l0,0.1c0.2,0,0.2,0,0.1,0.2L12,28.3
		c0,0.2,0,0.2-0.2,0.2l0,0.1h0.7l0-0.1c-0.1,0-0.1,0-0.1-0.2l0.1-0.7c0.1-0.1,0.2-0.2,0.3-0.2c0.1,0,0.1,0,0.1,0.1
		c0,0.1,0,0.2,0,0.3l-0.1,0.6c0,0.2,0,0.2-0.2,0.2l0,0.1h0.6l0-0.1c-0.1,0-0.1,0-0.1-0.2l0.1-0.8c0.1-0.1,0.2-0.2,0.3-0.2
		c0.1,0,0.1,0,0.1,0.1c0,0.1,0,0.2,0,0.3l-0.1,0.6c0,0.2,0,0.2-0.2,0.2l0,0.1H14l0-0.1c-0.1,0-0.1,0-0.1-0.2L14,27.6L14,27.6
		L14,27.6z"/>
	<path class="st146" d="M15.6,27.5c0-0.2,0-0.2,0-0.3c-0.1,0-0.2-0.1-0.4-0.1c-0.2,0-0.3,0-0.4,0.1c-0.1,0.1-0.2,0.2-0.2,0.3
		c0,0.1,0,0.2,0.1,0.3c0.1,0.1,0.1,0.1,0.2,0.2c0.1,0.1,0.2,0.1,0.2,0.2c0,0,0,0.1,0,0.1c0,0.1,0,0.1-0.1,0.2c0,0-0.1,0.1-0.2,0.1
		c-0.2,0-0.3-0.1-0.3-0.3l-0.1,0c0,0.1,0,0.2,0,0.4c0.1,0,0.2,0.1,0.4,0.1c0.2,0,0.3-0.1,0.4-0.1c0.1-0.1,0.2-0.2,0.2-0.3
		c0-0.1,0-0.2-0.1-0.3c0-0.1-0.1-0.1-0.2-0.2c-0.1-0.1-0.2-0.1-0.2-0.2c-0.1-0.1-0.1-0.1-0.1-0.2c0-0.1,0-0.1,0.1-0.1
		c0,0,0.1,0,0.2,0c0.2,0,0.2,0.1,0.2,0.3L15.6,27.5L15.6,27.5L15.6,27.5z"/>
	<polygon class="st146" points="16.2,27.8 16.2,28 16.9,28 17,27.8 16.2,27.8 16.2,27.8 	"/>
	<path class="st146" d="M18.7,26.6H19c0.2,0,0.2,0,0.2,0.4h0.2l0-0.5h-1.7l-0.1,0.5h0.2c0.1-0.4,0.1-0.4,0.3-0.4h0.3l-0.2,1.7
		c0,0.2,0,0.2-0.3,0.2l0,0.1h0.9l0-0.1c-0.3,0-0.3,0-0.2-0.2L18.7,26.6L18.7,26.6L18.7,26.6z"/>
	<path class="st146" d="M20.2,27.4l0-0.2l0,0c-0.2,0.1-0.4,0.1-0.5,0.1l0,0.1c0.1,0,0.2,0,0.1,0.2l-0.1,0.7c0,0.2,0,0.2-0.2,0.2
		l0,0.1h0.7l0-0.1c-0.2,0-0.2,0-0.2-0.2l0.1-0.7c0.1-0.1,0.2-0.2,0.2-0.2c0,0,0.1,0,0.1,0.1c0,0.1,0.1,0.1,0.1,0.1
		c0.1,0,0.1-0.1,0.2-0.2c0-0.1,0-0.1-0.1-0.2c0,0-0.1-0.1-0.2-0.1C20.4,27.1,20.4,27.2,20.2,27.4L20.2,27.4L20.2,27.4L20.2,27.4z"/>
	<path class="st145" d="M22.4,27.6c0-0.1,0-0.3-0.1-0.3c-0.1-0.1-0.2-0.1-0.4-0.1c-0.2,0-0.3,0-0.4,0.1c-0.1,0.1-0.2,0.1-0.2,0.2
		c0,0.1,0,0.1,0.1,0.1s0.1,0,0.2-0.1c0-0.1,0.1-0.1,0.1-0.2c0,0,0.1-0.1,0.2-0.1c0.1,0,0.1,0,0.2,0.1c0,0.1,0,0.1,0,0.2l0,0.1
		l-0.2,0c-0.2,0-0.4,0.1-0.5,0.2c-0.2,0.1-0.2,0.2-0.2,0.4c0,0.1,0,0.2,0.1,0.3c0.1,0.1,0.2,0.1,0.3,0.1c0.2,0,0.4-0.1,0.5-0.2h0
		c0,0.1,0.1,0.2,0.3,0.2c0.1,0,0.2,0,0.3,0l0-0.1c0,0-0.1,0-0.1,0c-0.1,0-0.1-0.1-0.1-0.2L22.4,27.6L22.4,27.6L22.4,27.6z M22,28.3
		c-0.1,0.1-0.1,0.1-0.3,0.1c-0.1,0-0.1,0-0.1-0.1c0,0,0-0.1,0-0.2c0-0.1,0.1-0.2,0.2-0.3c0.1-0.1,0.2-0.1,0.3-0.1L22,28.3L22,28.3
		L22,28.3z"/>
	<path class="st145" d="M24,27.3L24,27.3c-0.1-0.1-0.1-0.1-0.3-0.1c-0.2,0-0.4,0.1-0.5,0.2c-0.1,0.1-0.2,0.3-0.2,0.5
		c0,0.2,0,0.4,0.1,0.6c0.1,0.1,0.2,0.2,0.4,0.2c0.2,0,0.3-0.1,0.4-0.2h0l0,0.1l0,0c0.1,0,0.2,0,0.2,0c0.1,0,0.2,0,0.2,0l0-0.1
		c-0.1,0-0.1,0-0.1-0.2l0.2-1.9l0,0c-0.2,0.1-0.3,0.1-0.5,0.1l0,0.1c0.2,0,0.2,0,0.1,0.2L24,27.3L24,27.3L24,27.3z M23.9,28.3
		c-0.1,0.1-0.1,0.2-0.2,0.2c-0.1,0-0.1-0.1-0.2-0.1c0-0.1,0-0.3,0-0.4c0-0.2,0.1-0.4,0.1-0.5c0.1-0.1,0.1-0.1,0.2-0.1
		c0.1,0,0.2,0.1,0.2,0.2L23.9,28.3L23.9,28.3L23.9,28.3z"/>
	<path class="st145" d="M26.2,27.9c0-0.2,0-0.4-0.1-0.6c-0.1-0.1-0.2-0.2-0.4-0.2c-0.2,0-0.3,0.1-0.4,0.2c-0.1,0.1-0.2,0.3-0.3,0.6
		c0,0.3,0,0.5,0.1,0.6c0.1,0.1,0.3,0.2,0.5,0.2c0.2,0,0.3,0,0.4-0.1c0.1-0.1,0.2-0.1,0.2-0.2L26,28.2c0,0.1-0.1,0.1-0.1,0.2
		c-0.1,0.1-0.2,0.1-0.2,0.1c-0.1,0-0.2-0.1-0.2-0.2c0-0.1-0.1-0.3,0-0.5H26.2L26.2,27.9L26.2,27.9z M25.4,27.8
		c0-0.2,0.1-0.3,0.1-0.4c0.1-0.1,0.1-0.1,0.2-0.1c0.1,0,0.1,0,0.1,0.1c0,0.1,0,0.2,0,0.4H25.4L25.4,27.8L25.4,27.8z"/>
	<path class="st146" d="M27.1,5.8c1,0.3,1.6,0.4,1.8,0.4c0.3,0,0.6-0.1,0.9-0.2c0.3-0.1,0.5-0.4,0.7-0.7H31l-1.5,6.2h-0.7
		c0-1.2-0.3-2.2-0.7-3c-0.8-1.4-2.2-2.1-4.3-2.1c-2.1,0-4,0.8-5.7,2.3c-1.7,1.5-3,3.6-3.8,6.3c-0.7,2.5-0.6,4.4,0.4,5.9
		c1,1.5,2.5,2.2,4.6,2.2c1.5,0,3-0.3,4.5-1c0.8-0.4,1.8-1,2.9-1.8l0.4,0.5c-0.9,0.8-1.9,1.5-3,2c-1.9,1-3.9,1.5-5.8,1.5
		c-3.2,0-5.4-0.9-6.7-2.8c-1.2-1.8-1.4-3.9-0.7-6.6c0.8-2.7,2.3-4.9,4.7-6.8c2.5-1.9,5.2-2.9,8.3-2.9C25,5.4,26.1,5.5,27.1,5.8
		L27.1,5.8L27.1,5.8z"/>
	<path class="st146" d="M32.6,5.7h16.6L48,10.4h-0.7c0.1-1.5-0.1-2.4-0.5-2.9c-0.4-0.4-1.5-0.7-3.2-0.7H42L38,21
		c-0.3,1.1-0.3,1.7,0,2c0.3,0.3,1,0.4,2.2,0.5L40,24h-8.6l0.1-0.5c1.3-0.1,2.1-0.3,2.5-0.6c0.4-0.3,0.8-1,1.1-2.2l3.9-13.8h-1.6
		c-1.6,0-2.8,0.2-3.5,0.7c-0.7,0.4-1.4,1.4-2.1,2.9H31L32.6,5.7L32.6,5.7L32.6,5.7z"/>
	<polygon class="st146" points="27.8,14.8 32.2,14.8 31.8,16.2 27.4,16.2 27.8,14.8 27.8,14.8 	"/>
	<path class="st145" d="M54,10.5c-0.7-0.3-1.7-0.5-3-0.5c-0.6,0-1,0.1-1.2,0.2c-0.2,0.1-0.3,0.4-0.4,0.7l-2.1,7.2
		c0.5,0,0.8,0.1,1,0.1c0.2,0,0.3,0,0.5,0c1.3,0,2.5-0.2,3.3-0.5c1.6-0.7,2.6-1.9,3.2-3.7C55.8,12.3,55.4,11.2,54,10.5L54,10.5
		L54,10.5z M39.5,26.8c1.1-0.1,1.9-0.3,2.3-0.6c0.4-0.3,0.7-1.1,1-2.2l3.4-12c0.3-1,0.3-1.6,0.1-1.9c-0.2-0.3-0.8-0.5-1.9-0.6
		L44.5,9h7.7c2.5,0,4.3,0.5,5.3,1.4c1.1,0.9,1.4,2.1,1,3.6c-0.5,1.9-1.7,3.2-3.4,4.1c-1.7,0.8-3.7,1.3-5.9,1.3c-0.3,0-0.7,0-1.2,0
		c-0.5,0-0.8,0-1.1,0l-1.4,5c-0.3,1-0.3,1.7-0.1,2c0.3,0.3,1,0.4,2.1,0.5l-0.1,0.5h-8.2L39.5,26.8L39.5,26.8L39.5,26.8z"/>
	<path class="st145" d="M64.7,20.2l-1.2-7.6l-5.5,7.6H64.7L64.7,20.2L64.7,20.2z M50,27.3l0.1-0.5c0.8-0.1,1.4-0.4,1.9-0.8
		c0.5-0.5,1.5-1.7,3-3.7L65,8.7h0.6l2.9,15.7c0.2,1,0.4,1.7,0.6,1.9c0.2,0.2,0.7,0.4,1.3,0.5l-0.1,0.5h-7.5l0.1-0.5
		c0.9-0.1,1.5-0.2,1.7-0.3c0.3-0.1,0.5-0.4,0.6-0.8c0-0.1,0.1-0.4,0.1-0.7c0-0.3,0-0.7-0.1-1.1l-0.5-2.7h-7.7
		c-1.3,1.8-2.1,2.9-2.3,3.3c-0.3,0.4-0.4,0.7-0.5,0.9c-0.1,0.5,0,0.8,0.3,1c0.2,0.1,0.7,0.2,1.3,0.2l-0.1,0.5H50L50,27.3L50,27.3z"
		/>
	<path class="st146" d="M70.6,9h16.6L86,13.7h-0.7c0.1-1.5-0.1-2.4-0.5-2.9c-0.4-0.4-1.4-0.7-3.1-0.7h-1.6l-4,14.1
		c-0.3,1.1-0.3,1.7,0,2c0.3,0.3,1,0.4,2.2,0.5L78,27.3h-8.6l0.1-0.5c1.3-0.1,2.1-0.3,2.5-0.6c0.4-0.3,0.8-1,1.1-2.2l3.9-13.8h-1.6
		c-1.6,0-2.8,0.2-3.5,0.7c-0.7,0.4-1.4,1.4-2.1,2.9h-0.7L70.6,9L70.6,9L70.6,9z"/>
</g>
</svg>
