<?xml version="1.0" encoding="utf-8"?>
<!-- Generator: Adobe Illustrator 19.2.1, SVG Export Plug-In . SVG Version: 6.00 Build 0)  -->
<svg version="1.1" id="Layer_1" xmlns="http://www.w3.org/2000/svg" xmlns:xlink="http://www.w3.org/1999/xlink" x="0px" y="0px"
	 viewBox="0 0 200 200" style="enable-background:new 0 0 200 200;" xml:space="preserve">
<style type="text/css">
	.st0{fill:#423938;}
</style>
<g>
	<path class="st0" d="M100,197.2c-53.6,0-97.2-43.6-97.2-97.2S46.4,2.8,100,2.8c53.6,0,97.2,43.6,97.2,97.2S153.6,197.2,100,197.2z
		 M100,7.7C49.1,7.7,7.7,49.1,7.7,100s41.4,92.3,92.3,92.3s92.3-41.4,92.3-92.3S150.9,7.7,100,7.7z"/>
</g>
<g>
	<path class="st0" d="M73,120.8c-2.3,0-4.2,1.9-4.2,4.2c0,2.3,1.9,4.2,4.2,4.2c2.3,0,4.2-1.9,4.2-4.2
		C77.1,122.7,75.2,120.8,73,120.8z"/>
	<path class="st0" d="M127,120.8c-2.3,0-4.2,1.9-4.2,4.2c0,2.3,1.9,4.2,4.2,4.2c2.3,0,4.2-1.9,4.2-4.2
		C131.2,122.7,129.3,120.8,127,120.8z"/>
	<path class="st0" d="M120.8,106.2h-4.2c-1.2,0-2.1,0.8-2.1,2.1c0,1.2,0.8,2.1,2.1,2.1h4.2c1.2,0,2.1-0.8,2.1-2.1
		C122.9,107.1,122.1,106.2,120.8,106.2z"/>
	<path class="st0" d="M91.7,87.5c0-1.2-0.8-2.1-2.1-2.1H60.5c-1.2,0-2.1,0.8-2.1,2.1c0,1.2,0.8,2.1,2.1,2.1h29.1
		C90.8,89.6,91.7,88.8,91.7,87.5z"/>
	<path class="st0" d="M60.5,77.1h34.1c1.2,0,2.1-0.8,2.1-2.1c0-1.2-0.8-2.1-2.1-2.1H60.5c-1.2,0-2.1,0.8-2.1,2.1
		C58.4,76.3,59.2,77.1,60.5,77.1z"/>
	<path class="st0" d="M149.3,101.9l-8.1-3.3L136,77.7c-0.6-2.9-3.1-4.8-6-4.8h-19.6v-6.2c0-2.3-1.9-4.2-4.2-4.2H73v0H48v20.7v10.6
		v4.1v25c0,2.3,1.9,4.2,4.2,4.2h8.5c1,5.9,6.1,10.4,12.3,10.4c6.2,0,11.3-4.5,12.3-10.4h29.5c1,5.9,6.1,10.4,12.3,10.4
		c6.2,0,11.3-4.5,12.3-10.4h8.5c2.3,0,4.2-1.9,4.2-4.2v-17.1C152,104,151,102.5,149.3,101.9z M52.2,88.1v-4.8V66.7l22.1,0l0,0h32V75
		v2.1c0,10.3-8.4,18.7-18.7,18.7H52.2V88.1z M73,133.3c-4.9,0-8.8-4.3-8.3-9.3c0.4-3.8,3.5-6.9,7.3-7.3c5-0.6,9.3,3.4,9.3,8.3
		C81.3,129.5,77.5,133.3,73,133.3z M135.3,125.9c-0.4,3.9-3.5,7-7.4,7.4c-5.3,0.6-9.7-3.9-9.2-9.2c0.4-3.9,3.5-7,7.4-7.4
		C131.4,116.1,135.9,120.6,135.3,125.9z M147.9,122.9L147.9,122.9h-8.5c-0.7-4.1-3.5-7.6-7.2-9.3c-0.1,0-0.2-0.1-0.2-0.1
		c-0.1,0-0.1,0-0.2-0.1c-0.1-0.1-0.3-0.1-0.4-0.2c0,0-0.1,0-0.1,0c-0.2-0.1-0.3-0.1-0.5-0.2c0,0-0.1,0-0.1,0c-0.2,0-0.3-0.1-0.5-0.1
		c0,0-0.1,0-0.1,0c-0.2,0-0.3-0.1-0.5-0.1c0,0-0.1,0-0.1,0c-0.2,0-0.3-0.1-0.5-0.1c0,0-0.1,0-0.1,0c-0.2,0-0.3,0-0.5-0.1
		c-0.1,0-0.1,0-0.2,0c-0.2,0-0.3,0-0.5,0c-0.1,0-0.1,0-0.2,0c-0.2,0-0.4,0-0.6,0s-0.4,0-0.6,0c-0.1,0-0.1,0-0.2,0
		c-0.2,0-0.3,0-0.5,0c-0.1,0-0.1,0-0.2,0c-0.2,0-0.3,0-0.5,0.1c0,0-0.1,0-0.1,0c-0.2,0-0.3,0.1-0.5,0.1c0,0-0.1,0-0.1,0
		c-0.2,0-0.3,0.1-0.5,0.1c0,0-0.1,0-0.1,0c-0.2,0-0.3,0.1-0.5,0.1c0,0-0.1,0-0.1,0c-0.2,0-0.3,0.1-0.5,0.2c0,0-0.1,0-0.1,0
		c-0.1,0.1-0.3,0.1-0.4,0.2c-0.1,0-0.1,0-0.2,0.1c-0.1,0-0.2,0.1-0.2,0.1c-3.7,1.7-6.5,5.2-7.2,9.3H85.3c-0.7-4.1-3.5-7.6-7.2-9.3
		c-0.1,0-0.2-0.1-0.2-0.1c-0.1,0-0.1,0-0.2-0.1c-0.1-0.1-0.3-0.1-0.4-0.2c0,0-0.1,0-0.1,0c-0.2-0.1-0.3-0.1-0.5-0.2c0,0-0.1,0-0.1,0
		c-0.2,0-0.3-0.1-0.5-0.1c0,0-0.1,0-0.1,0c-0.2,0-0.3-0.1-0.5-0.1c0,0-0.1,0-0.1,0c-0.2,0-0.3-0.1-0.5-0.1c0,0-0.1,0-0.1,0
		c-0.2,0-0.3,0-0.5-0.1c-0.1,0-0.1,0-0.2,0c-0.2,0-0.3,0-0.5,0c-0.1,0-0.1,0-0.2,0c-0.2,0-0.4,0-0.6,0c-0.2,0-0.4,0-0.6,0
		c-0.1,0-0.1,0-0.2,0c-0.2,0-0.3,0-0.5,0c-0.1,0-0.1,0-0.2,0c-0.2,0-0.3,0-0.5,0.1c0,0-0.1,0-0.1,0c-0.2,0-0.3,0.1-0.5,0.1
		c0,0-0.1,0-0.1,0c-0.2,0-0.3,0.1-0.5,0.1c0,0-0.1,0-0.1,0c-0.2,0-0.3,0.1-0.5,0.1c0,0-0.1,0-0.1,0c-0.2,0-0.3,0.1-0.5,0.2
		c0,0-0.1,0-0.1,0c-0.1,0.1-0.3,0.1-0.4,0.2c-0.1,0-0.1,0-0.2,0.1c-0.1,0-0.2,0.1-0.2,0.1c-3.7,1.7-6.5,5.2-7.2,9.3h-8.5V100h35.4
		c12.7,0,22.9-10.2,22.9-22.9H130c1,0,1.9,0.8,2.1,1.7l4.7,19.1h-15.3c-1.5,0-2.7-1.2-2.7-2.7v-9.8c0-1.1-0.9-2-2-2.1
		c-1.3,0-2.2,0.8-2.2,2.1v9.8c0,3.8,3.1,6.9,6.9,6.9h17.3l9.2,3.5V122.9z"/>
</g>
</svg>
