<?xml version="1.0" encoding="utf-8"?>
<!-- Generator: Adobe Illustrator 19.2.1, SVG Export Plug-In . SVG Version: 6.00 Build 0)  -->
<svg version="1.1" id="Layer_1" xmlns="http://www.w3.org/2000/svg" xmlns:xlink="http://www.w3.org/1999/xlink" x="0px" y="0px"
	 viewBox="0 0 200 200" style="enable-background:new 0 0 200 200;" xml:space="preserve">
<style type="text/css">
	.st0{fill:#423938;}
</style>
<g>
	<path class="st0" d="M100,197.2c-53.6,0-97.2-43.6-97.2-97.2S46.4,2.8,100,2.8c53.6,0,97.2,43.6,97.2,97.2S153.6,197.2,100,197.2z
		 M100,7.7C49.1,7.7,7.7,49.1,7.7,100s41.4,92.3,92.3,92.3s92.3-41.4,92.3-92.3S150.9,7.7,100,7.7z"/>
</g>
<g>
	<path class="st0" d="M152.6,98.6l-6.2-3.6l-3.5-15.1c-0.9-4-4.5-6.8-8.6-6.8h-17.8v-2.8c0-1.2-1-2.1-2.1-2.1H48.4
		c-1.2,0-2.1,1-2.1,2.1v51c0,1.2,1,2.1,2.1,2.1h6.9c1,4.9,5.3,8.6,10.5,8.6c5.2,0,9.5-3.7,10.5-8.6h43.3v0c1,4.9,5.3,8.6,10.5,8.6
		c5.2,0,9.5-3.7,10.5-8.6h10.9c1.2,0,2.1-1,2.1-2.1v-20.8C153.7,99.7,153.3,99,152.6,98.6z M65.8,127.6c-3.5,0-6.4-2.9-6.4-6.4
		c0-3.5,2.9-6.4,6.4-6.4c3.5,0,6.4,2.9,6.4,6.4S69.4,127.6,65.8,127.6z M112.2,111.4H92.9c-1.2,0-2.1,1-2.1,2.1c0,1.2,1,2.1,2.1,2.1
		h19.3v3.4H76.3c-1-4.9-5.3-8.6-10.5-8.6s-9.5,3.7-10.5,8.6h-4.7V108h61.6V111.4z M112.2,75.2v28.5H50.6V72.4h61.6V75.2z
		 M134.3,77.3c2.1,0,4,1.5,4.5,3.5l3.1,13.4h-13V77.3H134.3z M130.1,127.6c-3.4,0-6.2-2.7-6.4-6c0-0.1,0-0.3,0-0.4
		c0-0.1,0-0.3,0-0.4c0.2-3.3,3-6,6.4-6c3.5,0,6.4,2.9,6.4,6.4S133.7,127.6,130.1,127.6z M149.4,119.1h-8.8c-1-4.9-5.3-8.6-10.5-8.6
		c-5.2,0-9.5,3.7-10.5,8.6h-3.2V77.3h8.1v19.1c0,1.2,1,2.1,2.1,2.1H144l5.4,3.2v0.7h-6.2c-1.2,0-2.1,1-2.1,2.1v6.5
		c0,1.2,1,2.1,2.1,2.1h6.2V119.1z M149.4,108.9h-4.1v-2.3h4.1V108.9z"/>
	<path class="st0" d="M83.9,115.7h1.8c1.2,0,2.1-1,2.1-2.1c0-1.2-1-2.1-2.1-2.1h-1.8c-1.2,0-2.1,1-2.1,2.1
		C81.7,114.7,82.7,115.7,83.9,115.7z"/>
</g>
</svg>
