<?xml version="1.0" encoding="utf-8"?>
<!-- Generator: Adobe Illustrator 19.2.1, SVG Export Plug-In . SVG Version: 6.00 Build 0)  -->
<svg version="1.1" id="Layer_1" xmlns="http://www.w3.org/2000/svg" xmlns:xlink="http://www.w3.org/1999/xlink" x="0px" y="0px"
	 viewBox="0 0 200 200" style="enable-background:new 0 0 200 200;" xml:space="preserve">
<style type="text/css">
	.st0{fill:#423938;}
</style>
<g>
	<path class="st0" d="M100,197.6c-53.8,0-97.6-43.8-97.6-97.6S46.2,2.4,100,2.4c53.8,0,97.6,43.8,97.6,97.6S153.8,197.6,100,197.6z
		 M100,7.4C48.9,7.4,7.4,48.9,7.4,100s41.6,92.6,92.6,92.6s92.6-41.6,92.6-92.6S151.1,7.4,100,7.4z"/>
</g>
<g transform="translate(1 1)">
	<g>
		<g>
			<path class="st0" d="M56,124.6c-2.3,0-4.1,1.8-4.1,4.1c0,2.3,1.8,4.1,4.1,4.1s4.1-1.8,4.1-4.1C60.1,126.4,58.3,124.6,56,124.6z"
				/>
			<path class="st0" d="M76.5,124.6c-2.3,0-4.1,1.8-4.1,4.1c0,2.3,1.8,4.1,4.1,4.1s4.1-1.8,4.1-4.1
				C80.6,126.4,78.7,124.6,76.5,124.6z"/>
			<path class="st0" d="M142,124.6c-2.3,0-4.1,1.8-4.1,4.1c0,2.3,1.8,4.1,4.1,4.1c2.3,0,4.1-1.8,4.1-4.1
				C146.1,126.4,144.2,124.6,142,124.6z"/>
			<path class="st0" d="M133.8,98h16.4c1.2,0,2-0.8,2-2V84.3c0-4.9-3.9-8.8-8.8-8.8h-9.6c-1.2,0-2,0.8-2,2v18.4
				C131.7,97.2,132.6,98,133.8,98z M135.8,79.6h7.6c2.7,0,4.7,2,4.7,4.7v9.6h-12.3V79.6z"/>
			<path class="st0" d="M54,65.2c-1.2,0-2,0.8-2,2v36.8c0,1.2,0.8,2,2,2s2-0.8,2-2V67.3C56,66,55.2,65.2,54,65.2z"/>
			<path class="st0" d="M66.3,65.2c-1.2,0-2,0.8-2,2v36.8c0,1.2,0.8,2,2,2s2-0.8,2-2V67.3C68.3,66,67.5,65.2,66.3,65.2z"/>
			<path class="st0" d="M78.5,65.2c-1.2,0-2,0.8-2,2v36.8c0,1.2,0.8,2,2,2s2-0.8,2-2V67.3C80.6,66,79.8,65.2,78.5,65.2z"/>
			<path class="st0" d="M90.8,65.2c-1.2,0-2,0.8-2,2v36.8c0,1.2,0.8,2,2,2c1.2,0,2-0.8,2-2V67.3C92.9,66,92,65.2,90.8,65.2z"/>
			<path class="st0" d="M103.1,65.2c-1.2,0-2,0.8-2,2v36.8c0,1.2,0.8,2,2,2s2-0.8,2-2V67.3C105.1,66,104.3,65.2,103.1,65.2z"/>
			<path class="st0" d="M115.4,65.2c-1.2,0-2,0.8-2,2v36.8c0,1.2,0.8,2,2,2s2-0.8,2-2V67.3C117.4,66,116.6,65.2,115.4,65.2z"/>
			<path class="st0" d="M158.4,110.3V82.4c0-7.2-5.9-13.1-13.1-13.1h-15.6V59.1c0-1.2-0.8-2-2-2h-86c-1.2,0-2,0.8-2,2v51.2
				c-1.2,0-2,0.8-2,2v16.4c0,1.2,0.8,2,2,2h4.3c1,5.8,6,10.2,12.1,10.2c4.3,0,8-2.2,10.2-5.5c2.2,3.3,6,5.5,10.2,5.5
				c6.1,0,11.1-4.4,12.1-10.2h41.3c1,5.8,6,10.2,12.1,10.2c6.1,0,11.1-4.4,12.1-10.2h4.3c1.2,0,2-0.8,2-2v-16.4
				C160.4,111.1,159.6,110.3,158.4,110.3z M145.3,73.4c4.9,0,9,4.1,9,9v27.8h-24.6V73.4L145.3,73.4L145.3,73.4z M43.7,61.1h81.9
				v10.2v38.9H43.7V61.1z M56,136.9c-4.5,0-8.2-3.7-8.2-8.2c0-4.5,3.7-8.2,8.2-8.2s8.2,3.7,8.2,8.2C64.2,133.2,60.5,136.9,56,136.9z
				 M76.5,136.9c-4.5,0-8.2-3.7-8.2-8.2c0-4.5,3.7-8.2,8.2-8.2c4.5,0,8.2,3.7,8.2,8.2C84.7,133.2,81,136.9,76.5,136.9z M142,136.9
				c-4.5,0-8.2-3.7-8.2-8.2c0-4.5,3.7-8.2,8.2-8.2c4.5,0,8.2,3.7,8.2,8.2C150.2,133.2,146.5,136.9,142,136.9z M156.3,126.6h-2.2
				c-0.7-4.1-3.4-7.5-7.1-9.1c-0.1,0-0.2-0.1-0.2-0.1c-0.1,0-0.1,0-0.2-0.1c-0.1-0.1-0.3-0.1-0.4-0.2c0,0-0.1,0-0.1,0
				c-0.2-0.1-0.3-0.1-0.5-0.2c0,0-0.1,0-0.1,0c-0.2,0-0.3-0.1-0.5-0.1c0,0-0.1,0-0.1,0c-0.2,0-0.3-0.1-0.5-0.1c0,0-0.1,0-0.1,0
				c-0.2,0-0.3-0.1-0.5-0.1c0,0-0.1,0-0.1,0c-0.1,0-0.3,0-0.5-0.1c-0.1,0-0.1,0-0.2,0c-0.2,0-0.3,0-0.5,0c-0.1,0-0.1,0-0.2,0
				c-0.2,0-0.4,0-0.6,0c-0.2,0-0.4,0-0.6,0c-0.1,0-0.1,0-0.2,0c-0.2,0-0.3,0-0.5,0c-0.1,0-0.1,0-0.2,0c-0.2,0-0.3,0-0.5,0.1
				c0,0-0.1,0-0.1,0c-0.2,0-0.3,0.1-0.5,0.1c0,0-0.1,0-0.1,0c-0.2,0-0.3,0.1-0.5,0.1c0,0-0.1,0-0.1,0c-0.2,0-0.3,0.1-0.5,0.1
				c0,0-0.1,0-0.1,0c-0.2,0-0.3,0.1-0.5,0.2c0,0-0.1,0-0.1,0c-0.1,0.1-0.3,0.1-0.4,0.2c-0.1,0-0.1,0-0.2,0.1c-0.1,0-0.2,0.1-0.2,0.1
				c-3.7,1.7-6.4,5.1-7.1,9.1H88.6c-0.7-4.1-3.4-7.5-7.1-9.1c-0.1,0-0.2-0.1-0.2-0.1c-0.1,0-0.1,0-0.2-0.1c-0.1-0.1-0.3-0.1-0.4-0.2
				c0,0-0.1,0-0.1,0c-0.1-0.1-0.3-0.1-0.5-0.2c0,0-0.1,0-0.1,0c-0.2,0-0.3-0.1-0.5-0.1c0,0-0.1,0-0.1,0c-0.2,0-0.3-0.1-0.5-0.1
				c0,0-0.1,0-0.1,0c-0.2,0-0.3-0.1-0.5-0.1c0,0-0.1,0-0.1,0c-0.1,0-0.3,0-0.5-0.1c-0.1,0-0.1,0-0.2,0c-0.2,0-0.3,0-0.5,0
				c-0.1,0-0.1,0-0.2,0c-0.2,0-0.4,0-0.6,0c-0.2,0-0.5,0-0.7,0c-0.1,0-0.1,0-0.2,0c-0.2,0-0.4,0-0.6,0.1c-0.1,0-0.1,0-0.2,0
				c-3.6,0.5-6.7,2.5-8.6,5.4c-1.9-2.9-5-4.9-8.6-5.4c-0.1,0-0.1,0-0.2,0c-0.2,0-0.4,0-0.6-0.1c-0.1,0-0.1,0-0.2,0
				c-0.2,0-0.5,0-0.7,0c-0.2,0-0.4,0-0.6,0c-0.1,0-0.1,0-0.2,0c-0.2,0-0.3,0-0.5,0c-0.1,0-0.1,0-0.2,0c-0.2,0-0.3,0-0.5,0.1
				c0,0-0.1,0-0.1,0c-0.2,0-0.3,0.1-0.5,0.1c0,0-0.1,0-0.1,0c-0.2,0-0.3,0.1-0.5,0.1c0,0-0.1,0-0.1,0c-0.2,0-0.3,0.1-0.5,0.1
				c0,0-0.1,0-0.1,0c-0.2,0-0.3,0.1-0.5,0.2c0,0-0.1,0-0.1,0c-0.1,0.1-0.3,0.1-0.4,0.2c-0.1,0-0.1,0-0.2,0.1c-0.1,0-0.2,0.1-0.2,0.1
				c-3.7,1.7-6.4,5.1-7.1,9.1h-2.2v-12.3h86h28.7L156.3,126.6L156.3,126.6z"/>
			<path class="st0" d="M133.8,104.1h4.1c1.2,0,2-0.8,2-2s-0.8-2-2-2h-4.1c-1.2,0-2,0.8-2,2S132.6,104.1,133.8,104.1z"/>
		</g>
	</g>
</g>
</svg>
