<?xml version="1.0" encoding="utf-8"?>
<!-- Generator: Adobe Illustrator 19.2.1, SVG Export Plug-In . SVG Version: 6.00 Build 0)  -->
<svg version="1.1" id="Layer_1" xmlns="http://www.w3.org/2000/svg" xmlns:xlink="http://www.w3.org/1999/xlink" x="0px" y="0px"
	 viewBox="0 0 200 200" style="enable-background:new 0 0 200 200;" xml:space="preserve">
<style type="text/css">
	.st0{fill:#423938;}
</style>
<g>
	<path class="st0" d="M100,197.2c-53.6,0-97.2-43.6-97.2-97.2S46.4,2.8,100,2.8c53.6,0,97.2,43.6,97.2,97.2S153.6,197.2,100,197.2z
		 M100,7.7C49.1,7.7,7.7,49.1,7.7,100s41.4,92.3,92.3,92.3s92.3-41.4,92.3-92.3S150.9,7.7,100,7.7z"/>
</g>
<g transform="translate(1 1)">
	<g>
		<g>
			<path class="st0" d="M60.4,116.5c-2,0-3.7,1.7-3.7,3.7s1.7,3.7,3.7,3.7s3.7-1.7,3.7-3.7C64.1,118.1,62.4,116.5,60.4,116.5z"/>
			<path class="st0" d="M78.8,116.5c-2,0-3.7,1.7-3.7,3.7s1.7,3.7,3.7,3.7s3.7-1.7,3.7-3.7S80.8,116.5,78.8,116.5z"/>
			<path class="st0" d="M137.6,116.5c-2,0-3.7,1.7-3.7,3.7s1.7,3.7,3.7,3.7c2,0,3.7-1.7,3.7-3.7S139.6,116.5,137.6,116.5z"/>
			<path class="st0" d="M130.2,92.6H145c1.1,0,1.8-0.7,1.8-1.8V80.3c0-4.4-3.5-7.9-7.9-7.9h-8.6c-1.1,0-1.8,0.7-1.8,1.8v16.5
				C128.4,91.8,129.1,92.6,130.2,92.6z M132.1,76h6.8c2.4,0,4.2,1.8,4.2,4.2v8.6h-11V76z"/>
			<path class="st0" d="M152.3,103.6v-25c0-6.4-5.3-11.8-11.8-11.8h-14h-3.7v36.8H49.4h-3.7c-1.1,0-1.8,0.7-1.8,1.8v14.7
				c0,1.1,0.7,1.8,1.8,1.8h3.8c0.9,5.2,5.4,9.2,10.9,9.2c3.8,0,7.2-2,9.2-5c2,3,5.4,5,9.2,5c5.4,0,10-4,10.9-9.2h37.1
				c0.9,5.2,5.4,9.2,10.9,9.2c5.4,0,10-4,10.9-9.2h3.8c1.1,0,1.8-0.7,1.8-1.8v-14.7C154.1,104.3,153.4,103.6,152.3,103.6z
				 M126.6,70.5h14c4.4,0,8.1,3.7,8.1,8.1v25h-22.1V70.5z M60.4,127.5c-4,0-7.4-3.3-7.4-7.4c0-4,3.3-7.4,7.4-7.4s7.4,3.3,7.4,7.4
				S64.4,127.5,60.4,127.5z M78.8,127.5c-4,0-7.4-3.3-7.4-7.4c0-4,3.3-7.4,7.4-7.4s7.4,3.3,7.4,7.4
				C86.1,124.2,82.8,127.5,78.8,127.5z M137.6,127.5c-4,0-7.4-3.3-7.4-7.4c0-4,3.3-7.4,7.4-7.4c4,0,7.4,3.3,7.4,7.4
				S141.6,127.5,137.6,127.5z M150.5,118.3L150.5,118.3h-2c-0.6-3.7-3.1-6.7-6.3-8.2c-0.1,0-0.1-0.1-0.2-0.1c0,0-0.1,0-0.1-0.1
				c-0.1,0-0.2-0.1-0.4-0.1c0,0-0.1,0-0.1,0c-0.1,0-0.3-0.1-0.4-0.1c0,0-0.1,0-0.1,0c-0.1,0-0.3-0.1-0.4-0.1c0,0-0.1,0-0.1,0
				c-0.1,0-0.3-0.1-0.4-0.1c0,0-0.1,0-0.1,0c-0.1,0-0.3-0.1-0.4-0.1c0,0-0.1,0-0.1,0c-0.1,0-0.3,0-0.4-0.1c0,0-0.1,0-0.1,0
				c-0.1,0-0.3,0-0.4,0c0,0-0.1,0-0.1,0c-0.2,0-0.4,0-0.5,0c-0.2,0-0.4,0-0.5,0c0,0-0.1,0-0.1,0c-0.1,0-0.3,0-0.4,0c0,0-0.1,0-0.1,0
				c-0.1,0-0.3,0-0.4,0.1c0,0-0.1,0-0.1,0c-0.1,0-0.3,0-0.4,0.1c0,0-0.1,0-0.1,0c-0.1,0-0.3,0.1-0.4,0.1c0,0-0.1,0-0.1,0
				c-0.1,0-0.3,0.1-0.4,0.1c0,0-0.1,0-0.1,0c-0.1,0-0.3,0.1-0.4,0.1c0,0-0.1,0-0.1,0c-0.1,0-0.2,0.1-0.4,0.1c0,0-0.1,0-0.1,0.1
				c-0.1,0-0.1,0.1-0.2,0.1c-3.3,1.5-5.7,4.6-6.3,8.2H89.7c-0.6-3.7-3.1-6.7-6.3-8.2c-0.1,0-0.1-0.1-0.2-0.1c0,0-0.1,0-0.1-0.1
				c-0.1,0-0.2-0.1-0.4-0.1c0,0-0.1,0-0.1,0c-0.1,0-0.3-0.1-0.4-0.1c0,0-0.1,0-0.1,0c-0.1,0-0.3-0.1-0.4-0.1c0,0-0.1,0-0.1,0
				c-0.1,0-0.3-0.1-0.4-0.1c0,0-0.1,0-0.1,0c-0.1,0-0.3-0.1-0.4-0.1c0,0-0.1,0-0.1,0c-0.1,0-0.3,0-0.4-0.1c0,0-0.1,0-0.1,0
				c-0.1,0-0.3,0-0.4,0c0,0-0.1,0-0.1,0c-0.2,0-0.4,0-0.5,0c-0.2,0-0.4,0-0.7,0c-0.1,0-0.1,0-0.2,0c-0.2,0-0.3,0-0.5,0
				c-0.1,0-0.1,0-0.2,0c-3.2,0.4-6,2.3-7.7,4.9c-1.7-2.6-4.5-4.4-7.7-4.9c-0.1,0-0.1,0-0.2,0c-0.2,0-0.3,0-0.5,0c-0.1,0-0.1,0-0.2,0
				c-0.2,0-0.4,0-0.7,0c-0.2,0-0.4,0-0.5,0c0,0-0.1,0-0.1,0c-0.1,0-0.3,0-0.4,0c0,0-0.1,0-0.1,0c-0.1,0-0.3,0-0.4,0.1
				c0,0-0.1,0-0.1,0c-0.1,0-0.3,0-0.4,0.1c0,0-0.1,0-0.1,0c-0.1,0-0.3,0.1-0.4,0.1c0,0-0.1,0-0.1,0c-0.1,0-0.3,0.1-0.4,0.1
				c0,0-0.1,0-0.1,0c-0.1,0-0.3,0.1-0.4,0.1c0,0-0.1,0-0.1,0c-0.1,0-0.2,0.1-0.4,0.1c0,0-0.1,0-0.1,0.1c-0.1,0-0.1,0.1-0.2,0.1
				c-3.3,1.5-5.7,4.6-6.3,8.2h-2v-11h77.2h25.7V118.3z"/>
			<path class="st0" d="M130.2,98.1h3.7c1.1,0,1.8-0.7,1.8-1.8s-0.7-1.8-1.8-1.8h-3.7c-1.1,0-1.8,0.7-1.8,1.8S129.1,98.1,130.2,98.1
				z"/>
		</g>
	</g>
</g>
</svg>
