<?xml version="1.0" encoding="utf-8"?>
<!-- Generator: Adobe Illustrator 19.2.1, SVG Export Plug-In . SVG Version: 6.00 Build 0)  -->
<svg version="1.1" id="Layer_1" xmlns="http://www.w3.org/2000/svg" xmlns:xlink="http://www.w3.org/1999/xlink" x="0px" y="0px"
	 viewBox="0 0 200 200" style="enable-background:new 0 0 200 200;" xml:space="preserve">
<style type="text/css">
	.st0{fill:#423938;}
</style>
<g>
	<path class="st0" d="M100,197.6c-53.8,0-97.6-43.8-97.6-97.6S46.2,2.4,100,2.4c53.8,0,97.6,43.8,97.6,97.6S153.8,197.6,100,197.6z
		 M100,7.4C48.9,7.4,7.4,48.9,7.4,100s41.6,92.6,92.6,92.6s92.6-41.6,92.6-92.6S151.1,7.4,100,7.4z"/>
</g>
<g>
	<g>
		<path class="st0" d="M67.4,118.8c-2.8,0-5,2.3-5,5c0,2.8,2.3,5,5,5c2.8,0,5-2.3,5-5C72.5,121,70.2,118.8,67.4,118.8z"/>
		<path class="st0" d="M132.6,118.8c-2.8,0-5,2.3-5,5c0,2.8,2.3,5,5,5c2.8,0,5-2.3,5-5C137.6,121,135.3,118.8,132.6,118.8z"/>
		<path class="st0" d="M125,101.3h-5c-1.5,0-2.5,1-2.5,2.5s1,2.5,2.5,2.5h5c1.5,0,2.5-1,2.5-2.5S126.5,101.3,125,101.3z"/>
		<path class="st0" d="M159.4,96l-9.8-4l-6.3-25c-0.8-3.5-3.8-5.8-7.3-5.8h-27.8c0,1.4,0,3.3,0,5h27.8c1.3,0,2.3,1,2.5,2l5.7,23
			h-18.5c-1.8,0-3.3-1.5-3.3-3.3V76.2c0-1.3-1-2.5-2.4-2.5c-1.6-0.1-2.6,1-2.6,2.5V88c0,4.5,3.7,8.3,8.3,8.3h20.8l11,4.3v20.8h0
			h-10.2c-0.8-5-4.2-9.2-8.6-11.2c-0.1,0-0.2-0.1-0.3-0.1c-0.1,0-0.1-0.1-0.2-0.1c-0.2-0.1-0.3-0.1-0.5-0.2c0,0-0.1,0-0.1,0
			c-0.2-0.1-0.4-0.1-0.6-0.2c0,0-0.1,0-0.1,0c-0.2-0.1-0.4-0.1-0.6-0.2c0,0-0.1,0-0.1,0c-0.2,0-0.4-0.1-0.6-0.1c0,0-0.1,0-0.1,0
			c-0.2,0-0.4-0.1-0.6-0.1c-0.1,0-0.1,0-0.2,0c-0.2,0-0.4,0-0.6-0.1c-0.1,0-0.1,0-0.2,0c-0.2,0-0.4,0-0.6,0c-0.1,0-0.1,0-0.2,0
			c-0.2,0-0.5,0-0.7,0c-0.2,0-0.5,0-0.7,0c-0.1,0-0.1,0-0.2,0c-0.2,0-0.4,0-0.6,0c-0.1,0-0.1,0-0.2,0c-0.2,0-0.4,0-0.6,0.1
			c-0.1,0-0.1,0-0.2,0c-0.2,0-0.4,0.1-0.6,0.1c0,0-0.1,0-0.1,0c-0.2,0-0.4,0.1-0.6,0.1c0,0-0.1,0-0.1,0c-0.2,0.1-0.4,0.1-0.6,0.2
			c0,0-0.1,0-0.1,0c-0.2,0.1-0.4,0.1-0.6,0.2c0,0-0.1,0-0.1,0c-0.2,0.1-0.3,0.1-0.5,0.2c-0.1,0-0.1,0.1-0.2,0.1
			c-0.1,0-0.2,0.1-0.3,0.1c-4.5,2-7.8,6.2-8.6,11.2H82.3c-0.8-5-4.2-9.1-8.6-11.2c-0.1,0-0.2-0.1-0.3-0.1c-0.1,0-0.1-0.1-0.2-0.1
			c-0.2-0.1-0.3-0.1-0.5-0.2c0,0-0.1,0-0.1,0c-0.2-0.1-0.4-0.1-0.6-0.2c0,0-0.1,0-0.1,0c-0.2-0.1-0.4-0.1-0.6-0.2c0,0-0.1,0-0.1,0
			c-0.2,0-0.4-0.1-0.6-0.1c0,0-0.1,0-0.1,0c-0.2,0-0.4-0.1-0.6-0.1c-0.1,0-0.1,0-0.2,0c-0.2,0-0.4,0-0.6-0.1c-0.1,0-0.1,0-0.2,0
			c-0.2,0-0.4,0-0.6,0c-0.1,0-0.1,0-0.2,0c-0.2,0-0.5,0-0.7,0c-0.2,0-0.5,0-0.7,0c-0.1,0-0.1,0-0.2,0c-0.2,0-0.4,0-0.6,0
			c-0.1,0-0.1,0-0.2,0c-0.2,0-0.4,0-0.6,0.1c-0.1,0-0.1,0-0.2,0c-0.2,0-0.4,0.1-0.6,0.1c0,0-0.1,0-0.1,0c-0.2,0-0.4,0.1-0.6,0.1
			c0,0-0.1,0-0.1,0c-0.2,0.1-0.4,0.1-0.6,0.2c0,0-0.1,0-0.1,0c-0.2,0.1-0.4,0.1-0.6,0.2c0,0-0.1,0-0.1,0c-0.2,0.1-0.3,0.1-0.5,0.2
			c-0.1,0-0.1,0.1-0.2,0.1c-0.1,0-0.2,0.1-0.3,0.1c-4.5,2-7.8,6.2-8.6,11.2H42.4V93.7h64.5c0-1.8,0-3.6,0-5H42.4l-5,0v32.6
			c0,2.8,2.3,5,5,5h10.2c1.2,7.1,7.4,12.5,14.8,12.5c7.4,0,13.6-5.4,14.8-12.5h35.5c1.2,7.1,7.4,12.5,14.8,12.5
			c7.4,0,13.6-5.4,14.8-12.5h10.2c2.8,0,5-2.3,5-5v-20.5C162.6,98.5,161.4,96.7,159.4,96z M67.4,133.8c-5.9,0-10.6-5.2-10-11.2
			c0.5-4.6,4.2-8.3,8.8-8.8c6-0.7,11.2,4.1,11.2,10C77.5,129.3,73,133.8,67.4,133.8z M142.5,124.9c-0.5,4.6-4.2,8.4-8.9,8.9
			c-6.4,0.7-11.7-4.7-11.1-11.1c0.5-4.6,4.2-8.4,8.9-8.9C137.8,113.1,143.2,118.5,142.5,124.9z"/>
	</g>
	<rect x="104.9" y="61.2" class="st0" width="4.7" height="32.6"/>
</g>
</svg>
