<?xml version="1.0" encoding="utf-8"?>
<!-- Generator: Adobe Illustrator 19.2.1, SVG Export Plug-In . SVG Version: 6.00 Build 0)  -->
<svg version="1.1" id="Layer_1" xmlns="http://www.w3.org/2000/svg" xmlns:xlink="http://www.w3.org/1999/xlink" x="0px" y="0px"
	 viewBox="0 0 200 200" style="enable-background:new 0 0 200 200;" xml:space="preserve">
<style type="text/css">
	.st0{fill:#423938;}
</style>
<g>
	<path class="st0" d="M100,197.6c-53.8,0-97.6-43.8-97.6-97.6S46.2,2.4,100,2.4c53.8,0,97.6,43.8,97.6,97.6S153.8,197.6,100,197.6z
		 M100,7.4C48.9,7.4,7.4,48.9,7.4,100s41.6,92.6,92.6,92.6s92.6-41.6,92.6-92.6S151.1,7.4,100,7.4z"/>
</g>
<g>
	<path class="st0" d="M163.9,95.4l-7.3-4.3l-4.2-17.9c-1.1-4.8-5.3-8.1-10.2-8.1H121v0c-1.7,0-3.4,0-5.1,0v2.5v33.8h-73v0
		c-1.7,0-3.2,0-5.1,0v20.7c0,1.4,1.1,2.5,2.5,2.5h8.2c1.2,5.8,6.3,10.2,12.4,10.2s11.3-4.4,12.4-10.2h51.4v0
		c1.2,5.8,6.3,10.2,12.4,10.2c6.1,0,11.3-4.4,12.4-10.2h13c1.4,0,2.5-1.1,2.5-2.5V97.6C165.2,96.7,164.7,95.9,163.9,95.4z M61,129.8
		c-4.2,0-7.6-3.4-7.6-7.6c0-4.2,3.4-7.6,7.6-7.6c4.2,0,7.6,3.4,7.6,7.6C68.6,126.4,65.2,129.8,61,129.8z M116,110.6H93.1
		c-1.4,0-2.5,1.1-2.5,2.5c0,1.4,1.1,2.5,2.5,2.5H116v4H73.4c-1.2-5.8-6.3-10.2-12.4-10.2s-11.3,4.4-12.4,10.2h-5.6v-13.1h73V110.6z
		 M135.7,70.2h6.4c2.5,0,4.7,1.7,5.3,4.2l3.7,15.9h-15.4V70.2z M137.2,129.8c-4,0-7.3-3.2-7.6-7.1c0-0.2,0.1-0.3,0.1-0.5
		c0-0.2,0-0.3-0.1-0.5c0.3-4,3.6-7.1,7.6-7.1c4.2,0,7.6,3.4,7.6,7.6C144.8,126.4,141.4,129.8,137.2,129.8z M160.1,119.7h-10.4
		c-1.2-5.8-6.3-10.2-12.4-10.2c-6.1,0-11.3,4.4-12.4,10.2H121V70.2h9.6v22.6c0,1.4,1.1,2.5,2.5,2.5h20.5l6.4,3.7v0.8h-7.4
		c-1.4,0-2.5,1.1-2.5,2.5v7.8c0,1.4,1.1,2.5,2.5,2.5h7.4V119.7z M160.1,107.6h-4.8v-2.7h4.8V107.6z"/>
	<path class="st0" d="M82.4,115.6h2.1c1.4,0,2.5-1.1,2.5-2.5c0-1.4-1.1-2.5-2.5-2.5h-2.1c-1.4,0-2.5,1.1-2.5,2.5
		C79.8,114.5,81,115.6,82.4,115.6z"/>
</g>
</svg>
