<?xml version="1.0" encoding="utf-8"?>
<!-- Generator: Adobe Illustrator 19.2.1, SVG Export Plug-In . SVG Version: 6.00 Build 0)  -->
<svg version="1.1" id="Layer_1" xmlns="http://www.w3.org/2000/svg" xmlns:xlink="http://www.w3.org/1999/xlink" x="0px" y="0px"
	 viewBox="0 0 200 200" style="enable-background:new 0 0 200 200;" xml:space="preserve">
<style type="text/css">
	.st0{fill:#423938;}
</style>
<g>
	<path class="st0" d="M100,197.2c-53.6,0-97.2-43.6-97.2-97.2S46.4,2.8,100,2.8c53.6,0,97.2,43.6,97.2,97.2S153.6,197.2,100,197.2z
		 M100,7.7C49.1,7.7,7.7,49.1,7.7,100s41.4,92.3,92.3,92.3s92.3-41.4,92.3-92.3S150.9,7.7,100,7.7z"/>
</g>
<g>
	<g>
		<path class="st0" d="M169,96.8l-9.2-23.1c-0.4-0.9-1.2-1.4-2.1-1.4h-18.5c-1.3,0-2.3,1-2.3,2.3v20.8h-4.6h-4.6H35.4l-4.6,0v20.8
			c0,1.3,1,2.3,2.3,2.3H40c0,5.1,4.1,9.2,9.2,9.2c5.1,0,9.2-4.1,9.2-9.2h13.8c0,5.1,4.1,9.2,9.2,9.2c5.1,0,9.2-4.1,9.2-9.2l6.9,0h0
			c0.7,0,1.4-0.3,1.8-0.9c0.3-0.5,0.5-1,0.4-1.6v-16h4.6v16.1c0,1.3,1,2.3,2.3,2.3h6.9c0,5.1,4.1,9.2,9.2,9.2s9.2-4.1,9.2-9.2h9.2
			c0,5.1,4.1,9.2,9.2,9.2c3.4,0,6.3-1.9,7.9-4.6h8.2c1.3,0,2.3-1,2.3-2.3V97.7C169.2,97.4,169.2,97.1,169,96.8z M49.2,123.1
			c-2.5,0-4.6-2.1-4.6-4.6s2.1-4.6,4.6-4.6c2.5,0,4.6,2.1,4.6,4.6C53.9,121,51.8,123.1,49.2,123.1z M81.5,123.1
			c-2.5,0-4.6-2.1-4.6-4.6c0-2.5,2.1-4.6,4.6-4.6c2.5,0,4.6,2.1,4.6,4.6C86.2,121,84.1,123.1,81.5,123.1z M95.4,113.9l-5.9,0
			c-1.6-2.8-4.5-4.6-8-4.6c-3.4,0-6.3,1.9-7.9,4.6H57.2c-1.6-2.7-4.5-4.6-7.9-4.6c-3.4,0-6.3,1.9-7.9,4.6h-5.9v-4.6h2.3
			c1.3,0,2.3-1,2.3-2.3c0-1.3-1-2.3-2.3-2.3h-2.3h0h0V100h60V113.9z M159.8,86.2l3.7,9.2h-12.7v-9.2H159.8z M123.1,123.1
			c-2.5,0-4.6-2.1-4.6-4.6c0-2.5,2.1-4.6,4.6-4.6c2.5,0,4.6,2.1,4.6,4.6C127.7,121,125.6,123.1,123.1,123.1z M150.8,123.1
			c-2.5,0-4.6-2.1-4.6-4.6c0-2.5,2.1-4.6,4.6-4.6c2.5,0,4.6,2.1,4.6,4.6C155.4,121,153.3,123.1,150.8,123.1z M164.6,104.6h-2.3
			c-1.3,0-2.3,1-2.3,2.3c0,1.3,1,2.3,2.3,2.3h2.3v9.2H160c0-5.1-4.1-9.2-9.2-9.2c-3.4,0-6.3,1.9-7.9,4.6H131
			c-1.6-2.7-4.5-4.6-7.9-4.6c-3.4,0-6.3,1.9-7.9,4.6h-5.9v-4.6h2.3c1.3,0,2.3-1,2.3-2.3c0-1.3-1-2.3-2.3-2.3h-2.3h0h0V100h30
			c1.3,0,2.3-1,2.3-2.3V76.9h14.6l1.8,4.6h-9.5c-1.3,0-2.3,1-2.3,2.3v13.8c0,1.3,1,2.3,2.3,2.3h16.1V104.6z"/>
	</g>
</g>
</svg>
