<?xml version="1.0" encoding="utf-8"?>
<!-- Generator: Adobe Illustrator 19.2.1, SVG Export Plug-In . SVG Version: 6.00 Build 0)  -->
<svg version="1.1" id="Layer_1" xmlns="http://www.w3.org/2000/svg" xmlns:xlink="http://www.w3.org/1999/xlink" x="0px" y="0px"
	 viewBox="0 0 200 200" style="enable-background:new 0 0 200 200;" xml:space="preserve">
<style type="text/css">
	.st0{fill:#423938;}
</style>
<g>
	<path class="st0" d="M100,197.6c-53.8,0-97.6-43.8-97.6-97.6S46.2,2.4,100,2.4c53.8,0,97.6,43.8,97.6,97.6S153.8,197.6,100,197.6z
		 M100,7.4C48.9,7.4,7.4,48.9,7.4,100s41.6,92.6,92.6,92.6s92.6-41.6,92.6-92.6S151.1,7.4,100,7.4z"/>
</g>
<g>
	<g>
		<path class="st0" d="M37,72.8v27.3v16.8c0,1.2,0.9,2.1,2.1,2.1h6.3c0,4.6,3.8,8.4,8.4,8.4c4.6,0,8.4-3.8,8.4-8.4h12.6
			c0,4.6,3.8,8.4,8.4,8.4c4.6,0,8.4-3.8,8.4-8.4l6.3,0h0c0.7,0,1.3-0.3,1.7-0.8c0.3-0.4,0.5-0.9,0.4-1.4v-14.5h4.2V117
			c0,1.2,0.9,2.1,2.1,2.1h6.3c0,4.6,3.8,8.4,8.4,8.4s8.4-3.8,8.4-8.4h8.4c0,4.6,3.8,8.4,8.4,8.4c3.1,0,5.8-1.7,7.2-4.2h7.5
			c1.2,0,2.1-0.9,2.1-2.1v-21c0-0.3-0.1-0.5-0.1-0.8l-8.4-21c-0.3-0.8-1.1-1.3-2-1.3h-16.8c-1.2,0-2.1,0.9-2.1,2.1V98h-4.2V72.8
			c0-1.2-0.9-2.1-2.1-2.1H39.1C37.9,70.7,37,71.7,37,72.8z M157.8,98h-11.6v-8.4h8.2L157.8,98z M142,119c0-2.3,1.9-4.2,4.2-4.2
			c2.3,0,4.2,1.9,4.2,4.2c0,2.3-1.9,4.2-4.2,4.2S142,121.4,142,119z M116.8,119c0-2.3,1.9-4.2,4.2-4.2c2.3,0,4.2,1.9,4.2,4.2
			c0,2.3-1.9,4.2-4.2,4.2C118.7,123.2,116.8,121.4,116.8,119z M108.4,106.5v-4.2h27.3c1.2,0,2.1-0.9,2.1-2.1V81.3h13.3l1.7,4.2h-8.7
			c-1.2,0-2.1,0.9-2.1,2.1v12.6c0,1.2,0.9,2.1,2.1,2.1h14.7v4.2h-2.1c-1.2,0-2.1,0.9-2.1,2.1c0,1.2,0.9,2.1,2.1,2.1h2.1v8.4h-4.2
			c0-4.6-3.8-8.4-8.4-8.4c-3.1,0-5.8,1.7-7.2,4.2h-10.7c-1.5-2.5-4.1-4.2-7.2-4.2c-3.1,0-5.8,1.7-7.2,4.2h-5.4v-4.2h2.1
			c1.2,0,2.1-0.9,2.1-2.1c0-1.2-0.9-2.1-2.1-2.1H108.4L108.4,106.5z M79,119c0-2.3,1.9-4.2,4.2-4.2c2.3,0,4.2,1.9,4.2,4.2
			c0,2.3-1.9,4.2-4.2,4.2S79,121.4,79,119z M49.6,119c0-2.3,1.9-4.2,4.2-4.2c2.3,0,4.2,1.9,4.2,4.2c0,2.3-1.9,4.2-4.2,4.2
			C51.5,123.2,49.6,121.4,49.6,119z M41.2,106.5v-4.2h54.6v12.6l-5.4,0c-1.5-2.5-4.1-4.2-7.2-4.2c-3.1,0-5.8,1.7-7.2,4.2H61
			c-1.5-2.5-4.1-4.2-7.2-4.2c-3.1,0-5.8,1.7-7.2,4.2h-5.4v-4.2h2.1c1.2,0,2.1-0.9,2.1-2.1c0-1.2-0.9-2.1-2.1-2.1H41.2L41.2,106.5z
			 M41.2,74.9h84V98h-84V74.9z"/>
	</g>
</g>
</svg>
