<?xml version="1.0" encoding="utf-8"?>
<!-- Generator: Adobe Illustrator 19.2.1, SVG Export Plug-In . SVG Version: 6.00 Build 0)  -->
<svg version="1.1" id="Layer_1" xmlns="http://www.w3.org/2000/svg" xmlns:xlink="http://www.w3.org/1999/xlink" x="0px" y="0px"
	 viewBox="0 0 200 200" style="enable-background:new 0 0 200 200;" xml:space="preserve">
<style type="text/css">
	.st0{fill:#F23732;}
</style>
<path class="st0" d="M176.9,134.9c0.1-0.2,0.1-0.4,0.1-0.4c0-0.2,0-0.3,0-0.5c0,0-0.3-0.1-0.6-0.2c-2.9-1-5.6-1.9-8.5-2.9
	c-0.1,0-0.1-0.1-0.2-0.1c-0.3-0.1-0.5-0.3-0.4-0.7c0.2-1.5,0.5-3.1,0.7-4.6c0-0.1,0-0.1,0-0.2c0.2-1.2,0.1-1.4-1.1-1.7
	c-0.6-0.2-1.2-0.3-1.8-0.5c-0.4-0.1-0.5-0.3-0.4-0.7c0.5-2.4,0.7-4.8,1.1-7.2c0.5-2.5,0.9-5,1.3-7.4c0.2-1,0.3-2,0.4-3
	c0.1-0.5,0.1-1.1,0.8-1.2c0.3-0.1,0.5-0.4,0.6-0.8c0.2-0.7,0.2-1.3,0.3-2c0-0.7,0.2-1.3,0.7-1.8c0.3-0.4,0.6-0.8,0.9-1.1
	c0.4-0.6,0.4-0.7-0.2-1.1c-0.1-0.1-0.2-0.1-0.4-0.2h0c-0.1-0.3-0.2-0.5-0.5-0.5c-1.3-1.1-2.6-2.2-3.9-3.3c-0.5-0.4-0.9-0.8-1.2-1.4
	c-0.4-0.7-0.9-1.4-1.5-1.9c-0.6-0.6-1.2-1.2-1.8-1.8c-0.8-0.8-1.5-1.5-2.4-2.1c-0.8-0.6-0.8-0.7-0.5-1.6c0.2-0.6,0.4-1.1,0.6-1.7
	c0.3-0.6,0.2-0.7-0.3-1c-3.1-1.7-6-3.7-9.2-5.3c-1.6-0.8-3.3-1.6-5-2.3c-2.2-1-4.3-2-6.5-2.9c-1-0.4-2-0.9-3-1.3
	c-0.3-0.1-0.4-0.3-0.4-0.6c0.3-2.1,0.5-4.2,0.7-6.3c0.1-1.2,0.5-2.1,1-3.1c0.7-1.5,1.3-3,2-4.5c0.2-0.4,0.2-0.7,0-1.1
	c-0.4-0.7-0.7-1.5-1-2.2h0c0-0.1-0.1-0.2-0.2-0.3c-0.6-1.4-1.2-2.8-1.8-4.2c-1.3-3.2-2.7-6.4-4-9.5c-0.2-0.4-0.1-0.7,0-1.1
	c0.3-0.7,0.6-1.4,0.8-2.1c0.3-0.7,0.3-0.7-0.4-0.9c-1.2-0.5-2.5-1.1-3.8-1.6c-2.5-1.1-4.9-2.1-7.4-3.2c-0.5-0.2-1-0.3-1.5,0
	c-0.4,0.2-0.8,0.3-1.2,0.5c-0.4,0.2-0.8,0.4-1.3,0c-0.4-0.3-1-0.1-1.5-0.1c-0.6,0-1.1-0.1-1.4-0.6c-0.3-0.3-0.6-0.5-1-0.5
	c-0.4,0-0.7-0.2-0.8-0.5c-0.1-0.4-0.4-0.6-0.7-0.8c-0.7-0.6-1.4-1.3-1.7-2.3c-0.1-0.5-0.5-0.8-0.5-1.3c0-0.5,0-1,0.1-1.5
	c0.1-0.6,0.2-1.2-0.4-1.6c-0.3-0.3-0.2-0.6,0.1-0.9c0.5-0.6,1-1.3,1.6-1.9c0.6-0.6,1-1.3,1.4-2c0.2-0.4,0.5-0.8,0.8-1.1
	c0.4-0.4,0.8-0.7,0.8-1.3c0-0.2,0.2-0.4,0.4-0.5c0.6-0.6,1.2-1.1,1.7-1.7c0.7-0.7,0.7-1,0-1.7c-0.4-0.4-0.6-0.8-0.7-1.4
	c-0.3-1.5-0.6-2.9-1.7-4.1c-0.6-0.6-7.4,6.3-7.2,5.6c-0.4-0.7-0.6-1.6-0.8-1.1c-0.3,1.1-1,0.3-1.9,1c-0.5,0.4-0.9,0-0.8,0.8
	c0.1,0.6-0.4,0.7-0.9,1.1c-0.4,0.4-0.8,0.5-1.4,0.3c-0.5-0.1-1.8,0.6-2,1.1c-0.1,0.2-0.1,0.3,0,0.4c0.2,0.6,0,1-0.4,1.3
	c-0.2,0.2-0.3,0.4-0.3,0.7c0,0.4,0.1,0.6,0.4,0.8c0.7,0.3,1.4,0.7,2.2,1c0.7,0.3,0.7,0.4,0.3,1c-0.6,0.8-1,1.7-1.7,2.4
	c-0.1,0.1-0.2,0.3-0.3,0.5c-0.3,0.4-0.2,0.5,0.2,0.8c0.4,0.2,0.5,0.3,0.2,0.7c-0.3,0.4-0.6,0.7-0.6,1.2c0,0.3-0.4,0.4-0.7,0.3
	c-1.8-0.5-3.6-1-5.3-1.4c-0.6-0.2-1.2-0.4-1.9-0.4c0.3,0.6,1.1,1.2,1.5,1c0.8-0.3,1,0.4,1.5,0.7c0.2,0.1,0,0.3-0.1,0.4
	c-0.3,0.3-0.6,0.6-1,0.9c0.3,0.3,0.6,0.4,0.9,0.5c1.2,0.2,2.1,1,3.2,1.6c0.2,0.1,0.3,0.3,0.3,0.5c0.6,1.5,1.1,2.9,1.7,4.4
	c0.1,0.2,0.2,0.4,0,0.6c-0.2,0.2-0.4,0.1-0.6,0c-1.4-0.5-2.9-0.9-4.3-1.4c-0.6-0.2-1.2-0.2-1.8,0.1c-0.5,0.3-0.9,0.3-1.4,0.1
	c-1.4-0.6-2.8-1.1-4.2-1.6c-1.5-0.5-3.1-0.8-4.6-1.3c-0.2-0.1-0.4,0-0.6,0.1c-1.2,0.5-1.8,1.5-2,2.7c-0.1,0.6-0.2,1.3-0.5,1.9
	c-0.2,0.5-0.2,1-0.3,1.5c-0.5,1.7-1.2,3.4-1.8,5.1c-0.2,0.7-0.5,1.4-0.7,2.2c-0.3,0.9-0.2,1,0.7,1.3c1.3,0.3,2.6,0.7,4,1
	c0,0.1,0,0.2,0.1,0.4c-1,0.5-1.7,1.2-1.9,2.3c0,0.1-0.1,0.2-0.1,0.2c0.3,0.9-0.3,1.5-0.5,2.3c-0.2,0.7-0.7,1.2-1.3,1.5
	c-0.4,0.2-0.6,0.5-0.6,0.9c0,0.3-0.1,0.7-0.1,1c0,0.6,0,1.1,0.6,1.4c-0.3,0.4-0.7,0.3-1.1,0.6c-0.3,0.2-0.7,0.5-1,0.7
	c-0.2,0.1-0.3,0.2-0.5,0.3c-0.8,0.5-0.9,1.2-0.4,2c0.2,0.3,0.3,0.4,0.2,0.8c-0.1,0.4,0.1,0.6,0.4,0.8c0.2,0.1,0.4,0.2,0.6,0.3
	c0.2,0.1,0.3,0.3,0.3,0.5c0,0.3-0.2,0.3-0.4,0.3c-0.3,0-0.6,0.2-0.8,0.5c-0.4,0.6-1,1.1-1.5,1.6c-0.4,0.3-0.7,0.8-1,1.2
	c-0.5,0.7-1.1,1.4-1.7,2.1c-0.1,0.2-0.4,0.2-0.6,0.2c-0.6-0.1-1.2,0.2-1.7,0.5c-0.4,0.3-0.8,0.4-1.3,0.5c-0.2,0-0.4,0.1-0.5,0.2
	c-0.7,0.4-0.7,1.1-1.5,1.4C63.5,67.7,64,68,64,68.3c0,0.3,0,0.6,0,0.8c0,0-2.1,0-2.4,0c-0.2,0.4-0.8,0.6-1.3,0.6
	c-0.7,0-1.3,0.3-1.5,1c-0.1,0.4-0.3,0.8-0.6,1.2c-0.3,0.5-0.5,1.2-1.3,1.1c-0.3,0-0.6,0.2-0.6,0.6c0,0.2-0.1,0.3-0.1,0.5
	c-0.1,1.3-0.3,2.6-0.9,3.7c-0.1,0.1-0.1,0.3-0.1,0.4c0,0.3-0.1,0.5-0.5,0.5c-0.3,0-0.5-0.2-0.5-0.5c0-0.2,0-0.3-0.1-0.5
	c-0.1-0.6-0.5-0.9-0.8-1.4c-0.1-0.2-0.4-0.1-0.5,0c-0.3,0.2-0.4,0.4-0.5,0.7c-0.2,0.5-0.3,1.1-1.1,1.1c-0.3,0.4-0.8,0.4-1.2,0.6
	c-0.2,0.1-0.4,0.2-0.4,0.5c-0.1,0.3-0.3,0.6-0.5,0.9c-0.3,0.5-0.6,0.8-1.2,0.6c-0.3-0.1-0.6,0-0.8,0.3C47,81,46.8,81.1,46.6,81
	c-0.1-0.1-0.2-0.2-0.1-0.4c0.2-0.5-0.3-0.9-0.4-1.4c-0.1-0.4-0.3-0.8-0.2-1.2c0-0.2,0-0.3-0.2-0.4c-0.2-0.1-0.5-0.2-0.6,0
	c-0.2,0.2-0.3,0.5-0.5,0.7c-0.5,0.8-1.2,1.3-2,1.8c0,0-0.1,0.1-0.2,0.1c-0.8-0.1-1.1,0.4-1.3,1.1c0,0.2-0.2,0.4-0.4,0.4
	c-0.6-0.1-0.8,0.6-1.3,0.6c-0.2,0-0.2,0.1-0.3,0.3c-0.1,0.5-0.3,1,0.2,1.4c0.2,0.1,0.2,0.3,0.1,0.5c-0.1,0.2-0.3,0.2-0.5,0.1
	c-0.7-0.2-1.2,0-1.7,0.6c-0.3,0.4-0.6,0.8-1,1c-0.4,0.2-0.5,0.6-0.2,0.9c1,1.2,0.5,2.3-0.1,3.4c-0.2,0.4-0.5,0.8-0.8,1.2
	c-0.4,0.5-0.6,1-0.6,1.6c0,0.5-0.2,0.8-0.5,1.2c-1.4,1.4-2.8,2.9-4.2,4.4c-0.4,0.5-0.8,0.9-1.3,1.4c-0.8,0.9-1.7,1.8-2.5,2.7
	c-0.2,0.2-0.3,0.5-0.3,0.8c0.2,0.9,0.4,1.6,1.2,2.1c0.2,0.1,0.3,0.3,0.5,0.5c0.2,0.2,0.4,0.3,0,0.5c-0.2,0.1-0.1,0.3,0,0.4
	c0.1,0.2,0.3,0.3,0.3,0.5c-0.1,0.2-0.3,0.2-0.4,0.2c-0.4,0.2-0.8,0.3-0.9,0.8c-0.1,0.4-0.5,0.7-0.8,1.1c-0.9,1-1.7,2.1-2.6,3.1
	c-0.4,0.5-0.3,0.5,0.2,0.9c0.8,0.6,1.7,0.8,2.6,0.8c0.9,0,1.7,0.3,2.5,0.4c0.4,0.1,0.8,0.3,1,0.7c0.5,0.8,1.2,1.2,2,1.5
	c0.9,0.4,1.2,1.3,0.8,2.1c-0.8,1.6-1.2,3.3-1.2,5.1c0,0.7,0,1.4,0,2.1c0,0.4,0.2,0.6,0.6,0.7c0.7,0.2,1.4,0.4,2,0.6
	c1,0.3,1.8,0.7,2.3,1.6c0.3,0.5,0.7,0.9,1.4,0.8c0.2,0,0.5,0.1,0.7,0.1c0.8,0.1,1.4,0.5,2,1c0.4,0.3,0.7,0.8,0.7,1.3
	c-0.1,0.6,0.1,1.1,0.5,1.5c0.6,0.6,1.2,1.2,1.9,1.7c0.6,0.5,1,1,1.1,1.8c0.4,2.3,0.8,4.6,1.2,6.9c0,0.2,0.1,0.4,0.2,0.6
	c0.9,0.9,1,2.1,1.4,3.2c1.8,4.9,3.8,9.8,5.7,14.7c0.4,1,0.8,2,1.1,3c0.1,0.4,0.4,0.7,0.7,0.9c5.9,4.1,12,8,18,11.9
	c0.9,0.5,1.7,0.7,2.7,0.8c1.5,0.1,3.1,0.3,4.6,0.5c1.1,0.1,2.1,0.1,3.2,0.2c2,0.2,3.9,0.3,5.9,0.5c0.8,0.1,1.7,0.1,2.5,0.2
	c1.8,0.2,3.7,0.2,5.5,0.4c2.9,0.3,5.7,0.6,8.6,0.8c0.2,0,0.4,0,0.5,0.2c0.7,0.8,1.7,1.2,2.6,1.7c2.8,1.5,5.7,2.9,8.5,4.4
	c3.7,1.9,7.3,3.8,11,5.7c1.5,0.8,3,1.6,4.4,2.4c0.1,0.1,0.2,0.1,0.4,0.2c0.5,0.2,0.6,0.2,1-0.3c0.9-1.4,1.8-2.9,2.7-4.3
	c0.9-1.4,1.8-2.9,2.7-4.3c0.2-0.4,0.5-0.6,0.8-0.8c1.5-1,3-1.9,4.5-2.9c0.3-0.2,0.6-0.3,1-0.2c2.2,0.3,4.4,0.6,6.5,1
	c2.3,0.3,4.5,0.8,6.8,0.9c0.5,0,1,0.1,1.5,0.2c0.4,0.1,0.8,0.3,1.1,0.6c0.4,0.3,0.8,0.6,1.1,0.9c0.3,0.2,0.5,0.2,0.8,0
	c0.1-0.1,0.2-0.1,0.3-0.2c1-1,2.1-1.8,3.2-2.6c0.8-0.6,1.4-1.6,1.6-2.7c0.1-0.3,0.1-0.6,0.3-0.9c0.8-0.9,1-2,1.2-3.1
	c0.3-1.1,0.4-2.2,0.4-3.4c0-1.1,0.1-2.1,0.3-3.2c0.1-0.5,0-1-0.3-1.5c-0.3-0.7-0.6-1.3-0.6-2.1c0-0.5-0.2-1-0.5-1.4
	c-0.7-1.1-1.4-2.3-2-3.4c-0.4-0.7-0.4-0.7,0.4-1c1.3-0.4,2.6-0.8,3.9-1.3c0.1,0,0.3-0.1,0.4-0.1c0.1-0.3-0.1-0.4-0.2-0.5
	c-1.3-1.5-2.6-3-3.9-4.5c-0.4-0.4-0.3-0.6,0.2-0.7c1.3-0.3,2.6-0.7,3.9-1.1c0.7-0.2,0.8-0.3,0.5-0.9c-0.5-1-0.8-2-1.8-2.7
	c-0.9-0.7-1.7-1.6-2.4-2.5c-0.5-0.6-0.7-1.5-0.7-2.3c0-1,0-2,0-3c0-0.5,0-1-0.1-1.4c-0.1-0.3-0.1-0.6,0-0.9c0.1-0.4,0.1-0.8,0-1.2
	c-0.1-0.4,0-0.7,0.4-0.9c0.5-0.2,1-0.5,1.4-0.9c0.1-0.1,0.3-0.2,0.5-0.3c0.8,0,1.5-0.3,2.3-0.3c0.3,0,0.6-0.1,0.8-0.3
	c0.4-0.4,0.8-0.3,1.3-0.2c0.5,0.1,0.9,0.3,1.4,0.4c0.8,0.2,0.9,0.2,1.2-0.6C177.1,135.4,176.8,135.1,176.9,134.9z M167.6,96.6
	c0.3,0,0.6,0,0.9,0C168.2,96.6,167.9,96.6,167.6,96.6c-0.1,0.1-0.2,0.1-0.3,0.2C167.4,96.7,167.5,96.7,167.6,96.6z M43.4,104
	c0.1,0,0.1-0.1,0.2-0.1l0,0C43.5,103.9,43.4,104,43.4,104z M43.6,103.9L43.6,103.9c0.2-0.2,0.5-0.5,0.7-0.8
	C44,103.4,43.8,103.6,43.6,103.9z M54.8,91.8L54.8,91.8c0-0.1,0.1-0.1,0.1-0.1C54.9,91.7,54.8,91.7,54.8,91.8z M55.1,91.6L55.1,91.6
	c0.1-0.1,0.1-0.1,0.2-0.1C55.3,91.5,55.2,91.6,55.1,91.6z M55.6,91.5L55.6,91.5c0.1-0.1,0.2-0.2,0.4-0.3
	C55.9,91.2,55.7,91.3,55.6,91.5z M60.6,83.5C60.5,83.4,60.5,83.4,60.6,83.5C60.5,83.4,60.5,83.4,60.6,83.5c0,0.1,0,0.3,0.1,0.4
	C60.6,83.7,60.6,83.6,60.6,83.5z M63.6,71.6c-0.2,0-0.4,0-0.7,0C63.2,71.6,63.4,71.6,63.6,71.6L63.6,71.6L63.6,71.6L63.6,71.6
	c0.2,0.1,0.4,0.2,0.7,0.2C64,71.8,63.8,71.7,63.6,71.6z M65.3,124.7c0.1,0,0.1-0.1,0.1-0.2c0,0,0-0.1-0.1-0.1c0,0,0.1,0.1,0.1,0.1
	C65.4,124.6,65.4,124.7,65.3,124.7z M67.9,73.6L67.9,73.6L67.9,73.6L67.9,73.6z M68.7,71.9L68.7,71.9L68.7,71.9L68.7,71.9z
	 M75.7,70.4c0.1,0,0.2,0,0.3,0C75.9,70.4,75.8,70.4,75.7,70.4c-0.1,0.1-0.1,0.1-0.2,0.1C75.6,70.5,75.6,70.5,75.7,70.4z M76.7,97.2
	c-0.2,0-0.4,0.1-0.5,0.3c-0.2,0-0.3,0.1-0.4,0.2c-0.1,0.1-0.2,0.2-0.3,0.4c-0.2,0-0.3,0.1-0.4,0.2c0.1-0.1,0.2-0.2,0.4-0.2
	c0.1-0.2,0.1-0.3,0.3-0.4c0.1-0.1,0.3-0.1,0.4-0.2C76.3,97.4,76.5,97.3,76.7,97.2c0.1-0.1,0.1-0.2,0.2-0.2
	C76.8,97.1,76.8,97.1,76.7,97.2z M77.1,92.9c0,0-0.1,0-0.1,0C77,92.9,77,92.9,77.1,92.9L77.1,92.9z M85.4,43.3
	c-0.6,0-1.1-0.2-1.7-0.3C84.3,43.2,84.8,43.3,85.4,43.3c0.4,0.2,0.6,0.3,0.7,0.5C86,43.6,85.7,43.5,85.4,43.3z M93.8,104.7
	c0.2,0,0.4,0,0.6,0h0C94.2,104.7,94,104.7,93.8,104.7z M95,104.9c-0.2,0-0.4,0-0.6-0.2h0C94.6,104.9,94.8,104.9,95,104.9
	c0.2,0,0.4,0,0.6,0h0C95.4,104.9,95.2,104.9,95,104.9z M98.5,167.7L98.5,167.7c0,0,0.1-0.1,0.1-0.1
	C98.6,167.6,98.5,167.6,98.5,167.7z M101.4,139.1L101.4,139.1c0.1-0.1,0.1-0.1,0.2-0.1C101.5,139,101.5,139,101.4,139.1z
	 M102.7,125.6c-0.1,0-0.2,0-0.3,0.1C102.5,125.6,102.6,125.7,102.7,125.6c0-0.3,0.1-0.5,0.2-0.8
	C102.8,125.1,102.8,125.4,102.7,125.6z M103.8,118.7L103.8,118.7c0.1,0.1,0.2,0.3,0.2,0.4C103.9,119,103.9,118.8,103.8,118.7z
	 M104.4,123.3c-0.1,0.1-0.2,0.2-0.3,0.3C104.2,123.4,104.3,123.3,104.4,123.3C104.5,123.2,104.5,123.2,104.4,123.3
	C104.5,123.2,104.5,123.2,104.4,123.3z M110.9,47.9c0-0.2,0-0.3,0-0.5C110.9,47.6,110.9,47.7,110.9,47.9
	C110.9,47.9,110.8,48,110.9,47.9C110.8,48,110.9,47.9,110.9,47.9z M106,8.5C106,8.5,106,8.5,106,8.5C106,8.5,106,8.5,106,8.5z
	 M112.1,87.4c0,0-0.1-0.1-0.1-0.1C112,87.3,112.1,87.4,112.1,87.4c0,0.2,0.1,0.3,0.2,0.5C112.2,87.7,112.1,87.6,112.1,87.4z
	 M112.6,88.2c0-0.2,0-0.3-0.1-0.5C112.6,87.9,112.6,88.1,112.6,88.2C112.6,88.3,112.7,88.3,112.6,88.2
	C112.7,88.3,112.6,88.3,112.6,88.2z M115.2,93.5c0.1,0.1,0.2,0.3,0.3,0.4C115.3,93.8,115.2,93.6,115.2,93.5
	C115.1,93.5,115.1,93.5,115.2,93.5C115.1,93.5,115.1,93.5,115.2,93.5z M114.8,93c0,0.1,0,0.1,0,0.2C114.8,93.1,114.8,93.1,114.8,93
	C114.8,93,114.8,93,114.8,93C114.8,93,114.8,93,114.8,93z M114.7,105.4L114.7,105.4c0.3,0.1,0.6,0.1,0.8,0.1
	C115.2,105.5,114.9,105.5,114.7,105.4z M116,94.7c-0.1-0.5-0.1-0.7-0.2-0.9C115.9,94,116,94.2,116,94.7c0.1,0,0.2,0.1,0.2,0.1
	C116.2,94.7,116.1,94.7,116,94.7z M117,95.9c-0.1-0.1-0.1-0.1-0.2-0.2c0,0-0.1-0.1-0.1-0.1c0,0,0.1,0.1,0.1,0.1
	C116.9,95.8,117,95.8,117,95.9c0.1,0.1,0.1,0.1,0.2,0.2C117.1,96,117.1,96,117,95.9z M119,66.3c0.1,0,0.3,0,0.4-0.2h0
	C119.3,66.2,119.1,66.3,119,66.3z M132.8,109c0.1-0.1,0.1-0.1,0.2-0.2C133,108.9,132.9,108.9,132.8,109c-0.1,0.1-0.1,0.1-0.2,0.2
	C132.7,109.1,132.8,109,132.8,109z M127.8,66.1C127.8,66.1,127.8,66.1,127.8,66.1C127.8,66.1,127.8,66.1,127.8,66.1L127.8,66.1z
	 M122.8,102.7c0,0.1,0,0.1,0,0.2C122.8,102.8,122.8,102.8,122.8,102.7C122.8,102.7,122.7,102.6,122.8,102.7
	C122.7,102.6,122.8,102.7,122.8,102.7z M122.5,102.4C122.5,102.4,122.5,102.4,122.5,102.4C122.5,102.4,122.5,102.4,122.5,102.4
	C122.4,102.3,122.4,102.3,122.5,102.4C122.4,102.3,122.4,102.3,122.5,102.4z M121.8,101.5L121.8,101.5c0.1,0.1,0.1,0.1,0.2,0.2
	c0.1,0.1,0.1,0.1,0.2,0.2l0,0h0l0,0c0,0.1,0,0.1,0.1,0.2c0-0.1,0-0.1-0.1-0.2c-0.1-0.1-0.1-0.1-0.2-0.2
	C121.9,101.6,121.8,101.6,121.8,101.5C121.8,101.5,121.7,101.4,121.8,101.5C121.7,101.4,121.8,101.5,121.8,101.5z M120.6,100.1
	c0-0.1,0-0.1,0-0.2s-0.1-0.1-0.1-0.2c-0.2-0.4-0.4-0.7-0.5-1.1c0.1,0.4,0.4,0.8,0.5,1.1c0.1,0,0.1,0.1,0.1,0.2
	C120.6,100,120.6,100.1,120.6,100.1C120.6,100.2,120.7,100.2,120.6,100.1C120.7,100.2,120.6,100.2,120.6,100.1z M121.3,100.8
	C121.2,100.8,121.2,100.8,121.3,100.8C121.2,100.8,121.2,100.8,121.3,100.8c0,0.1,0,0.2,0.1,0.3C121.3,101,121.3,100.9,121.3,100.8z
	 M121.4,138.3c0.1-0.1,0.1-0.1,0.2-0.1h0C121.5,138.3,121.5,138.3,121.4,138.3z M123.5,103.6c-0.1-0.1-0.1-0.1-0.2-0.2
	c-0.1-0.1-0.1-0.1-0.2-0.2c0,0-0.1-0.1-0.1-0.1c0,0,0.1,0.1,0.1,0.1c0.1,0.1,0.1,0.1,0.2,0.2C123.4,103.4,123.4,103.5,123.5,103.6
	c0,0.1,0,0.2,0.1,0.3C123.5,103.8,123.5,103.7,123.5,103.6z M123.7,52.2c-0.1-0.1-0.1-0.1-0.2-0.2C123.6,52.1,123.6,52.1,123.7,52.2
	c0.1,0.1,0.1,0.1,0.2,0.2C123.8,52.3,123.7,52.2,123.7,52.2z M124.2,104.4c0-0.1-0.1-0.2-0.1-0.2
	C124.1,104.2,124.2,104.3,124.2,104.4C124.2,104.4,124.3,104.4,124.2,104.4C124.3,104.4,124.2,104.4,124.2,104.4z M124.6,105
	C124.6,105,124.6,105.1,124.6,105c0.1,0.1,0.2,0.2,0.3,0.3C124.8,105.2,124.7,105.1,124.6,105C124.6,105.1,124.6,105,124.6,105z
	 M125,137.6L125,137.6c0.1-0.1,0.2-0.2,0.4-0.2C125.3,137.4,125.1,137.5,125,137.6z M125.4,105.8
	C125.3,105.7,125.3,105.7,125.4,105.8C125.3,105.7,125.3,105.7,125.4,105.8c0,0.1,0,0.1,0,0.2C125.4,105.9,125.4,105.8,125.4,105.8z
	 M125.7,106.3C125.7,106.2,125.6,106.2,125.7,106.3C125.6,106.2,125.7,106.2,125.7,106.3c0.1,0.1,0.1,0.1,0.2,0.2
	C125.8,106.4,125.8,106.3,125.7,106.3z M125.7,51.5L125.7,51.5c0.1-0.1,0.1-0.1,0.2-0.2C125.8,51.4,125.8,51.4,125.7,51.5z
	 M126.4,107.1c-0.2-0.1-0.3-0.3-0.3-0.5C126.1,106.8,126.2,107,126.4,107.1c0,0.1,0,0.1,0.1,0.2
	C126.4,107.2,126.4,107.2,126.4,107.1z M126.2,51.2c0,0.1-0.1,0.1-0.2,0.1C126.1,51.3,126.2,51.2,126.2,51.2c0.2,0,0.4,0,0.5,0
	C126.6,51.1,126.4,51.1,126.2,51.2z M126.9,107.6C126.9,107.6,126.8,107.6,126.9,107.6C126.8,107.6,126.9,107.6,126.9,107.6
	c0,0.1,0,0.1,0,0.2C126.9,107.8,126.9,107.7,126.9,107.6z M127.1,108c0-0.1,0-0.1-0.1-0.2C127.1,107.8,127.1,107.9,127.1,108
	C127.1,108,127.1,108,127.1,108C127.1,108,127.1,108,127.1,108z M127.4,108.3c-0.1-0.1-0.1-0.1-0.2-0.2
	C127.3,108.2,127.3,108.3,127.4,108.3c0.1,0.1,0.1,0.1,0.2,0.2C127.5,108.4,127.4,108.4,127.4,108.3z M127.9,109
	c-0.1-0.1-0.2-0.1-0.2-0.2C127.7,108.9,127.8,108.9,127.9,109c0,0.1,0,0.1,0.1,0.2C128,109.1,127.9,109.1,127.9,109z M128.4,109.5
	C128.4,109.5,128.4,109.5,128.4,109.5C128.4,109.5,128.4,109.5,128.4,109.5c0.1,0.1,0.1,0.1,0.2,0.2
	C128.5,109.6,128.5,109.6,128.4,109.5z M130.3,136.4c-0.1,0-0.2,0-0.4,0C130.1,136.4,130.2,136.4,130.3,136.4L130.3,136.4z
	 M130.3,136.4L130.3,136.4c0.1-0.1,0.1-0.1,0.2-0.1C130.4,136.3,130.4,136.3,130.3,136.4z M131.7,112c0.1,0,0.2,0,0.3,0.1
	C131.9,112.1,131.8,112.1,131.7,112c-0.1-0.2-0.2-0.3-0.4-0.3C131.4,111.8,131.6,111.9,131.7,112z M131.8,136L131.8,136
	c0.1-0.1,0.1-0.1,0.2-0.1C132,135.9,131.9,136,131.8,136z M132.7,135.9L132.7,135.9c0.1-0.1,0.2-0.1,0.4-0.2
	C132.9,135.7,132.8,135.8,132.7,135.9z M135.4,135.4c0.1,0,0.2-0.1,0.4-0.2h0C135.6,135.3,135.5,135.3,135.4,135.4z M136.3,113.6
	c-0.4-0.2-0.9-0.4-1.3-0.4C135.4,113.2,135.8,113.3,136.3,113.6c0.2,0,0.3,0.1,0.5,0.1C136.6,113.6,136.4,113.6,136.3,113.6z
	 M136.9,101.7c-0.1,0.1-0.1,0.2-0.1,0.3C136.8,101.9,136.9,101.8,136.9,101.7c0.2,0,0.4,0,0.7,0.1
	C137.4,101.7,137.2,101.7,136.9,101.7z M144.9,119.4L144.9,119.4L144.9,119.4C144.9,119.4,144.9,119.4,144.9,119.4z M138.6,134.5
	L138.6,134.5c0.1-0.1,0.1-0.1,0.2-0.1C138.8,134.4,138.7,134.4,138.6,134.5z M139,101.3c-0.1,0.1-0.2,0.1-0.4,0.2
	C138.7,101.5,138.9,101.4,139,101.3c0.1,0,0.2-0.1,0.4-0.1C139.2,101.3,139.1,101.3,139,101.3z M140.3,101c0.1-0.1,0.1-0.1,0.2-0.2
	c0.1-0.1,0.1-0.1,0.2-0.2c0.1-0.1,0.1-0.1,0.2-0.2c-0.1,0.1-0.1,0.1-0.2,0.2c-0.1,0.1-0.1,0.1-0.2,0.2
	C140.4,100.9,140.4,100.9,140.3,101c-0.1,0.1-0.1,0.1-0.2,0.2C140.2,101.1,140.3,101,140.3,101z M142.7,116.3c0-0.1-0.1-0.1-0.2-0.1
	C142.6,116.2,142.7,116.2,142.7,116.3c0.1,0.1,0.1,0.1,0.2,0.2C142.8,116.4,142.8,116.4,142.7,116.3z M143.7,117.7
	c-0.1-0.1-0.1-0.1-0.2-0.2c0,0-0.1-0.1-0.1-0.1c0,0,0.1,0.1,0.1,0.1C143.6,117.6,143.7,117.6,143.7,117.7c0.1,0.1,0.1,0.1,0.2,0.2
	c0.1,0.1,0.1,0.1,0.2,0.2c-0.1-0.1-0.1-0.1-0.2-0.2C143.8,117.8,143.8,117.7,143.7,117.7z M145.3,132.8c-0.5,0.2-0.9,0.3-1.4,0.5
	C144.4,133.1,144.8,133,145.3,132.8c0,0,0.1-0.1,0.1-0.1C145.3,132.7,145.3,132.8,145.3,132.8z M147,130.9c-0.1,0.1-0.1,0.1-0.2,0.2
	c-0.1,0.1-0.1,0.1-0.2,0.2s-0.1,0.1-0.2,0.2c0,0-0.1,0.1-0.1,0.1c0,0,0.1-0.1,0.1-0.1c0.1-0.1,0.1-0.1,0.2-0.2s0.1-0.1,0.2-0.2l0,0
	C146.9,131.1,146.9,131,147,130.9c0.1,0,0.2-0.1,0.2-0.1C147.2,130.9,147.1,130.9,147,130.9z M148.7,129.1
	C148.6,129.1,148.6,129.1,148.7,129.1C148.6,129.1,148.6,129.1,148.7,129.1c0.1,0,0.2-0.1,0.2-0.1
	C148.9,129,148.8,129.1,148.7,129.1z M149.2,128.6C149.2,128.6,149.1,128.6,149.2,128.6C149.1,128.6,149.2,128.6,149.2,128.6
	c0.1-0.1,0.3-0.2,0.3-0.3C149.4,128.4,149.3,128.5,149.2,128.6z M149.9,127.7c-0.1,0.1-0.1,0.1-0.2,0.2
	C149.7,127.8,149.8,127.7,149.9,127.7c0.1-0.1,0.1-0.1,0.2-0.2C150,127.6,149.9,127.6,149.9,127.7z M152.2,127.9
	c-0.1,0.1-0.1,0.1-0.2,0.2c-0.1,0.1-0.3,0.2-0.4,0.3c0.1-0.1,0.3-0.2,0.4-0.3C152.1,128,152.2,127.9,152.2,127.9
	c0,0,0.1-0.1,0.1-0.1C152.3,127.8,152.3,127.8,152.2,127.9z M153.6,124.7c0-0.1,0-0.3,0-0.4c-0.2-0.2-0.3-0.4-0.4-0.5
	c0.1,0.1,0.2,0.3,0.4,0.5C153.6,124.4,153.6,124.6,153.6,124.7z M159.4,133c-0.1-0.1-0.3-0.2-0.4-0.3
	C159.1,132.8,159.2,132.9,159.4,133C159.4,133,159.4,133,159.4,133C159.4,133,159.4,133,159.4,133z M163.1,136.2
	c-0.1-0.1-0.1-0.1-0.2-0.2C163,136.1,163.1,136.1,163.1,136.2C163.1,136.2,163.2,136.2,163.1,136.2
	C163.2,136.2,163.1,136.2,163.1,136.2z M163.3,136.5c0-0.1,0-0.1-0.1-0.2C163.3,136.4,163.3,136.5,163.3,136.5
	c0.1,0,0.1,0.1,0.2,0.1C163.4,136.6,163.4,136.6,163.3,136.5z M166.4,96.4c0.1,0.1,0.1,0.1,0.2,0.2
	C166.5,96.5,166.4,96.5,166.4,96.4c-0.2-0.1-0.4-0.2-0.6-0.2C166,96.2,166.2,96.3,166.4,96.4z M165,96.6c0.1-0.1,0.1-0.1,0.2-0.2
	C165.1,96.4,165.1,96.5,165,96.6c-0.3,0-0.5,0-0.8,0C164.5,96.6,164.7,96.6,165,96.6z"/>
</svg>
