<?xml version="1.0" encoding="utf-8"?>
<!-- Generator: Adobe Illustrator 19.2.1, SVG Export Plug-In . SVG Version: 6.00 Build 0)  -->
<svg version="1.1" id="Layer_1" xmlns="http://www.w3.org/2000/svg" xmlns:xlink="http://www.w3.org/1999/xlink" x="0px" y="0px"
	 viewBox="0 0 200 200" style="enable-background:new 0 0 200 200;" xml:space="preserve">
<style type="text/css">
	.st0{fill:#2E40CE;}
	.st1{fill:#6CD2FC;}
	.st2{fill:#EAD800;}
	.st3{fill:#CA2100;}
	.st4{fill:#2F3FCF;}
	.st5{fill:#6BF700;}
	.st6{fill:#2D3FD1;}
	.st7{fill:#384AB7;}
	.st8{fill:#426DF5;}
</style>
<g id="nVBVcP.tif">
	<g>
		<path class="st0" d="M143.4,130.2c-0.3,0-0.6-0.1-0.9-0.1c-0.2-0.1-0.3-0.1-0.5-0.2c-0.5-0.1-1-0.2-1.4-0.2
			c-0.7-0.2-1.5-0.4-2.2-0.5c-0.2,0-0.4-0.1-0.6-0.1c-0.6-0.4-1.3-0.5-1.9-0.6c-0.2,0-0.4-0.1-0.6-0.1c-1-0.5-2-0.8-3-1l-0.1-0.1
			l-0.1,0c-0.2-0.1-0.3-0.1-0.5-0.2c-0.2-0.1-0.4-0.1-0.6-0.2c-0.2-0.1-0.3-0.2-0.5-0.2c-0.1,0-0.2-0.1-0.4-0.1
			c-0.1-0.1-0.2-0.1-0.3-0.2c-1.2-0.4-2.4-0.9-3.5-1.3c-0.3-0.1-0.5-0.2-0.8-0.3c-0.1-0.1-0.3-0.2-0.4-0.2c-0.1,0-0.3-0.1-0.4-0.1
			l0,0c-0.2-0.2-0.4-0.4-0.7-0.3c-0.4-0.1-0.7-0.3-1.1-0.4c-0.1-0.1-0.2-0.1-0.3-0.2c-0.2-0.1-0.5-0.2-0.7-0.2
			c-0.4-0.4-0.9-0.6-1.5-0.6l-0.1-0.1l-0.1,0c-0.4-0.4-1-0.6-1.6-0.7c-0.3-0.3-0.6-0.4-1-0.4c-0.5-0.5-1.2-0.7-1.8-0.8l0,0
			c-1.6-0.9-3.4-1.6-5.1-2.1c-0.3-0.3-0.6-0.4-1-0.4l0,0c-0.1-0.1-0.3-0.1-0.4-0.2c-0.1,0-0.3-0.1-0.4-0.1c-0.3-0.3-0.6-0.4-1-0.4
			c-0.1-0.7-0.6-0.8-1.2-0.7c-0.2,0-0.4-0.1-0.6-0.1c-0.4-0.2-0.8-0.4-1.2-0.6c-0.2-0.1-0.4-0.1-0.6-0.2c-0.7-0.5-1.5-0.8-2.3-1
			c-0.1-0.1-0.1-0.1-0.2-0.1c-0.2-0.1-0.3-0.2-0.5-0.2c-0.4-0.2-0.9-0.3-1.3-0.5c-0.5-0.4-1-0.6-1.6-0.7c-0.5-0.4-1.1-0.6-1.7-0.8
			c-0.4-0.4-1-0.6-1.6-0.7l0,0c-0.1-0.1-0.3-0.2-0.4-0.2c-0.1,0-0.2-0.1-0.4-0.1c-0.4-0.4-0.9-0.6-1.5-0.7c-1.6-0.9-3.3-1.6-5.1-2.2
			c-0.2-0.3-0.5-0.3-0.8-0.3c0-0.1-0.1-0.1-0.2-0.1c-0.2-0.1-0.3-0.2-0.5-0.2c-0.1,0-0.2-0.1-0.4-0.1c-4.5-2.1-9.3-3.4-14.2-4.3
			c-0.5-0.1-1-0.1-1.4-0.2c-0.4-0.3-1-0.3-1.5-0.3c-0.3,0-0.6-0.1-1-0.1c-0.5-0.4-1-0.3-1.6-0.3c-0.4,0-0.9-0.1-1.3-0.1
			c-0.4-0.3-0.8-0.3-1.2-0.2c-0.9,0-1.8-0.1-2.7-0.1c-0.6-0.4-1.3-0.3-2-0.2c-2.2-0.1-4.4-0.2-6.6,0c-0.1,0-0.2,0-0.4,0
			c-0.3,0-0.5,0-0.8,0c-0.5-0.1-1.1-0.1-1.5,0.2c-0.3,0-0.7,0-1,0.1c-0.6,0-1.3-0.1-1.8,0.3c-0.5,0.1-1,0.1-1.5,0.2
			c-0.2,0.1-0.3,0.1-0.5,0.2c-0.3,0-0.6,0.1-0.9,0.1c-0.3-0.1-0.5,0-0.7,0.3c-1.3,0.1-2.5,0.6-3.6,1.1c-1,0.1-1.8,0.5-2.6,1.1
			c-0.6,0-1,0.3-1.5,0.6c-1.3,0.5-2.5,1.1-3.6,1.9c-0.1,0-0.2,0-0.3,0.1c-0.1,0.1-0.2,0.2-0.4,0.2c-0.1,0.1-0.3,0.1-0.4,0.2
			c-0.9,0.4-1.8,0.9-2.5,1.6c-0.2,0.2-0.5,0.3-0.7,0.5c-0.1,0.1-0.3,0.2-0.4,0.3l0,0c-0.4,0-0.7,0-1.1,0.1l0,0
			c-0.3-0.9,0.6-1.4,0.9-2.1c0.1-0.1,0.2-0.2,0.3-0.3c0.4-0.4,0.7-0.7,1.1-1.1c0.4-0.3,0.7-0.7,1.1-1c0.4-0.2,0.8-0.5,1.1-0.9
			c0.4-0.3,0.7-0.6,1.1-0.8c0.1-0.1,0.2-0.2,0.3-0.3l0,0c0.1-0.1,0.3-0.2,0.4-0.3c0.2-0.2,0.5-0.3,0.7-0.5c0.1-0.1,0.2-0.2,0.3-0.2
			c0.9-0.6,1.7-1.1,2.6-1.7c0.5-0.1,0.9-0.4,1.2-0.7c0.6-0.3,1.1-0.6,1.7-0.9c0.1-0.1,0.2-0.2,0.4-0.2c4.6-2.1,9.2-4.3,14.1-5.5
			c0.3,0,0.5-0.1,0.8-0.1c0.2-0.1,0.5-0.1,0.7-0.2c0.4,0,0.7-0.1,1.1-0.1c0.3,0.1,0.6,0,0.9-0.2c0.4,0,0.9-0.1,1.3-0.1
			c0.9,0,1.7,0,2.6-0.3c0.7,0,1.4,0,2.2-0.1c0.1,0,0.2,0,0.4,0c1.5,0,2.9,0,4.4,0.1c1.3,0.9,2.6,1.1,4,0.1c-0.1-0.1-0.3-0.3-0.4-0.4
			l0,0c0.1-0.8-0.1-1.4-1-1.5c-0.1-0.1-0.2-0.2-0.3-0.4c-0.1-0.3-0.1-0.6-0.6-0.6l0,0c0-0.3-0.1-0.4-0.3-0.4l0,0
			c0-1.3-1.2-2.2-1.4-3.5c-0.1-0.6-0.5-1-1.1-0.9c-0.3,0.2-0.7,0.5-1,0.7c-1.7,0.7-3.2,1.8-4.8,2.8c-0.2,0-0.4-0.1-0.7-0.1
			c0-1.3-0.1-2.6,0.4-3.9c0.5-1.4,0.4-1.5-0.4-1.6c-0.5,0-1,0.1-1.4,0.1c-0.7,0-1.5,0-2.2,0.3c-0.2,0-0.5,0-0.7,0
			c0-0.2,0-0.5-0.1-0.7c0.6-0.9,1.2-1.9,1.5-2.9c0.4-0.6,0.8-1.1,0.9-2c-1.5,0.2-3,0-4.4,0.5c-0.6,0.4-0.9,0-1.3-0.4
			c0.6-0.6,0.9-1.3,1.1-2.1l0,0c0.1-0.1,0.2-0.3,0.2-0.4c0.1-0.1,0.1-0.2,0.1-0.3c0.1-0.1,0.2-0.3,0.3-0.4c0-0.1,0.1-0.2,0.1-0.4
			c0.1-0.2,0.2-0.5,0.4-0.7c0.1-0.2,0.2-0.4,0.3-0.7c0.5-0.7,0.9-1.4,1.1-2.2l0,0c1.1-1.7,1.1-1.7,0-1.9c-0.2,0-0.4,0-0.6,0
			c-0.7-0.4-1.5-0.2-2.3-0.4c-0.1-0.5-0.2-0.9-0.3-1.4c0.1-0.1,0.2-0.2,0.4-0.4c0.1-0.1,0.2-0.2,0.4-0.4c0.1-0.1,0.2-0.2,0.4-0.4
			c1.1-0.4,1.9-1.1,2.1-2.2l0,0c0.5,0,1.2,0.1,0.9-0.9l0,0c0.8-0.2,0.5-0.6,0.1-0.9l0,0c-0.7-1.1-1.9-1.1-3-1.1c-0.2,0-0.4,0-0.6,0
			c-0.1-0.1-0.2-0.1-0.3-0.1c-0.1-0.1-0.3-0.2-0.4-0.3c0.2-0.7,1-0.8,1.3-1.4c0.1,0,0.1,0,0.2-0.1c1.4-1.1,2.8-2.2,4.2-3.3
			c0.7-0.5,0.7-1,0.1-1.6c-1.5-1.5-2.9-3-4.3-4.5c-0.4-0.6-0.9-1.2-1.3-1.8l0.1,0l0.1-0.1c0.6,0,1.2,0,1.8,0c0.5,0,1,0,1.5,0.1
			c1.9,0.3,3.9,0.4,5.8,0.3c0.2,0,0.5,0,0.7,0c1.2,0.1,2.4,0.2,3.6,0.4c0.4,0,0.7,0.1,1.1,0.1c0.1,0.8,0.8,0.7,1.3,0.7
			c2.6,0.1,5,0.7,7.1,2.1c1.5,1,2.8,0.8,4-0.3l0,0c2.6-1,5.3-1.7,8-2.2c1.4,0,2.9-0.1,4.3-0.1c0.8,0.1,1.7,0.2,2.5,0.3
			c0.4,0,0.7,0.1,1.1,0.1c0.5,0.4,1.2,0.3,1.8,0.4l0,0c0.1,0.1,0.3,0.1,0.4,0.2c0.2,0,0.4,0.1,0.6,0.1c0.2,0.1,0.3,0.1,0.5,0.2
			c0.2,0,0.4,0.1,0.6,0.1c1.1,0.6,2.3,1.1,3.4,1.7c0.5,0.3,0.9,0.2,1.4-0.1c1.9-1.3,4.1-1.9,6.3-2.8c0.2,0,0.5-0.1,0.7-0.1
			c0.2-0.1,0.4-0.1,0.5-0.2c0.3,0,0.6-0.1,0.9-0.1c0.4,0,0.8,0,1.2-0.3c0.2,0,0.4,0,0.6-0.1c0.8,0,1.5,0.1,2.2-0.3
			c0.4,0,0.7-0.1,1.1-0.1c0.4,0,0.7,0,1.1,0c0.5,0,1,0,1.4,0c1.6,0,3.2,0.1,4.8-0.2c0.6,0,1.2,0,1.7-0.1c0.4,0.2,1-0.2,1.5,0.4
			c-1.4,1.5-2.7,3.1-4.1,4.6c-2.2,2.5-2.2,2.5,0.5,4.4l0.1,0.1c0.5,0.7,1.2,1.2,2,1.6l0,0c0.1,0.1,0.3,0.2,0.4,0.4l0,0
			c0.2,0.4,0.6,0.7,1.1,0.9c0.1,0.2,0.3,0.4,0.4,0.6c-1.2,0.5-2.3,1-3.5,1.3c-0.9,0.3-1.2,0.5-0.4,1.3c1.7,1.5,3.3,3.1,5,4.7
			c0,0.2,0.3,0.5,0,0.7c-1.8-0.1-3.5,0.2-5.5,0.4c0.7,1.2,1.3,2.3,1.9,3.3c0,0.1,0,0.2,0.1,0.2c0.1,0.1,0.2,0.3,0.2,0.4l0,0
			c0.6,1.6,1.3,3,2.2,4.4c0,0.1,0,0.2,0.1,0.2c0,0.1,0,0.2,0.1,0.3c-0.7,0.9-1.6,0-2.3,0.3c-1-0.4-2-0.3-3.3-0.2
			c1,1.8,1.8,3.3,2.6,4.8c0.1,0.1,0.2,0.3,0.2,0.4c-1.4,0.4-2.8-0.2-4.1-0.2c-1.1-0.1-1.4,0.3-1.2,1.3c0.2,1.4,0.5,2.8,0.3,4.5
			c-1.8-1.1-3.5-2-5.3-3c-0.5-0.3-0.9-0.7-1.4,0.2c-0.7,1.6-1.7,3.1-2.5,4.6l0,0c-3.7,4.6-8.2,8.1-14.4,9.9c2.4,1,4.2,1.8,6.1,2.6
			l0,0c0.1,0.1,0.3,0.2,0.4,0.3c0.1,0.1,0.2,0.1,0.3,0.1c2.5,1.4,5,2.6,7.7,3.6c0.1,0.1,0.2,0.2,0.3,0.1c6.3,3.2,12.7,6,19.2,8.5
			c2.5,1,4.9,2.5,7.8,2.2c0.2,0,0.3,0.1,0.5,0.1c0.2,0.1,0.4,0.1,0.6,0.2c0.2,0,0.5,0.1,0.7,0.1c0.2,0.2,0.5,0.3,0.7,0.2
			c0.4,0.1,0.7,0.1,1.1,0.2c0.5,0.4,1.2,0.3,1.8,0.4l0,0c0.2,0.3,0.5,0.3,0.7,0.2c0.4,0,0.7,0.1,1.1,0.1c0.3,0.2,0.7,0.3,1.1,0.3
			c0.7,0.1,1.4,0.1,2.1,0.2c0.8,0.4,1.7,0.3,2.6,0.2c1.3,0,2.7,0,4,0c0.8,0.1,1.5,0.1,2.3-0.3c0.2,0,0.4,0,0.6-0.1
			c1.3,0.1,2.5-0.2,3.7-0.7c0.2,0,0.5-0.1,0.7-0.1c1.4-0.3,2.8-0.6,4-1.3c0.1,0,0.2-0.1,0.4-0.1c0.2-0.1,0.3-0.2,0.5-0.3
			c0.5,0,0.9-0.2,1.3-0.5c0.1-0.1,0.3-0.2,0.4-0.3l0,0c0.2-0.1,0.5-0.2,0.7-0.3c0.4-0.2,0.7-0.3,1.1-0.5c0.2-0.1,0.3-0.2,0.5-0.3
			c0.4,0,0.7-0.2,1-0.5c0.1-0.1,0.3-0.2,0.4-0.3c0.1,0,0.2,0,0.3-0.1c0.1-0.1,0.3-0.2,0.4-0.3c0.1,0,0.2-0.1,0.3-0.1
			c0.1-0.1,0.2-0.2,0.3-0.2c0.4-0.1,0.8-0.3,1.1-0.7c0.8-0.3,1.6-0.8,2.2-1.5l0,0c0.8-0.5,1.6-1.1,2.4-1.5c0.6-0.3,1.3-1,1.5,0.4
			l0,0c-0.1,0.1-0.1,0.2-0.2,0.3c-0.2,0.3-0.3,0.5-0.5,0.8c-0.1,0.1-0.2,0.2-0.2,0.3c-0.1,0.1-0.1,0.2-0.2,0.3
			c-0.4,0.3-0.6,0.6-0.8,1.1l0,0c-0.8,0.7-1.4,1.6-1.9,2.6c-0.2,0.2-0.3,0.4,0,0.6l0,0c-0.8-0.4-0.8,0.4-1.1,0.8
			c-0.5,0.6-1.1,1.3-1.6,1.9l0,0c-1.8,1.6-3.6,3.2-5.5,4.7c0,0.1-0.1,0.1-0.1,0.1c-0.3-0.3-0.4,0-0.6,0.2l0,0
			c-0.2,0.1-0.3,0.2-0.5,0.3c-0.1,0-0.2,0-0.3,0.1c-0.1,0.1-0.3,0.2-0.4,0.3c-0.5,0.3-1,0.5-1.4,0.8c-0.2,0.1-0.3,0.2-0.5,0.3
			c-0.1,0-0.2,0-0.2,0.1c-0.2,0.1-0.3,0.2-0.5,0.3l-0.1,0l-0.1,0.1c-2.3,0.8-4.6,1.7-6.9,2.5c-0.9,0.2-1.7,0.3-2.6,0.5
			c-0.3-0.1-0.6,0-0.8,0.2c-0.6,0-1.1,0.1-1.7,0.1c-0.8,0-1.6-0.1-2.3,0.2c-0.9,0-1.8,0-2.7,0c-0.6-0.3-1.3-0.3-1.9-0.2
			c-0.7-0.1-1.5-0.1-2.2-0.2C144.4,130.2,143.9,130.2,143.4,130.2z M97.1,97.3c0.4,0.1,0.6,0.1,0.8-0.3l0.1,0
			c0.7,0.1,1.4,0.1,1.7-0.7l0,0c0.9,0,2,0.2,2.2-1.1c5.7-3.5,9.2-8.6,10.7-15c1.5,0.2,2.4,1.7,3.9,1.7l0,0c0,0.2,0,0.3,0,0.5
			c1.1,0.4,0.6-0.6,0.7-0.9c0.1-0.5-0.1-1.1,0.6-1.3c2.1-0.7,2-0.8,1-2.7c-0.4-0.8-1.3-1.9-0.9-2.5c0.5-0.6,1.8-0.3,2.8-0.1
			c0.6,0.1,1.4,0.7,1.7-0.4c-1-1.9-1.9-3.9-2.9-5.8c-1.2-2.3-1.2-2.3,1.4-2.6c0.1,0,0.1-0.2,0.4-0.5c-1.4-1.2-2.8-2.5-4.3-3.9
			c1.4-0.6,2.7-1,4.1-1.6c-0.6-0.5-1-0.9-1.4-1.2c-2.9-2.4-2.9-2.4-0.4-5.3c0.1-0.1,0-0.2,0.1-0.5c-5,0.3-9.9,0.8-14,4
			c-1.1,0.8-1.7,0.7-2.8,0.1c-7.9-4.6-15.8-4.6-23.7,0c-1,0.6-1.6,0.7-2.5-0.1c-4.2-3.2-9.1-3.9-14.2-4.1c0.3,0.9,0.8,1.4,1.4,1.9
			c1.2,1,1.4,1.8-0.1,2.7c-0.8,0.5-1.5,1.2-2.3,1.8c-0.9,0.7-0.1,0.9,0.4,1.2c0.1,0.1,0.2,0.1,0.3,0.1l0,0c0,0.2,0.1,0.5,0.1,0.5
			c2,0.7,1,1.6,0.1,2.3c-0.4,0.4-1,0.7-1.4,1.1c-0.4,0.4-0.9,0.8-0.4,1.5c0.3,0,0.6,0,0.9,0c2,0.1,2,0.1,1.1,2c-1,2-2,4.1-3.1,6.3
			c2,0.3,3.7-0.3,5.7-0.2c-0.9,1.8-1.8,3.5-2.8,5.5c3.1-1,3.3,0.6,2.6,2.9c1.2-0.7,2-1.1,2.7-1.6c1-0.7,1.6-0.8,1.9,0.7
			c0.6,2.9,2,5.4,3.8,7.8c3.4,4.4,7.9,7,13.2,8.5c0.2,0.4,0.4,0.4,0.7,0.1c0.2,0,0.5,0.1,0.7,0.1c1.9,1.3,6.1,1.1,8-0.2l0.1,0
			C96.1,97.7,96.8,98.2,97.1,97.3L97.1,97.3z"/>
		<path class="st1" d="M75.8,9.5c0.4,0,0.7-0.1,1.1-0.1c0.7,0,1.5,0.3,2.2-0.3c3.3,0,6.5,0,9.8,0c1.4,0.4,2.9,0.5,4.4,0.7
			c0.2,0,0.5,0.1,0.7,0.1c0.3,0.4,0.7,0.3,1.1,0.3c0.2,0,0.5,0.1,0.7,0.1c0.6,0.4,1.2,0.5,1.9,0.6c0.2,0,0.5,0.1,0.7,0.1
			c0.2,0.3,0.4,0.3,0.7,0.3c0.2,0,0.5,0.1,0.7,0.1c1,0.3,2,0.7,2.9,1c0.4,0.1,0.7,0.3,1.1,0.4c2.3,1.1,4.6,2.2,6.9,3.3
			c0.4,0.5,0.9,0.4,1.4,0.4c0.1,0,0.2,0.1,0.3,0.1c-0.1,0-0.1,0.1-0.1,0.2c0.4,1.1,1.5,1.3,2.3,1.8c0.2,0.1,0.5,0.3,0.7,0.4
			c0.4,0.5,0.9,0.7,1.4,0.8l0,0c0.7,1,1.6,1.9,2.9,2.3c1.8,2.3,4.2,4,6.3,6.1c0.1,0.1,0.2,0.2,0.3,0.3c1.8,2.4,3.6,4.9,5.5,7.3l0,0
			c0.6,1.3,1.1,2.6,2.2,3.6c0.1,0.2,0.2,0.5,0.3,0.7c0.6,1.7,1.3,3.3,2.2,4.7c0,0.7,0.2,1.3,0.7,1.8c0,0.2,0.1,0.5,0.1,0.7
			c0.1,0.1,0.2,0.3,0.3,0.4c0,0.2,0.1,0.5,0.1,0.7c0.1,0.1,0.2,0.3,0.3,0.4c0,0.1,0,0.2,0,0.3c0.1,0.3,0.2,0.5,0.3,0.8
			c0,0.2,0.1,0.5,0.1,0.7c0,0.3,0,0.5,0.3,0.7l0,0c0.6,3.3,1.2,6.5,1.8,9.8c0,1.3,0.1,2.7,0.1,4c0,0.5,0,1,0,1.4
			c-0.1,1.7-0.2,3.4-0.3,5.1c0,0.7-0.1,1.4-0.1,2.1c-0.6,0.7-0.3,1.5-0.4,2.2c-0.5,0.9-0.6,1.9-0.7,2.9c-0.3,1-0.6,1.9-0.8,2.9
			c-0.2,0.9-0.6,1.2-1.5,1.1c0-0.1,0-0.2-0.1-0.3c0-0.4,0-0.7,0-1.1c0-0.4,0-0.7,0-1.1c0.2-2.2,0.8-4.4,0-6.5c0-0.6,0-1.2-0.1-1.8
			c-0.4-6.7-1.8-13.1-4.5-19.2c-1.2-2.7-2.4-5.5-4.4-7.8c0-0.1,0-0.2-0.1-0.3c-0.1-0.7-0.7-1-1.1-1.5c-0.1-0.7-0.7-1-1.1-1.5
			c-0.5-1.1-1.3-2-2.2-2.8l0,0c-0.1-0.1-0.2-0.2-0.3-0.3c-0.1-0.4-0.4-0.6-0.7-0.8c-0.1-0.1-0.2-0.2-0.4-0.4
			c-0.1-0.3-0.4-0.6-0.7-0.7c-0.2-0.5-0.6-0.9-1.1-1.1c-0.4-0.6-0.8-1.1-1.5-1.4c-0.1-0.1-0.3-0.3-0.4-0.4c-2.8-2.7-5.9-4.8-9.4-6.6
			c-0.1-0.1-0.2-0.2-0.4-0.3c-4.1-2.3-8.4-4.3-13-5.2c-0.1-0.1-0.3-0.2-0.4-0.3c-0.4,0-0.7-0.1-1.1-0.1c-0.1-0.1-0.3-0.2-0.4-0.3
			c-0.6-0.1-1.2-0.3-1.8-0.4c-0.2,0-0.5,0-0.7-0.1c-0.1,0-0.2,0-0.3,0c-0.5-0.5-1.2-0.3-1.8-0.3c-0.3,0-0.7,0-1-0.1
			c-0.3-0.3-0.6-0.3-0.9,0c-1-0.1-2.1-0.2-3.1-0.4c-1.6-0.5-3.2-0.5-4.8,0c-0.6,0-1.2,0-1.8,0c-0.9,0.1-1.8-0.2-2.6,0.3
			c-0.7,0-1.4,0.1-2.1,0.1c-0.1,0.1-0.3,0.2-0.4,0.2c-0.5,0-1,0.1-1.4,0.1c-0.1,0.1-0.3,0.2-0.4,0.3c-0.3,0-0.7,0.1-1,0.1
			c-0.3,0-0.6,0-0.8,0.3c-0.4,0-0.7,0.1-1.1,0.1c-0.1,0.1-0.3,0.2-0.4,0.3c-0.1,0-0.2,0-0.3,0c-0.4,0-0.8,0-1.1,0.3
			c-0.2,0-0.4,0.1-0.7,0.1c-0.8,0.1-1.6,0.3-2.2,0.9c-0.1,0-0.2,0-0.3,0c-0.6-0.1-1.1,0.1-1.5,0.4c-0.4,0-0.8,0-1.1,0.4
			c-0.3,0-0.6,0-0.7,0.3c-0.6,0-1.1,0.3-1.5,0.7c-4.5,1.7-8.4,4.2-12,7.3c-0.2,0.2-0.5,0.4-0.7,0.7c-1.4,0.6-2.3,1.8-3.3,3l0,0
			c-0.9,0.6-1.6,1.3-2.2,2.2c-0.3,0.3-0.5,0.5-0.8,0.8c-0.1,0.1-0.2,0.2-0.3,0.3c-0.3,0.1-0.4,0.4-0.5,0.7c-0.7,0.6-1.5,1.1-1.5,2.1
			c0,0,0,0,0,0c-0.4,0-0.7,0.2-0.9,0.5c-1.6,2.4-3.4,4.8-4.5,7.5c-0.1,0.3-0.3,0.7-0.4,1c-0.4,0.6-0.7,1.3-1.1,1.9
			c-0.5,0.9-0.5,2.2-1.8,2.5l0,0c-0.1-0.2-0.3-0.5-0.4-0.7c0-0.4,0-0.7,0-1.1c0.4-0.3,0.4-0.7,0.3-1.1c0-0.2,0.1-0.5,0.1-0.7
			c0.1-0.1,0.2-0.2,0.2-0.4c0.1-0.4,0.1-0.7,0.2-1.1c0.5-0.9,0.8-1.9,1-2.9c0-0.2,0.1-0.5,0.1-0.7c0.8-1.4,1.3-2.9,1.8-4.4l0,0
			c1.3-2.1,2.4-4.3,3.3-6.5l0,0c0.5-0.2,0.7-0.6,0.7-1.1l0,0c2.8-3.4,5.3-7,8.4-10.2c0,0,0,0,0,0c1.8-1.3,3.5-2.8,5.1-4.4l0,0
			c0.7-0.1,1.1-0.6,1.5-1.1c0.5,0,0.8-0.3,1.1-0.7c1.9-1.1,3.9-2.2,5.8-3.3l0,0c0.8-0.2,1.6-0.5,2.2-1.1c0.7-0.3,1.5-0.5,2.2-0.8
			c0.1-0.1,0.3-0.2,0.4-0.3c0.2,0,0.5-0.1,0.7-0.1c0.1-0.1,0.2-0.2,0.4-0.3l0,0c3.6-1,7.3-1.9,10.9-2.9c0.5,0,1-0.1,1.4-0.1
			C75.3,9.9,75.6,9.8,75.8,9.5z"/>
		<path class="st2" d="M148.1,93.1c-0.3,0.2-0.3,0.4-0.3,0.7c-1.5,2.4-3,4.8-4.5,7.3c-0.9,1.5-2.3,2.7-3,4.4c-0.1,0-0.1,0.1-0.1,0.2
			c-0.7,0.3-1.2,0.8-1.4,1.6l0,0c-0.4,0.2-0.7,0.5-0.8,1l0.1,0l-0.1,0c-1.4,0.9-2.4,2.2-3.5,3.4c-1.5,1.5-3.1,1.7-4.9,0.5
			c-0.5-0.3-1.1-0.3-1.7-0.5l-0.1-0.1l-0.1,0c-0.2-0.1-0.4-0.2-0.5-0.3l0,0c-0.1-0.1-0.2-0.1-0.3-0.2c-0.2-0.1-0.5-0.2-0.7-0.2
			c-0.3-0.4-0.6-0.8-0.4-1.4c0.4-0.1,0.6-0.4,0.7-0.7c0.2,0,0.3-0.2,0.3-0.4c0.4-0.2,0.6-0.4,0.7-0.8c0.1-0.1,0.2-0.2,0.3-0.3
			c0.3-0.1,0.5-0.3,0.6-0.7c1.2-0.8,1.9-2,2.6-3.2c0.1-0.1,0.2-0.2,0.2-0.4c0.1-0.1,0.2-0.3,0.3-0.4c0.1,0,0.1-0.1,0.1-0.2
			c1.1-1.1,2-2.3,2.5-3.8c0.4-0.2,0.5-0.5,0.4-0.9c1.8-2,2.7-4.4,3.5-6.8c0-0.2,0.1-0.3,0.1-0.5c0.8-0.9,1.1-2,1.3-3.2
			c0.3-0.3,0.4-0.7,0.4-1.1c1.1-2.2,1.6-4.5,2.1-6.9c0-0.2,0.1-0.5,0.1-0.7c0.9-3.1,1.4-6.2,1.4-9.5c0.2-1.3,0.2-2.7,0.1-4
			c0.3-0.4,0.3-0.7,0-1.1c0.1-0.8,0.1-1.7,0-2.5c0.2-2.2,0-4.4-0.7-6.5c0-0.4,0-0.7-0.1-1.1c0.1-1.3-0.4-2.5-0.7-3.7
			c-1.1-4.3-2.2-8.6-4.6-12.4l0,0c-0.9-2.2-1.8-4.3-3.4-6.1c-2-3.5-4.3-6.7-7.3-9.4c-0.1-0.4-0.3-0.6-0.7-0.7
			c-0.3-0.6-0.7-1.3-1.5-1.5l0,0c-1.2-1.6-2.8-2.8-4.4-4l0,0c-1.5-1.4-3.1-2.8-5.1-3.7l0,0c-0.6-0.7-1.3-1.2-2.2-1.5
			c-0.1-0.3-0.4-0.3-0.7-0.3c-0.8-0.9-1.9-1.4-3-1.7c-0.2-0.3-0.4-0.4-0.7-0.4c-3.9-2.4-8.2-3.7-12.7-4.4C95,4,94,3.9,94.1,3.1
			c0.1-0.9,1.1-0.7,1.8-0.7c0.5,0,1.1,0.1,1.6,0.1c2.2,0.3,4.4,0.5,6.6,0.8c0.2,0,0.5,0.1,0.7,0.1c1,0.6,2.2,0.7,3.2,1
			c4.9,1.3,9.6,3.5,14.2,5.6c0,0.1,0.1,0.1,0.2,0.1c0.2,0.1,0.4,0.2,0.5,0.3c0.1,0.3,0.4,0.4,0.7,0.4c1.2,1.1,2.6,1.8,4,2.6l0,0
			c0.4,0.5,0.8,1,1.5,1.1l0.1,0.1c0,0,0.1,0,0.1,0c1.5,1.5,3.2,2.8,4.9,3.9l0,0c0,0.2,0.2,0.3,0.4,0.4c0.1,0.4,0.4,0.6,0.7,0.7
			c2.7,3.2,5.5,6.4,8.2,9.6c0,0,0,0,0,0c0.7,1.5,1.5,3,2.7,4.2l0,0c1.2,2.6,2.5,5.2,3.7,7.8c1.6,3.4,2.4,7.1,3.6,10.7
			c0,0.2,0.1,0.5,0.1,0.7c1,6.3,1.3,12.6,0.7,18.9c0,0.6-0.1,1.2-0.1,1.8c-0.5,1-0.7,2.1-0.6,3.3c0,0.4-0.1,0.7-0.1,1.1
			C152,82.8,150.4,88.1,148.1,93.1z"/>
		<path class="st3" d="M39.9,45.9c0.4-0.6,0.9-1.2,1.3-1.9c0.2-0.2,0.3-0.5,0.5-0.7c0.4-0.3,0.6-0.6,0.8-1.1
			c0.2-0.2,0.4-0.5,0.6-0.7c0.7-0.5,1.2-1.1,1.6-1.8c0.3-0.4,0.6-0.7,1-1.1C50.4,34,55.9,30.1,62,27.3c0.4,0.1,0.7-0.2,1.1-0.4
			c1.2-0.5,2.4-0.9,3.6-1.4c0.2,0,0.5-0.1,0.7-0.1c1.2-0.3,2.4-0.7,3.6-1c0.5,0,1.1,0,1.6-0.3l0.1,0.1l0.1-0.1
			c0.4,0,0.7-0.1,1.1-0.1c0.4,0.1,0.8,0,1.1-0.2c0.8-0.1,1.7-0.1,2.5-0.2c2.4,0,4.9,0,7.3-0.1c0.4,0,0.7,0.1,1.1,0.1
			c0.2,0,0.5,0,0.7,0c0.5,0,1,0,1.4,0.1c0.7,0.3,1.4,0.4,2.2,0.3c0.1,0,0.3,0,0.4,0c0.3,0.2,0.7,0.3,1,0.2c0.1,0,0.3,0,0.4,0
			c0.2,0,0.5,0.1,0.7,0.1c0.9,0.4,1.9,0.6,2.9,0.7c1,0.3,1.9,0.6,2.9,0.9c0.7,0.5,1.5,0.7,2.2,0.9c0.1,0,0.3,0.1,0.4,0.1
			c0.5,0.4,1.1,0.7,1.8,0.8c0.3,0.2,0.7,0.4,1,0.5c0.2,0.1,0.5,0.2,0.7,0.3c0.2,0.1,0.5,0.3,0.7,0.4c0.6,0.9,2.4,0.6,2.1,2.3
			l0.1,0.1l-0.1-0.1c-1.4,0.3-2.5-0.7-3.9-0.7c-0.3-0.3-0.7-0.3-1.1-0.3c-0.5-1-1.4-0.5-2.2-0.6c-0.4,0-0.7-0.1-1.1-0.1
			c-0.2-0.3-0.4-0.3-0.7-0.3c-0.4,0-0.7-0.1-1.1-0.1c-0.2-0.2-0.5-0.2-0.7-0.1c-0.4,0-0.7-0.1-1.1-0.1c-3.1-0.5-6.3-0.6-9.5-0.1
			c-0.7,0-1.4,0.1-2.2,0.1c-5,0.6-9.8,1.9-14.2,4.2c-2.5,1-4.8,2.3-6.9,4c-0.1,0-0.2,0-0.3,0.2c-0.1,0.1-0.2,0.2-0.3,0.3
			c-0.1,0.1-0.3,0.2-0.4,0.3c-0.8,0.3-1.4,0.8-1.9,1.4c-0.1,0.1-0.2,0.2-0.3,0.3c-1,0.6-1.8,1.3-2.6,2.3c0,0,0,0,0,0
			c-1.2,0.8-2.1,1.8-2.9,3c-0.1,0.1-0.2,0.3-0.3,0.4c-1.3,1.2-2.4,2.7-3.3,4.3c-0.1,0.2-0.2,0.3-0.3,0.5c-0.1,0.1-0.2,0.2-0.2,0.3
			c-0.2,0.3-0.3,0.5-0.5,0.8c-0.3,0.1-0.4,0.3-0.4,0.7l0,0c-0.5,0.4-0.7,0.9-0.9,1.5c-0.4,0.5-0.8,1.1-0.9,1.8
			c-1.9,3.2-3.1,6.6-3.9,10.2c0,0.2-0.1,0.5-0.1,0.7c-0.2,0.2-0.3,0.4-0.2,0.7c0,0.4-0.1,0.7-0.1,1.1c-0.5,1.2-0.5,2.4-0.6,3.6
			c0,0.6-0.1,1.2-0.1,1.8c-0.4,2.2-0.4,4.4,0,6.5c0,0.8,0.1,1.7,0.1,2.5c-0.1,0.4-0.1,0.8,0.2,1.1c0.1,0.5,0.1,1,0.2,1.4
			c0.1,0.9,0.1,1.8,0.5,2.6c0.1,0.4,0.1,0.7,0.2,1.1c0.4,1.4,0.7,2.9,1.2,4.3c0.4,1,0.1,1.5-0.9,1.9c-2.1,0.8-4.1,1.6-6,2.9
			c-0.4,0-0.7,0-1.1,0c-1.6-3.5-2.8-7.2-4-10.9c-0.1-0.4-0.1-0.7-0.2-1.1c-1.3-6.9-1.5-13.8-0.3-20.7c0-0.4,0.1-0.7,0.1-1.1
			c0.5-1.3,0.8-2.6,1-4c0.1-0.1,0.1-0.2,0.1-0.3c0.1-0.1,0.1-0.3,0.2-0.4c0.1-0.2,0.1-0.5,0.2-0.7c0.5-0.9,0.9-1.9,1-2.9l0,0
			c0-0.1,0.1-0.2,0.1-0.3c0.1-0.3,0.2-0.5,0.3-0.8c0.7-1,1.1-2.1,1.5-3.2l0,0c0.5-0.5,0.8-1.2,1-1.9l0,0c0.1-0.1,0.1-0.2,0.2-0.3
			c0.1-0.1,0.1-0.2,0.2-0.3c0.1-0.1,0.2-0.3,0.3-0.4C39,47.3,39.5,46.6,39.9,45.9z"/>
		<path class="st4" d="M22,191.2c-5.3-8-4.4-17-4.1-25.8c0.1-2,0.4-4,0.8-5.9c1.9-8.1,7.1-12.6,15.4-13.2c3.4-0.2,6.9-0.5,10,1.4
			c0.7,0.3,1.5,0.4,2.1,1c0.7,0.8,1.5,1.2,2.6,1l0,0c-0.3,0.5,0.1,0.7,0.4,1c4.2,3.9,5.8,8.9,5.9,14.3c0.1,6.4,0.3,12.9-0.7,19.3
			l0,0c-0.7,0.3-0.8,0.8-0.5,1.5c0.3,0.8,1,0.7,1.7,0.7l0,0c1,1.7,1.8,3.5,1.5,5.6c-0.1,0.4,0,0.8,0.6,1c0,0.2,0,0.5,0,0.7
			c-0.5,0-1.2,0-1.2,0.7c0,0.7,0.7,0.7,1.2,0.7c0,0.2,0,0.5,0,0.7c-0.3,0.3-0.6,0.9-1.2,0.4c-0.4-0.3-0.8-0.6-1.4-0.6l0.1,0
			c0,0-0.1,0-0.1,0c-0.4-1.4-1.5-1.8-2.8-2l0,0c-0.2-1.2-1.2-1.7-2.2-1.7c-0.6,0-1.7,0.3-1.2,1.5l-0.1,0c-0.3-0.1-0.4,0-0.4,0.3
			c0,0,0,0,0,0c-0.4,0.1-0.9,0.1-1.2,0.3c-3.9,2.5-8.3,2.3-12.6,2c-2.9-0.2-5.8-0.7-8.3-2.6c-0.3-0.3-0.5,0-0.7,0.3
			c-0.1-0.1-0.2-0.2-0.3-0.2c-0.4-1.5-1.6-1.8-2.9-1.8C22.2,191.7,22.1,191.5,22,191.2z M48.2,171.8c0.1-4.6,0-8.6-1.5-12.5
			c-1.2-3.1-3.2-5.4-6.6-6.3c-6.9-1.9-12.5,1.4-14.1,8.4c-1.2,5.6-1,11.3-0.5,17c0.2,2.4,0.8,4.6,1.9,6.8c0.4,0.8,0.8,1,1.7,0.4
			c5.1-3.3,10.7-4.4,16.7-3.2c1.3,0.3,1.5-0.3,1.7-1.3C48.1,178,48.3,174.6,48.2,171.8z M30.6,188.5c3,2.7,11.1,2.5,12.9-0.4
			C39.1,185.8,34.9,186.5,30.6,188.5z"/>
		<path class="st5" d="M80.9,139.4c-0.2,0-0.5-0.1-0.7-0.1c-1.6-0.7-3.4-1-5.1-1.4c-0.2-0.1-0.5-0.1-0.7-0.2
			c-1.6-0.8-3.4-1.3-5.1-1.8c-0.2-0.3-0.5-0.3-0.8-0.3c-2-0.9-3.9-1.9-5.9-2.8l-0.1,0c-0.8-0.8-1.7-1.2-2.7-1.6l0,0
			c-1-0.9-2.1-1.6-3.3-2.1c-0.1-0.1-0.3-0.2-0.4-0.3c-0.5-0.6-1-1-1.7-1.2c-0.2-0.4-0.6-0.5-1-0.6c-0.7-0.9-1.5-1.5-2.5-2l0,0.1
			l0-0.1c-0.4-0.6-0.9-1.1-1.6-1.4c-0.1-0.4-0.4-0.6-0.8-0.7c-1.8-1.8-3.6-3.7-5.4-5.5l0,0c-0.8-1.3-1.8-2.6-2.9-3.7
			c0-0.1,0-0.2-0.2-0.3c-0.7-1.1-1.5-2.1-2.1-3.2c-0.3-0.4-0.9-0.8-0.4-1.4c0.4-0.5,1-0.5,1.6-0.1c0.1,0.1,0.3,0.2,0.4,0.4
			c0.4,0.7,0.9,1.3,1.6,1.7c0.3,0.5,0.7,1,1.3,1.2l0,0c0.7,0.9,1.4,1.8,2.6,2.1l0.1,0c0.3,0.9,1.2,1.2,1.9,1.7l0.1,0
			c0.8,0.9,1.8,1.7,2.9,2.1l0,0c0.6,0.7,1.3,1.2,2.1,1.5l0,0c0.4,0.8,1.2,1,1.9,1.4c0.3,0.4,0.6,0.6,1.1,0.6
			c0.3,0.4,0.6,0.7,1.1,0.7c0.1,0.3,0.4,0.4,0.7,0.4c0.5,0.5,1.2,0.8,1.9,1l0,0c5.5,3.2,11.5,5,17.8,6.1c0.4,0,0.7,0.1,1.1,0.1
			c0.2,0.1,0.3,0.2,0.5,0.2c5.9,1,11.9,1.2,17.9,0.7c2.1-0.2,4.3-0.1,6.4-1c0.5-0.1,1-0.1,1.4-0.2c1.9-0.4,3.8-0.4,5.5-1.5l0,0
			c1.6,0.1,3-0.5,4.3-1.2c1.1-0.1,2-0.5,2.9-1.1c0.3,0,0.6-0.1,0.7-0.3c0.3,0,0.6,0,0.7-0.3c0.7-0.1,1.3,0.2,1.9,0.5
			c3.7,1.4,7.2,3.2,11.1,4.2c0,0,0,0,0,0c0.6,0.9-0.5,0.9-0.7,1.4c-0.3,0-0.6,0-0.7,0.4c-0.8,0.2-1.5,0.6-2.1,1.2
			c-0.3-0.1-0.5,0-0.6,0.2c-0.8,0.2-1.5,0.4-2,1c-0.7,0-1.3,0.4-1.8,0.8c-0.3-0.1-0.6,0-0.7,0.3c-0.5,0.2-1,0.4-1.5,0.6
			c-1,0.3-2.1,0.4-3,1.2c0,0,0,0,0,0c-1,0.1-2,0.3-2.8,0.9c-0.2,0-0.5,0.1-0.7,0.1c-1.7,0.4-3.5,0.6-5.1,1.3c-0.2,0-0.5,0.1-0.7,0.1
			c-1-0.1-2,0.2-2.9,0.6c-0.5,0-1,0.1-1.4,0.1c-2.2,0.2-4.4,0.4-6.5,0.6c-2.2,0-4.4,0-6.5,0c-1.9-0.4-3.9-0.5-5.8-0.6
			c-0.5,0-1-0.1-1.4-0.1C82.9,139.6,81.9,139.3,80.9,139.4z"/>
		<path class="st5" d="M154.9,85.9c0-0.1,0-0.1-0.1-0.2c2.1-4.3,3-9,3.7-13.7c0.1-0.5,0.1-1,0.2-1.4c0.4-1.4,0.6-2.9,0.6-4.4
			c0.3-3.9,0.4-7.7,0-11.6c0.1-1.4-0.1-2.7-0.6-4c0-0.2-0.1-0.5-0.1-0.7c0-0.4,0.1-0.7,0-1.1c-0.4-1.6-0.9-3.1-1.3-4.7
			c-0.2-0.6-0.3-1.3,0.3-1.6c0.7-0.4,1,0.4,1.3,0.9c0.2,0.4,0.3,0.8,0.5,1.2c0.7,1.8,1.4,3.6,2,5.4c0.1,0.2,0.1,0.5,0.2,0.7
			c0.3,1.9,0.7,3.7,1.4,5.5c0,0.4,0.1,0.7,0.1,1.1c0,1.1,0.2,2.2,0.6,3.3c0,0.6,0.1,1.2,0.1,1.8c0.2,2.2,0.1,4.4,0.6,6.6
			c0,1.2,0,2.4,0,3.6c-0.2,2.5-0.4,5.1-0.6,7.6c0,0.4-0.1,0.7-0.1,1.1c-0.9,4.4-2,8.8-3.2,13.1c-0.2,0.2-0.3,0.5-0.1,0.8
			c-0.5,0.3-0.6,0.8-0.6,1.3c-0.3,0.2-0.3,0.5-0.3,0.8c-0.4,0.5-0.7,1.1-0.8,1.8c-0.1,0.2-0.1,0.4-0.2,0.6c-0.1,0-0.1,0.1-0.1,0.2
			c-0.1,0.1-0.1,0.2-0.2,0.2c-0.1,0.2-0.2,0.5-0.3,0.7c-0.3,0.2-0.4,0.4-0.4,0.7c-0.5,0.7-0.9,1.4-1.1,2.2c-1.5,2.5-3,5.1-4.5,7.6
			c-0.4,0.1-0.5,0.4-0.5,0.8c-1.1,0.9-1.8,2.1-2.5,3.2c-1.1,2-2.9,1.9-4.8,1.4c-2.9-0.7-5.7-1.4-8.6-2.1l0,0c0-0.2,0-0.4,0-0.6
			c0.1-0.1,0.2-0.2,0.3-0.3c0.7-0.4,1.3-0.8,1.7-1.5c0.1-0.1,0.3-0.3,0.4-0.4c0.7-0.5,1.3-1,1.8-1.8c1.1-0.6,1.5-1.8,2.3-2.7
			c2.9-2.4,4.9-5.5,6.7-8.7c0,0,0-0.1,0-0.1c0.4-0.2,0.6-0.4,0.6-0.9l0,0c0.6-0.5,0.9-1.1,1.1-1.8c0.3-0.1,0.4-0.4,0.4-0.7
			c1.3-1.8,2.2-3.7,2.8-5.8c0.2-0.4,0.3-0.7,0.5-1.1C154.5,87.4,154.7,86.7,154.9,85.9z"/>
		<path class="st4" d="M102.1,166.2c-0.1-0.1-0.1-0.2,0-0.3c1.3-1.7,3-2.3,5.1-2.3c0.7,0,1.6,0,2-0.9c0.3,0,0.5-0.1,0.8-0.1
			c2.2,0.4,4.3,0.4,6.5,0c5.8,0.8,8.5,3.1,9.4,7.9c-0.1,0.2-0.3,0.4-0.3,0.6c-0.3,7.4,0.6,14.9-0.6,22.3c0,0,0,0,0,0
			c-0.5,0-0.5,0.3-0.5,0.6l0,0c-0.5,0-0.8,0.2-0.7,0.7l0,0c-0.2,0.1-0.7-0.2-0.4,0.3c-0.6,0.3-1.3,1.5-1.7,0.1
			c-0.6-1.7-1.3-1.7-2.6-0.9c-2,0.1-3.6,1.3-5.4,1.9c-0.3,0.1-0.5,0.1-0.8,0.2c-1.9-0.4-3.9-0.5-5.8,0c-0.2-0.1-0.5-0.1-0.7-0.2
			c-0.7-1.1-1.9-1.2-3-1.4l0-0.1c0,0,0,0.1,0,0.1c0-0.3-0.1-0.4-0.4-0.4l0,0c0-0.3-0.1-0.4-0.4-0.4c0,0,0.1-0.1,0.1-0.1
			c0,0-0.1,0.1-0.1,0.1c0-0.3-0.1-0.4-0.4-0.4l0.1-0.1c0,0-0.1,0.1-0.1,0.1c0-0.3-0.1-0.4-0.4-0.4l0,0c0.1-1.5-1.4-2.2-1.6-3.6
			c-0.4-3.1-0.4-6.2,0.7-9.3l0,0c1,0,1.1-0.6,1.1-1.4c0.2-0.4,0.4-0.7,0.9-0.8c0.6-0.3,1.5,0,1.6-1.1l0,0c0.6,0,1.2,0,1.8-0.2
			c2.5-0.9,5-1.4,7.7-1.3c1.2,0.1,2.4,0.1,3.6-0.1c1.1-0.1,2-0.6,1.3-2c0-0.5-0.1-1-0.1-1.5c0.5-1.6-0.2-2.5-1.5-3.3
			c-2.8-1.7-5.8-0.8-8.6-0.4c-1,0.1-2.4-0.6-3,0.8l0,0c-0.2,0-0.5,0-0.7,0c-2.2,0.2-2.2,0.2-2.2-2.2
			C102.7,166.8,103.1,166.1,102.1,166.2z M118.8,184.8c0-1.1,0-2.3,0-3.4c0-0.5,0-1.1-0.7-1c-3,0.4-6.1,0.1-8.9,1.2
			c-1.9,0.7-2.6,2.4-2.5,5c0.1,2.3,0.9,3.3,3,4c1.9,0.6,3.8,0.4,5.7-0.1c3.3-0.9,3.4-1.2,3.4-4.6
			C118.8,185.5,118.8,185.1,118.8,184.8z"/>
		<path class="st4" d="M151.7,179.4c0.4-0.3,0.7-0.7,1.1-1c0,0,0.1-0.1,0.1-0.1l0.1-0.1c1.2-0.1,1.9-0.9,2.8-1.5l0,0
			c2.8,0.2,5.4-1,8.1-0.8c0.3,0,0.5-0.3,0.6-0.6c0.2,0,0.5,0,0.7,0c1.3,0.3,2.9,0.9,3.6-0.3c0.5-1,0.7-2.7-0.7-3.8l0,0
			c-0.1-1.4-0.5-2.4-2.2-2.2l0,0c-1.1-0.9-2.4-1.2-3.9-1.1c-2.9,0.1-5.7,0.9-8.5,1.5c-0.4,0.1-1.1,0.6-1.3,0c-0.6-1.4-0.1-3,0.1-4.4
			c0.1-0.8,0.9-0.5,1.4-0.8c1.2-0.6,2.5-0.7,3.9-0.7c0.7,0,1.2-0.2,1.3-0.9c0.2,0,0.5-0.1,0.7-0.1c0.3,0.1,0.6,0.3,0.8,0.3
			c3.6-0.3,7.1,0.5,10.6,1.3l0.1,0c0.2,1.5,1.4,1.7,2.5,2.2c0,0,0,0,0,0c-0.3,0.6,0,0.8,0.5,0.9l0,0c0,0.4-0.1,0.9,0.5,1l0,0
			c0.3,1.5,0.3,3.1,0.3,4.7c0,4.8-0.1,9.6,0,14.3c0.1,2.1,0.1,4.2-0.4,6.2l0,0c-0.8-0.1-1.2,0.5-1.6,1c-0.8,0.8-1.3,0.9-1.9-0.2
			c-0.6-1.2-1.5-1-2.4-0.4c-2.7,1.7-5.6,2.4-8.8,2.6c-2.4,0.2-4.6-0.6-6.8-1.1c-0.8-0.9-1.7-1.7-2.5-2.6c0-0.6-0.1-1.2-0.8-1.4l0,0
			c0-1-0.4-2-0.4-3c0-2.6-0.1-5.2,1-7.7l0.1,0.1l-0.1-0.1C151.3,180.6,151.3,179.9,151.7,179.4z M158,181.8c-0.3,0-0.6,0-0.7,0.4
			l0,0c-1.1,0.1-0.7,0.9-0.8,1.4l0,0c-1.6,1.8-1,5.3,1.2,6.4l0,0c0,0.9,0.8,1.1,1.3,1.2c2.2,0.1,4.3,0.3,6.5-0.3
			c0.4-0.1,0.6-0.4,0.7-0.7l0,0c0.6,0,1.4,0.4,1.5-0.7l0,0c1,0,1.1-0.7,1.2-1.4c0.1-2.4-0.2-4.8,0.2-7.1c0.1-0.4-0.3-0.4-0.6-0.4
			c-0.7,0-1.4,0-2.1,0c-0.2,0-0.4,0-0.6,0c-0.4,0.3-0.8,0.3-1.3,0.2c-1.1-0.6-2.3-0.4-3.4-0.2c-0.8,0.2-2-0.3-2.4,1l0,0
			C158.3,181.4,158.1,181.5,158,181.8L158,181.8z"/>
		<path class="st6" d="M70,163.5c0.6-0.2,1.2-0.2,1.8-0.1c0.8,0.5,0.7,1.3,0.7,2.1c0,6.8,0,13.6,0,20.5c0,1.2-0.1,2.4,1.1,3.2l0,0
			c0.5,1.8,2.1,2,3.5,2.2c2.8,0.4,5.5-0.3,8.1-1.3c0.4-0.2,0.8-0.4,0.7-0.9c0-8,0.1-16,0-24.1c0-1.4,0.4-1.8,1.7-1.7
			c1.5,0.1,3,0.1,4.5,0.1c0.7,0.7,0.7,1.6,0.7,2.5c-0.2,9.1,0.4,18.1-0.4,27.2l0,0c-0.9,0.2-1.5,0.5-1.2,1.6l-0.1,0
			c-1.6,0.5-1.6,0.5-3.1-0.5l0,0c-0.1-0.4,0.1-1-0.5-0.9c-0.5,0.1-1.2,0.3-1.2,1.1l0-0.1c0,0,0,0.1,0,0.1c-2.1-0.1-3.8,1.1-5.7,1.6
			c-2.8,0.7-5.5,0.8-8.3-0.1c-1.8-0.6-3.1-1.8-4.7-2.7l0,0c0.2-1.2-0.9-1.8-1.4-2.6l-0.1-0.1l0-0.1c0.6-1.7,0.1-3.4,0.1-5.1
			c-0.1-5.5-0.1-11,0-16.4c0-0.7,0.1-1.3,0.2-2C66.7,164.8,68.6,164.4,70,163.5z"/>
		<path class="st6" d="M141.1,152.4c0,12,0,24,0,36c-0.7,1.5,0.3,2.2,1.3,2.7c0.8,0.4,1.1,0.9,1,1.7c-0.1,0.7-0.3,1.5-0.2,2.1
			c0.2,1.2-0.4,1.1-1.2,1.1c-4.5,0.2-7.7-3.3-7.7-7.9c0-11.7,0-23.5,0-35.2c0-1.6-0.7-3.7,0.3-4.8c1.1-1.2,3.2-0.2,4.9-0.5l0,0
			c0.1,0.3,0.2,0.7,0.4,1C140.7,149.7,140,151.3,141.1,152.4z"/>
		<path class="st7" d="M139.4,147.6c-1.7,0.2-3.8-0.8-4.9,0.5c-0.9,1.1-0.3,3.1-0.3,4.8c0,11.7,0,23.5,0,35.2c0,4.7,3.2,8.1,7.7,7.9
			c0.8,0,1.4,0.1,1.2-1.1c-0.1-0.7,0.1-1.4,0.2-2.1c0.1-0.8-0.1-1.3-1-1.7c-1-0.5-2.1-1.2-1.3-2.7c0.1,0.9,0.4,1.8,1.4,1.9
			c1.4,0.2,1.5,1,1.4,2.1c0,0.2,0,0.5,0,0.7c0,3.9,0,3.9-3.8,3.3c-3.7-0.5-5.8-2.9-6.1-7.1c-0.1-1.9-0.1-3.7-0.1-5.6
			c0-11.7,0-23.3,0-35c0-1.8,0.5-2.2,2.1-1.9C137.1,147,138.4,146.8,139.4,147.6z"/>
		<path class="st7" d="M54.3,184.4c0.9-6.4,0.8-12.9,0.7-19.3c-0.1-5.5-1.7-10.5-5.9-14.3c-0.3-0.3-0.7-0.5-0.4-1
			c3.7,2.6,5.4,6.4,6.2,10.7c1.5,7.9,1.2,15.7-0.4,23.6C54.6,184.1,54.4,184.2,54.3,184.4z"/>
		<path class="st7" d="M70,163.5c-1.4,0.9-3.3,1.3-3.4,3.4c-0.1,0.7-0.2,1.3-0.2,2c0,5.5-0.1,11,0,16.4c0,1.7,0.5,3.4-0.1,5.1
			c-0.6-1-0.6-2.1-0.6-3.1c0-6.4,0-12.8,0-19.2C65.7,164.8,66.7,163.8,70,163.5z"/>
		<path class="st7" d="M73.7,189c-1.3-0.7-1.1-2-1.1-3.2c0-6.8,0-13.6,0-20.5c0-0.8,0.1-1.6-0.7-2.1c1.4-0.4,1.3,0.6,1.3,1.5
			c0,6.2,0,12.5,0,18.7C73,185.4,73,187.2,73.7,189z"/>
		<path class="st7" d="M159,162.7c-0.1,0.8-0.7,1-1.3,0.9c-1.3-0.1-2.6,0.1-3.9,0.7c-0.5,0.2-1.4,0-1.4,0.8c-0.1,1.5-0.6,3-0.1,4.4
			c0.2,0.6,0.9,0.1,1.3,0c2.8-0.6,5.6-1.4,8.5-1.5c1.4,0,2.7,0.2,3.9,1.1c-4.8-0.9-9.5-0.2-14.2,1.7c0-2.1,0-4.1,0-6.1
			c0-0.5,0.5-0.6,0.9-0.7C154.7,163.4,156.8,162.8,159,162.7z"/>
		<path class="st7" d="M174.7,193.5c0.5-2,0.5-4.1,0.4-6.2c-0.1-4.8,0-9.6,0-14.3c0-1.6,0.1-3.1-0.3-4.7c0.8,1.2,1,2.6,1,4
			c0,6,0,12.1,0,18.1C175.7,191.5,175.5,192.6,174.7,193.5z"/>
		<path class="st7" d="M125,193.5c1.2-7.4,0.3-14.9,0.6-22.3c0-0.2,0.2-0.4,0.3-0.6c0.5,2.1,0.2,4.3,0.2,6.5c0,4.2,0,8.4,0,12.6
			C126.1,191,126.1,192.5,125,193.5z"/>
		<path class="st7" d="M153.2,195.3c2.3,0.5,4.4,1.3,6.8,1.1c3.2-0.2,6.1-0.9,8.8-2.6c0.9-0.6,1.8-0.7,2.4,0.4
			c0.5,1.2,1.1,1,1.9,0.2c0.4-0.5,0.8-1.1,1.6-1c-0.2,0.7-0.8,1.2-1.4,1.6c-1.1,0.9-2,1.5-2.5-0.5c-0.3-1.3-1-0.6-1.6-0.2
			c-3.9,2.2-8.1,3-12.6,2.4C155.4,196.5,154.1,196.2,153.2,195.3z"/>
		<path class="st7" d="M67.7,193.1c1.6,0.9,3,2.1,4.7,2.7c2.8,0.9,5.5,0.8,8.3,0.1c1.9-0.5,3.6-1.6,5.7-1.6
			c-4.4,2.7-9.2,3.3-14.2,2.1C70.3,196,68.8,194.8,67.7,193.1z"/>
		<path class="st7" d="M25.5,194c0.1-0.3,0.3-0.6,0.7-0.3c2.4,1.9,5.4,2.4,8.3,2.6c4.3,0.2,8.7,0.4,12.6-2c0.3-0.2,0.8-0.2,1.2-0.3
			c-2.9,2.4-6.4,2.9-10,3C33.8,197,29.4,196.6,25.5,194z"/>
		<path class="st7" d="M92.5,193.1c0.7-9.1,0.2-18.1,0.4-27.2c0-0.9,0-1.8-0.7-2.5c1.4-0.4,1.1,0.7,1.1,1.4c0,6.1,0,12.2,0,18.3
			c0,2.4,0,4.7,0,7.1C93.2,191.2,93.2,192.2,92.5,193.1z"/>
		<path class="st7" d="M105.6,169.4c0.6-1.5,2.1-0.7,3-0.8c2.9-0.3,5.8-1.3,8.6,0.4c1.3,0.8,2,1.8,1.5,3.3c-0.9-2.7-2-3.5-4.9-3.6
			C111,168.6,108.3,169,105.6,169.4z"/>
		<path class="st7" d="M118.8,173.9c0.7,1.4-0.2,1.9-1.3,2c-1.2,0.1-2.4,0.1-3.6,0.1c-2.7-0.2-5.2,0.4-7.7,1.3
			c-0.5,0.2-1.2,0.1-1.8,0.2c3.1-1.8,6.7-1.7,10.1-2.1c1-0.1,1.9-0.1,2.9-0.1C118.4,175.3,118.8,174.8,118.8,173.9z"/>
		<path class="st7" d="M22.4,192c1.3,0,2.5,0.2,2.9,1.8c-1.4-1.3-2.6-1-4,0.2c-1,0.8-1.9,2-3.9,1.6c1.2-1.1,2.3-2.1,3.3-3.1
			c0.1,0.1,0.1,0.2,0.2,0.3c0,0.3,0.1,0.7,0.5,0.6C22,193.1,22.3,192.6,22.4,192L22.4,192z"/>
		<path class="st7" d="M85.9,189c0,0.5-0.3,0.7-0.7,0.9c-2.6,1-5.3,1.7-8.1,1.3c-1.4-0.2-3-0.4-3.5-2.2c3.7,2.8,7.5,1.7,11.3,0.4
			C85.3,189.3,85.6,189.1,85.9,189z"/>
		<path class="st7" d="M100.8,180.7c-1.1,3-1.1,6.1-0.7,9.3c0.2,1.4,1.7,2.1,1.6,3.6C98.8,190.4,98.4,184.3,100.8,180.7z"/>
		<path class="st7" d="M171.1,164.2c-3.5-0.9-6.9-1.7-10.6-1.3c-0.3,0-0.5-0.2-0.8-0.3c3.3-0.3,6.5-0.4,9.7,0.7
			C170,163.5,170.7,163.6,171.1,164.2z"/>
		<path class="st7" d="M150.5,180.6c-1.1,2.5-1,5.1-1,7.7c0,1,0.4,2,0.4,3C148.6,187.6,148.2,184,150.5,180.6z"/>
		<path class="st7" d="M57.5,193.1c-0.5-0.1-0.6-0.5-0.6-1c0.3-2.1-0.5-3.9-1.5-5.6c1.6,0.6,2.2,1.7,2.1,3.3
			C57.4,190.9,57.5,192,57.5,193.1z"/>
		<path class="st7" d="M109.2,162.7c-0.4,0.8-1.3,0.9-2,0.9c-2.1,0-3.8,0.6-5.1,2.3c-0.3-1.1,0.1-1.6,1.2-1.9
			C105.2,163.4,107.2,162.8,109.2,162.7z"/>
		<path class="st7" d="M164.5,175.4c-0.1,0.3-0.3,0.6-0.6,0.6c-2.8-0.3-5.4,1-8.1,0.8C158.5,175.6,161.5,175.5,164.5,175.4z"/>
		<path class="st7" d="M102.1,166.2c1-0.1,0.6,0.6,0.6,1.1c-0.1,2.4-0.1,2.4,2.2,2.2c0.2,0,0.5,0,0.7,0c-1.2,0.4-2.3,0.9-3.5,1.3
			C102.1,169.2,102.1,167.7,102.1,166.2z"/>
		<path class="st7" d="M168.1,171.3c1.3,1.1,1.2,2.8,0.7,3.8c-0.6,1.2-2.3,0.7-3.6,0.3c3.6-0.3,3.6-0.3,2.9-3.9
			C168.1,171.4,168.1,171.3,168.1,171.3z"/>
		<path class="st7" d="M141.1,152.4c-1.1-1-0.4-2.7-1.3-3.8c-0.2-0.2-0.3-0.6-0.4-1C141.7,148.6,141.1,150.6,141.1,152.4z"/>
		<path class="st7" d="M107,196.6c1.9-0.5,3.9-0.5,5.8,0C110.9,197,109,197.1,107,196.6z"/>
		<path class="st7" d="M116.5,162.6c-2.2,0.5-4.3,0.4-6.5,0C112.1,162.4,114.3,162.3,116.5,162.6z"/>
		<path class="st7" d="M48.7,149.6c-1,0.2-1.9-0.2-2.6-1c-0.6-0.6-1.4-0.7-2.1-1C46,147.3,47.3,148.6,48.7,149.6z"/>
		<path class="st7" d="M113.6,196.4c1.8-0.7,3.4-1.8,5.4-1.9C117.4,195.6,115.6,196.3,113.6,196.4z"/>
		<path class="st7" d="M48.7,193.6c-0.4-1.2,0.6-1.5,1.2-1.5c1,0,2,0.5,2.2,1.7C51,193.3,50,192.1,48.7,193.6z"/>
		<path class="st7" d="M88.1,194.2c1.4,1,1.4,1,3.1,0.5c-0.1,0.1-0.2,0.3-0.3,0.4C89,196.6,88.8,196.5,88.1,194.2z"/>
		<path class="st7" d="M173.7,166.4c-1.1-0.4-2.4-0.7-2.5-2.2C172.3,164.6,173.2,165.3,173.7,166.4z"/>
		<path class="st7" d="M54.9,195.8c0.6-0.1,1,0.2,1.4,0.6c0.6,0.6,0.9,0,1.2-0.4c0,0.5,0,1.1,0,1.7
			C56.5,197.1,55.6,196.6,54.9,195.8z"/>
		<path class="st7" d="M52.1,193.8c1.3,0.1,2.4,0.6,2.8,2C53.9,195.3,52.9,194.6,52.1,193.8z"/>
		<path class="st7" d="M103.3,195c1.1,0.3,2.3,0.3,3,1.4C105.1,196.3,104.1,195.9,103.3,195z"/>
		<path class="st7" d="M57.5,195.3c-0.5,0-1.2,0-1.2-0.7c0-0.7,0.6-0.7,1.2-0.7C57.5,194.3,57.5,194.8,57.5,195.3z"/>
		<path class="st7" d="M55.5,186.5c-0.7,0-1.3,0.1-1.7-0.7c-0.3-0.7-0.1-1.1,0.5-1.5C53.9,185.5,54.8,185.9,55.5,186.5z"/>
		<path class="st7" d="M165.9,169.1c1.6-0.2,2.1,0.8,2.2,2.2C167.5,170.4,166.9,169.6,165.9,169.1z"/>
		<path class="st7" d="M155.7,176.7c-0.9,0.6-1.7,1.4-2.8,1.5C153.6,177.3,154.6,176.9,155.7,176.7z"/>
		<path class="st7" d="M66.3,190.5c0.6,0.8,1.6,1.4,1.4,2.6C66.9,192.4,66.5,191.6,66.3,190.5z"/>
		<path class="st7" d="M86.5,194.3c0-0.8,0.6-1,1.2-1.1c0.6-0.1,0.4,0.5,0.5,0.9C87.5,193.4,87,194.3,86.5,194.3z"/>
		<path class="st7" d="M91.2,194.7c-0.3-1.1,0.4-1.4,1.2-1.6C92.3,193.8,91.9,194.3,91.2,194.7z"/>
		<path class="st7" d="M101.9,179.2c0,0.8-0.1,1.4-1.1,1.4C101,180.1,101.4,179.6,101.9,179.2z"/>
		<path class="st7" d="M151.7,179.4c-0.3,0.4-0.4,1.2-1.2,1.1C150.7,180,150.9,179.5,151.7,179.4z"/>
		<path class="st7" d="M104.5,177.4c-0.1,1-1,0.8-1.6,1.1C103.2,177.9,103.8,177.6,104.5,177.4z"/>
		<path class="st7" d="M149.9,191.3c0.7,0.2,0.8,0.8,0.8,1.4C150.2,192.3,150,191.8,149.9,191.3z"/>
		<path class="st7" d="M22,191.2c0.1,0.3,0.3,0.5,0.4,0.8l0,0c-0.3,0-0.7,0-1,0l-0.1-0.1C21.5,191.7,21.7,191.5,22,191.2z"/>
		<path class="st7" d="M174.3,167.3c-0.6-0.1-0.8-0.3-0.5-0.9C174,166.6,174.3,166.9,174.3,167.3z"/>
		<path class="st7" d="M123.8,194.9c0-0.5,0.2-0.8,0.7-0.7C124.4,194.6,124.1,194.8,123.8,194.9z"/>
		<path class="st7" d="M174.8,168.3c-0.6-0.1-0.5-0.6-0.5-1C174.6,167.5,174.7,167.9,174.8,168.3z"/>
		<path class="st7" d="M20.7,192.5c0.2-0.2,0.4-0.3,0.5-0.5l0.1,0.1c-0.1,0.2-0.3,0.5-0.4,0.7C20.8,192.6,20.7,192.5,20.7,192.5z"/>
		<path class="st7" d="M123.4,195.2c-0.2-0.6,0.2-0.3,0.4-0.3C123.6,195,123.5,195.1,123.4,195.2z"/>
		<path class="st7" d="M124.5,194.2c0-0.3,0-0.7,0.5-0.6C125,193.9,124.8,194.1,124.5,194.2z"/>
		<path class="st7" d="M102.9,194.6c0.3,0,0.4,0.1,0.4,0.4C103.2,194.9,103,194.8,102.9,194.6z"/>
		<path class="st7" d="M102.5,194.3c0.3,0,0.4,0.1,0.4,0.4C102.8,194.5,102.7,194.4,102.5,194.3z"/>
		<path class="st7" d="M48.3,193.9c0-0.3,0.1-0.4,0.4-0.3C48.5,193.7,48.4,193.8,48.3,193.9z"/>
		<path class="st7" d="M101.8,193.6c0.3,0,0.4,0.1,0.4,0.4C102,193.8,101.9,193.7,101.8,193.6z"/>
		<polygon class="st7" points="152.8,178.3 152.8,178.4 152.7,178.3 		"/>
		<path class="st7" d="M102.2,193.9c0.3,0,0.4,0.1,0.4,0.4C102.4,194.2,102.3,194.1,102.2,193.9z"/>
		<path class="st7" d="M116.5,81.9c0,0,0.1-0.1,0.1-0.1c-0.4-2,0.1-3.1,2.9-2.2c-1-2.1-1.9-3.7-2.8-5.5c2.1,0.1,3.9,0.2,5.7,0.3
			c-0.3,1.1-1.1,0.5-1.7,0.4c-1-0.2-2.3-0.5-2.8,0.1c-0.5,0.6,0.4,1.7,0.9,2.5c1.1,1.9,1.1,2-1,2.7c-0.7,0.3-0.5,0.8-0.6,1.3
			c-0.1,0.4,0.4,1.3-0.7,0.9c0.1-0.1,0.2-0.3,0.2-0.4C116.6,81.9,116.6,81.9,116.5,81.9L116.5,81.9z"/>
		<path class="st7" d="M61.6,60.4c0.9,0.1,1.7,0.5,2.6,0.9c-1.2,1.8-3.1,2.7-4.2,4.6c-0.6-0.7-0.1-1.1,0.4-1.5
			c0.4-0.4,1-0.7,1.4-1.1c0.9-0.8,1.9-1.6-0.1-2.3C61.7,60.9,61.7,60.6,61.6,60.4z"/>
		<path class="st7" d="M87.4,98c2.7,0.3,5.3,0.1,8-0.2C93.5,99.2,89.3,99.3,87.4,98z"/>
		<path class="st7" d="M68.8,90.3c-0.9-0.9-1.7-1.7-1.9-3c-0.1-0.1-0.1-0.2-0.2-0.3l0,0c-0.1-0.3-0.3-0.7-0.4-1
			c0.7,0,1.1,0.3,1.1,0.9C67.6,88.1,68.8,88.9,68.8,90.3z"/>
		<path class="st7" d="M55.1,64.7c0.2-0.1,0.5-0.2,0.7-0.3c-0.3,1.2-1,1.9-2.1,2.2l-0.1-0.1c0-0.1,0-0.2,0.1-0.3l0,0
			c0.2,0,0.3-0.1,0.3-0.4C54.3,65.5,54.7,65.1,55.1,64.7z"/>
		<path class="st7" d="M54.8,62.1c-0.3-0.2-0.7-0.4-1-0.6c1.2-0.1,2.3-0.1,3,1.1c-0.5-0.1-1-0.2-1.4-0.3
			C55.2,62.3,55,62.2,54.8,62.1z"/>
		<path class="st7" d="M52.9,69.1c-0.4,0-0.7,0.1-1.1,0.1c-0.5-0.1-0.5-0.4-0.4-0.8c0.1-0.1,0.2-0.2,0.3-0.3l0,0
			c0.1-0.1,0.2-0.2,0.3-0.3l0,0c0.1,0,0.2,0,0.3,0l0.1,0.1C52.7,68.2,52.8,68.6,52.9,69.1z"/>
		<path class="st7" d="M99.7,96.4c0.7-0.4,1.5-0.8,2.2-1.1C101.7,96.6,100.6,96.4,99.7,96.4z"/>
		<path class="st7" d="M71,93.2c-0.2-0.2-0.4-0.3-0.7-0.5c-0.1-0.1-0.2-0.2-0.3-0.4c-0.1-0.2-0.1-0.4-0.2-0.6l0.1-0.1
			C70.9,91.8,71.1,92.4,71,93.2z"/>
		<path class="st7" d="M98.1,97c0.5-0.4,1.1-0.6,1.7-0.7C99.4,97.2,98.8,97.2,98.1,97z"/>
		<path class="st7" d="M55.8,64.4c0.1-0.1,0.2-0.3,0.3-0.4c0,0,0,0,0,0c0.2-0.2,0.4-0.3,0.6-0.5C57,64.5,56.3,64.4,55.8,64.4z"/>
		<path class="st7" d="M95.5,97.8c0.4-0.4,1.1-0.3,1.6-0.5C96.8,98.2,96.1,97.7,95.5,97.8z"/>
		<path class="st7" d="M56.7,63.5c0.1-0.3,0.3-0.6,0.1-0.9C57.3,63,57.5,63.3,56.7,63.5z"/>
		<path class="st7" d="M69.2,91.3c-0.1-0.2-0.1-0.4-0.2-0.6c0.4,0,0.5,0.3,0.6,0.6l-0.1,0.1C69.5,91.3,69.4,91.3,69.2,91.3z"/>
		<path class="st7" d="M86,97.8c0.2,0,0.5,0.1,0.7,0.1C86.4,98.2,86.2,98.2,86,97.8z"/>
		<path class="st7" d="M97.1,97.3c0.3-0.1,0.6-0.2,0.8-0.3C97.8,97.4,97.5,97.5,97.1,97.3z"/>
		<path class="st7" d="M61.3,60.3c0.1,0,0.2,0,0.3,0.1C61.5,60.4,61.4,60.3,61.3,60.3z"/>
		<path class="st7" d="M53.6,66.6c-0.1,0.1-0.2,0.2-0.4,0.4l-0.1-0.1C53.3,66.8,53.4,66.7,53.6,66.6L53.6,66.6z"/>
		<path class="st7" d="M53.3,67c-0.1,0.1-0.2,0.2-0.4,0.4l-0.1-0.1C53,67.1,53.1,67,53.3,67L53.3,67z"/>
		<path class="st7" d="M52.9,67.3c-0.1,0.1-0.2,0.2-0.4,0.4l-0.1-0.1c0-0.1,0-0.2,0-0.3l0,0C52.6,67.3,52.7,67.3,52.9,67.3
			L52.9,67.3z"/>
		<path class="st7" d="M71.4,93.6c-0.1-0.1-0.3-0.3-0.4-0.4C71.1,93.3,71.3,93.4,71.4,93.6z"/>
		<path class="st7" d="M69.6,91.3c0.1,0.1,0.2,0.2,0.3,0.4l-0.1,0.1C69.8,91.6,69.7,91.5,69.6,91.3L69.6,91.3z"/>
		<path class="st7" d="M69.1,90.7c-0.1-0.1-0.2-0.3-0.3-0.4C69,90.3,69.1,90.5,69.1,90.7z"/>
		<path class="st7" d="M157.7,190c2.8,1.4,5.7,1,8.5,0.1c-0.1,0.4-0.3,0.6-0.7,0.7c-2.1,0.6-4.3,0.5-6.5,0.3
			C158.5,191.1,157.7,190.9,157.7,190z"/>
		<path class="st7" d="M167.7,189.4c0.6-0.5,0.8-1.1,0.7-1.9c0-2.4,0-4.8,0-7.1c0.3,0,0.7,0,0.6,0.4c-0.4,2.4-0.1,4.8-0.2,7.1
			C168.8,188.7,168.7,189.4,167.7,189.4z"/>
		<path class="st7" d="M156.5,183.6c-0.5,2.3-0.6,4.5,1.2,6.4C155.5,188.9,154.9,185.4,156.5,183.6z"/>
		<path class="st7" d="M164.4,180.6c-1.9,0.3-3.9,0.5-5.8,0.8c0.4-1.3,1.6-0.8,2.4-1C162.1,180.2,163.4,180.1,164.4,180.6z"/>
		<path class="st7" d="M166.2,190.1c0.4-0.4,0.9-0.6,1.5-0.7C167.6,190.5,166.8,190.1,166.2,190.1z"/>
		<path class="st7" d="M157.2,182.2c-0.1,0.6-0.4,1-0.8,1.4C156.5,183.1,156.2,182.3,157.2,182.2z"/>
		<path class="st7" d="M166.3,180.4c-0.2,0.1-0.4,0.2-0.6,0C165.9,180.4,166.1,180.4,166.3,180.4z"/>
		<path class="st7" d="M158.6,181.4c-0.2,0.1-0.5,0.3-0.7,0.4C158.1,181.5,158.3,181.4,158.6,181.4z"/>
		<path class="st7" d="M158,181.8c-0.1,0.3-0.4,0.3-0.7,0.4C157.3,181.9,157.6,181.8,158,181.8z"/>
		<path class="st2" d="M108.8,126.1c-0.2,0.1-0.5,0.1-0.7,0.2c-2.3,0.3-4.6,0.7-6.9,1.3c-0.5,0.1-1,0.1-1.4,0.2
			c-1.5-0.3-2.9,0.4-4.4,0.3l-0.1-0.1l-0.1,0c-0.3-0.6-0.1-1.1,0.3-1.6c0.2-0.1,0.4-0.2,0.7-0.2c1.6-0.1,3-0.5,4.4-1.3
			c0.5,0,1-0.1,1.4-0.4c1.5-0.4,3.1-0.9,4.4-1.8c0.4,0,0.8-0.1,1.1-0.5c0.9-0.2,1.6-0.7,2.5-0.7c0.1,0.1,0.2,0.1,0.3,0.1
			c0.1,0.1,0.3,0.1,0.4,0.2c0.2,0.1,0.5,0.2,0.7,0.3c0.9,0.9,2.4,0.8,3.4,1.8C113,125.1,110.7,125.1,108.8,126.1z"/>
		<path class="st4" d="M20.9,192.7c0.1-0.2,0.3-0.5,0.4-0.7c0.3,0,0.7,0,1,0c0,0.7-0.4,1.1-1,1.3C21,193.4,21,193,20.9,192.7z"/>
		<path class="st8" d="M94.6,78.1c-0.1,1.3,0.1,2.3-0.2,3.3c-0.6,1.9-2.5,3.2-4.4,3c-2-0.3-3.6-1.8-3.6-3.9c-0.1-2,0-4,0.1-6
			c0.1-2.1,2.1-4.2,3.9-4.2c2.2,0,3.9,1.7,4,4.2C94.5,75.8,94.6,77.1,94.6,78.1z"/>
		<path class="st8" d="M75.7,71.6c0.1-1.3,0.7-2.1,2.1-2.1c1.3,0,2,0.8,2.1,2c0.1,1.2-0.9,2.3-2.1,2.3
			C76.7,73.7,75.7,72.8,75.7,71.6z"/>
		<path class="st8" d="M104.9,71.6c-0.2,1.3-0.9,2.2-2.2,2.2c-1.2,0-1.9-0.8-2.1-1.9c-0.1-0.9,1.4-2.4,2.3-2.3
			C104.1,69.6,104.7,70.4,104.9,71.6z"/>
		<path class="st3" d="M68.6,123.1c-0.4-0.1-0.7-0.2-1.1-0.3c-0.6-0.3-1.2-0.6-1.9-0.6c-0.4-0.3-0.9-0.5-1.4-0.5
			c-0.4-0.4-0.9-0.5-1.5-0.6c-0.2-0.1-0.4-0.2-0.7-0.3c-0.4-0.2-0.8-0.3-1.2-0.5l-0.1-0.1l-0.2,0c-0.7-0.5-1.4-0.9-2.2-1.1l0,0
			c-0.1-0.1-0.3-0.2-0.4-0.2c-0.1-0.1-0.2-0.2-0.3-0.1c-0.1-0.1-0.3-0.2-0.4-0.3c-0.3-0.2-0.7-0.4-1-0.6c-0.6-0.4-1.2-0.7-1.8-1.1
			c-0.4-0.3-0.7-0.5-1.1-0.8c-0.2-0.1-0.4-0.2-0.5-0.4c0,0-0.1-0.1-0.1-0.1c-0.8-0.7-1.7-1.5-2.7-2l0,0c-0.6-0.8-1.4-1.4-2.2-1.9
			c-0.4-0.6-0.9-1-1.5-1.4c-0.4-0.5-0.9-0.9-1.3-1.4c-0.4-0.4-0.7-0.8-1.1-1.2c-0.1-0.5-0.7-0.7-0.7-1.3c0.7-0.2,1.4-0.4,2-0.6
			c0.2-0.1,0.4-0.1,0.7-0.2c1.6-0.2,3.2-0.4,4.8-0.6c0.2,0,0.3,0,0.5,0c0.9,1,1.7,2,2.6,3l0,0c1.2,1.6,2.7,3.1,4.3,4.4l0.1,0.1
			c0.4,0.5,0.9,1,1.6,1.3l0,0c1.2,1.3,2.6,2.2,4.1,3.1L64,117c0.2,0.3,0.5,0.5,0.9,0.5c0.5,0.3,0.9,0.6,1.4,0.9
			c0.6,0.4,1.1,0.8,1.9,0.9c0.2,0.3,0.4,0.3,0.7,0.3c0.7,0.6,1.6,1,2.5,1.1c0.5,0.4,1.2,0.6,1.8,0.7c1.4,0.8,3,1,4.5,1.5
			c0.5,0.2,1.3,0.2,1.3,1c0,0.9-1,0.7-1.5,0.9c-0.7-0.1-1.4-0.1-2.1-0.2c-0.9-0.2-1.7-0.3-2.6-0.5c-0.5-0.1-0.9-0.2-1.4-0.3
			C70.5,123.6,69.5,123.4,68.6,123.1z"/>
		<path class="st0" d="M56.1,64C56.1,64,56.1,64,56.1,64L56,63.9l-0.2,0.1l0,0c0.3-0.2,0.3-0.3,0.1-0.6l0,0
			C55.7,63.6,55.8,63.8,56.1,64z"/>
		<path class="st7" d="M55.9,63.3L55.9,63.3C55.9,63.3,55.9,63.3,55.9,63.3z"/>
		<path class="st7" d="M55.8,63.9L55.8,63.9c0,0-0.1-0.1-0.1-0.1C55.7,63.9,55.8,63.9,55.8,63.9z"/>
	</g>
</g>
</svg>
