<?xml version="1.0" encoding="utf-8"?>
<!-- Generator: Adobe Illustrator 19.2.1, SVG Export Plug-In . SVG Version: 6.00 Build 0)  -->
<svg version="1.1" id="Layer_1" xmlns="http://www.w3.org/2000/svg" xmlns:xlink="http://www.w3.org/1999/xlink" x="0px" y="0px"
	 viewBox="0 0 200 200" style="enable-background:new 0 0 200 200;" xml:space="preserve">
<style type="text/css">
	.st0{fill:#3877C6;}
	.st1{fill:#DD3B19;}
	.st2{fill:#FFFFFF;}
</style>
<circle class="st0" cx="102.7" cy="101.7" r="1"/>
<path class="st0" d="M92.7,54.5c0,0-26-10.3-14.2,39.2c0,0-13-23.2-3.3-39.5C81,46.3,92.7,54.5,92.7,54.5z"/>
<path class="st0" d="M70.3,60c0,0-26.5,0.3,5.2,39.2c0,0-22.7-15.5-19.8-32.5C57.5,57.3,70.3,60,70.3,60z"/>
<path class="st0" d="M54,73.8c0,0-20.3,12.8,19.2,31c0,0-26.3-4.8-29-21C44.3,76.5,54,73.8,54,73.8z"/>
<path class="st0" d="M46.2,92.2c0,0-12.5,18.5,27.2,18.5c0,0-29.2,4.8-32.5-9.2C41,94.5,46.2,92.2,46.2,92.2z"/>
<path class="st0" d="M75.3,115c0,0-30,13.3-29.5-4.2c0,0-4.5,8.5,3.5,11.7S75.3,115,75.3,115z"/>
<path class="st0" d="M76.3,119.3c0,0-19.5,20.5-25.7,6.2c0,0,0.3,7.8,7.2,8.3S75.7,120.5,76.3,119.3z"/>
<path class="st0" d="M77,120.4c0,0-14.6,26.5-30,14.9c0,0,6,9.4,19,1.6C76.4,128.9,77,120.4,77,120.4z"/>
<path class="st0" d="M66,140.4c0,0-14.5,11-19.2-2c0,0,0.5,6.8,6.4,8.4S66,140.4,66,140.4z"/>
<path class="st0" d="M70.5,143.1c0,0-7.2,12-17.8,4.9C52.8,148,63.4,158.5,70.5,143.1z"/>
<path class="st0" d="M64.8,153.4c0,0,7.2,3.1,9.9-3.1c0,0,3.6,5.5,10,2c0,0-8.1,1.2-9.5-7.2C75.1,145,73.2,155.2,64.8,153.4z"/>
<path class="st0" d="M85.1,150.1c0,0-7.9-3.1-5-12.5c0,0-1.4-1.6-2.6-3.2c0,0,3.9,2.2,9.2,0.8C86.8,135.1,75.6,139.2,85.1,150.1z"/>
<path class="st1" d="M179,99.8c-0.6-0.7-1.4-1-2.3-1l-0.7,0c0,0,0,0,0,0c-0.6,0-1.2,0.2-1.7,0.5c0,0,0,0,0,0
	c-1.3-0.3-2.5-0.5-3.5-0.5c0,0,0,0,0,0c-2.5,0-4.5,0.7-6,2.1c-0.4,0.4-0.8,0.9-1.2,1.3c-0.3-0.6-0.6-1.2-1.1-1.7
	c-1-1.1-2.4-1.7-3.9-1.7c0,0,0,0,0,0c-1.2,0-2.5,0.3-3.8,1c-0.2,0.1-0.3,0.2-0.5,0.3c0,0,0,0,0-0.1c-0.6-0.8-1.5-1.2-2.4-1.2l-1.2,0
	c-0.2,0-0.3,0-0.5,0l-5.9,1c0.5-0.9,0.7-1.8,0.7-2.9c0-1.6-0.6-3.1-1.7-4.3c-0.1-1.3-0.3-2.6-0.6-3.9c0.7-0.8,1.4-1.7,1.9-2.7
	c1.5-2.6,2.2-5.3,2.2-8c0-1.6-0.4-3-1.1-4.4c-0.8-1.4-1.9-2.5-3.4-3.3c-1.4-0.7-2.8-1.1-4.4-1.1c0,0,0,0,0,0c-1.6,0-3.2,0.3-4.7,0.9
	c-1-1.2-2.1-2.4-3.1-3.5l0.7-3.1c0.2-0.9,0-1.8-0.6-2.5c-0.6-0.7-1.4-1.1-2.3-1.1l-0.7,0c-0.8,0-1.6,0.3-2.2,0.9
	c0,0-0.1,0.1-0.1,0.1c-0.2,0-0.4-0.1-0.8-0.2c-0.5-0.1-0.9-0.2-1.3-0.3c-9.3-6.8-19.1-10-23.6-8.6C89.2,55,87.5,65.2,86,96
	c-0.2,3.4-0.3,6.6-0.3,9.7c0.7,2.4,2.4,4.3,5.9,4.4c5.1,0.2,5.7-3,5.4-6.3c-0.3-3.3,1.5-6.3,5-6.7s4.7,2.1,5.4,3.9
	c0.5,1.3,2.4,1.5,3.4,1.7l-0.3,0.9c-8.6,0.4-0.3,15.5-8.3,23.8c-4.7,7.3-14.2,7.6-14.4,7.4c1.8,7.4,4.9,11.5,9.7,13.2
	c13.8,5,31.3-7.5,40.3-26.9c0.6-0.3,1.2-0.7,1.7-1.2c0.1,0.1,0.1,0.3,0.2,0.4c0.6,0.8,1.5,1.2,2.4,1.2l4.7,0c1.3,0,2.5-0.9,2.9-2.1
	l0.4-1.4c0.2,0.9,0.7,1.8,1.5,2.4c1,0.9,2.5,1.5,4,1.5c0,0,0,0,0.1,0c1.3,0,2.8-0.3,4.5-1.5c0.1,0.2,0.2,0.4,0.4,0.5
	c0.6,0.7,1.4,1,2.3,1l0.7,0c0,0,0,0,0,0c0.6,0,1.2-0.2,1.8-0.6c0.1,0,0.2,0,0.3,0.1c1.3,0.3,2.4,0.5,3.4,0.5c1.5,0,3-0.4,4.4-1.1
	c1.5-0.8,2.6-1.9,3.4-3.2c0.8-1.3,1.1-2.7,1.1-4.2c0-1.2-0.2-2.4-0.7-3.4c1-0.4,1.7-1.3,1.8-2.3l0.8-5.6
	C179.8,101.3,179.5,100.5,179,99.8z M92.5,86.3c-1.3-40.7,18.7-29,18.7-29C95.2,53.5,92.5,86.3,92.5,86.3z M104,144.5
	c-7.8,0.3-8.5-8.7-8.5-8.7c9.7,16.2,34.5-8.7,34.5-8.7S118,145,104,144.5z"/>
<g>
	<path class="st2" d="M128,62.8l-2,8.8l-0.7,0c-0.1-2.4-0.7-4.2-1.8-5.4c-1.1-1.2-2.5-1.8-4.3-1.8c-1.9,0-3.8,0.8-5.6,2.4
		c-1.9,1.6-3.5,4-4.8,7.3c-1.1,2.7-1.6,5.3-1.6,7.9c0,2.3,0.6,4.1,1.7,5.3c1.2,1.2,2.7,1.8,4.7,1.8c1.6,0,3.1-0.3,4.4-1
		c2.2-1.2,3.2-2.4,4.3-3.9l0.9,0.4c-1.7,2.5-3.6,4.4-5.3,5.4c-1.7,1-3.8,1.5-6.3,1.5c-3.3,0-6-1-8-3c-2-2-3-4.6-3-7.9
		c0-3,0.8-5.9,2.4-8.7c1.6-2.7,3.9-5,7-6.6c3-1.7,6-2.5,9-2.5c1.1,0,2.6,0.2,4.2,0.7c0.9,0.2,1.5,0.4,1.8,0.4c0.7,0,1.4-0.4,2.1-1.1
		L128,62.8z"/>
	<path class="st2" d="M138,72.2c1.1,0,2.1,0.3,3,0.7c0.9,0.5,1.6,1.2,2.1,2.1c0.5,0.9,0.7,1.9,0.7,2.9c0,2.2-0.6,4.4-1.9,6.6
		c-1.2,2.2-2.8,3.9-4.8,5.2c-2,1.3-4,1.9-6,1.9c-1.8,0-3.3-0.6-4.3-1.7c-1-1.1-1.5-2.4-1.5-4c0-1.9,0.4-3.6,1.1-5.3
		c0.8-1.6,1.7-3.1,2.9-4.3c1.2-1.2,2.5-2.2,4-3C134.9,72.6,136.4,72.2,138,72.2z M137.2,73.3c-0.7,0-1.3,0.2-1.8,0.6
		c-1,0.8-2,2.8-3.2,6c-1.2,3.1-1.8,5.9-1.8,8.5c0,0.6,0.2,1.1,0.6,1.5c0.4,0.4,0.8,0.6,1.3,0.6c0.5,0,1-0.2,1.4-0.5
		c0.6-0.5,1.3-1.6,2.2-3.3c0.9-1.7,1.6-3.6,2.2-5.6c0.6-2,0.8-3.9,0.9-5.6c0-0.7-0.2-1.2-0.5-1.6C138.1,73.5,137.7,73.3,137.2,73.3z
		"/>
	<path class="st2" d="M121.3,93.3l-6.3,20.6c-0.4,1.2-0.5,2-0.6,2.3c0,0.2,0.1,0.3,0.2,0.4c0.1,0.1,0.2,0.2,0.3,0.2
		c0.2,0,0.4-0.1,0.6-0.2c0.6-0.4,1.3-1.2,2-2.3l0.7,0.3c-1.2,1.8-2.3,3-3.5,3.8c-0.8,0.5-1.6,0.8-2.5,0.8c-0.8,0-1.5-0.2-1.9-0.6
		c-0.5-0.4-0.7-0.9-0.7-1.5c0-0.4,0.2-1.2,0.5-2.2l5.1-16.8c0.3-0.9,0.4-1.5,0.4-1.8c0-0.3-0.1-0.5-0.4-0.7
		c-0.4-0.2-0.9-0.3-1.7-0.3l0.2-0.7l6.3-1.1L121.3,93.3z"/>
	<path class="st2" d="M132.1,93.3l-6.3,20.6c-0.4,1.2-0.5,2-0.6,2.3c0,0.2,0.1,0.3,0.2,0.4s0.2,0.2,0.3,0.2c0.2,0,0.4-0.1,0.6-0.2
		c0.6-0.4,1.3-1.2,2-2.3l0.7,0.3c-1.2,1.8-2.3,3-3.5,3.8c-0.8,0.5-1.6,0.8-2.5,0.8c-0.8,0-1.5-0.2-1.9-0.6c-0.5-0.4-0.7-0.9-0.7-1.5
		c0-0.4,0.2-1.2,0.5-2.2l5.1-16.8c0.3-0.9,0.4-1.5,0.4-1.8c0-0.3-0.1-0.5-0.4-0.7c-0.4-0.2-0.9-0.3-1.7-0.3l0.2-0.7l6.3-1.1
		L132.1,93.3z"/>
	<path class="st2" d="M140.8,101.7l-4.1,12.8c-0.2,0.7-0.4,1.2-0.4,1.5c0,0.3,0,0.4,0.1,0.5c0.1,0.1,0.2,0.2,0.4,0.2
		c0.4,0,0.7-0.3,0.9-0.5c0.6-0.6,0.9-1,1.7-2.1l0.7,0.4c-2.2,3.3-3.9,4.5-6,4.5c-0.8,0-1.4-0.2-1.9-0.7c-0.5-0.4-0.7-1-0.7-1.7
		c0-0.4,0.1-1,0.3-1.7l2.8-8.7c0.3-0.8,0.4-1.5,0.4-1.9c0-0.3-0.1-0.5-0.4-0.7c-0.2-0.2-0.6-0.3-1-0.3c-0.2,0-0.4,0-0.7,0l0.2-0.7
		l6.4-1L140.8,101.7z"/>
	<path class="st2" d="M138.9,93.7c0.9,0,1.6,0.3,2.2,0.9c0.6,0.6,0.9,1.4,0.9,2.2c0,0.9-0.3,1.6-0.9,2.2c-0.6,0.6-1.4,0.9-2.2,0.9
		c-0.9,0-1.6-0.3-2.2-0.9c-0.6-0.6-0.9-1.4-0.9-2.2c0-0.9,0.3-1.6,0.9-2.2C137.3,94,138.1,93.7,138.9,93.7z"/>
	<path class="st2" d="M151.9,101.7l-2.4,7.8c1.6-2.3,2.8-3.8,3.6-4.7c1.2-1.2,2.2-2,3-2.5c0.9-0.4,1.7-0.7,2.4-0.6
		c0.7,0,1.2,0.3,1.7,0.8c0.5,0.5,0.7,1.2,0.7,2c0,0.7-0.2,1.5-0.5,2.4l-2.5,7.7c-0.2,0.7-0.3,1.1-0.3,1.3c0,0.2,0,0.4,0.1,0.6
		c0.1,0.2,0.3,0.2,0.4,0.2c0.1,0,0.3,0,0.5-0.1c0.5-0.3,0.7-0.5,1.2-1.2c0.1-0.1,0.7-0.9,0.9-1.2l0.7,0.3c-1.8,2.9-3.8,4.5-6,4.5
		c-0.8,0-1.5-0.3-2-0.7c-0.4-0.4-0.6-0.9-0.6-1.5c0-0.5,0.2-1.3,0.5-2.3l2.5-7.8c0.2-0.5,0.3-0.9,0.3-1.1c0-0.1-0.1-0.3-0.2-0.4
		c-0.1-0.1-0.3-0.2-0.4-0.2c-0.5,0-1.1,0.3-1.8,0.9c-1.8,1.6-3.6,4-5.3,7.2l-1.6,5.4l-4.7,0l3.6-11.6c0.3-1.2,0.5-2,0.5-2.5
		c0-0.2-0.1-0.4-0.2-0.5c-0.1-0.1-0.3-0.3-0.5-0.3c-0.2-0.1-0.7-0.1-1.4-0.1l0.2-0.7l6.4-1.1L151.9,101.7z"/>
	<path class="st2" d="M176.7,101.8l-0.8,5.6l-0.7,0c-0.1-1.4-0.5-2.6-1.3-3.4c-0.8-0.8-1.7-1.3-2.6-1.3c-0.6,0-1,0.2-1.4,0.5
		c-0.4,0.3-0.6,0.7-0.6,1.2c0,0.4,0.1,0.8,0.2,1.1c0.2,0.3,0.5,0.8,1.1,1.4c1.9,2.1,3.1,3.5,3.5,4.3c0.4,0.8,0.6,1.6,0.6,2.5
		c0,1-0.2,1.9-0.7,2.7c-0.5,0.9-1.2,1.5-2.2,2c-1,0.5-2,0.8-3,0.8c-0.7,0-1.6-0.1-2.6-0.4c-0.7-0.2-1.2-0.3-1.5-0.3
		c-0.3,0-0.5,0-0.7,0.1c-0.2,0.1-0.4,0.3-0.6,0.6l-0.7,0l0.9-6l0.6,0c0.4,1.5,0.8,2.5,1.2,3.2c0.4,0.6,0.9,1.1,1.5,1.5
		c0.6,0.4,1.2,0.6,1.8,0.6c0.7,0,1.2-0.2,1.7-0.6c0.4-0.4,0.7-0.9,0.7-1.5c0-0.6-0.1-1.1-0.4-1.7c-0.3-0.5-0.9-1.4-2-2.5
		c-1.4-1.5-2.4-2.7-2.8-3.6c-0.3-0.6-0.5-1.3-0.5-2.1c0-1.3,0.5-2.4,1.4-3.3c1-0.9,2.3-1.3,4-1.3c0.8,0,1.7,0.1,2.8,0.4
		c0.5,0.1,1,0.2,1.3,0.2c0.5,0,0.9-0.2,1.1-0.6L176.7,101.8z"/>
</g>
</svg>
