<?xml version="1.0" encoding="utf-8"?>
<!-- Generator: Adobe Illustrator 19.2.1, SVG Export Plug-In . SVG Version: 6.00 Build 0)  -->
<svg version="1.1" id="Layer_1" xmlns="http://www.w3.org/2000/svg" xmlns:xlink="http://www.w3.org/1999/xlink" x="0px" y="0px"
	 viewBox="0 0 200 200" style="enable-background:new 0 0 200 200;" xml:space="preserve">
<style type="text/css">
	.st0{fill:#35408C;}
	.st1{fill:#34418B;}
	.st2{fill:#DC6547;}
	.st3{fill:#384389;}
	.st4{fill:#39417B;}
</style>
<g id="wMUhr9.tif">
	<g>
		<path class="st0" d="M8.6,148.2c0-0.3,0.1-0.5,0.4-0.6c0.2-0.3,0.4-0.6,0.6-0.9c4.2-8.7,9.4-16.8,14.2-25.2
			c23-39.9,46.1-79.7,69.1-119.6c1.4,0,1.4,1.2,1.9,2C107,24.9,119.1,46,131.3,67c1.5,2.6,2.8,5.3,4.3,7.9c-0.1,1-0.6,1.6-1.6,1.7
			c-5.1-3.9-10.8-6.8-17-8.7c-6.9-2.8-13.8-2.5-20.7-0.2c-8.6,2.8-16.4,6.8-22.5,13.8c-5.3,6.2-8.9,13.1-10.2,21.2
			c-0.1,0.5-0.4,0.9-0.6,1.3c-1.1,4.4-1.4,8.9,0.2,13.3c2.2,10.3,6.9,19.3,15.2,26c2.2,1.8,4.6,3.5,6.9,5.2c0.5,2.6-1.6,1.3-2.4,1.3
			c-23.3,0.1-46.6,0-69.9,0.1C11.1,149.9,9.8,149.3,8.6,148.2z"/>
		<path class="st1" d="M108.1,91.2c6.4-0.2,11,4.3,15.3,9.4c1.1,1.3,2.1,2.7,3.1,4.1c4.4,5.9,4.4,6-0.2,11.7c-2.6,3.2-5,6.7-8.4,9.3
			c-6.5,5.1-15.8,5.4-22.5,0.7c-7.3-5.2-10.3-14.5-7.3-22.8C91,95.8,98.9,90.6,108.1,91.2z"/>
		<path class="st2" d="M192.5,72.1c-8.8,11-17,21.3-25.3,31.6c-5,6.1-5.1,6.1-10,0c-3-3.7-5.9-7.5-9.1-11.1
			c-1.3-1.4-1.2-2.3-0.1-3.7c4-4.8,7.8-9.8,11.7-14.7c1-1.3,2.1-2.2,4-2.2C173,72.1,182.3,72.1,192.5,72.1z"/>
		<path class="st3" d="M53.9,197.9c-7.9,0-12.4-2.9-14.3-8.9c-0.7-2.3-0.4-3.2,2.2-3c2.4,0.2,4.7-0.5,6,3.1c1.2,3.7,9.2,4.3,12,1.4
			c2-2,1.4-4.8-1.8-6c-3.3-1.2-6.8-1.9-10.1-3c-7.2-2.5-9.7-10.1-5.1-15.4c2.7-3.1,6.5-3.9,10.3-4.2c6.7-0.6,12.1,2.9,13.9,8.4
			c0.7,2.1,0.5,2.9-1.9,2.9c-2.7,0-5,0.3-6.4-3.2c-1-2.6-7.5-2.8-9.6-0.7c-1.9,1.8-1.3,4.6,1.3,5.5c2.6,1,5.3,1.6,8,2.3
			c8.1,2.2,10.6,5.2,9.7,12.1c-0.7,5-5.8,8.6-12.4,8.7C55.1,197.9,54.5,197.9,53.9,197.9z"/>
		<path class="st3" d="M99.2,175c0-3.4,0.2-6.1-0.1-8.8c-0.2-2.7,0.5-3.6,3.4-3.6c2.7,0,3.5,0.7,3.5,3.5c-0.2,9.2,0,18.5-0.1,27.7
			c0,1.1,0.9,3.1-1,3.3c-1.7,0.1-4,1.3-5.3-0.9c-0.5-0.9-0.6-0.9-1.5-0.4c-8.1,4.6-15,1.7-17.1-7.4c-1.7-7.3,1.6-15.8,9.4-16.6
			C93.7,171.3,96.4,172.4,99.2,175z M99.2,185C99.2,185,99.2,185,99.2,185c0-0.9,0.1-1.7,0-2.6c-0.4-2.9-1.6-5.1-4.9-5.4
			c-3.3-0.3-5.2,1.1-6.2,4.3c-0.9,2.8-0.6,5.3,0.5,7.8c1.1,2.5,3,3.9,5.8,3.5c2.8-0.3,4.2-2.3,4.8-4.8C99.4,187,99.2,186,99.2,185z"
			/>
		<path class="st3" d="M124.7,186.6c-2.3,0-4.7,0.1-7,0c-2.2-0.1-2.5,0.7-1.6,2.6c1.5,3.3,4.9,4.6,8.2,2.8c0.7-0.4,1.4-1,2-1.5
			c1.9-1.5,4.6-1.4,5.8-0.4c1.4,1.1-0.7,3-1.7,4.2c-3,3.6-9.1,4.7-14.3,2.8c-4.1-1.5-7-6-7.4-10.5c-0.8-9,4.6-14.2,11.5-15.1
			c7.2-0.9,14.6,6.6,13.2,13.6c-0.3,1.4-1.1,1.4-2.1,1.4C129.2,186.6,126.9,186.6,124.7,186.6z M121,182.2c1,0,2-0.1,2.9,0
			c3.2,0.4,2.8-1.3,1.7-3.1c-1.3-2.4-5.7-2.9-8.1-1.1c-1.1,0.9-2,2.2-1.8,3.4c0.3,1.6,2,0.6,3.1,0.8
			C119.5,182.3,120.3,182.2,121,182.2z"/>
		<path class="st1" d="M128.1,148.4c6.9-4.7,12.4-10.7,17.4-17.3c1.5-2,2.1-0.7,2.9,0.3c4.8,6.3,11.3,10.7,17.5,15.4
			c1,0.8,2.4,1.1,3.6,1.6c1,0.4,1.1,0.9,0.3,1.6c-0.9,0-1.7-0.1-2.6-0.1c-12.3,0-24.6,0-36.9-0.1C129.6,149.7,127.5,151,128.1,148.4
			z"/>
		<path class="st1" d="M71.8,172.2c1.7,0,3.4,0,5.2,0c0,7.1,0,14.2,0,21.3c0,1.9-0.4,3-2.6,3c-2.2,0-2.6-1-2.6-2.9
			C71.9,186.4,71.8,179.3,71.8,172.2z"/>
		<path class="st4" d="M143.1,180c0,4.9-0.2,9.8,0.1,14.7c0.1,2.9-1.6,2.5-3.3,2.4c-1.6-0.1-3.7,1-3.7-2.3c0.2-9.9,0.1-19.9,0-29.9
			c0-3,1.9-2.3,3.4-2.3c1.5,0,3.6-0.8,3.5,2.2C142.9,170,143.1,175,143.1,180z M142.1,180.1c0-4.4,0-8.9,0-13.3c0-1.8-0.2-3.1-2.5-3
			c-2.2,0-2.7,0.9-2.7,2.9c0.1,9,0.1,18,0,26.9c0,2,0.6,2.9,2.7,2.9c2.4,0,2.5-1.3,2.5-3.1C142.1,189,142.1,184.6,142.1,180.1z"/>
		<path class="st4" d="M8.6,148.2c1.2,1.1,2.5,1.7,4.3,1.7c23.3-0.1,46.6,0,69.9-0.1c0.7,0,2.8,1.3,2.4-1.3c1.9-0.1,3.2,1.2,4.8,2.2
			c-0.8,0-1.6,0.1-2.4,0.1c-25.7,0-51.4,0-77.1,0C9.1,150.7,5.7,151.6,8.6,148.2z"/>
		<path class="st4" d="M71.8,172.2c0,7.1,0,14.2,0,21.3c0,1.9,0.4,2.9,2.6,2.9c2.2,0,2.6-1,2.6-3c-0.1-7.1,0-14.2,0-21.3
			c1.3,0.4,0.7,1.4,0.7,2.1c0,6.7-0.2,13.5,0.1,20.2c0.1,3.1-1.6,2.6-3.4,2.6c-1.8,0-3.6,0.5-3.4-2.6c0.3-6.7,0.1-13.5,0.1-20.2
			C71.1,173.6,70.6,172.6,71.8,172.2z"/>
		<path class="st4" d="M128.1,148.4c-0.5,2.6,1.6,1.3,2.3,1.3c12.3,0.1,24.6,0.1,36.9,0.1c0.9,0,1.7,0.1,2.6,0.1
			c-0.4,1.2-1.4,0.7-2.2,0.7c-14.5,0-28.9,0-43.4,0c-0.3,0-0.6-0.1-1.6-0.4C124.8,149.6,126.2,148.3,128.1,148.4z"/>
		<path class="st4" d="M75,168.3c-2.2-0.1-4,0.6-4-2.5c0-2.9,1.4-2.8,3.4-2.7c1.7,0.1,3.6-0.6,3.6,2.5
			C77.9,168.5,76.5,168.6,75,168.3z"/>
		<path class="st4" d="M96.2,67.6c6.9-2.2,13.8-2.6,20.7,0.2C110,66.5,103.1,66.7,96.2,67.6z"/>
		<path class="st4" d="M133.9,76.6c1.1,0,1.6-0.6,1.6-1.7c1.8,1.9,2.7,4.2,4.5,7.2C137.1,80.3,135.5,78.4,133.9,76.6z"/>
		<path class="st4" d="M63.1,117.2c-1.5-4.4-1.3-8.8-0.2-13.3C63,108.4,63,112.8,63.1,117.2z"/>
		<path class="st4" d="M178,150.7c-2.1,0-4.3,0-6.4,0c-0.9,0-1.8-0.3-1.5-1.5c0.2-0.9,1-0.7,1.7-0.5c2,0.6,4.1,1,6.2,1.5
			C178.1,150.4,178,150.5,178,150.7z"/>
		<path class="st4" d="M9.6,146.7c-0.2,0.3-0.4,0.6-0.6,0.9C9.2,147.3,9.4,147,9.6,146.7z"/>
		<path class="st0" d="M142.1,180.1c0,4.4,0,8.9,0,13.3c0,1.8-0.2,3.1-2.5,3.1c-2.1,0-2.7-0.8-2.7-2.9c0.1-9,0.1-18,0-26.9
			c0-2,0.5-2.9,2.7-2.9c2.3,0,2.6,1.2,2.5,3C142.1,171.3,142.1,175.7,142.1,180.1z"/>
	</g>
</g>
</svg>
