<?xml version="1.0" encoding="utf-8"?>
<!-- Generator: Adobe Illustrator 19.2.1, SVG Export Plug-In . SVG Version: 6.00 Build 0)  -->
<svg version="1.1" id="Layer_1" xmlns="http://www.w3.org/2000/svg" xmlns:xlink="http://www.w3.org/1999/xlink" x="0px" y="0px"
	 viewBox="0 0 200 200" style="enable-background:new 0 0 200 200;" xml:space="preserve">
<style type="text/css">
	.st0{fill:#E9CF00;}
	.st1{fill:#969A35;}
	.st2{fill:#F2E67F;}
	.st3{fill:#C8CB9C;}
	.st4{fill:#F8F2BE;}
	.st5{fill:#F8F2BC;}
	.st6{fill:#E9DB05;}
	.st7{fill:#265171;}
	.st8{fill:#E9DA01;}
	.st9{fill:#C1B529;}
	.st10{fill:#AFAB2F;}
	.st11{fill:#E4CD01;}
	.st12{fill:#D0C01C;}
	.st13{fill:#DCC80B;}
	.st14{fill:#E0C905;}
	.st15{fill:#D7C516;}
	.st16{fill:#DCCB27;}
	.st17{fill:#EBD315;}
	.st18{fill:#ECD627;}
	.st19{fill:#ECD626;}
	.st20{fill:#EDD72C;}
</style>
<g id="ncjytg.tif">
	<g>
		<path class="st0" d="M185.8,119.5c-3.3,3.4-7.2,6-11.3,8.4c-10.6,6.1-22.1,9.7-34,12.3c-14.9,3.3-30,4.5-45.3,4.3
			c-18-0.3-35.8-2.6-53-8.1c-9.6-3.1-18.8-7.1-26.9-13.3c-5.2-4-9.6-8.8-11.8-15.2c-0.4-1.1-0.4-2.3-1-3.4c0-1.8,0-3.6,0-5.4
			c0.6-0.7,0.5-1.6,0.7-2.4c0.9-3.4,2.5-6.4,4.7-9.1c0.3,0,0.4,0.1,0.3,0.4c-1.9,3.6-3.1,7.5-2.8,11.6c0.4,6.4,3.6,11.4,7.9,15.9
			c6,6.1,13.3,10.2,21,13.6c12.2,5.3,25.1,8.4,38.2,10.2c14.3,2,28.7,2.5,43.1,1.5c17-1.2,33.7-4.2,49.6-10.5
			c7.1-2.8,13.9-6.4,20-11.1C185.7,119,185.8,119.2,185.8,119.5z"/>
		<path class="st1" d="M196.8,93.7c0.1,0.8,0.3,1.6,0.4,2.3c0.3,1.6-0.1,3.2,0.3,4.8c0,0.1,0,0.2,0,0.3c-0.7,0.4-0.4,1.2-0.7,1.8
			c-0.7-0.1-0.7-0.7-0.7-1.2c-0.1-2.3-0.1-4.6,0-6.9C196.1,94.4,196.1,93.9,196.8,93.7z"/>
		<path class="st2" d="M95.3,55.5c4.1,0,8.2,0,12.3,0c0.1,0.2,0,0.4-0.2,0.5c-0.5,0.3-1.1,0.3-1.6,0.3c-2.9,0-5.9,0-8.8,0
			c-0.5,0-1.1,0-1.6-0.3C95.3,55.9,95.3,55.7,95.3,55.5z"/>
		<path class="st3" d="M197.4,100.9c-0.6-1.6-0.2-3.2-0.3-4.8c0.1,0,0.2,0,0.3,0C197.4,97.7,197.4,99.3,197.4,100.9z"/>
		<path class="st4" d="M95.3,55.5c0,0.1,0,0.2,0,0.3c-0.8,0.6-1.6,0.7-2.4,0c0-0.1,0-0.2,0-0.2C93.7,55.5,94.5,55.5,95.3,55.5z"/>
		<path class="st5" d="M107.7,55.8c0-0.1,0-0.2,0-0.2c0.7,0,1.4,0,2.1,0c0,0.1,0,0.2,0,0.3C109.1,56.4,108.4,56.4,107.7,55.8z"/>
		<path class="st0" d="M107.7,55.8c0.7,0,1.4,0,2.1,0c15.8,0.6,31.3,2.8,46.4,7.6c10,3.1,19.6,7.2,28.1,13.5
			c1.5,1.1,2.9,2.2,4.1,3.7c0.3,1.5,0.1,2.9,0.1,4.4c0,0.4-0.1,0.8-0.6,0.9c-8.9-9.3-20.3-14.6-32.3-18.6c-10.6-3.6-21.5-5.7-32.6-7
			c-9.7-1.1-19.3-1.7-29-1.4c-21.7,0.6-42.9,3.8-63,12.5c-6.7,2.9-13,6.7-18.5,11.5c-0.1-0.1-0.2-0.2-0.1-0.4c4-4.6,9-8,14.4-10.9
			c10.6-5.8,21.9-9.3,33.6-11.8c10.7-2.3,21.6-3.5,32.5-4c0.8,0,1.6,0,2.4,0C99.4,55.8,103.6,55.8,107.7,55.8z"/>
		<path class="st6" d="M100.5,115.8c-25.2,0-50.4,0-75.7,0c-1.4,0-1.7-0.5-1.6-1.7c0.1-0.7,0.2-1,0.9-1c0.3,0,0.6,0,0.9,0
			c50.3,0,100.7,0,151,0c0.7,0,1.7-0.5,1.8,1c0.1,1.4-0.5,1.6-1.7,1.6C150.9,115.8,125.7,115.8,100.5,115.8z"/>
		<path class="st7" d="M66.7,84.3c3.3,0,6.5,0,9.7,0c0.9,0,1.3,0.1,1.2,1.1c-0.1,1,0,2.1,0,3.1c0,0.3,0.2,0.8-0.4,0.8
			c-0.3,0-0.7,0.1-0.9-0.3c-0.4-1.3-1.5-1.3-2.6-1.3c-2.9,0.1-5.8,0.1-8.7,0.1c-0.8,0-1,0.2-1,1c0.1,1.7,0.1,3.4,0.1,5.1
			c0,0.9,0.4,1.1,1.2,1.1c3.1-0.2,6.3,0.3,9.4-0.2c0.5-0.1,0.6,0.1,0.6,0.6c0,0,0,0.1,0,0.1c0.4,3.3,0.4,3.3-2.9,3.3
			c-2.4,0-4.7,0-7,0c-0.9,0-1.3,0.2-1.3,1.1c0,2,0,4,0,6c0,0.7,0.3,0.9,0.9,0.9c3.6,0,7.2,0,10.8,0c0.7,0,1.2-0.4,1.7-0.9
			c0.3-0.4,0.7-0.6,1.2-0.4c0.5,0.2,0.2,0.7,0.1,1.1c-0.6,3.6-0.6,3.6-4.3,3.6c-5.7,0-11.4,0.1-17.1,0.2c-1.2,0-1.5-0.4-1.1-1.4
			c0.4-1.2,0.4-2.4,0.4-3.6c0-6,0-11.9,0-17.9c0-0.8,0.2-1.7-0.8-2.2c-0.3-0.1-0.3-0.5-0.2-0.8c0.2-0.4,0.6-0.2,0.9-0.2
			C60,84.3,63.4,84.3,66.7,84.3z"/>
		<path class="st7" d="M49.6,103.5c0,1.3,0,2.4,0,3.5c0,0.7-0.6,0.9-1,1.2c-3.1,2.1-6.6,2.8-10.3,2.8c-3.9,0-7.5-0.9-10.7-3.3
			c-5.6-4.3-6.3-13.8-1.4-18.8c4.9-5,10.9-6.4,17.5-5.8c1.6,0.1,3.2,0.5,4.7,0.7c0.7,0.1,0.9,0.4,0.9,1.1c0,1.8,0,3.7,0.1,5.5
			c0,0.7-0.2,1-0.9,1c-0.6,0-1.3,0.2-1.2-0.8c0.1-0.7-0.3-1.3-0.9-1.8c-3.3-2.5-9.5-2.1-12.9,0.8c-3,2.7-3.8,8-1.7,11.7
			c1.9,3.4,6.4,5.5,10.5,4.9c1.2-0.2,2.5-0.3,3.6-0.9C47.3,104.7,48.4,104.1,49.6,103.5z"/>
		<path class="st7" d="M130.9,88.6c-2.3,6.5-4.5,13-6.7,19.5c-0.2,0.5-0.7,1.1,0.3,1.4c0.2,0,0.3,0.3,0.2,0.5
			c-0.1,0.3-0.4,0.3-0.6,0.3c-2.1,0-4.3,0-6.5,0c4.2-7.6,7-15.6,10.1-23.5c0.2-0.6,0.5-1.1-0.3-1.4c-0.3-0.1-0.3-0.4-0.2-0.6
			c0.1-0.3,0.4-0.3,0.6-0.3c2.9,0,5.7,0,8.6,0c0.8,0,0.8,0.8,1,1.3c2.8,6.9,5.6,13.9,8.5,20.8c0.5,1.2,0.6,2.5,2,3.2
			c0.5,0.2,0.1,0.6-0.3,0.6c-2.8,0-5.5,0-8.3,0c-0.8,0-0.7-0.7-0.9-1.2c-2.3-6.5-4.6-13.1-6.9-19.6
			C131.3,89.1,131.3,88.8,130.9,88.6z"/>
		<path class="st8" d="M131.1,110.5c-1.1,0-2.1-0.1-3.2,0c-0.9,0.1-1.4-0.2-1.3-1.2c0.1-1.8,0-3.6,0-5.4c0-0.7,0.2-1,1-1
			c2.3,0,4.6,0,6.9,0c0.7,0,1,0.2,1,0.9c0,1.9,0,3.8,0,5.7c0,0.7-0.2,1-1,1C133.4,110.4,132.2,110.5,131.1,110.5z"/>
		<path class="st9" d="M194.2,87.6c0.7,0.8,1.1,1.8,1.4,2.8c0.3,5.4,0.4,10.8,0,16.2c-0.4,1.2-1,2.3-1.8,3.3c-1-0.3-0.3-1.1-0.3-1.6
			c1.2-3.9,1.4-7.9,0.4-11.9c-0.3-2.3-0.3-4.5-0.2-6.8C193.7,88.9,193.6,88.1,194.2,87.6z"/>
		<path class="st10" d="M195.6,106.6c-0.3-0.3-0.2-0.6-0.2-1c0-4.7,0-9.5,0-14.2c0-0.3,0-0.7,0.3-1c0.6,1,0.9,2.2,1.2,3.3
			c-0.3,3.1-0.4,6.2,0,9.3C196.6,104.2,196.2,105.4,195.6,106.6z"/>
		<path class="st11" d="M187.9,85.8c0.5-1.1,0.1-2.3,0.2-3.5c0.1-0.6-0.1-1.3,0.3-1.8c0.9,0.6,1.6,1.3,2.2,2.2
			c0.7,1.8,0.4,3.6,0.3,5.4c0,0.3-0.2,0.7-0.6,0.7C189.5,87.8,188.7,86.8,187.9,85.8z"/>
		<path class="st12" d="M194.2,87.6c0,2.4,0,4.9,0,7.3c0,0.5,0.2,1-0.2,1.4c-0.4-1.1-0.8-2.2-1.2-3.3c-0.3-2-0.2-4-0.2-6.1
			c0-0.4,0-0.9,0.4-1.2C193.6,86.2,193.8,87,194.2,87.6z"/>
		<path class="st13" d="M191.4,83.7c0.5,0.2,0.6,0.9,0.9,1.3c0.6,2.2,0.2,4.3,0.2,6.5c0,0.2-0.2,0.3-0.4,0.3c-0.3-0.6-0.7-1.2-1-1.8
			c-0.2-1.7-0.1-3.3-0.1-5C191,84.6,191,84.1,191.4,83.7z"/>
		<path class="st14" d="M191.4,83.7c0,1.6,0,3.3,0,4.9c0,0.5,0.2,1-0.3,1.4c-0.3-0.4-0.6-0.8-0.8-1.2c0.6-2,0.1-4.1,0.3-6.1
			C191,83,191.2,83.3,191.4,83.7z"/>
		<path class="st15" d="M192.1,91.8c0.5-2.3,0.1-4.6,0.2-6.8c0.4,0.1,0.5,0.4,0.6,0.8c0,1.9,0,3.9,0,5.8c0,0.5,0.1,1-0.2,1.4
			C192.5,92.6,192.3,92.2,192.1,91.8z"/>
		<path class="st16" d="M193.5,108.3c0.1,0.5-0.2,1.2,0.3,1.6c-0.6,1.2-1.4,2.3-2.7,3.1C191.9,111.4,192.7,109.8,193.5,108.3z"/>
		<path class="st17" d="M185.8,119.5c-0.1-0.1-0.3-0.3-0.4-0.4c0.7-0.6,1.4-1.3,2.2-1.9c0.2,0.2,0.2,0.3,0.1,0.5
			C187,118.4,186.5,119,185.8,119.5z"/>
		<path class="st18" d="M12.4,82.5c0,0.1,0,0.3,0.1,0.4c-0.3,0.6-0.7,0.9-1.4,1C11.5,83.4,12,82.9,12.4,82.5z"/>
		<path class="st19" d="M8.3,88c-0.1-0.1-0.2-0.2-0.3-0.4c0.2-0.4,0.4-0.8,1.1-1C8.9,87.3,8.7,87.7,8.3,88z"/>
		<path class="st20" d="M187.6,117.7c0-0.2,0-0.3-0.1-0.5c0.2-0.2,0.5-0.6,0.6-0.4C188.4,117.3,187.8,117.5,187.6,117.7z"/>
		<path class="st7" d="M107,84.9c-2.7-0.9-5.4-0.4-8-0.5c-4.6-0.1-9.2-0.1-13.8-0.1c-0.4,0-0.9-0.2-1,0.3c-0.1,0.5,0.3,0.5,0.6,0.7
			c0.7,0.4,0.7,1.2,0.7,1.9c0,3.6,0,7.3,0,10.9c-0.2,3.6,0.1,7.2-0.3,10.8c-0.1,1,0.1,1.3,1.1,1.2c4.6-0.1,9.3,0,14,0
			c1.4,0,2.9,0.1,4.3-0.3c6.5-2,10.7-7.9,10.4-14.8C114.6,89.9,112,86.5,107,84.9z M105.3,103.3c-1.3,2.4-3.4,3.7-6.2,3.7
			c-1.6,0-3.2,0.1-4.8-0.2c-0.9-0.2-1.3-0.5-1.3-1.6c0.1-2.6,0-5.2,0-7.8c0,0,0.1,0,0.1,0c0-2.7,0-5.4,0-8.1c0-0.9,0.3-1.2,1.2-1.4
			c2.6-0.5,5.2-0.2,7.7,0.5c2.8,0.8,4.4,2.8,4.9,5.7C107.3,97.3,106.9,100.4,105.3,103.3z"/>
		<path class="st7" d="M177.2,89.4c-0.9-2.8-3.3-4.9-6.3-4.9c-6.1-0.1-12.2,0-18.3,0c-0.3,0-0.6-0.1-0.7,0.3
			c-0.1,0.3,0.1,0.4,0.4,0.6c0.7,0.5,0.9,1.2,0.9,2c-0.2,7.4,0.5,14.8-0.4,22.2c-0.1,0.4-0.1,0.8,0.5,0.8c2.9,0,5.7,0,8.6,0
			c0.1-0.1,0.1-0.3,0.2-0.4c-1.7-0.5-1.7-1.7-1.6-3c0.1-1.7,0.1-3.5,0.1-5.3c0-0.8,0.3-1,1-1c2,0,4,0,6,0c2.8,0,5.2-0.9,7.2-2.8
			C177.2,95.4,178.2,92.7,177.2,89.4z M165.1,97.2c-0.8,0-1.6,0-2.4-0.1c-2.2-0.2-2.2-0.2-2.2-2.5c0-0.7,0-1.5,0-2.2
			c0-1.1,0-2.3,0-3.4c0-0.8,0.3-1.1,1-1.2c1.6-0.2,3.2-0.3,4.8,0c2.2,0.5,4,2.8,3.8,4.8C169.8,95.2,167.6,97.2,165.1,97.2z"/>
	</g>
</g>
</svg>
