<?xml version="1.0" encoding="utf-8"?>
<!-- Generator: Adobe Illustrator 19.2.1, SVG Export Plug-In . SVG Version: 6.00 Build 0)  -->
<svg version="1.1" id="Layer_1" xmlns="http://www.w3.org/2000/svg" xmlns:xlink="http://www.w3.org/1999/xlink" x="0px" y="0px"
	 viewBox="0 0 200 200" style="enable-background:new 0 0 200 200;" xml:space="preserve">
<style type="text/css">
	.st0{fill:#916231;}
	.st1{fill:#D94933;}
	.st2{fill:#86BA00;}
	.st3{fill:#E8B311;}
	.st4{fill:#232324;}
</style>
<g id="_x33_9ipai.tif">
	<g>
		<path class="st0" d="M98.6,87.7c0.1,9.9-6.6,18.9-15.7,21.3c-9.9,2.6-18.4-5.4-16.3-15.4c1.8-8.8,9.9-15.5,18.8-15.5
			c1.2,0,2.4-0.8,3.7-0.9C95.2,76.8,98.6,80.6,98.6,87.7z"/>
		<path class="st1" d="M112.3,74.2c-7.9,0-10.8-2.9-10.7-11c0.1-9.2,6.2-17.8,14.5-20.4c5.2-1.6,10-1,14,2.9c4,3.9,4.5,8.8,3,14
			C130.5,68.2,121.8,74.2,112.3,74.2z"/>
		<path class="st2" d="M98.6,63.4c0,7.9-3.1,10.9-11.1,10.7C77.9,74,69,67.3,66.9,58.6c-2.7-10.7,6-19.1,16.6-16.1
			C92.1,44.9,98.6,53.9,98.6,63.4z"/>
		<path class="st3" d="M101.6,87.8c-0.1-3.9,0.4-8.2,4.6-9.3c6.8-1.7,13.7-1.5,19.6,3.3c5.5,4.4,8.8,9.9,7.9,17.1
			c-1,7.7-9,12.4-16.9,10.1C107.8,106.4,101.6,97.6,101.6,87.8z"/>
		<path class="st4" d="M147.6,145.2c0-6.2,0.1-11.5-0.1-16.8c-0.1-2.6,1-3.1,3.3-3.1c2.3,0,2.9,0.8,2.9,3c-0.1,8.8,0,17.5-0.1,26.3
			c0,1,0.6,2.4-0.9,3c-1.5,0.5-2.3-0.4-3.2-1.4c-4.9-5.6-9.9-11.1-14.8-16.7c-0.5-0.6-0.6-1.8-1.7-1.5c-1.5,0.3-0.8,1.6-0.8,2.5
			c-0.1,4.7-0.1,9.5,0,14.2c0,2-0.2,3.2-2.7,3.2c-2.3,0-3.3-0.5-3.3-3.1c0.1-8.6,0-17.2,0-25.9c0-1-0.6-2.5,0.8-3
			c1.5-0.6,2.7,0,3.8,1.2c4.1,4.7,8.5,9.1,12.4,14C144.4,142.4,145.9,143.3,147.6,145.2z"/>
		<path class="st4" d="M164.6,141.4c0-8.2,6.5-16,13-16.2c4.9-0.2,9.7-1,13.6,3.3c3.1,3.5,6.6,6.5,6.5,11.7
			c-0.2,10.4-7.1,17.7-16.7,17.6C171.9,157.8,164.6,150.4,164.6,141.4z M170.5,141.2c-0.1,4.6,3.5,11,10.4,10.7
			c6.2-0.2,10.8-4.7,10.7-11c-0.1-5.7-4.8-10.8-10.4-10.4C174.7,130.9,170.9,133.9,170.5,141.2z"/>
		<path class="st4" d="M62.4,157.2c-3.7,1.3-6.1,0.5-7.2-2.8c-0.7-2.3-2.2-2.7-4.3-2.5c-2,0.1-4,0.1-6,0c-3.3-0.2-6.1-0.1-7.1,4.1
			c-0.8,3.2-3.8,1.2-6.8,2.1c2.2-4.8,3.9-8.6,5.7-12.5c2.7-6,5.5-12,8.2-18c0.7-1.6,1.9-3.7,3.3-0.8C53,136.8,57.6,147,62.4,157.2z
			 M51.5,146.6c-1.6-3.6-3-6.6-4.6-10c-2,3.4-3.4,6.6-4.5,10C45.4,146.6,48.1,146.6,51.5,146.6z"/>
		<path class="st4" d="M18.8,158C10.6,157.9,4,152.3,2.5,144c-1.3-7.5,3.2-15.9,10.7-18.1c5.8-1.8,11.6-1.9,16.3,3.4
			c0.9,1,0.5,1.4,0,1.9c-1.2,1.2-2,2.8-4.5,1.3c-6.6-4-13.8-1.1-15.8,5.9c-1.3,4.5,0.5,9.6,4.5,12.6c2.4,1.8,8.5,1.5,11.7-0.8
			c2.1-1.5,2.7,0.4,3.8,1.2c1.4,1.1,0.9,1.8-0.3,2.9C26.1,156.9,23.5,158,18.8,158z"/>
		<path class="st4" d="M105.9,141.5c0-4.5,0.1-8.9,0-13.4c-0.1-2.1,0.7-2.7,2.7-2.7c3.9,0.1,7.8,0.1,11.6,0c1.9-0.1,2.9,0.4,2.9,2.6
			c0,2.2-0.6,3.3-3,3c-0.8-0.1-1.7,0-2.6,0c-5.7,0-6.7,1.4-5.6,7c0.5,2.7,2.4,1.2,3.7,1.5c1.7,0.5,3.9-1,5,1
			c1.4,2.3-0.3,4.2-3.1,4.6c-2,0.3-5.4-2.3-5.7,2.6c-0.2,3.6,0.8,5,4.4,4.4c1.4-0.2,2.9,0.1,4.3,0c2-0.1,2.4,0.9,2.4,2.6
			c0,1.8-0.2,3.1-2.5,3c-4-0.1-8-0.1-12.1,0c-2.3,0.1-2.6-1-2.5-2.9C105.9,150.4,105.9,146,105.9,141.5
			C105.9,141.5,105.9,141.5,105.9,141.5z"/>
		<path class="st4" d="M84.4,141.5c0-4.3,0.1-8.6,0-13c-0.1-2.1,0.4-3.2,2.8-3.1c3.9,0.2,7.8,0.1,11.7,0c2.1-0.1,2.8,0.6,2.8,2.7
			c0,1.9-0.4,3.1-2.6,2.8c-1.3-0.1-2.6,0.1-3.9-0.1c-3.7-0.6-4.9,0.6-4.8,4.6c0.1,3.5,1.2,4.4,4.4,4.2c1.5-0.1,4-1.4,4.5,1.4
			c0.5,2.6,0.1,4.6-3.4,4c-4.7-0.9-6,1.2-5.4,5.6c0.2,1.4-0.1,2.9,0.1,4.3c0.3,2.4-0.9,2.9-3,2.9c-2.1,0-3.2-0.5-3.1-2.9
			C84.6,150.4,84.5,146,84.4,141.5C84.4,141.5,84.4,141.5,84.4,141.5z"/>
		<path class="st4" d="M71.8,125.5c1.9,0,3.7,0.1,5.6,0c1.9-0.1,2.9,0.2,2.9,2.5c-0.1,2-0.3,3.3-2.8,3.1c-1.4-0.2-2.9,0.1-4.3-0.1
			c-3.4-0.5-4.2,0.9-4.3,4.2c0,3.6,0.9,4.8,4.5,4.5c1.5-0.1,4.3-1.6,4.2,2.3c-0.1,2.2-0.3,3.2-3,3.2c-5.6-0.1-5.6,0.1-5.6,5.7
			c0,1.3-0.1,2.6,0,3.9c0.1,2.1-0.5,3.1-2.9,3c-2.1-0.1-3.1-0.5-3.1-2.9c0.1-8.9,0.1-17.8,0-26.7c0-2,0.6-2.9,2.7-2.7
			C67.8,125.6,69.8,125.5,71.8,125.5z"/>
		<path class="st4" d="M156.7,140.7c0-4.3,0.1-8.6,0-12.9c-0.1-2.3,1.1-2.6,2.9-2.5c1.7,0.1,3.2-0.1,3.2,2.3c0,9.2,0,18.4,0,27.6
			c0,2.8-2,1.7-3.4,1.9c-1.5,0.2-2.7,0.1-2.7-2.1C156.9,150.2,156.8,145.4,156.7,140.7C156.7,140.7,156.7,140.7,156.7,140.7z"/>
	</g>
</g>
</svg>
