<?xml version="1.0" encoding="utf-8"?>
<!-- Generator: Adobe Illustrator 19.2.1, SVG Export Plug-In . SVG Version: 6.00 Build 0)  -->
<svg version="1.1" id="Layer_1" xmlns="http://www.w3.org/2000/svg" xmlns:xlink="http://www.w3.org/1999/xlink" x="0px" y="0px"
	 viewBox="0 0 200 200" style="enable-background:new 0 0 200 200;" xml:space="preserve">
<style type="text/css">
	.st0{fill:#1E5148;}
</style>
<g id="r0UOTG.tif">
	<g>
		<path class="st0" d="M92.5,114.6c-0.6-0.1-1.1-0.2-1.7-0.3c-4.4-0.8-6.8-3.5-6.8-7.9c0-4.4,1.3-8.3,5.2-10.8
			c3.2-2.1,6.8-2.6,10.5-1.5c3,0.9,4.9,2.9,5.3,6c0.5,3.5,0,6.8-2,9.7c-1.9,2.6-4.6,4-7.7,4.5c-0.4,0.1-0.8,0.2-1.1,0.2
			C93.5,114.6,93,114.6,92.5,114.6z M100.5,103.1c-0.2-1.1-0.4-2.2-0.8-3.3c-0.9-2.6-3.4-3.8-5.9-2.9c-1,0.4-2.1,1.1-2.8,1.9
			c-2.1,2.3-2.4,5.1-1.9,8c0.4,2.2,1.6,3.9,4,4.3c2.4,0.4,4.2-0.6,5.6-2.5C100,107.1,100.3,105.2,100.5,103.1z"/>
		<path class="st0" d="M27.3,85.4c-0.1,1.2-0.3,2.4-0.4,3.6c-0.4,0-0.7,0-1.1,0c-3.6,0-7.3,0-10.9,0c-0.7,0-1,0.2-1.1,0.9
			c-0.2,1.9-0.5,3.8-0.7,5.7c0,0.3,0,0.6,0,1c4,0,8,0,11.9,0c0.2,1,0,1.4-1,1.4c-5.7,0-11.4,0-17.1,0c-0.3,0-0.6,0-1,0
			c0.6-0.7,0.9-1.5,1.9-1.4c0.1,0,0.4-0.4,0.5-0.6c0.3-2.5,0.6-5.1,1-7.6c0.1-1,0.2-2,0.4-3C15.6,85.4,21.4,85.4,27.3,85.4z"/>
		<path class="st0" d="M197,111.5c-0.1,0.2-0.2,0.3-0.2,0.5c-0.5,1.3-1.8,2-3.1,1.8c-1.3-0.3-2.2-1.4-2.2-2.7c0-1.3,1-2.4,2.2-2.6
			c1.3-0.2,2.5,0.5,3,1.9c0.1,0.1,0.1,0.3,0.2,0.4C197,110.9,197,111.2,197,111.5z M194.3,113.5c1.3,0,2.4-1.1,2.4-2.4
			c0-1.3-1.1-2.4-2.5-2.3c-1.3,0-2.3,1.1-2.3,2.4C191.8,112.4,192.9,113.5,194.3,113.5z"/>
		<path class="st0" d="M127.8,96.6c1.4-0.9,2.7-1.8,4.2-2.5c2.2-1,4.5-0.8,6.6,0.4c1.9,1.1,2.7,3,2.5,5c-0.4,4.7-1.1,9.3-1.7,14
			c0,0.1-0.1,0.1-0.1,0.2c-1.4,0-2.9,0-4.5,0c0.2-1.6,0.4-3.2,0.6-4.8c0.3-2.4,0.6-4.7,0.9-7.1c0.1-0.4,0-0.8,0-1.3
			c-0.2-2.8-2.3-4.2-4.9-3.2c-1,0.4-1.9,1.2-2.8,1.8c-0.3,0.2-0.3,0.7-0.4,1c-0.6,4.4-1.1,8.7-1.7,13.1c0,0.1,0,0.2-0.1,0.4
			c-1.5,0-3,0-4.5,0c0.4-3.4,0.8-6.8,1.2-10.2c0.1-1.2,0.3-2.4,0.2-3.6c-0.3-2.4-1.8-3.5-4.1-2.9c-1.2,0.3-2.4,1.1-3.4,1.9
			c-0.4,0.3-0.4,1.2-0.5,1.8c-0.5,4.3-1.1,8.5-1.6,12.8c-1.5,0-2.9,0-4.5,0c0.8-6.6,1.6-13.1,2.4-19.7c1.5,0,2.8,0,4.2,0
			c-0.1,0.7-0.1,1.3-0.2,2.1c2-1.5,3.9-2.7,6.3-2.6C124.6,93.5,126.7,94.5,127.8,96.6z"/>
		<path class="st0" d="M164.4,104.4c-4.5,0-9.1,0-13.6,0c-0.5,2.5,1.3,5.4,4,6c2.3,0.5,4.6,0.3,7.1-0.4c0.1,0.8,0.2,1.7,0.2,2.5
			c0,0.1-0.3,0.3-0.4,0.4c-3.1,1.1-6.3,1.6-9.6,0.9c-4.1-0.9-6.3-3.7-6.5-8c-0.2-6,3.4-11,9.1-12.1
			C161.3,92.4,166.1,97.5,164.4,104.4z M151.2,101c3,0,5.9,0,8.9,0c0.2-2.1-1.4-4.1-3.4-4.3C154.3,96.4,151.7,98,151.2,101z"/>
		<path class="st0" d="M44.2,110.3c0.5,2.5,0.5,2.5-2.1,3.2c-2.8,0.7-5.6,1-8.4,0.2c-3.5-1-5.6-3.9-5.8-7.5
			c-0.1-2.9,0.5-5.6,2.2-8.1c2.5-3.5,7-5.2,11.1-4.2c4.5,1.2,6.2,5,5.8,9.4c0,0.3-0.1,0.6-0.2,1.1c-4.6,0-9.2,0-13.8,0
			c-0.6,3.1,1.8,6,5.1,6.1C40.2,110.6,42.2,110.3,44.2,110.3z M33.5,101c3,0,5.9,0,8.8,0c0.2-2.1-1.4-4.1-3.4-4.3
			C36.4,96.4,33.8,98.4,33.5,101z"/>
		<path class="st0" d="M70.9,94.1c1.4,0,2.8,0,4.2,0c-0.1,0.8-0.2,1.5-0.3,2.4c4.6-3,6.6-3.5,9.1-2.3c-0.5,1.1-0.9,2.2-1.4,3.3
			c-0.9-0.1-1.7-0.3-2.5-0.3c-3.1,0-5.3,2.1-5.7,5.2c-0.4,3.8-0.9,7.6-1.4,11.4c-1.5,0-2.9,0-4.5,0C69.3,107.1,70.1,100.6,70.9,94.1
			z"/>
		<path class="st0" d="M51.3,113.8c0.8-6.7,1.6-13.2,2.5-19.7c1.4,0,2.8,0,4.2,0c-0.1,0.8-0.2,1.6-0.3,2.5c1.9-1.9,4-2.9,6.4-3.1
			c0.9,0,1.8,0.2,2.7,0.4c-0.6,1.3-1.1,2.4-1.4,3.3c-1.4,0-2.7-0.2-3.9,0c-2.5,0.4-4.1,2.3-4.3,4.9c-0.4,3.6-0.9,7.3-1.3,10.9
			c-0.1,0.5-0.2,0.8-0.8,0.8C53.8,113.7,52.6,113.8,51.3,113.8z"/>
		<path class="st0" d="M24.8,100.2c-0.1,0.5-0.1,0.9-0.1,1.3c-0.5,0-1,0-1.5,0c-3.2,0-6.5,0-9.7,0c-0.9,0-1.1,0.3-1.2,1.1
			c-0.4,3.4-0.8,6.8-1.2,10.2c0,0.3-0.1,0.6-0.2,0.8c-1.6,0-3.1,0-4.7,0c0.5-4,0.9-8,1.4-12c-1.5,0-3,0-4.6,0
			c0.6-0.9,1.1-1.4,2.2-1.4c6.2,0.1,12.3,0,18.5,0C24,100.2,24.3,100.2,24.8,100.2z"/>
		<path class="st0" d="M187,113.8c-1.9,0-3.7,0-5.4,0c-0.3,0-0.7-0.3-0.8-0.6c-1-1.6-2-3.2-3-4.9c-0.2-0.3-0.3-0.5-0.6-0.9
			c-1.7,1.9-3.3,3.8-4.9,5.6c-0.5,0.7-1.1,0.9-2,0.7c0.1-0.2,0.2-0.4,0.4-0.5c5.3-6.1,10.7-12.2,16-18.4c0.5-0.6,1-1,1.9-0.7
			c-2.7,3.1-5.4,6.2-8.2,9.4C182.5,106.9,184.7,110.2,187,113.8z"/>
		<path class="st0" d="M165.4,113.7c1.6-1.8,3.1-3.5,4.6-5.1c1.5-1.7,3-3.3,4.5-5.1c-1.9-3.1-3.9-6.1-5.9-9.3c1.9,0,3.7,0,5.4,0
			c0.2,0,0.5,0.4,0.7,0.6c1.1,1.6,2.1,3.2,3.2,4.9c1.5-1.7,3-3.3,4.4-4.9c0.5-0.6,1-0.9,2-0.7c-0.3,0.4-0.6,0.7-0.9,1.1
			c-5.1,5.9-10.3,11.7-15.4,17.6C167.3,113.6,166.6,114,165.4,113.7z"/>
		<path class="st0" d="M193.3,109.5c0.7,0.2,1.4,0.4,2,0.6c-0.1,0.4-0.2,0.8-0.4,1.3c0.1,0.1,0.3,0.5,0.5,0.8
			c-0.1,0.1-0.1,0.1-0.2,0.2c-0.4-0.4-0.9-0.9-1.5-1.5c-0.1,0.6-0.2,1-0.3,1.4c-0.1,0-0.1,0-0.2,0
			C193.3,111.5,193.3,110.7,193.3,109.5z M194.3,109.9c-0.3,0.2-0.5,0.4-0.7,0.5c0.2,0.2,0.4,0.5,0.5,0.5c0.3,0,0.5-0.3,0.7-0.4
			C194.7,110.3,194.6,110.1,194.3,109.9z"/>
	</g>
</g>
</svg>
