<?xml version="1.0" encoding="utf-8"?>
<!-- Generator: Adobe Illustrator 19.2.1, SVG Export Plug-In . SVG Version: 6.00 Build 0)  -->
<svg version="1.1" id="Layer_1" xmlns="http://www.w3.org/2000/svg" xmlns:xlink="http://www.w3.org/1999/xlink" x="0px" y="0px"
	 viewBox="0 0 200 200" style="enable-background:new 0 0 200 200;" xml:space="preserve">
<style type="text/css">
	.st0{fill:#23429B;}
	.st1{fill:#F1A238;}
</style>
<g id="T6SHJB.tif">
	<g>
		<path class="st0" d="M46,89.3c-14.3,0-28.5,0-42.8,0c-1,0-1-0.1-0.8-1c0.7-2.5,2.4-3.7,4.8-4.3c1.4-0.4,2.9-0.5,4.3-0.5
			c16.3,0,32.6,0,48.9,0c1.5,0,2-0.5,2-2c0-2.2,0-4.4,0-6.6c0-1.7-0.4-2.1-2-2.1c-0.2,0-0.3,0-0.5,0c-8.9,0-17.8,0-26.7,0
			c-1.3,0-2.6-0.1-3.8-0.8c-2.4-1.4-2.9-4.5-0.9-6.9c1-1.2,2.4-2.1,3.6-3.1c3.2-2.5,6.5-5,9.7-7.4c3.3-2.5,6.5-4.9,9.8-7.4
			c0.2-0.1,0.3-0.2,0.5-0.3c1.1-0.7,1.6-0.6,2.5,0.3c0.6,0.7,1.2,1.4,1.7,2.2c0.7,1,0.3,1.8-0.4,2.4c-1.3,1.2-2.8,2.2-4.2,3.3
			c-4.7,3.6-9.5,7.2-14.2,10.7c-0.3,0.2-0.6,0.5-0.5,0.8c0.1,0.4,0.5,0.2,0.8,0.2c8.3,0,16.6,0,24.9,0c1.5,0,3.1,0.1,4.5,0.8
			c1,0.5,1.5,1.3,1.8,2.4c0.5,1.8,0.4,3.6,0.4,5.4c0,1.9,0,3.8,0,5.7c0,1.5,0.7,2.2,2.2,2.2c5.2-0.1,10.4-0.1,15.7,0
			c1.2,0,2-0.9,2-2c0-3.8,0-7.6,0-11.4c0-0.5,0.1-1,0.2-1.4c0.2-0.9,0.8-1.5,1.6-1.6c1.2-0.2,2.4-0.2,3.7,0.1
			c0.9,0.2,1.3,0.8,1.5,1.6c0.1,0.5,0.2,1.1,0.2,1.7c0,3.4,0,6.8,0,10.2c0,1.7-0.1,3.4-0.6,5.1c-0.4,1.4-1.9,2.9-3.5,3.2
			c-1.6,0.3-3.3,0.4-4.9,0.4C73.8,89.3,59.9,89.3,46,89.3z"/>
		<path class="st0" d="M144.9,81.2c0,0.8,0.1,1.6,1,2c0.3,0.1,0.5,0.2,0.8,0.2c5.5,0,10.9,0,16.4,0c1.1,0,1.7-0.6,1.7-1.8
			c0-2.7,0-5.3,0-8c0-1.6-0.1-3.1,0.1-4.7c0.2-1,0.6-1.6,1.6-1.9c1.2-0.4,2.4-0.3,3.7-0.1c1,0.2,1.5,0.9,1.7,1.9
			c0.1,0.5,0.1,1.1,0.1,1.7c0,3.5,0.1,7.1,0,10.6c0,1.5,0.7,2.4,2.3,2.3c3.8-0.1,7.7-0.1,11.5,0c1.4,0,2.4-0.7,2.2-2.2
			c0-0.1,0.1-0.2,0.1-0.3c0-4,0-8,0-12c0.1-0.1,0.2-0.2,0.2-0.3c0.1-1,0.7-1.5,1.6-1.7c1.3-0.3,2.7-0.3,4,0.1c0.6,0.2,1,0.7,1.2,1.4
			c0.3,1,0.3,2,0.3,3c0,3,0,6.1,0,9.1c0,1.7-0.1,3.4-0.6,5c-0.5,1.7-1.7,2.7-3.4,3.2c-1.4,0.4-2.9,0.4-4.4,0.4
			c-25.2,0-50.4,0-75.6,0c-1.6,0-3.2,0-4.7-0.7c-1.5-0.7-2.4-1.8-2.8-3.4c-0.4-1.6-0.4-3.3-0.4-5c0-10,0-20.1,0-30.1
			c0-0.6,0.1-1.3,0.3-1.8c0.4-1.2,1.5-1.3,2.5-1.4c1-0.1,2-0.1,3,0.2c0.6,0.2,1.2,1,1.3,1.9c0,0.4,0,0.9,0,1.3c0,10.2,0,20.4,0,30.6
			c0,0.9,0.1,1.8,1,2.3c0.3,0.2,0.6,0.2,0.8,0.2c7.8,0,15.7,0,23.5,0c1.1,0,1.8-0.7,1.8-1.8c0-3.8,0-7.6,0-11.4c0-0.7,0.2-1.4,0.3-2
			c0.1-0.5,0.5-1,1.1-1.1c1.3-0.4,2.6-0.4,3.9-0.1c0.9,0.2,1.5,0.7,1.6,1.6c0.1,0.4,0.2,0.7,0.2,1.1c-0.1,0.1-0.1,0.3-0.1,0.5
			c0,3.5,0,7,0,10.5C144.8,80.9,144.7,81,144.9,81.2z"/>
		<path class="st1" d="M129.9,130.9c0,5.4,0,10.9,0,16.3c0,1.1,0.3,1.4,1.4,1.4c4.8,0,9.7,0,14.5,0c1.1,0,1.3-0.2,1.1-1.3
			c-0.4-2.2-1.6-4-3.1-5.6c-2.7-3-6.2-4.8-9.9-6c-0.3-0.1-0.5-0.2-0.8-0.3c-0.9-0.4-1.3-0.9-1.2-1.9c0-0.8,0.3-1.5,0.8-2.1
			c0.6-0.9,1.6-0.8,2.4-0.6c6,1.7,11.2,4.5,14.8,9.8c1.9,2.8,2.8,6,2.8,9.4c0,2.3-1,3.4-3.3,3.4c-5.5,0-11,0-16.5,0
			c-1.6,0-3.2,0.1-4.8-0.2c-2.4-0.4-3.5-1.6-3.7-4c0-0.5-0.1-1-0.1-1.5c0-11.1,0-22.2,0-33.2c0-0.5,0-0.9,0.2-1.4
			c0.3-0.6,0.7-1,1.4-1c0.8,0,1.6,0,2.4,0c1.1,0,1.6,0.6,1.8,1.9c0,0.3,0,0.7,0,1C129.9,120.3,129.9,125.6,129.9,130.9z"/>
		<path class="st1" d="M120.3,137.6c0,3.3,0,6.7,0,10c0,0.8-0.1,1.6-0.2,2.3c-0.4,2.1-1.5,3.1-3.8,3.4c-0.7,0.1-1.4,0.1-2.1,0.1
			c-6.2,0-12.4,0-18.5,0c-3,0-4.1-1.1-4-4.2c0.2-3.8,1.6-7.1,4-10.1c3.1-3.9,6.9-6.8,11.7-8.3c0.7-0.2,1.4-0.3,2.1-0.3
			c1.3,0,2,0.6,2.2,1.9c0.1,0.8,0.1,1.5,0.1,2.3c0,2.4,0.1,4.7-0.1,7.1c-0.1,0.9-0.5,1.4-1.4,1.4c-0.7,0.1-1.4,0.1-2.1,0
			c-1-0.2-1.5-0.6-1.5-1.7c0-1.4,0-2.8,0-4.2c0-0.7-0.2-0.8-0.8-0.5c-1.2,0.5-2.1,1.2-3.1,2c-2.3,2-4.3,4.2-5.2,7.3
			c-0.7,2.6-0.3,2.5,1.8,2.5c4.6,0,9.1,0,13.7,0c1.4,0,1.6-0.3,1.6-1.6c0-6.4,0-12.8,0-19.1c0-0.3,0-0.6,0-1
			c0.1-1.7,0.6-2.3,2.3-2.3c0.2,0,0.3,0,0.5,0c2.3,0,2.9,0.6,2.9,2.9C120.3,130.8,120.3,134.2,120.3,137.6z"/>
		<path class="st1" d="M70.4,153.5c-4.9,0-9.7,0-14.6,0c-0.9,0-0.9,0-0.7-0.9c0.5-1.9,1.7-3,3.5-3.5c1.1-0.3,2.2-0.4,3.3-0.4
			c6.7,0,13.5,0,20.2,0c1.1,0,1.3-0.2,1.4-1.3c0.1-2.2,0-2.3-2.2-2.3c-4.9,0-9.8,0-14.7,0c-0.7,0-1.4-0.1-2-0.2c-2.1-0.4-3-2-2.3-4
			c0.6-1.5,1.6-2.7,2.8-3.7c3.4-2.9,7.5-4.5,11.8-5.6c3-0.7,6.1-1,9.3-1c2.2,0,2.9,0.9,2.7,3.1c-0.1,1.3-0.6,1.8-1.9,1.8
			c-3.1,0.1-6.1,0.4-9.1,1c-2.6,0.6-5.2,1.3-7.5,2.7c-0.2,0.1-0.5,0.3-0.7,0.4c-0.1,0.1-0.4,0.2-0.3,0.4c0.1,0.2,0.3,0.2,0.5,0.2
			c0.6,0,1.1,0,1.7,0c4,0,7.9,0,11.9,0c0.9,0,1.9,0.1,2.8,0.2c2.1,0.4,2.7,1.6,2.8,3.2c0.2,2,0.1,4.1,0,6.2
			c-0.1,2.3-1.4,3.5-3.9,3.6c-2.7,0.1-5.3,0-8,0.1C74.9,153.5,72.7,153.5,70.4,153.5z"/>
		<path class="st1" d="M182.4,153.5c-4.5,0-9,0-13.5,0c-0.3,0-0.7,0-1,0c-2-0.1-3-1.2-3-3.2c0-2,0.3-3.9,1-5.7
			c2.4-6.3,6.8-10.4,13.1-12.6c2.6-0.9,5.2-1.3,7.9-1.3c1.8,0,2.7,0.6,2.7,2.4c0,3,0.2,5.9-0.1,8.9c-0.1,0.8-0.5,1.2-1.4,1.4
			c-0.8,0.1-1.5,0.1-2.3,0c-1-0.1-1.5-0.6-1.5-1.6c0-1.6,0-3.1,0-4.7c0-0.8-0.1-0.9-0.9-0.9c-3,0.2-5.5,1.4-7.8,3.3
			c-2.1,1.8-3.8,3.9-4.8,6.5c-0.2,0.6-0.4,1.2-0.4,1.8c-0.1,0.8,0.1,1,0.9,1.1c0.4,0,0.7,0,1.1,0c6.2,0,12.5,0,18.7,0
			c1.4,0,2.9,0.2,4.2,0.9c1.3,0.7,2.1,1.8,2.4,3.2c0.1,0.5,0,0.7-0.5,0.7c-2.2,0-4.3,0-6.5,0C187.9,153.5,185.2,153.5,182.4,153.5z"
			/>
		<path class="st1" d="M161.5,142.3c0,2.9,0,5.9,0,8.8c0,2-0.8,2.7-2.8,2.6c-0.4,0-0.7-0.1-1.1-0.1c-0.8-0.1-1.3-0.7-1.4-1.7
			c0-0.4,0-0.7,0-1.1c0-4.7,0-9.4,0-14.1c0-0.6-0.2-0.8-0.8-0.8c-0.7,0-1.3,0-2-0.1c-0.8-0.1-1.4-0.5-1.6-1.4c-0.2-0.7-0.2-1.4,0-2
			c0.2-1,0.9-1.5,2.1-1.5c1.8,0,3.6-0.1,5.4,0c1.4,0,2.1,0.8,2.1,2.3C161.5,136.2,161.5,139.2,161.5,142.3z"/>
		<path class="st0" d="M74,101.5c-0.1-1.2,0.6-2,1.3-2.8c0.9-0.9,1.8-1.8,2.7-2.7c2.2-1.9,4.5-1.1,5.6,1.2c0.3,0.7,0.4,1.4,0.1,2.1
			c-1.1,2.2-2.8,4-5,5.2C76.6,105.7,74,103.9,74,101.5z"/>
		<path class="st1" d="M153.4,124.6c0-0.3,0-0.7,0.2-1c1-1.5,2.2-3,3.8-3.8c1-0.5,1.9-0.3,2.8,0.6c0.9,0.9,1.2,1.9,0.6,2.9
			c-0.9,1.6-2.1,2.8-3.6,3.7C155.6,128,153.4,126.6,153.4,124.6z"/>
		<path class="st1" d="M188.1,69c0,4,0,8,0,12c0,0.1-0.1,0.2-0.1,0.3c0-4,0-8,0-11.9C188,69.2,188,69.1,188.1,69z"/>
		<path class="st1" d="M144.9,81.2c-0.1-0.1-0.1-0.3-0.1-0.5c0-3.5,0-7,0-10.5c0-0.2,0-0.3,0.1-0.5
			C144.9,73.6,144.9,77.4,144.9,81.2z"/>
	</g>
</g>
</svg>
