<?xml version="1.0" encoding="utf-8"?>
<!-- Generator: Adobe Illustrator 19.2.1, SVG Export Plug-In . SVG Version: 6.00 Build 0)  -->
<svg version="1.1" id="Layer_1" xmlns="http://www.w3.org/2000/svg" xmlns:xlink="http://www.w3.org/1999/xlink" x="0px" y="0px"
	 viewBox="0 0 200 200" style="enable-background:new 0 0 200 200;" xml:space="preserve">
<style type="text/css">
	.st0{fill:#00529B;}
	.st1{fill:#B38808;}
</style>
<g>
	<path class="st0" d="M61,115.3c-3.2,0-5.8-0.8-7.6-2.3c-1.7-1.4-2.5-3.1-2.5-5.1c0-0.9,0.2-1.7,0.6-2.6c0.4-0.8,0.9-1.6,1.6-2.2
		c-0.7-0.7-1.3-1.4-1.6-2.2c-0.4-0.8-0.6-1.7-0.6-2.5c0-2,0.9-3.7,2.5-5.1c1-0.8,2.1-1.4,3.3-1.7c1.3-0.4,2.7-0.6,4.3-0.6h21.5v5.2
		H62.4c-0.9,0-1.6,0.2-2.2,0.7c-0.5,0.5-0.8,1-0.8,1.6c0,0.6,0.3,1.1,0.8,1.5c0.5,0.4,1.2,0.6,2.2,0.6h20.1v5.1v0.1H61.3
		c-0.6,0.2-1.1,0.5-1.4,0.9c-0.3,0.4-0.5,0.8-0.5,1.3c0,0.6,0.3,1.1,0.8,1.5c0.5,0.4,1.2,0.6,2.2,0.6h20.1v5.3H61z"/>
	<path class="st0" d="M124.9,115.5V90.9h18.5c2.9,0,5.5,0.6,7.7,1.9c2,1.1,3.6,2.7,4.7,4.6c1,1.8,1.6,3.8,1.6,6
		c0,2.1-0.5,4.1-1.5,5.8c-1.1,1.9-2.6,3.4-4.6,4.5c-2.2,1.2-4.8,1.8-7.8,1.8H124.9z M146.7,107.9c1.1-1.4,1.6-3,1.6-4.9
		c0-1.9-0.5-3.4-1.6-4.7c-1.2-1.4-2.8-2.1-4.8-2.1h-8.7v14h8.7C144,110.1,145.5,109.4,146.7,107.9z"/>
	<path class="st0" d="M85.7,93c6.7-1.8,10,3.5,10.4,4c-0.7-0.8-1.2-1.2-1.7-1.2c-0.5,0.1-0.9,0.2-1.1,0.4c-0.2,0.2-0.3,0.5-0.3,0.8
		v18.4h-8.4V95.8C84.6,94.7,85,93.8,85.7,93L85.7,93z"/>
	<path class="st0" d="M40.5,88.4v20.8c0,0.4-0.1,0.7-0.2,0.8c-0.1,0.1-0.4,0.3-0.7,0.3c-0.5,0-0.7-0.3-1.3-1.3l-5.2-10.5
		c-0.8-1.5-1.8-2.7-3.3-3.6c-1.3-0.8-2.9-1.1-4.6-1.2l0,0h0c0,0,0,0,0,0l0,0c0,0,0,0,0,0c0,0,0,0,0,0l0,0c0,0,0,0,0,0h0l0,0
		c-1.7,0-3.2,0.4-4.6,1.2c-1.5,0.9-2.5,2.1-3.3,3.6L12.1,109c-0.6,0.9-0.8,1.2-1.3,1.3c-0.3,0.1-0.6-0.1-0.7-0.3
		c-0.1-0.1-0.2-0.4-0.2-0.8V88.4H2.3v21.4c0,1.8,0.9,3.7,2.4,4.7c1.5,1.1,4,1.3,6.2,1.3c1.9,0,3.9-0.6,5.2-1.5
		c1.2-0.9,2.3-2.2,3.2-4l4.6-10c0.2-0.3,0.4-0.5,0.6-0.7c0.2-0.1,0.5-0.2,0.7-0.2c0,0,0,0,0,0l0,0c0,0,0,0,0,0c0,0,0,0,0,0l0,0
		c0,0,0,0,0,0c0.2,0,0.5,0.1,0.7,0.2c0.2,0.2,0.4,0.4,0.6,0.7l4.7,10c0.9,1.8,1.9,3.1,3.2,4c1.3,0.9,3.3,1.5,5.2,1.5
		c2.2,0,4.7-0.3,6.2-1.3c1.5-1.1,2.4-2.9,2.4-4.7V88.4H40.5z"/>
	<g>
		<path class="st1" d="M51.2,123c0,3.1,3,5.3,7.1,5.3c2.8,0,5-1,6.3-2.7l0.2-0.2l-1.8-1l-0.1,0.2c-1,1.4-2.6,2.1-4.5,2.1
			c-2.8,0-4.9-1.5-4.9-3.7c0-2.1,2.1-3.7,4.9-3.7c1.9,0,3.4,0.6,4.2,1.7l0.1,0.2l1.8-1l-0.2-0.2c-1.3-1.5-3.5-2.3-6-2.3
			C54.2,117.7,51.2,119.9,51.2,123z"/>
		<path class="st1" d="M73.1,117.7c-4.1,0-7.1,2.2-7.1,5.3c0,3.1,3,5.3,7.1,5.3c4.1,0,7.1-2.2,7.1-5.3
			C80.2,119.9,77.2,117.7,73.1,117.7z M73.1,126.7c-2.8,0-4.9-1.5-4.9-3.7c0-2.1,2.1-3.7,4.9-3.7c2.8,0,4.9,1.5,4.9,3.7
			C78,125.1,75.9,126.7,73.1,126.7z"/>
		<path class="st1" d="M84.5,117.9h-1.9V128h10.8v-1.6c0,0-8.1,0-8.6,0c0-0.5,0-8.5,0-8.5H84.5z"/>
		<path class="st1" d="M93.8,123c0,3.1,3,5.3,7.1,5.3c2.8,0,5-1,6.3-2.7l0.2-0.2l-1.8-1l-0.1,0.2c-1,1.4-2.6,2.1-4.5,2.1
			c-2.8,0-4.9-1.5-4.9-3.7c0-2.1,2.1-3.7,4.9-3.7c1.8,0,3.4,0.6,4.2,1.7l0.1,0.2l1.8-1l-0.2-0.2c-1.3-1.5-3.5-2.3-6-2.3
			C96.8,117.7,93.8,119.9,93.8,123z"/>
		<path class="st1" d="M121,117.9h-1.9c0,0,0,3.4,0,3.8c-0.5,0-6.8,0-7.3,0c0-0.4,0-3.8,0-3.8h-2.2V128h2.2c0,0,0-4.3,0-4.7
			c0.5,0,6.8,0,7.3,0c0,0.5,0,4.7,0,4.7h2.1v-10.1H121z"/>
		<path class="st1" d="M130.8,117.7c-4.1,0-7.1,2.2-7.1,5.3c0,3.1,3,5.3,7.1,5.3c4.1,0,7.1-2.2,7.1-5.3
			C137.9,119.9,134.9,117.7,130.8,117.7z M130.8,126.7c-2.8,0-4.9-1.5-4.9-3.7c0-2.1,2.1-3.7,4.9-3.7c2.8,0,4.9,1.5,4.9,3.7
			C135.7,125.1,133.6,126.7,130.8,126.7z"/>
		<path class="st1" d="M151.6,117.9h-1.9c0,0,0,6,0,6.9c-0.8-0.6-8.2-6.9-8.2-6.9h-1.2V128h2.1c0,0,0-6,0-6.9
			c0.7,0.6,8.2,6.9,8.2,6.9h1.2v-10.1H151.6z"/>
		<path class="st1" d="M165.9,117.9h-10.6V128h11.4v-1.6c0,0-8.8,0-9.3,0c0-0.4,0-2.6,0-3c0.5,0,5.3,0,5.3,0v-1.6c0,0-4.8,0-5.3,0
			c0-0.4,0-2,0-2.3c0.5,0,8.7,0,8.7,0v-1.6H165.9z"/>
		<path class="st1" d="M168,120.6c0,1,0.7,1.8,2.1,2.2c1.2,0.4,2.7,0.5,4.5,0.6l1,0c1.8,0.1,2.8,0.7,2.8,1.5c0,1-1.6,1.8-3.9,1.8
			c-1.9,0-4-0.6-5.8-1.6l-0.2-0.1l-1.3,1.4l0.3,0.2c2.1,1.2,4.4,1.7,7,1.7c3.6,0,6.1-1.4,6.1-3.3c0-1.7-1.8-2.9-4.6-3.1l-1.9-0.1
			c-1.5-0.1-2.6-0.1-3.4-0.5c-0.5-0.3-0.5-0.5-0.5-0.6c0-0.6,1.2-1.2,3.2-1.2c1.9,0,3.6,0.5,5.2,1.4l0.2,0.1l1.3-1.4l-0.3-0.2
			c-2-1-4.2-1.6-6.4-1.6C170.2,117.7,168,118.9,168,120.6z"/>
	</g>
	<path class="st1" d="M111.1,109.6C111.1,109.6,111.1,109.6,111.1,109.6c-0.7-1-1.8-3.5-3.3-7.5c-1.3-3.6-2.7-6.3-4.2-7.9
		c-2.2-2.5-5.2-3.7-8.9-3.7c-2.8,0-5.1,0.4-6.9,1.2c-0.9,0.4-1.5,0.9-2.1,1.4c6.7-1.8,10,3.5,10.4,4c0.4,0.5,0.9,1.2,1.4,2.1
		c0.4,0.7,0.9,1.7,1.4,2.8c0.5,1.1,1.1,2.4,1.7,3.9c1.3,3.1,2.1,4.8,2.3,5.2c0.8,1.6,2.2,2.8,4.2,3.7c1.8,0.8,3.8,1.2,6,1.2
		c2.6,0,4.8-0.5,6.6-1.4c0.5-0.3,0.9-0.5,1.3-0.8C114.9,115,111.7,110.5,111.1,109.6z"/>
	<g>
		<path class="st1" d="M195.5,85.3c-0.6,5.1-3.8,9.7-9.4,10.4c-9.9,1.3-22.2-17.5-35.6-22c-16.1-5.5-27.3,2-27.3,2
			c1.7-0.3,12.1-4.8,29.8,5.3c13.5,7.7,20.7,21.8,35,20.6c6.1-0.5,9.7-5.8,9.7-11.7L195.5,85.3z"/>
	</g>
	<g>
		<path class="st1" d="M195.5,85.3c-0.6,5.1-3.8,9.7-9.4,10.4c-9.9,1.3-22.2-17.5-35.6-22c-16.1-5.5-27.3,2-27.3,2
			c1.7-0.3,12.1-4.8,29.8,5.3c13.5,7.7,20.7,21.8,35,20.6c6.1-0.5,9.7-5.8,9.7-11.7L195.5,85.3z"/>
	</g>
	<g>
		<path class="st0" d="M174.7,98l-2.1,2.1c-0.2,0.2-0.4,0.3-0.8,0.3c-0.4,0-0.6-0.1-0.7-0.3l-9.1-9h-9.7l15.2,15.5v9h8.3v-9l5.4-5.5
			C179.1,100.4,176.9,99.4,174.7,98z"/>
		<path class="st0" d="M186.1,95.7c0.3,0,0.5-0.1,0.8-0.1l4.5-4.5h-9.8l-2.7,2.8C181.4,95.3,183.8,96,186.1,95.7z"/>
	</g>
	<g>
		<path class="st0" d="M111.1,109.6C111.1,109.6,111.1,109.6,111.1,109.6C111.1,109.6,111.1,109.6,111.1,109.6
			C111.1,109.6,111.1,109.6,111.1,109.6z"/>
		<path class="st0" d="M123.2,75.7C123.2,75.7,123.2,75.7,123.2,75.7c-8.7,5-8.8,13.4-8.9,14.7l0,0.3v18.4c0,0.4-0.1,0.7-0.4,0.9
			c-0.3,0.2-0.6,0.3-1.1,0.3c-0.4,0-0.7-0.1-1-0.2c-0.3-0.1-0.5-0.3-0.7-0.6c0.6,0.9,3.8,5.4,9.9,4c1.1-0.9,1.7-1.9,1.7-3V90.9
			c0-1.1,0.2-4.3,1.4-7c1.4-3.2,4-5.7,6.9-7.1c2.2-1.1,4.7-1.5,7.1-1.6C129.5,73.4,124.4,75.5,123.2,75.7z"/>
	</g>
	<path class="st0" d="M160.4,111.9v-1h0.7c0.5,0,0.7,0.2,0.7,0.5c0,0.2-0.2,0.5-0.7,0.5H160.4z M162.7,113.9l-0.4-0.7
		c-0.4-0.6-0.5-0.7-0.8-0.8v0c0.6-0.1,1-0.5,1-1c0-0.6-0.4-1-1.1-1h-1.8v3.6h0.7v-1.5h0.1c0.3,0,0.4,0,0.6,0.2
		c0.1,0.1,0.4,0.5,0.5,0.7l0.3,0.6H162.7z M161.2,109.4c1.5,0,2.7,1.2,2.7,2.7c0,1.5-1.2,2.7-2.7,2.7c-1.5,0-2.7-1.2-2.7-2.7
		C158.5,110.6,159.7,109.4,161.2,109.4z M161.2,108.8c-1.9,0-3.4,1.5-3.4,3.4c0,1.9,1.5,3.4,3.4,3.4c1.9,0,3.4-1.5,3.4-3.4
		C164.5,110.3,163,108.8,161.2,108.8z"/>
</g>
</svg>
