<?xml version="1.0" encoding="utf-8"?>
<!-- Generator: Adobe Illustrator 19.2.1, SVG Export Plug-In . SVG Version: 6.00 Build 0)  -->
<svg version="1.1" id="Layer_1" xmlns="http://www.w3.org/2000/svg" xmlns:xlink="http://www.w3.org/1999/xlink" x="0px" y="0px"
	 viewBox="0 0 200 200" style="enable-background:new 0 0 200 200;" xml:space="preserve">
<style type="text/css">
	.st0{fill:#992C39;}
</style>
<g id="layer1" transform="translate(1403.7215,697.9402)">
	<path id="path7267" class="st0" d="M-1230.9-619.5c-1.5,0-11.4,29.2-11.4,29.2h1.1c0,0,1.5-3.7,4-3.9c2.5-0.1,8.7,13.2,8.7,13.2
		s0.7,4.1,5.7,4.1h16.8v-1.2c0,0-3.6,0.3-5.3-3.5C-1213-585.2-1229.7-619.5-1230.9-619.5z M-1244.8-605.9v-10.7
		c0,0-5.2-3.9-12.3-3.9c-7.1,0-15.9,3.5-15.9,14.7c0,10.7,16.7,12.8,16.7,18.7c0,3.1-2.5,3.3-4.2,3.3c-5.7,0-11.2-8.5-11.2-8.5v11.6
		c0,0,5.7,4.9,12.8,4.9c7.1,0,16.1-4.3,16.1-15.5c0-13.3-17.1-13.6-17.1-19.5c0-3.1,1.8-2.7,3.6-2.7
		C-1250.6-613.4-1244.8-605.9-1244.8-605.9z M-1306-615c2.8,5.8,5.4,14,9.8,14c3.6,0,6.5-18.1,6.5-18.1h14.4v37.6c0,3.2,3.7,4,3.7,4
		h-18.9v-26.7c0,0-11,28.7-12,28.7c-1.1,0-16-28.7-16-28.7v23.1c0,2.1,3.3,3.7,3.3,3.7h-8.5v-37.8c0-2.5-4.1-4.3-4.1-4.3h14.7
		C-1313.1-619.4-1308.2-619.6-1306-615z M-1345.9-579.3c0,0,11.5,1.1,17.1-7.1l-2.2,9.1h-29.9v-37.8c0-2.5-4.1-4.3-4.1-4.3h34
		l2.2,9.1c-5.6-8.1-17.1-7.1-17.1-7.1v17.6h9.4c2.9,0,4.5-4.9,4.5-4.9s3,14,2.9,13.9c-2.4-4.4-9.6-6.7-9.6-6.7h-7.1V-579.3z
		 M-1367.4-619.4h-34c0,0,4.1,1.7,4.1,4.3v37.8h19c0,0-4-1.3-4-4.4v-15.7h7.1c0,0,7.3,2.3,9.6,6.7c0.1,0.1-2.9-13.9-2.9-13.9
		s-1.6,4.9-4.5,4.9h-9.4v-17.6c0,0,11.5-1.1,17.1,7.1L-1367.4-619.4"/>
</g>
</svg>
