<?xml version="1.0" encoding="utf-8"?>
<!-- Generator: Adobe Illustrator 19.2.1, SVG Export Plug-In . SVG Version: 6.00 Build 0)  -->
<svg version="1.1" id="Layer_1" xmlns="http://www.w3.org/2000/svg" xmlns:xlink="http://www.w3.org/1999/xlink" x="0px" y="0px"
	 viewBox="0 0 200 200" style="enable-background:new 0 0 200 200;" xml:space="preserve">
<style type="text/css">
	.st0{fill:#ED2424;}
	.st1{fill:#231F20;}
</style>
<g>
	<path class="st0" d="M25.8,105.8c6.3-6.8,12.6-13.6,19-20.5c2,3,3.9,5.9,5.9,8.9c7.4-2.9,14.7-5.9,22.1-8.8c0,0,0,0,0.1,0.1
		c-0.3,0.3-0.5,0.6-0.8,0.9c-5.9,6.4-11.8,12.7-17.7,19.1c-0.2,0.2-0.4,0.4-0.6,0.5c-7.2,2.9-14.5,5.8-21.7,8.7
		c-0.1,0-0.2,0.1-0.3,0.1C29.7,111.7,27.7,108.8,25.8,105.8z"/>
	<path class="st0" d="M74.1,85.3c2,3,3.9,5.9,5.8,8.9c-6.3,6.8-12.6,13.6-19,20.5c-2-3-3.9-5.9-5.8-8.9C61.5,99,67.8,92.2,74.1,85.3
		z"/>
	<path class="st0" d="M43.4,85.4c-1.3,1.5-2.6,2.8-3.9,4.2c-4.9,5.3-9.8,10.6-14.7,15.8c-0.2,0.2-0.4,0.4-0.7,0.5
		c-7.1,2.9-14.3,5.7-21.5,8.6c-0.1,0-0.2,0.1-0.4,0.1c0.2-0.2,0.3-0.4,0.5-0.5C8.9,107.5,14.9,101,21,94.4c0.1-0.1,0.3-0.3,0.5-0.3
		c7.2-2.9,14.5-5.8,21.7-8.7C43.3,85.4,43.3,85.4,43.4,85.4z"/>
	<path class="st1" d="M113.7,109c0.6-0.7,1.2-1.3,1.7-2c3.3-3.9,6.7-7.8,10-11.6c0.2-0.2,0.4-0.3,0.7-0.3c1.5,0,3.1,0,4.7,0
		c-0.5,0.6-1,1.2-1.5,1.7c0,0,0,0,0.1,0.1c0.5-0.3,1.1-0.5,1.6-0.8c1.2-0.6,2.4-1.1,3.7-1.2c1.4-0.2,2.8-0.1,4.2,0.6
		c-0.6,0.4-1.2,0.8-1.7,1.2c0,0,0,0,0,0c0.1,0,0.2,0,0.2-0.1c2.5-1.3,5.1-1.8,7.9-1.9c1.8-0.1,3.6-0.1,5.4,0.3
		c0.5,0.1,1.1,0.3,1.5,0.6c0.7,0.4,0.9,1.1,0.5,1.8c-0.6,0.9-1.2,1.8-1.9,2.7c-1.6,1.9-3.2,3.7-4.8,5.6c-1,1.2-1.2,1.8-1.5,3.1
		c-1.8,0-3.6,0-5.5,0c0.2-0.5,0.4-0.9,0.5-1.4c-0.2,0.1-0.4,0.1-0.5,0.2c-2.6,1-5.2,1.7-8,1.6c-0.8,0-1.7-0.2-2.5-0.4
		c-1.3-0.4-1.7-1.5-1-2.8c0.9-1.5,2.2-2.4,3.7-3.2c1.8-1,3.8-1.4,5.9-1.7c2.7-0.4,5.4-0.8,8-1.1c0.9-0.1,1.3-0.8,1.6-1.5
		c0.2-0.4-0.1-0.7-0.5-0.7c-0.8-0.1-1.6-0.2-2.4-0.2c-1.7,0-3.3,0.6-4.7,1.6c-0.2,0.2-0.4,0.1-0.6,0c-1.8-0.7-3.7-1.1-5.6-1.1
		c-2.4-0.1-4.4,0.9-6,2.6c-1.8,1.9-3.5,3.9-5.3,5.8c-0.7,0.7-1.3,1.5-2,2.3c-0.1,0.1-0.2,0.2-0.4,0.2C117.3,109,115.5,109,113.7,109
		z M143.4,102.3c0,0-0.1,0-0.1,0c-1.8,0.3-3.6,0.5-5.4,0.8c-1.1,0.2-2.2,0.4-3.1,1c-0.4,0.3-0.8,0.7-1.1,1.1
		c-0.3,0.4-0.1,0.9,0.4,1.1c0.2,0.1,0.5,0.2,0.7,0.2c1.1,0.2,2.2-0.1,3.3-0.3C140.4,105.7,142.1,104.3,143.4,102.3z"/>
	<path class="st1" d="M98.3,109c0.8-0.9,1.5-1.7,2.1-2.5c1.8-2.1,3.6-4.3,5.5-6.4c0.3-0.4,0.6-0.8,0.8-1.3c0.3-0.5,0.1-1-0.5-1.1
		c-0.7-0.1-1.4-0.2-2-0.1c-2.4,0.3-4.4,1.5-6,3.3c-2.2,2.5-4.4,5-6.5,7.5c-0.3,0.3-0.6,0.5-1,0.5c-1.6,0-3.2,0-4.9,0
		c0.1-0.2,0.2-0.3,0.3-0.4c2.4-2.9,4.9-5.7,7.3-8.6c0.3-0.3,0.5-0.7,0.8-1.1c0.4-0.7,0.2-1.1-0.6-1.3c-1.3-0.2-2.5,0-3.7,0.4
		c-1.8,0.6-3.2,1.7-4.4,3.1c-2.2,2.5-4.3,5-6.5,7.5c-0.2,0.2-0.4,0.3-0.7,0.3c-1.5,0-3.1,0-4.6,0c-0.1,0-0.3,0-0.5,0
		c0.4-0.4,0.6-0.8,1-1.1c3.6-4.2,7.2-8.4,10.8-12.5c0.1-0.1,0.3-0.3,0.5-0.3c1.5,0,3.1,0,4.6,0c0.1,0,0.1,0,0.2,0
		c-0.5,0.6-1,1.2-1.4,1.7c0,0,0,0,0,0.1c0.2-0.1,0.4-0.2,0.5-0.2c2.2-1,4.5-1.7,7-1.8c1,0,2.1-0.1,3.1,0.2c0.9,0.3,1.6,0.8,1.7,1.9
		c0.3-0.1,0.6-0.3,0.9-0.4c2.3-1,4.6-1.8,7.1-1.8c0.9,0,1.9,0.1,2.8,0.3c0.8,0.2,1.5,0.5,1.6,1.5c0,0.4,0,0.9-0.2,1.2
		c-0.5,0.9-1.1,1.7-1.8,2.5c-2.4,2.8-4.8,5.6-7.2,8.4c-0.1,0.1-0.3,0.3-0.4,0.3C102,109,100.2,109,98.3,109z"/>
	<path class="st1" d="M169.7,97c0.5-0.6,1-1.1,1.4-1.7c0.2-0.2,0.3-0.3,0.6-0.3c1.6,0,3.1,0,4.8,0c-0.1,0.1-0.1,0.2-0.2,0.3
		c-3.8,4.4-7.6,8.8-11.3,13.2c-3.1,3.6-7.1,5.5-11.8,6c-2.5,0.2-5,0.3-7.5-0.1c-0.6-0.1-1.2-0.3-1.8-0.5c-1.1-0.5-1.4-1.5-0.9-2.6
		c0,0,0-0.1,0.1-0.1c0.5-0.8,0.9-1.4,2.1-1.2c1.4,0.3,2.9,0.3,4.4,0.4c0.1,0,0.3,0,0.4,0.1c-0.3,1-0.2,1.2,0.8,1.3
		c2,0.2,3.9,0.1,5.7-0.7c0.5-0.2,1.1-0.6,1.5-1c1-1,1.9-2,2.8-3.1c0,0-0.1-0.1-0.1-0.1c-0.2,0.1-0.4,0.2-0.5,0.3
		c-2.3,1-4.6,1.8-7.1,1.8c-1,0-2.1,0-3.1-0.4c-1.5-0.5-2.2-1.8-1.8-3.3c0.3-1.2,1-2.2,1.8-3.1c3.4-4.1,7.8-6.4,13-7.3
		c1.4-0.2,2.9-0.3,4.4,0.1C168.4,95.2,169.3,95.7,169.7,97z M156.8,106.1c1.6-0.1,3.2-0.5,4.6-1.3c2.2-1.1,3.9-2.7,5.1-4.8
		c0.6-1.1,0.1-2-1.1-2.3c-1-0.2-1.9-0.2-2.9,0c-3.3,0.7-5.8,2.7-7.6,5.5c-0.2,0.3-0.3,0.6-0.4,0.9c-0.2,0.7,0,1.3,0.7,1.6
		C155.8,105.9,156.3,105.9,156.8,106.1z"/>
	<path class="st1" d="M187.6,105.2c-1.2,0.9-2.4,1.6-3.7,2.2c-3.5,1.6-7.1,2.2-10.9,1.8c-0.8-0.1-1.7-0.3-2.5-0.6
		c-1.4-0.6-1.9-1.7-1.5-3.2c0.4-1.4,1.3-2.5,2.2-3.5c3.2-3.6,7.3-5.7,11.9-6.7c2.1-0.5,4.3-0.6,6.5-0.2c0.5,0.1,1.1,0.3,1.5,0.5
		c1.4,0.7,1.9,1.7,1.4,3.2c-0.3,1.1-1.1,2.1-1.7,3.1c-0.7,1-1.5,1.4-2.7,1.4c-3.9-0.1-7.9,0-11.9,0c-0.3,0-0.6,0.1-0.7,0.4
		c-0.2,0.3-0.4,0.6-0.5,0.9c-0.4,0.9-0.1,1.6,0.8,1.9c0.6,0.2,1.3,0.3,1.9,0.2c1.7-0.1,3.2-0.7,4.6-1.7c0.2-0.1,0.5-0.2,0.7-0.2
		c1.5,0.2,2.9,0.3,4.4,0.5C187.4,105.1,187.5,105.1,187.6,105.2z M177.9,100.6c0,0,0.1,0.1,0.1,0.1c0.1,0,0.1,0,0.2,0
		c2.6,0,5.2,0,7.8,0c0.1,0,0.3-0.1,0.4-0.2c0.3-0.4,0.5-0.8,0.7-1.2c0.3-0.8,0.1-1.4-0.7-1.7c-0.2-0.1-0.5-0.2-0.7-0.2
		c-2.6-0.2-4.8,0.7-6.8,2.4C178.4,100.2,178.1,100.4,177.9,100.6z"/>
	<path class="st1" d="M123.5,95.1c-0.8,1-1.6,1.9-2.4,2.8c-3.1,3.6-6.2,7.2-9.3,10.8c-0.1,0.1-0.3,0.3-0.5,0.3c-1.7,0-3.3,0-5,0
		c-0.1,0-0.1,0-0.2,0c0.1-0.2,0.2-0.3,0.3-0.4c3.8-4.4,7.6-8.8,11.4-13.2c0.1-0.1,0.3-0.3,0.5-0.3c1.7,0,3.4,0,5.1,0
		C123.3,95,123.4,95.1,123.5,95.1z"/>
	<path class="st1" d="M128,89.8c-0.9,1.1-1.8,2.1-2.7,3.2c-0.1,0.1-0.2,0.2-0.4,0.2c-1.7,0-3.4,0-5.1,0c0,0-0.1,0-0.1,0
		c0.1-0.1,0.2-0.2,0.2-0.3c0.8-0.9,1.6-1.8,2.4-2.8c0.1-0.1,0.3-0.3,0.4-0.3c1.7,0,3.4,0,5.1,0C127.9,89.7,127.9,89.8,128,89.8z"/>
	<path class="st1" d="M193.8,93.2c0-1.1,0.8-1.9,1.9-1.9c1.1,0,1.9,0.8,1.9,1.9c0,1.1-0.9,2-2,1.9C194.6,95.2,193.8,94.3,193.8,93.2
		z M197.3,93.2c0-0.8-0.7-1.5-1.5-1.5c-0.8,0-1.5,0.7-1.5,1.5c0,0.8,0.7,1.6,1.6,1.6C196.6,94.8,197.3,94.1,197.3,93.2z"/>
	<path class="st1" d="M195.4,93.4c0,0.3,0,0.5,0,0.8c-0.1,0-0.3,0-0.4,0c0-0.7,0-1.3,0-2.1c0.3,0,0.6,0,1,0c0.3,0,0.6,0.1,0.7,0.5
		c0.1,0.3-0.1,0.6-0.4,0.7c0.2,0.3,0.4,0.6,0.6,0.9c-0.4,0.1-0.5,0-0.7-0.3C195.9,93.7,195.8,93.4,195.4,93.4z M195.4,92.5
		c0,0.3,0,0.4,0,0.7c0.3-0.1,0.5-0.1,0.7-0.2c0,0,0-0.2,0-0.2C195.9,92.6,195.7,92.5,195.4,92.5z"/>
</g>
</svg>
