<?xml version="1.0" encoding="utf-8"?>
<!-- Generator: Adobe Illustrator 19.2.1, SVG Export Plug-In . SVG Version: 6.00 Build 0)  -->
<svg version="1.1" id="Layer_1" xmlns="http://www.w3.org/2000/svg" xmlns:xlink="http://www.w3.org/1999/xlink" x="0px" y="0px"
	 viewBox="0 0 200 200" style="enable-background:new 0 0 200 200;" xml:space="preserve">
<style type="text/css">
	.st0{fill:#423938;}
</style>
<g>
	<g>
		<path class="st0" d="M100,197.6c-53.8,0-97.6-43.8-97.6-97.6S46.2,2.4,100,2.4c53.8,0,97.6,43.8,97.6,97.6S153.8,197.6,100,197.6z
			 M100,7.4C48.9,7.4,7.4,48.9,7.4,100s41.6,92.6,92.6,92.6s92.6-41.6,92.6-92.6S151.1,7.4,100,7.4z"/>
	</g>
	<g>
		<path class="st0" d="M63.6,125c-2.3,0-4.3,1.9-4.3,4.3c0,2.3,1.9,4.3,4.3,4.3c2.3,0,4.3-1.9,4.3-4.3C67.9,126.9,66,125,63.6,125z"
			/>
		<path class="st0" d="M140.2,125c-2.3,0-4.3,1.9-4.3,4.3c0,2.3,1.9,4.3,4.3,4.3c2.3,0,4.3-1.9,4.3-4.3
			C144.5,126.9,142.6,125,140.2,125z"/>
		<path class="st0" d="M133.9,110.1h-4.3c-1.3,0-2.1,0.9-2.1,2.1c0,1.3,0.9,2.1,2.1,2.1h4.3c1.3,0,2.1-0.9,2.1-2.1
			C136,110.9,135.1,110.1,133.9,110.1z"/>
		<path class="st0" d="M163,105.6l-8.3-3.4l-5.3-21.3c-0.6-3-3.2-4.9-6.2-4.9h-26.4c-1.3,0-2.1,0.9-2.1,2.1v4.3h-2.1V54.8
			c0-1.3-0.9-2.1-2.1-2.1h-8.5H89.2h-8.5c-1.3,0-2.1,0.9-2.1,2.1v6.4h-6.4H59.4h-8.5c-1.3,0-2.1,0.9-2.1,2.1v19.2h-2.1
			c-1.3,0-2.1,0.9-2.1,2.1v14.9h-4.3c-1.3,0-2.1,0.9-2.1,2.1v25.5c0,2.3,1.9,4.3,4.3,4.3H51c1,6,6.3,10.6,12.6,10.6
			s11.6-4.6,12.6-10.6h51.4c1,6,6.3,10.6,12.6,10.6s11.6-4.6,12.6-10.6h8.7c2.3,0,4.3-1.9,4.3-4.3v-17.5
			C165.8,107.8,164.7,106.3,163,105.6z M82.8,71.5v-8.2v-6.4v0h25.5v0v14.6v11H82.8V71.5z M53,65.4H54h3.2h4.3H70h4.3h0.9h3.4v17H53
			V65.4z M48.7,86.7h2.1h29.8h29.8h4.3v12.8h-66V86.7z M63.6,137.8c-4.7,0-8.5-3.8-8.5-8.5s3.8-8.5,8.5-8.5c4.7,0,8.5,3.8,8.5,8.5
			S68.3,137.8,63.6,137.8z M140.2,137.8c-4.7,0-8.5-3.8-8.5-8.5s3.8-8.5,8.5-8.5s8.5,3.8,8.5,8.5S144.9,137.8,140.2,137.8z
			 M161.5,127.1L161.5,127.1h-8.7c-0.7-4.2-3.5-7.8-7.3-9.5c-0.1,0-0.2-0.1-0.3-0.1c-0.1,0-0.1,0-0.2-0.1c-0.1-0.1-0.3-0.1-0.4-0.2
			c0,0-0.1,0-0.1,0c-0.2-0.1-0.3-0.1-0.5-0.2c0,0-0.1,0-0.1,0c-0.2,0-0.3-0.1-0.5-0.1c0,0-0.1,0-0.1,0c-0.2,0-0.3-0.1-0.5-0.1
			c0,0-0.1,0-0.1,0c-0.2,0-0.3-0.1-0.5-0.1c0,0-0.1,0-0.1,0c-0.2,0-0.3,0-0.5-0.1c-0.1,0-0.1,0-0.2,0c-0.2,0-0.3,0-0.5,0
			c-0.1,0-0.1,0-0.2,0c-0.2,0-0.4,0-0.6,0c-0.2,0-0.4,0-0.6,0c-0.1,0-0.1,0-0.2,0c-0.2,0-0.3,0-0.5,0c-0.1,0-0.1,0-0.2,0
			c-0.2,0-0.3,0-0.5,0.1c0,0-0.1,0-0.1,0c-0.2,0-0.3,0.1-0.5,0.1c0,0-0.1,0-0.1,0c-0.2,0-0.3,0.1-0.5,0.1c0,0-0.1,0-0.1,0
			c-0.2,0-0.3,0.1-0.5,0.1c0,0-0.1,0-0.1,0c-0.2,0.1-0.3,0.1-0.5,0.2c0,0-0.1,0-0.1,0c-0.1,0.1-0.3,0.1-0.4,0.2
			c-0.1,0-0.1,0-0.2,0.1c-0.1,0-0.2,0.1-0.3,0.1c-3.8,1.7-6.6,5.3-7.3,9.5H76.2c-0.7-4.2-3.5-7.8-7.3-9.5c-0.1,0-0.2-0.1-0.3-0.1
			c-0.1,0-0.1,0-0.2-0.1c-0.1-0.1-0.3-0.1-0.4-0.2c0,0-0.1,0-0.1,0c-0.2-0.1-0.3-0.1-0.5-0.2c0,0-0.1,0-0.1,0
			c-0.2,0-0.3-0.1-0.5-0.1c0,0-0.1,0-0.1,0c-0.2,0-0.3-0.1-0.5-0.1c0,0-0.1,0-0.1,0c-0.2,0-0.3-0.1-0.5-0.1c0,0-0.1,0-0.1,0
			c-0.2,0-0.3,0-0.5-0.1c-0.1,0-0.1,0-0.2,0c-0.2,0-0.3,0-0.5,0c-0.1,0-0.1,0-0.2,0c-0.2,0-0.4,0-0.6,0s-0.4,0-0.6,0
			c-0.1,0-0.1,0-0.2,0c-0.2,0-0.3,0-0.5,0c-0.1,0-0.1,0-0.2,0c-0.2,0-0.3,0-0.5,0.1c0,0-0.1,0-0.1,0c-0.2,0-0.3,0.1-0.5,0.1
			c0,0-0.1,0-0.1,0c-0.2,0-0.3,0.1-0.5,0.1c0,0-0.1,0-0.1,0c-0.2,0-0.3,0.1-0.5,0.1c0,0-0.1,0-0.1,0c-0.2,0.1-0.3,0.1-0.5,0.2
			c0,0-0.1,0-0.1,0c-0.1,0.1-0.3,0.1-0.4,0.2c-0.1,0-0.1,0-0.2,0.1c-0.1,0-0.2,0.1-0.3,0.1c-3.8,1.7-6.6,5.3-7.3,9.5h-8.7v-23.4h4.3
			h70.2c1.3,0,2.1-0.9,2.1-2.1v-17v-4.3h24.3c1.1,0,1.9,0.9,2.1,1.7l4.8,19.6h-18.5V88.8c0-1.3-0.9-2.1-2.1-2.1s-2.1,0.9-2.1,2.1
			v14.9c0,1.3,0.9,2.1,2.1,2.1h22.6l9.4,3.6V127.1z"/>
	</g>
</g>
</svg>
