<?xml version="1.0" encoding="utf-8"?>
<!-- Generator: Adobe Illustrator 19.2.1, SVG Export Plug-In . SVG Version: 6.00 Build 0)  -->
<svg version="1.1" id="Layer_1" xmlns="http://www.w3.org/2000/svg" xmlns:xlink="http://www.w3.org/1999/xlink" x="0px" y="0px"
	 viewBox="0 0 200 200" style="enable-background:new 0 0 200 200;" xml:space="preserve">
<style type="text/css">
	.st0{fill:#FFFFFF;}
</style>
<g id="LqW5Md.tif">
	<g>
		<path class="st0" d="M103.4,2.2c1.5,0.1,3,0.3,4.5,0.4c20.3,1.7,38.4,9,54.1,21.9c17.9,14.8,29.1,33.6,33.8,56.3
			c1.8,8.6,2.3,17.2,1.7,25.9c-3,42.5-32.5,76.6-71,87.4c-10.9,3.1-22,4.2-33.3,3.5c-41.2-2.8-76.5-31.5-87.5-71.2
			c-2-7.1-3.2-14.3-3.5-21.7c0-0.5-0.1-0.9-0.2-1.4c0-2.1,0-4.3,0-6.4c0.1-0.5,0.1-0.9,0.2-1.4c0.6-4.9,0.8-9.8,1.8-14.6
			c4.6-22.7,15.9-41.5,33.7-56.2c15.7-13,33.8-20.3,54.2-22c1.5-0.1,3-0.3,4.5-0.4C98.9,2.2,101.2,2.2,103.4,2.2z M100,6.7
			C48.5,6.7,6.7,48.4,6.7,99.8c0,51.7,41.6,93.5,93.3,93.6c51.6,0,93.4-41.8,93.4-93.4C193.3,48.4,151.6,6.7,100,6.7z"/>
		<path class="st0" d="M163.5,100.2c0,35-28.4,63.5-63.5,63.5c-35,0-63.6-28.5-63.5-63.5c0-35,28.5-63.5,63.5-63.5
			C135.1,36.8,163.5,65.2,163.5,100.2z M100,161.5c34,0,61.5-27.5,61.5-61.4c0-34-27.4-61.6-61.4-61.6c-34,0-61.6,27.5-61.6,61.5
			C38.5,134,66,161.5,100,161.5z"/>
		<path class="st0" d="M88.4,171.8c-1.3,2.2-2.6,4.4-3.9,6.6c-1.1,1.8-2.2,3.6-3.2,5.4c-0.3,0.6-0.6,0.8-1.3,0.5
			c-0.7-0.3-1.4-0.4-2.3-0.6c0-4.8,0-9.7,0-14.5c-0.1,0-0.2,0-0.3,0c-1.3,4.6-2.7,9.2-4.1,13.8c-1.2-0.3-2.4-0.6-3.7-0.9
			c1.9-5.9,3.7-11.8,5.5-17.7c1.7,0.4,3.3,0.8,4.8,1.2c0.3,0.1,0.5,0.7,0.6,1c0.1,3.8,0.2,7.6,0.2,11.4c0,0.2,0,0.5,0,1.1
			c0.3-0.5,0.5-0.8,0.7-1.1c1.9-3.3,3.8-6.5,5.7-9.8c0.3-0.6,0.6-0.8,1.3-0.6c1.2,0.4,2.5,0.6,3.7,1c0.2,0.1,0.6,0.5,0.6,0.7
			c-1.1,5.8-2.2,11.5-3.2,17.3c0,0.1-0.1,0.2-0.1,0.3c-1.2-0.3-2.5-0.6-3.8-0.9c1-4.8,2-9.5,3-14.2
			C88.5,171.8,88.4,171.8,88.4,171.8z"/>
		<path class="st0" d="M146.9,167c-2.4-3.7-4.8-7.3-7.2-11c1.1-0.7,2.1-1.3,3.2-2c3.3,5.2,6.5,10.4,9.8,15.7
			c-1.2,0.7-2.3,1.5-3.4,2.1c-0.2,0.1-0.7,0-1-0.2c-4.1-2.3-8.1-4.7-12.2-7.1c-0.1-0.1-0.2-0.1-0.6-0.2c2.5,4,4.9,7.7,7.4,11.6
			c-1.1,0.7-2.1,1.3-3.2,2c-3.3-5.2-6.5-10.4-9.8-15.7c1.3-0.8,2.5-1.6,3.8-2.3c0.2-0.1,0.7,0,1,0.2c3.9,2.2,7.8,4.5,11.7,6.8
			C146.5,166.9,146.6,166.9,146.9,167z"/>
		<path class="st0" d="M143.3,47.3c4.4-4.3,8.8-8.5,13.1-12.8c2.8,2.3,5.5,4.6,7.2,7.8c1.6,3,1.3,6-0.8,8.8
			c-2.2,2.7-4.9,4.6-8.5,4.3c-1.1-0.1-2.3-0.5-3.3-0.9C147.8,52.8,145.6,50.1,143.3,47.3z M157.2,39.6c-3,2.9-5.9,5.7-8.8,8.6
			c1.8,2.2,3.7,3.9,6.6,3.2c2.9-0.8,5-2.7,5.5-5.7C161,43,159.3,41.2,157.2,39.6z"/>
		<path class="st0" d="M68.1,164.9c0.1,4.2-3.1,9-7.1,10.2c-3.4,1.1-6.4,0.1-8.9-2.2c-2.5-2.2-3.2-5.1-2.3-8.3
			c1.1-3.9,3.5-6.8,7.6-7.9C62.5,155.4,68,159.6,68.1,164.9z M57.6,172.1c0.7-0.2,1.5-0.4,2.1-0.7c2.3-1.4,3.7-3.4,4.2-6
			c0.5-2.2-0.3-3.9-1.9-4.9c-1.6-0.9-3.5-0.7-5.2,0.8c-1.8,1.5-2.9,3.5-3.3,5.8C53.1,169.6,55,171.9,57.6,172.1z"/>
		<path class="st0" d="M74.2,37.5c-1.3,0.5-2.5,0.9-3.8,1.4c-0.5-1.3-0.9-2.5-1.4-3.6c-1.6-4.2-3.1-8.4-4.7-12.6
			c-0.3-0.7-0.2-1.1,0.5-1.3c2.4-0.9,4.8-2,7.3-2.6c2.5-0.7,4.5,0.2,5.6,2.1c1.2,2,1,4-0.7,6c-0.1,0.1-0.1,0.2-0.3,0.4
			c2,0.3,3,1.7,4.1,3.2c0.8,1.2,1.7,2.4,2.6,3.6c-1.2,0.4-2.3,0.9-3.4,1.3c-0.2,0.1-0.7-0.1-0.9-0.4c-0.9-1.1-1.6-2.2-2.4-3.4
			c-1.3-1.8-2.2-2-4.2-1.3c-0.6,0.2-0.8,0.5-0.5,1.1C72.8,33.4,73.5,35.4,74.2,37.5z M70.7,28c1.2-0.6,2.3-1.1,3.2-1.8
			c0.9-0.7,1-1.9,0.5-3c-0.5-1-1.4-1.6-2.4-1.4c-0.9,0.2-1.8,0.5-2.6,0.9c-0.2,0.1-0.4,0.5-0.3,0.7C69.5,24.8,70.1,26.3,70.7,28z"/>
		<path class="st0" d="M116.1,186c0-0.8,0-1.5,0-2.2c0.1-5.4,0.2-10.8,0.2-16.2c0-0.8,0.3-1.2,1-1.3c1.2-0.3,2.3-0.7,3.5-1
			c0.3-0.1,0.9,0.1,1.1,0.4c3.4,5,6.7,10.1,10,15.2c0.1,0.1,0.1,0.2,0.2,0.5c-1.3,0.4-2.5,0.8-3.7,1.1c-0.2,0.1-0.7-0.2-0.9-0.5
			c-0.7-0.9-1.3-1.9-1.9-2.9c-0.3-0.6-0.7-0.6-1.3-0.5c-1.2,0.4-2.4,0.7-3.7,1.1c-0.6,0.1-0.8,0.4-0.8,1c0.1,1.2,0.1,2.4,0,3.5
			c0,0.3-0.3,0.7-0.5,0.8C118.4,185.4,117.3,185.6,116.1,186z M123.9,175.6c-1.4-2.3-2.7-4.4-4.1-6.5c0,2.6,0,5.1,0,7.7
			C121.2,176.4,122.5,176,123.9,175.6z"/>
		<path class="st0" d="M57.1,25.3c0.6,0.9,1.2,1.8,1.8,2.8c-2,1.3-4,2.7-6,4.1c0.7,1.1,1.4,2.2,2.2,3.3c1.9-1.3,3.8-2.5,5.7-3.8
			c0.6,0.9,1.2,1.8,1.8,2.7c-1.9,1.3-3.8,2.5-5.7,3.8c0.9,1.3,1.7,2.5,2.5,3.8c2.1-1.4,4.2-2.8,6.4-4.3c0.6,0.9,1.2,1.8,1.8,2.8
			c-3.3,2.2-6.5,4.4-9.8,6.6c-3.5-5.2-6.9-10.2-10.3-15.4C50.8,29.5,53.9,27.4,57.1,25.3z"/>
		<path class="st0" d="M140.4,23.7c3.2,2,6.4,3.9,9.7,5.9c-0.6,0.9-1.1,1.8-1.7,2.8c-2.1-1.3-4.1-2.5-6.2-3.8
			c-0.7,1.2-1.4,2.2-2.1,3.4c2,1.2,3.9,2.4,5.8,3.6c-0.6,0.9-1.1,1.8-1.7,2.8c-2-1.2-3.9-2.3-5.9-3.6c-0.8,1.3-1.5,2.5-2.4,3.9
			c2.2,1.3,4.3,2.6,6.5,4c-0.6,1-1.1,1.9-1.7,2.8c-3.4-2.1-6.7-4.1-10.1-6.1C133.9,34.2,137.1,29,140.4,23.7z"/>
		<path class="st0" d="M102.5,187.1c-1.4,0.1-2.6,0.1-4,0.2c-0.3-6.1-0.6-12.1-1-18.3c3.3-0.5,6.4-1.1,9.6-0.3
			c2.4,0.6,3.7,2.3,3.9,4.7c0.2,2.3-0.5,4.3-2.6,5.6c-1.6,1-3.4,1.4-5.3,1.3c-0.9,0-1.1,0.3-1.1,1.1
			C102.3,183.3,102.4,185.1,102.5,187.1z M101.8,173.4c0,0.4,0.1,1.2,0.2,2c0.1,2.1,0.4,2.3,2.5,1.8c0.3-0.1,0.6-0.2,0.9-0.3
			c1.3-0.6,2-1.9,1.7-3.3c-0.2-1.3-1.3-2.1-2.8-2.2c-0.3,0-0.6,0-0.8,0C101.8,171.5,101.7,171.5,101.8,173.4z"/>
		<path class="st0" d="M44,161.9c-0.5,0.7-1,1.4-1.5,2.1c-0.2,0.2-0.7,0.3-0.9,0.2c-2.9-1.8-5.2-4.1-6-7.5c-0.9-3.7,0.6-6.7,3.3-9
			c4.5-3.8,10.3-3.2,14.2,1.7c0.8,0.9,1.4,2,2.1,3.1c-1.1,0.6-2.1,1.1-3,1.7c-1.6-2.9-3.5-5.6-7.3-4.9c-2.9,0.5-4.9,2.5-5.4,5.4
			C38.8,158.2,41.3,160.1,44,161.9z"/>
		<path class="st0" d="M42.5,36.2c0.4,0.7,0.9,1.3,1.3,2c0.1,0.2,0.3,0.5,0.4,0.7c-2.8,1.8-5.4,3.9-4.3,7.7c0.8,2.8,2.8,4.6,5.7,4.9
			c3.6,0.4,5.3-2.2,6.9-4.9c0.9,0.5,1.8,1.1,2.7,1.7c-1.2,3.7-5.6,7.3-9.2,7.5c-4.5,0.3-9.5-3.9-10-8.4
			C35.3,42.8,38.2,37.9,42.5,36.2z"/>
		<path class="st0" d="M115.4,23.1c2.2,0.5,4.3,1,6.5,1.4c-0.2,1.1-0.5,2.1-0.7,3.2c-2.2-0.5-4.3-0.9-6.5-1.4
			c-0.5,2.5-1.1,4.8-1.6,7.3c-1.3-0.3-2.6-0.6-4-0.9c1.3-6,2.6-12,3.9-18.1c3.7,0.8,7.3,1.6,11,2.4c-0.2,1.1-0.4,2.1-0.7,3.2
			c-1.6-0.3-3.2-0.6-4.8-1c-2.2-0.5-2.2-0.5-2.7,1.7C115.7,21.7,115.5,22.3,115.4,23.1z"/>
		<path class="st0" d="M155.9,152.5c-1.1-2.4-2-4.6-3.1-6.7c-0.4-0.9-0.5-1.5,0.4-2.2c0.8-0.7,1.4-1.5,2.3-2.4
			c0.2,0.7,0.4,1.3,0.6,1.8c1,3.1,1.9,6.1,2.9,9.2c0.2,0.5,0.5,1,0.8,1.4c1.6,1.6,3.3,3.1,5,4.8c-0.9,1-1.8,2-2.8,3
			c-1.4-1.4-2.9-2.6-4.2-4c-0.9-0.9-1.9-1.4-3.1-1.7c-3.4-0.8-6.7-1.8-10.2-2.8c1-1.1,2-2.2,3-3.1c0.2-0.2,0.6-0.1,0.9,0
			c2.1,0.7,4.2,1.5,6.2,2.3C154.9,152.1,155.2,152.2,155.9,152.5z"/>
		<path class="st0" d="M97,17.1c-1.7,0.2-3.3,0.4-5,0.7c0.6,5,1.2,9.9,1.8,15c-1.3,0.2-2.6,0.3-4,0.5c-0.6-5-1.2-9.9-1.9-15
			c-1.7,0.2-3.3,0.4-5,0.5c-0.1-1.1-0.3-2.1-0.4-3.3c1.3-0.2,2.5-0.3,3.7-0.5c3.2-0.4,6.4-0.8,9.6-1.2c0.7-0.1,1,0.1,1,0.8
			C96.8,15.4,96.9,16.2,97,17.1z"/>
		<path class="st0" d="M127.1,38c-1.3-0.5-2.5-1-3.8-1.5c2.3-5.8,4.6-11.5,6.9-17.2c1.3,0.5,2.5,1,3.8,1.5
			C131.7,26.5,129.5,32.2,127.1,38z"/>
		<path class="st0" d="M102.1,13.8c1.4,0.1,2.6,0.1,4.1,0.2c-0.3,6.2-0.6,12.3-0.9,18.5c-1.4-0.1-2.7-0.1-4.1-0.2
			C101.5,26.2,101.8,20.1,102.1,13.8z"/>
		<path class="st0" d="M100.2,41.1c32.6,0,59,26.5,59,59.1c-0.1,32.6-26.6,59-59.1,58.9c-32.5-0.1-58.9-26.5-58.9-59
			C41.1,67.5,67.6,41.1,100.2,41.1z M143,87.5c-0.2-2.1-0.3-3.8-0.6-5.5c-1-5.6-4.5-9.2-10-10.4c-3-0.6-6-0.6-9-0.3
			c-5.7,0.7-9.9,4.2-11.4,9.6c-1.1,3.9-1.2,7.9-0.4,11.8c1.1,5.5,4.4,9,9.9,10.2c2.9,0.6,5.9,0.6,8.9,0.3c5.8-0.7,10.2-4.3,11.6-9.9
			C142.6,91.4,142.7,89.3,143,87.5z M106.4,71.8c-1,0-2,0-2.9,0c-0.2,0-0.5,0.3-0.7,0.5c-1,1.2-1.7,1.5-3.1,0.7
			c-3.6-1.9-7.5-2.2-11.4-1.6c-4.6,0.7-7.4,3.8-7.6,8.4c-0.2,4.8,1.8,7.9,6.3,9.5c2,0.7,4.1,1,6.1,1.5c2.1,0.5,4.4,0.8,6.4,1.6
			c2.3,0.9,2.5,4.1,0.5,5.5c-0.5,0.3-1.1,0.7-1.7,0.7c-2,0.1-3.9,0.4-5.9,0.2c-3.7-0.3-7.3-2.3-7.9-6.7c0-0.2-0.4-0.5-0.7-0.5
			c-0.8,0-1.6,0.2-2.4,0.1c-0.8,0-0.9,0.3-0.9,1c0,3.1,0,6.2,0,9.4c0,0.2,0.1,0.5,0.1,0.8c1.2,0,2.3,0,3.5,0c0.2,0,0.4-0.1,0.5-0.3
			c1.5-1.7,1.5-1.7,3.6-0.7c4,1.9,8.2,2.1,12.4,1.1c4.8-1.1,7.5-4.5,7.7-9.3c0.1-4.7-2.2-7.9-7.1-9.4c-2.2-0.7-4.5-1-6.8-1.5
			c-1.9-0.5-3.8-0.9-5.6-1.6c-1.6-0.7-2.1-2.4-1.1-3.7c0.5-0.6,1.3-1.3,2.1-1.4c1.8-0.3,3.7-0.4,5.6-0.2c3.8,0.3,6.1,2.4,7.1,6.1
			c0.1,0.2,0.3,0.6,0.5,0.6c1.2-0.1,2.3-0.2,3.5-0.3C106.4,78.7,106.4,75.4,106.4,71.8z M61.3,75.4c0.6,0.1,1.2,0.2,1.8,0.3
			c1.4,0.2,1.9,0.8,1.9,2.2c0,6.4,0,12.8,0,19.2c0,1.4-0.5,2-1.9,2.2c-0.6,0.1-1.2,0.2-1.8,0.3c0,1.1,0,2.2,0,3.3
			c5.4,0,10.6,0,15.9,0c0-1.2,0-2.2,0-3.3c-0.5-0.1-1-0.2-1.5-0.2c-1.7-0.2-2.2-0.8-2.2-2.4c0-6.3,0-12.6,0-18.9
			c0-1.5,0.5-2.1,2-2.3c0.5-0.1,1.1-0.2,1.6-0.3c0-1.1,0-2.2,0-3.3c-5.3,0-10.6,0-16,0C61.3,73.2,61.3,74.3,61.3,75.4z M146.6,120.2
			c0.2-0.1,0.4-0.2,0.5-0.3c2.2-1.9,1.7-4.9-1-5.8c-1.6-0.6-3.3-0.5-4.8,0.3c-1.6,0.8-2.5,2.4-2,4c0.3,0.8,0.9,1.5,1.4,2.3
			c0,0-0.2,0.1-0.4,0.2c-2.5,1.6-2.4,4.9,0.2,6.2c2.2,1.1,4.5,1.1,6.6-0.3c2.3-1.4,2.4-4.6,0.1-6.2
			C147.1,120.6,146.9,120.5,146.6,120.2z M132.2,113.8c-2.1,0-3.8,1.1-4.6,3.1c-1,2.6-1,5.3,0,7.9c0.8,2,2.4,3,4.5,3
			c2.1,0,3.7-1.1,4.4-3.1c1-2.5,1-5.1,0.1-7.6C136,114.9,134.3,113.8,132.2,113.8z M63.7,120.8c0.3,1.4,0.5,2.7,0.9,4
			c0.7,2.1,2.3,3.1,4.5,3.1c2.1,0,3.7-1.1,4.5-3.1c1-2.5,1-5.1,0.1-7.7c-0.7-2.1-2.3-3.2-4.2-3.2c-2.3-0.1-4,1-4.8,3.1
			C64.1,118.1,64,119.5,63.7,120.8z M80.5,113.8c-2.1,0-3.7,1.1-4.5,3.2c-1,2.6-1,5.2,0.1,7.8c0.8,2,2.4,3,4.5,3
			c2.1,0,3.7-1.1,4.5-3.1c1-2.5,1-5.2,0.1-7.7C84.3,114.9,82.7,113.8,80.5,113.8z M115.3,120.8c0.3,1.4,0.5,2.7,0.9,4
			c0.7,2.1,2.3,3.1,4.4,3.1c2.2,0,3.7-1,4.5-3.1c1-2.5,0.9-5.1,0.1-7.6c-0.7-2.1-2.3-3.2-4.2-3.3c-2.3-0.1-4,0.9-4.8,3
			C115.7,118.1,115.6,119.4,115.3,120.8z M53.5,127.8c2.1,0.3,4.1-0.1,5.6-1.1c2.8-1.7,4.1-5.5,3.2-9c-1-3.7-5.2-5.2-8.2-2.8
			c-1.6,1.2-2.2,3-1.8,4.9c0.4,1.8,1.6,2.9,3.4,3.2c1,0.1,2.1-0.2,3.1-0.3c-0.5,1.6-1.3,2.1-5.3,2.7
			C53.5,126.2,53.5,126.9,53.5,127.8z M104.1,127.6c3.2,0,6.3,0,9.6,0c0-0.4,0.1-0.7,0.1-1.1c0-1.6,0-1.6-1.6-1.6c-1,0-2.1,0-3.4,0
			c0.5-0.4,0.7-0.6,0.9-0.8c1.4-1.2,2.7-2.5,3.4-4.2c1.1-2.7-0.2-5.3-3-5.9c-1.9-0.4-3.7-0.1-5.4,0.9c-0.2,0.1-0.5,0.6-0.4,0.8
			c0.2,0.6,0.5,1.3,0.6,1.6c1.3-0.3,2.4-0.6,3.5-0.7c1.1,0,1.8,0.8,1.6,1.8c-0.2,0.9-0.6,1.8-1.2,2.5c-1.2,1.3-2.5,2.6-3.9,3.7
			C104,125.5,103.9,126.4,104.1,127.6z M94.3,127.6c0-4.6,0-9,0-13.5c-1.9-0.3-4.7,0.4-5.9,1.4c-0.1,0.1-0.3,0.4-0.2,0.6
			c0.1,0.6,0.3,1.3,0.5,2c0.9-0.4,1.7-0.7,2.6-1.1c0,3.6,0,7.1,0,10.6C92.3,127.6,93.3,127.6,94.3,127.6z M98.8,119.3
			c0,1.1,0.8,1.9,1.9,1.9c1.1,0,2-0.8,2-1.9c0-1.2-0.8-2-1.9-2C99.6,117.4,98.8,118.2,98.8,119.3z M102.7,125.9c0-1.2-0.8-2-1.9-2
			c-1.1,0-1.9,0.8-1.9,1.9c0,1.2,0.8,2,1.9,2C101.9,127.9,102.7,127.1,102.7,125.9z"/>
		<path class="st0" d="M119.5,86.3c0.3-2,0.5-4.1,1.1-6.1c1.4-5,7.4-5.4,10.3-3.8c1.2,0.7,1.9,1.8,2.4,3c1.2,3.1,1.3,6.4,1.1,9.7
			c-0.1,1.4-0.2,2.9-0.6,4.3c-1,4.1-3.5,5.4-7.7,5.2c-3.1-0.1-4.8-2-5.4-4.9C120.1,91.4,119.8,88.9,119.5,86.3z"/>
		<path class="st0" d="M143.7,125.5c-1.1-0.1-1.8-0.8-1.7-1.9c0.1-0.9,0.9-1.8,1.6-1.8c1,0,2.1,1.2,2.1,2.1
			C145.6,124.9,144.8,125.5,143.7,125.5z"/>
		<path class="st0" d="M145.3,117.6c0,0.8-0.6,1.6-1.3,1.6c-0.8,0-1.8-1-1.8-1.7c0-0.8,0.6-1.4,1.5-1.4
			C144.7,116.1,145.3,116.6,145.3,117.6z"/>
		<path class="st0" d="M130.1,120.8c0.2-1.1,0.3-2.3,0.7-3.3c0.2-0.5,0.9-1,1.4-1c0.4,0,1.1,0.6,1.3,1.1c0.7,2.2,0.7,4.4,0,6.6
			c-0.2,0.5-0.9,1.1-1.3,1.1c-0.5,0-1.2-0.6-1.4-1C130.4,123.1,130.3,122,130.1,120.8z"/>
		<path class="st0" d="M67.1,120.8c0.2-1.1,0.3-2.2,0.6-3.2c0.2-0.7,0.7-1.4,1.5-1.2c0.5,0.1,1.2,0.7,1.4,1.2c0.7,2.1,0.7,4.4,0,6.5
			c-0.2,0.5-0.9,1.1-1.4,1.1c-0.5,0-1.2-0.6-1.4-1.1C67.3,123.1,67.3,121.9,67.1,120.8z"/>
		<path class="st0" d="M78.5,120.8c0.2-1.1,0.3-2.2,0.7-3.2c0.2-0.5,0.9-1.1,1.4-1.1c0.5,0,1.2,0.6,1.4,1.1c0.7,2.1,0.7,4.4,0,6.5
			c-0.2,0.5-0.9,1.1-1.4,1.1c-0.5,0-1.2-0.6-1.4-1.1C78.8,123.1,78.7,121.9,78.5,120.8z"/>
		<path class="st0" d="M118.6,120.8c0.2-1.1,0.3-2.3,0.7-3.3c0.2-0.5,0.9-1,1.4-1c0.4,0,1.1,0.6,1.3,1.1c0.7,2.2,0.7,4.4,0,6.6
			c-0.2,0.5-0.9,1.1-1.3,1.1c-0.5,0-1.2-0.6-1.4-1C118.9,123.1,118.8,122,118.6,120.8z"/>
		<path class="st0" d="M59.1,118.9c0,1.1-0.7,1.8-1.8,1.8c-1.1,0-1.8-0.9-1.8-2.1c0-1.3,0.7-2.3,1.7-2.3
			C58.4,116.2,59.1,117.3,59.1,118.9z"/>
	</g>
</g>
</svg>
