<?xml version="1.0" encoding="utf-8"?>
<!-- Generator: Adobe Illustrator 19.2.1, SVG Export Plug-In . SVG Version: 6.00 Build 0)  -->
<svg version="1.1" id="Layer_1" xmlns="http://www.w3.org/2000/svg" xmlns:xlink="http://www.w3.org/1999/xlink" x="0px" y="0px"
	 viewBox="0 0 200 200" style="enable-background:new 0 0 200 200;" xml:space="preserve">
<style type="text/css">
	.st0{fill:#FFFFFF;}
</style>
<path class="st0" d="M100,2.3C46,2.3,2.3,46,2.3,100S46,197.7,100,197.7s97.7-43.7,97.7-97.7S154,2.3,100,2.3z M100.6,143.1h-1.2
	H36.1c0,0,5.8-34.3,20.3-40.7c7.8-3.4,19.9-6.5,29.5-8.7C77.3,88.9,71.5,79.6,71.5,69c0-15.7,12.8-28.5,28.5-28.5
	s28.5,12.8,28.5,28.5c0,10.6-5.8,19.9-14.5,24.8c9.6,2.1,21.7,5.2,29.5,8.7c14.5,6.4,20.3,40.7,20.3,40.7H100.6z"/>
</svg>
