<?xml version="1.0" encoding="utf-8"?>
<!-- Generator: Adobe Illustrator 19.2.1, SVG Export Plug-In . SVG Version: 6.00 Build 0)  -->
<svg version="1.1" id="Layer_1" xmlns="http://www.w3.org/2000/svg" xmlns:xlink="http://www.w3.org/1999/xlink" x="0px" y="0px"
	 viewBox="0 0 186.6 62.2" style="enable-background:new 0 0 186.6 62.2;" xml:space="preserve">
<style type="text/css">
	.st0{fill:#232020;}
	.st1{fill:#D9272E;}
	.st2{fill:#D9272E;stroke:#959D39;stroke-miterlimit:10;}
</style>
<g>
	<g>
		<path d="M124.1,46.3c0-0.1,0.1-0.2,0.2-0.2h0.3c0.1,0,0.2,0.1,0.1,0.2l-2.6,9.7h4.8c0.2,0,0.2,0.1,0.1,0.2l-0.1,0.3
			c0,0.1-0.1,0.2-0.2,0.2h-5.3c-0.1,0-0.2-0.1-0.1-0.2L124.1,46.3z"/>
		<path d="M132.4,50.4c1.7,0,2.6,1.4,2.2,3.1c-0.5,1.8-2.2,3.2-3.9,3.2c-1.7,0-2.6-1.4-2.2-3.2C129,51.9,130.7,50.4,132.4,50.4z
			 M130.9,56.1c1.3,0,2.7-1.1,3-2.5c0.4-1.4-0.4-2.5-1.7-2.5c-1.3,0-2.7,1.1-3,2.5C128.8,55,129.6,56.1,130.9,56.1z"/>
		<path d="M136.5,54.5c-0.1-0.2-0.3-0.8-0.1-1.5c0.4-1.4,1.7-2.5,3.3-2.5c0.4,0,0.4,0,2.5,0c0.1,0,0.2,0.1,0.1,0.2l0,0.2
			c0,0.1-0.1,0.2-0.2,0.2l-1.1,0.1c0.2,0.2,0.7,0.7,0.4,1.9c-0.4,1.3-1.6,2.5-3.2,2.5c-0.9,0-1.3-0.3-1.5-0.5
			c-0.1,0-0.9,0.4-1.1,1.1c-0.2,0.7,0.4,0.9,0.9,0.9h2.2c1.3,0,2.1,0.6,1.7,1.9c-0.3,1.3-1.9,2.4-3.7,2.4c-2,0-2.6-1.2-2.3-2.2
			c0.2-0.9,1-1.4,1.4-1.6c-0.3-0.1-1-0.5-0.8-1.4C135.4,55.1,136.4,54.6,136.5,54.5z M137,60.6c1.3,0,2.6-0.8,2.9-1.8
			c0.2-0.7-0.1-1.3-1.2-1.3h-1.9c-0.2,0-1.3,0.4-1.6,1.5C135,59.8,135.6,60.6,137,60.6z M140.8,53c0.3-1.3-0.3-1.9-1.3-1.9
			c-1.2,0-2.1,0.8-2.4,1.9c-0.3,1,0.1,1.9,1.4,1.9C139.6,54.9,140.6,54,140.8,53z"/>
		<path d="M144.1,50.8c0-0.1,0.1-0.2,0.2-0.2h0.3c0.1,0,0.2,0.1,0.1,0.2l-1.5,5.6c0,0.1-0.1,0.2-0.2,0.2h-0.3
			c-0.1,0-0.1-0.1-0.1-0.2L144.1,50.8z M144.9,47.2c0.1-0.3,0.4-0.5,0.6-0.5c0.3,0,0.4,0.2,0.4,0.5c-0.1,0.3-0.4,0.5-0.6,0.5
			C145,47.6,144.8,47.4,144.9,47.2z"/>
		<path d="M145.3,55.8l0.2-0.2c0.1-0.1,0.2-0.1,0.3,0c0.1,0.1,0.6,0.6,1.4,0.6c0.9,0,1.6-0.5,1.7-1.1c0.2-0.7-0.4-1-1.3-1.3
			c-1-0.4-1.6-0.8-1.4-1.8c0.2-0.7,1-1.6,2.4-1.6c0.8,0,1.3,0.3,1.6,0.5c0.1,0.1,0.1,0.2,0,0.3l-0.1,0.2c-0.1,0.1-0.2,0.1-0.3,0.1
			c-0.1-0.1-0.6-0.4-1.3-0.4c-0.9,0-1.4,0.6-1.5,1c-0.2,0.6,0.3,0.9,1.1,1.2c1,0.4,1.9,0.8,1.6,1.9c-0.2,0.9-1.4,1.7-2.6,1.7
			c-1,0-1.5-0.4-1.8-0.7C145.3,56,145.2,55.9,145.3,55.8z"/>
		<path d="M152.7,51.2H152c-0.1,0-0.2-0.1-0.1-0.2l0.1-0.2c0-0.1,0.1-0.1,0.2-0.1h0.7l0.4-1.6c0-0.1,0.1-0.2,0.2-0.2l0.3,0
			c0.1,0,0.2,0.1,0.1,0.2l-0.4,1.6h2.1c0.1,0,0.2,0.1,0.1,0.2l-0.1,0.2c0,0.1-0.1,0.2-0.2,0.2h-2.1l-1,3.8c-0.2,0.7-0.2,1.1,0.5,1.1
			c0.5,0,1.2-0.3,1.5-0.4c0.2-0.1,0.2,0,0.2,0.1l0.1,0.2c0,0.1,0,0.2-0.1,0.3c-0.3,0.2-1,0.6-1.9,0.6c-1.2,0-1.2-0.7-0.9-1.7
			L152.7,51.2z"/>
		<path d="M157.5,50.8c0-0.1,0.1-0.2,0.2-0.2h0.3c0.1,0,0.2,0.1,0.1,0.2l-1.5,5.6c0,0.1-0.1,0.2-0.2,0.2h-0.3
			c-0.1,0-0.1-0.1-0.1-0.2L157.5,50.8z M158.3,47.2c0.1-0.3,0.4-0.5,0.6-0.5c0.3,0,0.4,0.2,0.4,0.5c-0.1,0.3-0.4,0.5-0.6,0.5
			C158.4,47.6,158.2,47.4,158.3,47.2z"/>
		<path d="M163.2,50.4c1.2,0,1.8,0.6,2,0.9c0.1,0.1,0,0.2-0.1,0.3l-0.2,0.1c-0.1,0.1-0.2,0.1-0.3,0c-0.1-0.2-0.6-0.7-1.5-0.7
			c-1.4,0-2.8,1.1-3.1,2.5c-0.4,1.5,0.4,2.5,1.8,2.5c1.1,0,1.9-0.7,2.1-0.9c0.1-0.1,0.2-0.1,0.3,0l0.1,0.1c0.1,0.1,0.1,0.1,0,0.2
			c-0.3,0.4-1.4,1.2-2.7,1.2c-1.7,0-2.8-1.3-2.3-3.1C159.7,51.8,161.5,50.4,163.2,50.4z"/>
		<path d="M165.6,55.8l0.2-0.2c0.1-0.1,0.2-0.1,0.3,0c0.1,0.1,0.6,0.6,1.4,0.6c0.9,0,1.6-0.5,1.7-1.1c0.2-0.7-0.4-1-1.3-1.3
			c-1-0.4-1.6-0.8-1.4-1.8c0.2-0.7,1-1.6,2.4-1.6c0.8,0,1.3,0.3,1.6,0.5c0.1,0.1,0.1,0.2,0,0.3l-0.1,0.2c-0.1,0.1-0.2,0.1-0.3,0.1
			c-0.1-0.1-0.6-0.4-1.3-0.4c-0.9,0-1.4,0.6-1.5,1c-0.2,0.6,0.3,0.9,1.1,1.2c1,0.4,1.9,0.8,1.6,1.9c-0.2,0.9-1.4,1.7-2.6,1.7
			c-1,0-1.5-0.4-1.8-0.7C165.6,56,165.5,55.9,165.6,55.8z"/>
	</g>
	<g>
		<path class="st0" d="M26.2,28.7h6.9c2.7,0,3.7,0.2,4.6,1.1c0.5,0.5,1,1.3,1,2.9c0,1.6-0.7,2.3-1.4,2.8c-1,0.6-1.9,0.7-2.3,0.8v0.1
			c2.9,0.1,3.1,1.4,3.4,3.7c0.1,1,0.4,2.6,0.7,3.7h-4.5c-0.2-0.9-0.4-2-0.5-3.4c-0.2-1.8-0.2-2.5-2.1-2.5h-1.7v5.8h-4.2V28.7z
			 M30.4,35.1h1.6c0.9,0,1.4,0,1.7-0.1c0.9-0.3,1.1-1.2,1.1-1.7c0-1.8-1.6-1.8-2.8-1.8h-1.6V35.1z"/>
		<path class="st0" d="M45.6,28.7h5.1l5.9,14.9h-4.7l-1-3h-6l-1,3h-4.1L45.6,28.7z M49.9,37.8L48,31.6h-0.1l-2.1,6.3H49.9z"/>
		<path class="st0" d="M57.2,28.7h5.7l5,11.1l0-11.1h3.6v14.9H66L60.8,32l0,11.6h-3.6V28.7z"/>
		<path class="st0" d="M76.8,38.8c0,0.6,0.1,2.3,2.5,2.3c0.3,0,2.2,0,2.2-1.7c0-0.7-0.3-1.2-1.3-1.4l-3.7-1c-1-0.3-3.7-1-3.7-4.1
			c0-2.4,1.8-4.7,6.3-4.7c5.8,0,6.1,3.2,6.1,4.8h-4.2c0-0.5,0-2.1-2-2.1c-1.2,0-2,0.7-2,1.6c0,1.1,0.9,1.4,1.5,1.5l2.8,0.7
			c2,0.5,4.3,1.1,4.3,4.3c0,3.3-2.9,4.8-6.6,4.8c-1.6,0-4.1-0.2-5.4-1.8c-1.1-1.2-1.1-2.7-1.1-3.3H76.8z"/>
		<path class="st0" d="M86.8,28.7h6.9c1.2,0,2.7,0,3.9,0.8c1.3,0.8,2.1,2.1,2.1,4.1c0,2.6-1.7,3.8-2.3,4.1c-1.2,0.6-3,0.6-3.8,0.6
			l-2.7,0v5.4h-4.2V28.7z M90.9,35.4h1.8c1,0,2.6,0,2.6-2c0-1.8-1.5-1.9-2.7-1.9h-1.8V35.4z"/>
		<path class="st0" d="M102.9,28.7h5.1l5.9,14.9h-4.7l-1-3h-6l-1,3H97L102.9,28.7z M107.1,37.8l-1.9-6.3h-0.1l-2.1,6.3H107.1z"/>
		<path class="st0" d="M114.3,28.7h6.3c1.8,0,4.1,0.2,5.7,1.2c2.2,1.5,2.8,4,2.8,6.2c0,3.3-1.1,5.8-4.1,6.9
			c-1.5,0.6-3.4,0.6-4.4,0.6h-6.4V28.7z M118.5,40.7h1.8c2.8,0,4.5-1.2,4.5-4.7c0-4.5-3.4-4.5-4.7-4.5l-1.6,0V40.7z"/>
		<path class="st0" d="M130,28.7h11.2v2.9h-7.1v3.1h6.7v2.9h-6.7v3.2h7.3v2.9H130V28.7z"/>
		<g>
			<polygon class="st1" points="160.4,38.8 171.8,21.2 167.1,21.2 158.1,35.2 			"/>
			<polygon class="st1" points="163.5,43.6 164,43.6 178.4,21.2 173.7,21.2 161.4,40.4 			"/>
			<polygon class="st1" points="166,43.6 180.4,21.2 185.1,21.2 170.7,43.6 			"/>
			<path class="st0" d="M18.2,25.6h-6.8v-4.4h126.7l2.8,4.4H24.4v18h-6.3V25.6z"/>
			<path class="st0" d="M148.2,43.6h-7.3l8.5-11.7l-7.9-10.7h8l4.4,7l4.5-7h6.8L158.3,32l7.7,11.6H158l-4.9-8L148.2,43.6z"/>
			<polygon class="st1" points="185.1,18.9 182.5,14.5 8.7,14.5 11.2,18.8 11.3,18.9 			"/>
			<polygon class="st1" points="178.6,7.7 4.8,7.7 7.4,12.1 181.2,12.1 			"/>
			<path class="st1" d="M177.3,5.4H3.5L1.7,2.3l0,0C1.6,2.1,1.6,2,1.6,1.8C1.6,1.3,1.9,1,2.4,1h172.3L177.3,5.4z"/>
		</g>
	</g>
</g>
</svg>
