<?xml version="1.0" encoding="utf-8"?>
<!-- Generator: Adobe Illustrator 19.2.1, SVG Export Plug-In . SVG Version: 6.00 Build 0)  -->
<svg version="1.1" id="Layer_1" xmlns="http://www.w3.org/2000/svg" xmlns:xlink="http://www.w3.org/1999/xlink" x="0px" y="0px"
	 viewBox="0 0 200 200" style="enable-background:new 0 0 200 200;" xml:space="preserve">
<style type="text/css">
	.st0{fill:#F23732;}
</style>
<g id="EWkzVj.tif">
	<g>
		<path class="st0" d="M99.6,2.3c1.9,1.5,2.1,2.9,0.5,4.5c-1,1.1-1.9,2.3-2.8,3.5c-2.6,3.3-1.8,6.6,2.1,8.2c1.8,0.7,2.7,1.6,2.8,3.6
			c0.1,4.2,0.4,8.5,0.5,12.7c0.1,2.7,0.6,4.9,3.5,6.1c1,0.4,2,2.1,2.2,3.3c0.4,2.9,1.2,5.1,4.5,5.6c2.5,0.4,3.7,1.9,3.4,4.5
			c-0.1,0.5,0.2,1,0.1,1.5c-0.4,4,1.6,6.2,5.2,7.7c1.5,0.6,2.4,2.9,3.1,4.6c1,2.4,1.7,4.7,5.1,4.8c1.4,0,2.8,1.3,4,2.3
			c2.2,1.8,4.4,2,7.1,1.2c5.1-1.7,6.5-0.5,6.6,4.9c0,1.7,0.1,3.4,0,5c-0.3,3.2,0.6,6,2.2,8.7c2.8,4.9,2.8,6.8-1.3,10.7
			c-3.7,3.6-7.8,6.7-11.8,9.9c-0.6,0.4-1.8,0.3-2.7,0c-4-1.3-5.9-0.2-6.6,3.8c-0.3,1.8-1,3.7-0.9,5.5c0,3.1-1.9,3.4-4.2,4.4
			c-5.5,2.3-11.4,4.4-15.3,9.6c-1.1,1.5-1.1,2.6,0.5,3.7c2,1.3,2.7,3.2,2.4,5.6c-0.3,2.6-0.7,5.4-0.3,8c0.4,2.5,1.6,5,2.9,7.3
			c1.2,2.2,1,3.5-0.7,5.3c-2.7,2.8-5.3,5.1-9.5,5.7c-1.6,0.2-3.1,3.3-4.2,5.3c-0.5,1-0.2,2.5-0.1,3.8c0.2,2.7,0,4.9-3.7,4.6
			c-0.6-0.1-1.6,1-1.9,1.8c-0.8,1.8-1.2,3.7-1.6,4.9c-3.5,1-6.6,1.8-9.6,2.6c-1.8,0.5-3.5-1.2-3.5-3.1c0.1-5.5,0.4-11.1,0.3-16.6
			c0-1.4-0.4-3.2-1.3-4c-4.5-4.1-4.1-9.2-3.9-14.5c0.1-1.8-0.4-3.9-1.3-5.5c-2.4-4.3-5.3-8.3-7.8-12.6c-0.7-1.1-1.1-2.6-0.9-3.8
			c0.6-4.2,1.4-8.3,2.4-12.4c0.4-1.6,0.4-2.7-0.8-3.9c-2.3-2.3-1.7-4.6,1.4-5.8c2.7-1,5.3-2,8-3c4.4-1.7,5.7-4.6,3-8.3
			c-2.8-4-6.2-7.6-9.7-11.1c-2.7-2.6-4.3-5.4-4.5-9.2c-0.3-6.3-4.9-9.9-8.9-14c-2-2.1-3.5-4.6-5-7.1c-0.2-0.4,0.4-1.6,1-2.1
			c3.4-3.3,6.9-6.5,10.4-9.6c0.6-0.5,1.8-1.1,2.2-0.8c2.3,1.4,3.3-0.2,4.7-1.5c3.3-2.9,4.7-6.7,5.6-10.8c0.7-2.9-1.5-5.8-4.5-5.7
			c-3,0.1-3.8-2.3-4.1-4.1c-0.3-1.4,1-3.3,1.9-4.7c0.5-0.8,1.8-1.2,2.8-1.6c5.6-2.3,9.1-6,10.4-12.4c0.4-2.2,3.7-4,5.9-5.7
			c0.3-0.3,1.9,0.8,2.7,1.4c4.4,3.4,4.4,3.4,8.7,0C97.3,4,98.4,3.2,99.6,2.3z"/>
	</g>
</g>
</svg>
