<?xml version="1.0" encoding="utf-8"?>
<!-- Generator: Adobe Illustrator 19.2.1, SVG Export Plug-In . SVG Version: 6.00 Build 0)  -->
<svg version="1.1" id="Layer_1" xmlns="http://www.w3.org/2000/svg" xmlns:xlink="http://www.w3.org/1999/xlink" x="0px" y="0px"
	 viewBox="0 0 200 62.2" style="enable-background:new 0 0 200 62.2;" xml:space="preserve">
<style type="text/css">
	.st0{fill:#FFFFFF;}
</style>
<g>
	<path class="st0" d="M83.1,34.8c0.6,0,0.8-0.1,0.9-0.7c0.6-3.4,1.3-6.6,1.9-10c0.3-1.8,0.6-3.7,0.9-5.4c1.1,4.3,2.6,8.4,4.2,12.6
		c0.4,1.1,0.4,2.7,1.3,3.3c0.8,0.5,2.2,0.2,3.4,0.2c0.2,0,0.4,0,0.5,0c0.5,0,0.7,0,0.8-0.6c0.2-1.3,0.5-2.5,0.7-3.8
		c1.1-5.8,2.2-11.5,3.4-17.3c-1.2,0-2.4,0-3.7,0c-0.6,0-0.7,0.3-0.8,0.7c-0.5,2.8-1,5.7-1.5,8.6c-0.4,1.9-0.6,4-1,6
		c-0.1-0.2-0.2-0.5-0.2-0.7c-1-4.8-2.8-9.2-4.3-13.8c-0.2-0.7-0.6-0.9-1.3-0.9c-1.1,0.1-2.2,0.1-3.4,0c-0.9-0.1-1.2,0.3-1.3,1.1
		c-1.3,6.9-2.6,13.8-3.9,20.7C80.7,34.8,81.8,34.8,83.1,34.8z"/>
	<path class="st0" d="M113.1,34.8c1,0,2.3,0.3,2.9-0.2c0.6-0.5,0.4-1.9,0.7-2.8s-0.1-0.9-0.8-0.9c-2.3,0-4.7,0-7.1,0
		c-0.6,0-0.8-0.1-0.6-0.7c0.3-1.2,0.6-2.5,0.8-3.8c0.1-0.7,0.3-0.7,0.9-0.7c2,0,4,0,6,0c0.7,0,1.2-0.1,1.3-1
		c0.1-0.9,0.4-1.9,0.6-2.9c-2.3,0-4.6,0-6.8,0c-0.8,0-1.2,0-0.9-1c0.3-0.9,0.4-1.9,0.5-2.8c0.1-0.6,0.3-0.9,1.1-0.9
		c2.2,0.1,4.5,0,6.6,0c0.5,0,0.8-0.1,0.9-0.7c0.2-1,0.4-2.1,0.6-3.3c-4,0-7.9,0.1-11.8,0c-1,0-1.2,0.4-1.3,1.1
		c-1.3,6.8-2.5,13.7-3.9,20.6c0.4,0,0.7,0,1.1,0C107,34.8,110.1,34.8,113.1,34.8z"/>
	<path class="st0" d="M134.1,34.8c0.4,0,0.6-0.1,0.7-0.6c0.1-0.8,0.2-1.7,0.5-2.5s-0.1-0.8-0.7-0.8c-2.3,0-4.6,0-6.9,0
		c-0.8,0-1.2,0-0.9-1c0.4-1.1,0.5-2.3,0.7-3.5c0.1-0.6,0.3-0.7,0.9-0.7c2,0,4.1,0,6.1,0c0.8,0,1.1-0.2,1.1-1
		c0.1-0.9,0.4-1.9,0.6-2.9c-2.4,0-4.8,0-7.1,0c-0.6,0-0.8-0.2-0.6-0.8c0.2-1,0.4-2,0.6-3c0.1-0.6,0.3-1,1.1-0.9c2.2,0.1,4.5,0,6.6,0
		c0.3,0,0.7,0.1,0.8-0.4c0.2-1.1,0.6-2.2,0.6-3.5c-4,0-7.7,0-11.5,0c-1.1,0-1.4,0.3-1.6,1.3c-0.7,4-1.5,7.9-2.2,12
		c-0.5,2.8-1,5.6-1.6,8.5C125.7,34.8,130,34.8,134.1,34.8z"/>
	<path class="st0" d="M158.9,14.5c0.3-0.6,0.2-0.9-0.5-1c-1.9-0.5-4-0.6-6-0.4c-6.5,0.6-11.7,5.8-11.5,12.7c-0.2,4.6,2.3,7.3,5,8.4
		c2.5,1.1,5.2,1.1,7.8,0.6c2.3-0.4,2.3-0.5,2.2-2.8c0-0.2,0-0.5,0-0.7c0-0.5-0.1-0.7-0.7-0.5c-1.3,0.4-2.7,0.5-4.2,0.5
		c-2.5-0.1-4.5-1.5-5.1-4c-0.2-1-0.3-1.9-0.1-2.9c0.6-5.1,4.3-7.9,9.4-7.4c0.9,0.1,1.9,0.8,2.5,0.4
		C158.4,16.6,158.5,15.4,158.9,14.5C158.8,14.5,158.9,14.5,158.9,14.5z"/>
	<path class="st0" d="M79.6,47.4c0.4,0,0.7,0.1,0.8-0.4c0-0.2,0.1-0.4,0.1-0.6c0.3-1.6,0.6-3.1,0.9-5c0.7,2,1.4,3.8,2,5.5
		c0.2,0.6,0.5,0.5,1,0.6c0.5,0,0.6-0.3,0.6-0.7c0.4-2.1,0.8-4.4,1.2-6.5c0-0.3,0.2-0.6-0.3-0.6c-0.3,0-0.7-0.2-0.8,0.3
		c-0.1,0.2-0.1,0.5-0.2,0.7c-0.3,1.5-0.6,3.1-0.9,4.8c-0.6-1.8-1.3-3.5-1.8-5.1c-0.2-0.7-0.6-0.8-1.3-0.8c-0.7,0-0.5,0.5-0.6,0.9
		c-0.4,2-0.8,4.2-1.2,6.2C79.3,47,79,47.4,79.6,47.4z"/>
	<path class="st0" d="M142.5,46.2c0.2-0.9,0.2-1.8,0.8-2.6c0.3-0.5,0.8-0.8,1.4-0.6c0.6,0.2,0.4,0.8,0.4,1.2
		c-0.1,0.9-0.3,1.8-0.5,2.6c0,0.2-0.3,0.6,0.2,0.6c0.3,0,0.6,0.2,0.8-0.3c0.1-0.5,0.3-1.1,0.4-1.6c0.1-0.7,0.3-1.5,0.7-2.1
		c0.3-0.4,0.8-0.6,1.2-0.4c0.5,0.2,0.4,0.6,0.4,1c-0.2,1.1-0.4,2.2-0.5,3.5c0.8,0.2,1.2,0.1,1.3-0.8c0.1-1,0.4-1.9,0.5-2.8
		c0.1-1.5-0.8-2.2-2.1-1.5c-0.7,0.4-1.1,0.6-1.9,0c-0.8-0.7-1.6,0.2-2.4,0.6c-0.1-0.4,0.1-0.9-0.6-0.8c-0.7,0-0.5,0.5-0.6,0.8
		c-0.3,1.4-0.5,2.7-0.8,4.2c0,0.2-0.2,0.6,0.3,0.6c0.3,0,0.8,0.2,0.8-0.4C142.4,46.7,142.4,46.5,142.5,46.2z"/>
	<path class="st0" d="M106.1,52.8c-0.5,0.1-1,0.3-1.3,0.6c-0.1,0.1-0.4,0.4-0.5,0.1c-1-1.5-1.9-0.6-3.1,0c-0.1-0.3,0.1-0.8-0.5-0.8
		s-0.6,0.4-0.6,0.8c-0.3,1.4-0.5,2.7-0.8,4.2c0,0.3-0.3,0.7,0.3,0.7c0.4,0,0.7,0.1,0.8-0.4c0-0.2,0.1-0.5,0.1-0.7
		c0.2-0.9,0.2-1.9,0.8-2.7c0.3-0.5,0.7-0.8,1.3-0.6c0.7,0.2,0.5,0.8,0.4,1.3c-0.1,0.9-0.3,1.8-0.5,2.6c0,0.2-0.2,0.5,0.2,0.6
		c0.3,0,0.7,0.2,0.8-0.3c0.1-0.5,0.3-1.1,0.4-1.6c0.2-0.8,0.3-1.5,0.8-2.2c0.3-0.4,0.7-0.5,1.2-0.4c0.5,0.1,0.5,0.6,0.4,1
		c-0.1,1-0.3,1.9-0.4,2.8c0,0.2-0.3,0.6,0.2,0.6c0.3,0,0.8,0.3,0.9-0.4c0.2-1.2,0.6-2.4,0.6-3.8C107.6,53.2,106.9,52.6,106.1,52.8z"
		/>
	<path class="st0" d="M168.7,52.7c-0.2,0-0.4,0-0.5,0c-0.5,0-0.6-0.1-0.5-0.6c0.3-0.8,0.9-1,1.7-0.9c0.1,0,0.3,0,0.4,0
		c0.4,0.1,0.6-0.2,0.7-0.5c0.1-0.5-0.3-0.4-0.5-0.4c-1.4-0.4-2.7,0.2-3.4,1.5c-0.2,0.4-0.1,1-0.9,1c-0.2,0-0.4,0.6-0.2,0.7
		c0.9,0.3,0.4,0.9,0.4,1.5c-0.1,0.9-0.3,1.8-0.5,2.7c-0.1,0.5,0.1,0.6,0.6,0.6c0.6,0,0.6-0.4,0.7-0.8c0.2-1.1,0.4-2.2,0.6-3.4
		c0.2-1.1,1-0.7,1.6-0.6c0.7,0,0.3,0.6,0.2,0.9c-0.1,1-0.3,1.9-0.5,2.8c0,0.3-0.5,0.8,0.2,0.9c0.6,0.1,0.9-0.1,1-0.8
		c0.1-1,0.4-1.9,0.5-2.8C170.7,52.7,170.7,52.7,168.7,52.7z"/>
	<path class="st0" d="M188.2,50c-0.4,0-0.9-0.1-0.9,0.6c0,0.5-0.2,1-0.2,1.5c-0.1,0.5-0.2,0.7-0.8,0.6c-1.4-0.2-2.6,0.6-3.4,1.9
		c-0.6,1.2-0.5,2.5,0.2,3.1c1,0.8,1.9,0.3,2.7-0.3c0,0,0.1,0,0.2-0.1c-0.2,0.7,0.1,0.8,0.7,0.8c0.7,0,0.5-0.5,0.5-0.8
		c0.4-2.2,0.8-4.4,1.2-6.6C188.6,50.5,188.9,50.1,188.2,50z M186.7,54.5c-0.2,0.8-0.2,1.6-0.8,2.3c-0.4,0.4-0.9,0.6-1.4,0.4
		c-0.5-0.2-0.6-0.7-0.6-1.1c0-1.3,0.8-2.3,1.8-2.5C186.4,53.5,186.9,53.7,186.7,54.5z"/>
	<path class="st0" d="M85,50.1c-0.4,0-1-0.2-1,0.6c0,0.5-0.2,1-0.2,1.5c-0.1,0.5-0.2,0.7-0.8,0.6c-1.3-0.2-2.6,0.6-3.3,1.8
		c-0.6,1.2-0.6,2.5,0.1,3.1c1,0.9,1.9,0.3,2.8-0.2h0.1c0.1,0.4,0,0.8,0.7,0.8s0.5-0.5,0.6-0.9c0.4-2.2,0.8-4.4,1.2-6.6
		C85.3,50.5,85.6,50.1,85,50.1z M83.4,54.5c-0.2,0.6-0.2,1.3-0.5,1.8c-0.3,0.5-0.6,0.9-1.3,0.9c-0.4,0.1-0.7-0.2-0.9-0.6
		c-0.5-1.2,0.5-2.9,1.8-3C83.1,53.5,83.6,53.7,83.4,54.5z"/>
	<path class="st0" d="M110.6,53.5h-0.1c-0.2-0.3,0.1-0.8-0.6-0.8c-0.6,0-0.6,0.5-0.6,0.8c-0.4,2.1-0.8,4.3-1.1,6.4
		c0,0.2-0.4,0.6,0.2,0.6c0.3,0,0.8,0.2,0.9-0.4c0.1-0.5,0.2-0.9,0.3-1.4c0.1-0.5,0.3-0.6,0.8-0.5c1.5,0.2,2.7-0.4,3.4-1.8
		c0.5-1.1,0.4-2.6-0.3-3.1C112.4,52.4,111.5,52.9,110.6,53.5z M112.6,54.9c0,1.2-0.7,2.2-1.6,2.4c-0.8,0.2-1.2-0.2-1-1
		c0.1-0.7,0.3-1.5,0.7-2.1c0.4-0.5,0.9-0.7,1.4-0.5C112.6,54,112.6,54.5,112.6,54.9z"/>
	<path class="st0" d="M95.2,50.5c-0.5,0-0.7,0.1-0.8,0.6c-0.4,2.1-0.8,4.4-1.2,6.5c-0.1,0.5,0,0.7,0.6,0.7c0.9,0,1.9-0.1,2.8,0
		c0.7,0.1,1-0.2,1-1c-0.5,0-0.8,0-1.2,0c-1.9,0-1.8,0-1.5-1.8c0.1-0.5,0.3-0.6,0.8-0.6c0.6,0,1.1,0,1.7,0c0.5,0,0.5-0.3,0.5-0.6
		c0.1-0.5-0.3-0.3-0.6-0.4c-0.2,0-0.4,0-0.6,0c-1.6,0-1.5,0-1.2-1.6c0.1-0.5,0.3-0.6,0.8-0.6c0.5,0,0.9,0,1.4,0c0.8,0.1,1.1-0.2,1-1
		C97.6,50.5,96.5,50.5,95.2,50.5z"/>
	<path class="st0" d="M115.7,40.7c0.5,0,0.9,0,1.4,0c0.7,0.1,1.1-0.1,1-1c-1.2,0-2.4,0-3.7,0c-0.4,0-0.6,0.1-0.6,0.5
		c-0.4,2.2-0.8,4.5-1.2,6.7c-0.1,0.3-0.1,0.6,0.4,0.6c1.2,0,2.4,0,3.6,0c0.5,0,0.4-0.4,0.5-0.7c0.1-0.5-0.3-0.3-0.5-0.3
		s-0.5,0-0.7,0c-1.9,0-1.8,0-1.5-1.8c0.1-0.5,0.3-0.6,0.8-0.6c0.6,0,1.1,0,1.7,0c0.5,0,0.5-0.3,0.5-0.6c0.1-0.5-0.3-0.4-0.6-0.4
		c-0.2,0-0.4,0-0.6,0c-1.6,0-1.5,0-1.2-1.6C115,40.8,115.3,40.6,115.7,40.7z"/>
	<path class="st0" d="M128.2,42c-2.2-0.6-4.6,0.3-5.1,2.8c-0.2,0.8-0.1,1.7,0.7,2.2c0.8,0.5,1.5,0.2,2.2-0.2
		c0.1-0.1,0.3-0.1,0.5-0.3c-0.2,1-0.4,1.9-0.6,3c0.6-0.1,1.2,0.3,1.3-0.6c0.4-2,0.8-4.2,1.2-6.2C128.6,42.5,128.6,42.2,128.2,42z
		 M126.2,46c-0.4,0.4-0.9,0.6-1.4,0.4c-0.5-0.2-0.5-0.7-0.5-1.2c0-1.4,1-2.4,2.3-2.3c0.2,0,0.6,0,0.5,0.4
		C127,44.1,126.9,45.1,126.2,46z"/>
	<path class="st0" d="M194,52.9c-2.2-0.5-4.4,0.3-5.1,2.6c-0.2,0.9-0.2,1.8,0.7,2.4c0.9,0.6,1.7,0.2,2.4-0.5
		c0.1-0.1,0.2-0.2,0.4-0.4c0,0.3,0.1,0.4,0.1,0.5c0,0.3-0.2,0.7,0.4,0.7c0.6,0,0.6-0.2,0.6-0.7c0-1.3,0.4-2.5,0.6-3.9
		C194.3,53.5,194.6,53,194,52.9z M193,54.3c-0.2,0.9-0.3,1.8-0.9,2.5c-0.4,0.4-0.8,0.6-1.3,0.4c-0.6-0.2-0.5-0.7-0.5-1.1
		c0.1-1.3,1-2.4,2-2.5C192.8,53.5,193.1,53.6,193,54.3z"/>
	<path class="st0" d="M181.4,52.9c-1.8-0.4-3.9,0-4.9,2c-0.6,1.2-0.4,2.4,0.3,3c0.8,0.6,1.5,0.4,2.7-0.7c0,0,0.1,0,0.3-0.1
		c0,0.3,0,0.4,0,0.6c0,0.3,0,0.6,0.4,0.5c0.3,0,0.7,0.1,0.7-0.4c0-1.4,0.4-2.8,0.7-4.3C181.7,53.4,181.9,53,181.4,52.9z M180.3,54.3
		c-0.2,0.9-0.3,1.8-0.9,2.5c-0.4,0.4-0.8,0.6-1.3,0.4c-0.5-0.2-0.5-0.7-0.5-1.1c0-1.2,0.9-2.3,2-2.5
		C180.1,53.5,180.5,53.6,180.3,54.3z"/>
	<path class="st0" d="M156,43.3c0.2-1.3,0.3-1.3-1.1-1.5c-2.2-0.3-4.3,1.6-4.2,3.8c0.1,1.4,1.4,2.1,2.6,1.4c0.3-0.2,0.6-0.5,0.9-0.8
		c0.3,0.4-0.3,1.1,0.6,1.1s0.5-0.6,0.6-1C155.7,45.4,155.8,44.3,156,43.3z M154.8,43.4c-0.2,0.8-0.3,1.7-0.9,2.4
		c-0.4,0.5-0.9,0.7-1.4,0.5c-0.5-0.2-0.4-0.7-0.4-1c0-1.3,0.9-2.3,2-2.5C154.7,42.6,155,42.7,154.8,43.4z"/>
	<path class="st0" d="M134.1,52.9c-2-0.4-4.2,0.2-5,2.3c-0.4,1.2-0.2,2.3,0.5,2.7c1,0.6,1.8,0.1,2.5-0.7c0,0,0.1-0.1,0.3-0.1
		c0,0.3,0,0.4,0,0.6c-0.1,0.4,0,0.5,0.4,0.5c0.3,0,0.6,0.1,0.6-0.5c0-1.4,0.4-2.8,0.7-4.3C134.5,53.3,134.6,53,134.1,52.9z
		 M133,54.3c-0.2,0.8-0.3,1.7-0.9,2.4c-0.4,0.5-0.9,0.7-1.4,0.5c-0.5-0.2-0.4-0.7-0.4-1.1c0-1.2,0.9-2.3,2-2.5
		C132.8,53.5,133.2,53.6,133,54.3z"/>
	<path class="st0" d="M145.6,50.7c-2.2,0.5-3.9,2.9-3.4,5.1c0.4,1.9,2,2.7,4.5,2.3c0.4-0.1,0.8-0.1,0.7-0.7
		c-0.1-0.7-0.5-0.2-0.8-0.2c-2.4,0.3-3.7-1.2-2.8-3.6c0.5-1.5,1.8-2.3,3.6-2c0.8,0.1,1-0.1,1.1-0.8
		C147.6,50.5,146.6,50.4,145.6,50.7z"/>
	<path class="st0" d="M91,42.8c-0.1,1-0.2,2.1-0.8,2.9c-0.3,0.4-0.8,0.7-1.3,0.5c-0.6-0.2-0.5-0.7-0.4-1.2c0.1-0.9,0.3-1.7,0.5-2.6
		c0-0.3,0.1-0.7-0.4-0.7c-0.4,0-0.7,0-0.7,0.5c-0.1,1-0.4,1.9-0.6,2.9c-0.1,0.7-0.2,1.4,0.5,1.8c0.7,0.4,1.4,0.2,2-0.2
		c0.2-0.1,0.4-0.3,0.6-0.4c0.5,0.2,0.1,0.6,0.2,0.9l0,0l0,0c0.6,0.1,0.9-0.1,1-0.7c0.2-1.6,0.6-3.1,0.8-4.8
		C91.5,41.5,91.2,41.9,91,42.8z"/>
	<path class="st0" d="M133.5,42.8c-0.1,1-0.2,2.1-0.9,2.9c-0.3,0.4-0.8,0.7-1.3,0.5c-0.6-0.2-0.5-0.7-0.4-1.2
		c0.1-0.9,0.3-1.7,0.5-2.6c0-0.3,0.1-0.7-0.4-0.7c-0.4,0-0.7,0-0.7,0.5c-0.1,1-0.4,1.9-0.6,2.9c-0.1,0.7-0.2,1.4,0.5,1.8
		c0.7,0.4,1.4,0.2,2-0.2c0.2-0.1,0.4-0.3,0.6-0.4c0.5,0.2,0.1,0.6,0.2,0.9l0,0l0,0c0.6,0.1,0.9-0.1,1-0.7c0.2-1.6,0.6-3.1,0.8-4.8
		C134,41.5,133.6,41.9,133.5,42.8z"/>
	<path class="st0" d="M104.3,45.1c0,1.2,0.9,2.2,2.2,2.2c1.7,0,3.3-1.5,3.3-3.3c0-1.3-0.9-2.3-2.2-2.3
		C105.8,41.8,104.3,43.4,104.3,45.1z M108.4,44.1c0,1.2-0.9,2.4-1.8,2.3c-0.8-0.1-1.1-0.7-1.1-1.5c0-1.2,0.9-2.4,1.8-2.3
		C108.2,42.8,108.5,43.3,108.4,44.1z"/>
	<path class="st0" d="M89.3,52.9c-1.8-0.5-3.9,1.2-3.8,3.3c0,1.7,1.5,2.6,3.6,1.9c0.3-0.1,0.7-0.2,0.5-0.6c-0.1-0.5-0.5-0.2-0.7-0.1
		c-0.7,0.2-1.3,0.2-1.9-0.3c-0.2-0.2-0.3-0.5-0.2-0.8c0.1-0.3,0.4-0.2,0.6-0.2c0.8,0,1.5-0.1,2.2-0.5c0.6-0.3,0.8-0.8,0.8-1.4
		C90.4,53.5,90.1,53.1,89.3,52.9z M87.7,55.1c-0.2-0.1-0.7,0.2-0.6-0.3c0.2-0.7,0.7-1.1,1.4-1.1c0.4,0,0.8,0.1,0.7,0.6
		C89.1,55.1,88.2,54.9,87.7,55.1z"/>
	<path class="st0" d="M152.3,52.9c-1.8-0.5-3.8,1.2-3.8,3.3c0,1.7,1.4,2.6,3.6,2c0.3-0.1,0.7-0.1,0.6-0.6c-0.1-0.6-0.6-0.2-0.8-0.2
		c-0.6,0.2-1.2,0.2-1.7-0.2c-0.3-0.2-0.4-0.5-0.4-0.8c0.1-0.4,0.5-0.2,0.7-0.3c0.7,0,1.4-0.1,2.1-0.4c0.6-0.3,0.9-0.8,0.8-1.4
		C153.4,53.5,153,53,152.3,52.9z M151.7,54.9c-0.6,0.2-1.2,0.2-1.8,0.1c0.2-0.8,0.6-1.3,1.4-1.4c0.4-0.1,0.8,0.1,0.9,0.5
		C152.3,54.5,152.1,54.8,151.7,54.9z"/>
	<path class="st0" d="M139.3,41.9c-1.7-0.4-3.7,1.2-3.7,3.3c0,1.7,1.5,2.6,3.6,2c0.3-0.1,0.7-0.2,0.6-0.6c-0.1-0.6-0.6-0.2-0.8-0.1
		c-0.6,0.2-1.2,0.2-1.7-0.2c-0.3-0.2-0.4-0.5-0.3-0.8c0.1-0.4,0.5-0.2,0.7-0.2c0.6,0,1.3-0.1,1.9-0.3c0.7-0.3,1.1-0.8,1-1.5
		C140.5,42.5,140,42.1,139.3,41.9z M138.9,44c-0.5,0.2-1.1,0.1-1.8,0.2c0.3-0.8,0.7-1.4,1.5-1.5c0.4-0.1,0.7,0.1,0.9,0.4
		C139.5,43.5,139.3,43.8,138.9,44z"/>
	<path class="st0" d="M96.8,47.2c0.3-0.1,0.7-0.2,0.5-0.6c-0.1-0.5-0.5-0.2-0.7-0.1c-0.7,0.2-1.3,0.2-1.8-0.3
		c-0.3-0.2-0.4-0.5-0.3-0.9c0.1-0.3,0.4-0.2,0.6-0.2c0.7,0,1.3-0.1,2-0.4c0.6-0.3,1-0.8,1-1.4c0-0.7-0.5-1.1-1.2-1.3
		c-2.2-0.5-3.7,1.6-3.7,3.3C93.2,47,94.8,47.8,96.8,47.2z M94.6,43.8c0.2-0.7,0.7-1.2,1.4-1.2c0.4,0,0.8,0.2,0.8,0.7
		c-0.1,1-1,0.7-1.5,0.9C95.1,44,94.5,44.4,94.6,43.8z"/>
	<path class="st0" d="M122.6,52.9c-2.2-0.5-3.7,1.6-3.7,3.3c0,1.7,1.6,2.6,3.6,1.9c0.3-0.1,0.7-0.2,0.5-0.6
		c-0.1-0.5-0.5-0.2-0.7-0.1c-0.7,0.2-1.3,0.2-1.8-0.3c-0.3-0.2-0.4-0.5-0.3-0.9c0.1-0.3,0.4-0.2,0.6-0.2c0.7,0,1.3-0.1,2-0.4
		c0.6-0.3,1-0.7,1-1.4C123.8,53.5,123.4,53,122.6,52.9z M122.1,55c-0.6,0.2-1.1,0.2-1.8,0.1c0.2-0.8,0.7-1.3,1.4-1.5
		c0.4-0.1,0.8,0,0.9,0.5C122.8,54.5,122.5,54.8,122.1,55z"/>
	<path class="st0" d="M100.2,47.4c0.4,0,0.8,0.1,1-0.3c0.9-1.7,1.9-3.5,2.8-5.2c-1-0.3-1.4,0.1-1.8,0.9c-0.4,1-0.9,2-1.4,3
		c-0.3-1.1-0.5-2-0.6-3c-0.1-0.9-0.5-1.2-1.4-0.9c0.3,1.6,0.5,3.3,0.8,4.8C99.8,47,99.7,47.4,100.2,47.4z"/>
	<path class="st0" d="M160.8,51.4c-1.2-0.1-1.2,1.3-2.1,1.6c-0.1,0-0.2,0.4,0.1,0.4c0.9,0.2,0.4,0.7,0.4,1.1
		c-0.1,0.8-0.3,1.6-0.4,2.4c0,0.8,0.9,1.4,1.7,1.1c0.3-0.1,0.4-0.4,0.5-0.6c0.1-0.4-0.2-0.3-0.4-0.3c-0.5-0.1-0.5-0.5-0.5-0.9
		c0.1-0.7,0.2-1.3,0.4-2c0.1-0.5,0.2-0.9,0.9-0.8c0.6,0.1,0.6-0.4,0.6-0.9C161,52.9,160.6,52.5,160.8,51.4z"/>
	<path class="st0" d="M175.4,52.8c-1.3-0.4-3,0.6-3.7,2c-0.4,0.9-0.5,1.8,0.2,2.6c0.6,0.7,1.5,0.9,2.4,0.6c0.3-0.1,0.8,0,0.8-0.5
		c0-0.7-0.5-0.3-0.8-0.4c-1.4,0-2-0.8-1.5-2c0.4-1.1,1.2-1.6,2.3-1.4c0.4,0,0.6-0.1,0.7-0.5C176.1,52.8,175.6,52.9,175.4,52.8z"/>
	<path class="st0" d="M127.8,52.9c-0.3,0-0.6-0.1-0.8-0.2c-0.9,0-1.9,0.6-2.1,1.3c-0.2,0.9,0.2,1.3,0.9,1.7c0.4,0.3,1,0.5,0.7,1.1
		c-0.3,0.7-0.9,0.6-1.5,0.4c-0.1,0-0.3-0.1-0.4-0.1c-0.3,0-0.3,0.2-0.4,0.4c-0.1,0.2,0.1,0.3,0.2,0.4c0.9,0.5,2.6,0.1,3.3-0.7
		c0.5-0.8,0.3-1.4-1-2.2c-0.1,0-0.1-0.1-0.2-0.1c-0.4-0.2-0.5-0.5-0.4-0.9c0.1-0.4,0.5-0.5,0.9-0.5c0.2,0,0.5,0.1,0.7,0.1
		c0.3,0,0.3-0.2,0.4-0.4C128.3,53,128.1,52.9,127.8,52.9z"/>
	<path class="st0" d="M138.7,52.9c-0.3,0-0.6-0.1-0.8-0.2c-0.9,0.1-1.8,0.3-2.1,1.3c-0.3,0.9,0.3,1.4,1,1.8c0.4,0.2,0.8,0.5,0.6,1.1
		c-0.2,0.6-0.8,0.6-1.3,0.5c-0.4-0.1-0.9-0.5-1,0.2c-0.1,0.6,0.5,0.4,0.8,0.5c0.1,0,0.3,0.1,0.4,0.1c1.3,0.1,2.5-0.8,2.3-1.9
		c-0.1-0.7-0.7-1-1.3-1.3c-0.4-0.2-0.7-0.5-0.5-1c0.2-0.4,0.6-0.5,1-0.5c0.2,0,0.3,0.1,0.5,0.1c0.4,0.1,0.4-0.2,0.5-0.4
		C139.1,53,138.9,52.9,138.7,52.9z"/>
	<path class="st0" d="M198.7,52.9c-0.6-0.5-2.4-0.1-2.9,0.7c-0.6,0.8-0.3,1.4,0.7,2.1c0.5,0.3,1,0.6,0.7,1.2
		c-0.3,0.5-0.8,0.5-1.3,0.4c-0.4-0.1-0.8-0.4-0.9,0.3c-0.1,0.6,0.4,0.4,0.7,0.5c0.2,0,0.3,0.1,0.5,0.1c1.2,0.1,2.3-0.7,2.4-1.7
		c0-0.6,0-0.7-1.3-1.6c-0.3-0.2-0.7-0.5-0.5-1c0.2-0.4,0.6-0.5,1-0.5c0.2,0,0.4,0.1,0.6,0.1c0.2,0,0.3-0.1,0.3-0.3
		C198.7,53.3,198.9,53.1,198.7,52.9z"/>
	<path class="st0" d="M119.1,42.8c-0.5,0.8-0.2,1.3,1,2.1c0.4,0.3,0.7,0.6,0.5,1c-0.2,0.6-0.8,0.6-1.3,0.5c-0.4-0.1-0.9-0.5-1,0.2
		c-0.1,0.6,0.5,0.4,0.8,0.5c0.2,0.1,0.3,0.1,0.5,0.1c1.1,0,2.2-0.7,2.2-1.6c0.1-0.9-0.6-1.2-1.2-1.6c-0.4-0.2-0.8-0.5-0.5-1
		c0.2-0.5,0.7-0.5,1.1-0.4c0.2,0,0.3,0.1,0.5,0.1c0.3,0,0.3-0.2,0.4-0.4c0.1-0.2,0-0.3-0.2-0.4C121.1,41.6,119.6,42,119.1,42.8z"/>
	<path class="st0" d="M156.1,53.6c-0.1,0.2-0.2,0.4-0.3,0c-0.1-0.3,0-0.6,0-0.9l0,0c-0.5,0-0.9,0-1,0.6c-0.1,1.4-0.5,2.8-0.7,4.3
		c0,0.2-0.3,0.7,0.3,0.7c0.4,0,0.8,0.1,0.9-0.5c0.1-0.4,0-0.8,0.1-1.2c0.3-1,0.3-2.2,1.5-2.5c0.8-0.2,1-0.6,0.9-1.3
		C157,52.7,156.6,53.2,156.1,53.6z"/>
	<path class="st0" d="M116.9,53.6c-0.1,0.2-0.2,0.4-0.3,0c-0.1-0.3,0-0.6,0-0.9l0,0c-0.5,0-0.9,0-1,0.6c-0.1,1.4-0.5,2.8-0.7,4.3
		c0,0.2-0.3,0.7,0.3,0.7c0.4,0,0.8,0.1,0.9-0.5c0.1-0.4,0-0.8,0.1-1.2c0.3-1,0.3-2.2,1.5-2.5c0.8-0.2,1-0.6,0.9-1.3
		C117.8,52.7,117.4,53.2,116.9,53.6z"/>
	<path class="st0" d="M164.1,52.7c-0.4,0-0.8-0.2-1,0.5c-0.2,1.4-0.5,2.8-0.8,4.3c0,0.3-0.4,0.7,0.3,0.8c0.5,0.1,0.8,0,0.9-0.6
		c0.2-1.5,0.5-2.9,0.8-4.5C164.4,53,164.5,52.7,164.1,52.7z"/>
	<path class="st0" d="M164.2,50.5c-0.4,0-0.6,0.3-0.7,0.7c0,0.3,0.2,0.6,0.6,0.6c0.4,0,0.8-0.2,0.8-0.7
		C164.9,50.8,164.5,50.5,164.2,50.5z"/>
	<path class="st0" d="M156.1,53.6c-0.3-0.2,0.2-0.8-0.4-0.9l0,0C156.1,52.9,155.6,53.4,156.1,53.6z"/>
	<path class="st0" d="M156.1,53.6c-0.5-0.1,0-0.7-0.4-0.9c0,0.3,0,0.6,0,0.9C155.9,54,156,53.8,156.1,53.6z"/>
	<path class="st0" d="M116.9,53.6c-0.3-0.2,0.2-0.8-0.4-0.9l0,0C116.9,52.9,116.4,53.4,116.9,53.6z"/>
	<path class="st0" d="M116.9,53.6c-0.5-0.1,0-0.7-0.4-0.9c0,0.3,0,0.6,0,0.9C116.7,54,116.8,53.8,116.9,53.6z"/>
	<path class="st0" d="M90.4,46.5c0.2,0.3-0.2,0.7,0.2,0.9C90.4,47.1,90.7,46.7,90.4,46.5z"/>
	<path class="st0" d="M90.4,46.5c0.3,0.2,0,0.6,0.2,0.9l0,0C90.5,47.1,90.9,46.7,90.4,46.5z"/>
	<path class="st0" d="M132.8,46.5c0.2,0.3-0.2,0.7,0.2,0.9C132.8,47.1,133.1,46.7,132.8,46.5z"/>
	<path class="st0" d="M132.8,46.5c0.3,0.2,0,0.6,0.2,0.9l0,0C132.9,47.1,133.3,46.7,132.8,46.5z"/>
	<path class="st0" d="M72.8,34.3c-6.8,22.1-31,32.4-53.4,20.1S1.7,16.8,1.7,16.8L2,16.9c0,0-5.4,23.1,17.6,36.8s48.4-0.6,52.4-19
		L72.8,34.3z"/>
	<path class="st0" d="M72.8,31.4c-6.8,22.1-31,32.4-53.4,20.1S1.7,14,1.7,14L2,14.2c0,0-5.4,23.1,17.6,36.8s48.4-0.6,52.4-19
		L72.8,31.4z"/>
	<path class="st0" d="M16,2.2c0,0.1-0.5,0.3-1.3,0.3c-0.8,0-1.3-0.2-1.3-0.3c0-0.1,0.2-0.2,0.5-0.2c-0.1,0-0.3,0-0.4,0
		c-0.1,0.1-0.2,0.1-0.2,0.2c0,0.3,0.7,0.4,1.4,0.4C15.4,2.6,16.1,2.5,16,2.2c0.1-0.1,0-0.1-0.1-0.2c-0.1,0-0.3,0-0.4,0
		C15.8,2,16,2.1,16,2.2z"/>
	<g>
		<g>
			<path class="st0" d="M11.9,2.5c0,0.3,1,0.6,2.6,0.6s2.6-0.4,2.6-0.6c0-0.2-0.3-0.3-0.9-0.5c-0.5,0-1.1-0.1-1.7-0.1
				c-0.6,0-1.1,0-1.6,0.1C12.3,2.1,11.9,2.3,11.9,2.5z"/>
			<path class="st0" d="M3.1,9.4c-0.1,0.3-0.3,0.7-0.4,1C2.8,10.2,3,10,3.2,9.8C3.1,9.7,3.1,9.6,3.1,9.4z"/>
			<path class="st0" d="M3.5,21c-0.6-1-1-2-1.3-3.1C2.3,18.9,2.8,20,3.5,21z"/>
			<path class="st0" d="M17.2,2.5c0,0.3-1,0.6-2.6,0.6s-2.6-0.4-2.6-0.6c0-0.2,0.4-0.4,1-0.5c-0.3,0-0.5,0-0.8,0.1
				c-0.2,0.1-0.4,0.3-0.4,0.4c0,0.5,1.4,0.8,2.8,0.8c1.3,0,2.8-0.3,2.8-0.8c0-0.2-0.1-0.3-0.4-0.4c-0.2,0-0.5-0.1-0.8-0.1
				C16.9,2.2,17.2,2.3,17.2,2.5z"/>
			<path class="st0" d="M17.5,2.2c-0.2,0-0.4-0.1-0.6-0.1c0,0,0.1,0,0.1,0.1C17.2,2.1,17.4,2.1,17.5,2.2z"/>
			<path class="st0" d="M16.3,2c-0.4-0.1-1-0.2-1.6-0.2c-0.7,0-1.2,0.1-1.6,0.2c0.5,0,1-0.1,1.6-0.1C15.2,2,15.8,2,16.3,2z"/>
			<path class="st0" d="M14.6,5.3c3.6,0,6.4-0.8,6.4-1.8V3.4c-0.1,0-0.2-0.1-0.2-0.1c0,0.1,0.1,0.2,0.1,0.2c0,0.8-2.5,1.6-6.2,1.6
				c-3.8,0-6.2-0.8-6.2-1.6l0,0c-0.1,0-0.1,0.1-0.2,0.1C8.3,4.6,11,5.3,14.6,5.3z"/>
			<path class="st0" d="M13,2c0.4-0.1,1-0.2,1.6-0.2c0.7,0,1.2,0.1,1.6,0.2c0.3,0,0.5,0,0.8,0.1c0,0-0.1,0-0.1-0.1
				c-0.7-0.1-1.5-0.2-2.2-0.2c-0.8,0-1.7,0.1-2.5,0.2l0,0C12.5,2.1,12.7,2,13,2z"/>
			<path class="st0" d="M6.2,5.2c0.1,1.3,3.9,2.3,8.5,2.3c4.8,0,8.5-1,8.5-2.4l0,0L23.1,5l0,0l0,0c0,0,0,0-0.1-0.1C23,5,23,5,23,5.1
				c0,1.2-3.9,2.2-8.4,2.2s-8.4-1-8.4-2.2c0-0.1,0-0.2,0.1-0.3C6.2,4.9,6.2,4.9,6.1,5C6.2,5.1,6.2,5.2,6.2,5.2L6.2,5.2z"/>
			<path class="st0" d="M4.4,7.1L4.4,7.1c0,2.1,4.7,3.9,10.4,3.9c5.5,0,10.1-1.6,10.4-3.6c0-0.1-0.1-0.1-0.2-0.2
				c0,1.9-4.6,3.6-10.2,3.6S4.6,9.1,4.6,7.2c0-0.1,0-0.3,0.1-0.4C4.6,6.7,4.5,7,4.4,7.1L4.4,7.1L4.4,7.1z"/>
			<path class="st0" d="M3.3,9.7c0-0.1-0.1-0.3-0.1-0.5c0-0.1,0-0.2,0-0.2C3.1,9.1,3.1,9.3,3,9.4c0,0.2,0,0.3,0.1,0.5
				C3.2,9.8,3.2,9.8,3.3,9.7z"/>
			<path class="st0" d="M26.3,9.7L26.3,9.7c0.1,0,0.1,0,0.2,0.1c0-0.1,0-0.1,0-0.2c0-0.1-0.1-0.2-0.1-0.3l0,0
				C26.3,9.4,26.3,9.6,26.3,9.7z"/>
			<path class="st0" d="M14.8,14.5c6,0,10.9-1.9,11.6-4.6l-0.1-0.1c-0.6,2.5-5.5,4.5-11.5,4.5c-5.9,0-10.7-1.9-11.4-4.4L3.3,10
				C4,12.5,8.9,14.5,14.8,14.5z"/>
			<path class="st0" d="M3.3,9.7C3.2,9.8,3.2,9.8,3.1,9.9c0,0.1,0,0.1,0.1,0.2L3.3,10C3.3,9.9,3.3,9.8,3.3,9.7z"/>
			<path class="st0" d="M26.4,9.8l-0.1-0.1c0,0,0,0-0.1,0.1v0.1l0.1,0.1C26.4,9.9,26.4,9.8,26.4,9.8z"/>
			<path class="st0" d="M14.8,21c6,0,11.1-1.9,12.5-4.6l0,0c0-0.1,0-0.2,0-0.3c-1.2,2.7-6.3,4.8-12.5,4.8c-5.9,0-10.9-1.9-12.3-4.5
				c0,0.1,0,0.2-0.1,0.3C4,19.1,8.9,21,14.8,21z"/>
			<path class="st0" d="M14.7,17.9c6.2,0,11.4-1.9,12.9-4.6l0,0c0-0.1,0-0.2,0-0.3c-1.2,2.7-6.5,4.8-12.9,4.8
				c-6.1,0-11.2-1.9-12.7-4.5c0,0.1,0,0.2-0.1,0.3C3.6,16,8.7,17.9,14.7,17.9z"/>
			<path class="st0" d="M2.2,15.8c-0.1-0.2-0.1-0.4-0.1-0.6c0,0.2,0,0.5,0,0.7C2.1,15.9,2.1,15.8,2.2,15.8
				C2.1,15.8,2.2,15.8,2.2,15.8z"/>
			<path class="st0" d="M14.8,23.4c-6.5,0-11.9-2.8-12.5-6.4v0.1c0.1,0.5,0.3,1,0.4,1.5c1.7,2.8,6.4,4.9,12.1,4.9
				c5.4,0,10.1-1.9,11.9-4.6c0.1-0.3,0.2-0.6,0.3-0.9C25.6,21.2,20.7,23.4,14.8,23.4z"/>
			<path class="st0" d="M2.1,16.2c0,0.1,0,0.2,0,0.3v-0.1C2.2,16.2,2.1,16.2,2.1,16.2z"/>
			<path class="st0" d="M27.3,16.1c0,0.1,0,0.2,0,0.3c0-0.2,0.1-0.4,0.1-0.6l0,0C27.3,15.9,27.3,16,27.3,16.1z"/>
			<path class="st0" d="M2.2,16.3c0-0.1,0-0.2,0.1-0.3c0-0.1,0-0.2-0.1-0.2c0,0,0-0.1-0.1-0.1c0,0.1,0,0.2,0,0.2c0,0.1,0,0.1,0,0.2
				C2.1,16.2,2.2,16.2,2.2,16.3z"/>
			<path class="st0" d="M4.2,21.7c0.2,0.2,0.3,0.5,0.5,0.7c2.3,1.9,6,3.1,10.1,3.1c4,0,7.4-1.1,9.8-2.9c0.2-0.2,0.3-0.4,0.5-0.6
				c-2.2,2-6,3.4-10.3,3.4C10.3,25.3,6.5,23.8,4.2,21.7z"/>
			<path class="st0" d="M2.3,16.1L2.3,16.1c-0.1,0-0.1,0.1-0.1,0.2l0,0C2.3,16.3,2.3,16.2,2.3,16.1z"/>
			<path class="st0" d="M2.2,16.4L2.2,16.4c0-0.1,0-0.1,0-0.1V16.4c-0.1,0.1-0.1,0.2,0,0.2C2.2,16.6,2.2,16.5,2.2,16.4L2.2,16.4z"/>
			<path class="st0" d="M2.3,16.1C2.3,16,2.3,16,2.3,16.1c0,0.1-0.1,0.2-0.1,0.2v0.1C2.2,16.3,2.2,16.2,2.3,16.1z"/>
			<path class="st0" d="M7.5,24.9c0.4,0.2,0.7,0.5,1.1,0.7c1.8,0.7,4,1.1,6.2,1.1c2.1,0,4.2-0.4,5.9-1c0.4-0.2,0.7-0.4,1.1-0.6
				c-2,0.9-4.4,1.5-6.9,1.5C12,26.6,9.5,25.9,7.5,24.9z"/>
			<path class="st0" d="M2.3,16.5C2.3,16.6,2.4,16.6,2.3,16.5c0.1,0,0.1-0.1,0.1-0.2v-0.1C2.4,16.4,2.3,16.4,2.3,16.5z"/>
			<path class="st0" d="M2.3,16.5c0-0.1,0-0.2,0.1-0.3l-0.1-0.1c0,0.1,0,0.2-0.1,0.3C2.3,16.4,2.3,16.5,2.3,16.5z"/>
			<path class="st0" d="M2.2,16.4c0,0.1,0,0.1,0,0.2s0,0.3,0.1,0.4c0-0.1,0-0.1,0-0.2"/>
			<path class="st0" d="M5.8,5.4c-0.6,0.4-1,0.8-1.1,1.2C5,6.2,5.4,5.8,5.8,5.4z"/>
			<path class="st0" d="M6.2,5.1c0-0.1,0-0.2,0.1-0.3C6.1,5,5.8,5.2,5.6,5.3C5.8,5.2,5.9,5.1,6.2,5.1C6.2,5,6.2,5,6.2,5.1z"/>
			<path class="st0" d="M2.7,18.6c-0.2-0.3-0.4-0.7-0.5-1l0,0v0.1C2.5,18.9,3,20,3.5,21c0.2,0.2,0.4,0.5,0.6,0.7
				C3.6,20.8,3.1,19.8,2.7,18.6z"/>
			<path class="st0" d="M6.4,4.9C7,4.4,7.5,4,8.2,3.6c0,0,0,0,0-0.1c0-0.1,0-0.1,0-0.2C7.7,3.6,7.3,3.9,6.8,4.2h0.1
				C6.7,4.5,6.5,4.7,6.4,4.9z"/>
			<path class="st0" d="M26.9,18c0.2-0.5,0.4-1.1,0.4-1.6l0,0l0,0C27.2,16.9,27.1,17.5,26.9,18z"/>
			<path class="st0" d="M17.5,2.2c1.1,0.3,2.1,0.6,3.1,1.2C20.5,2.9,19.3,2.4,17.5,2.2z"/>
			<path class="st0" d="M2.1,16.4c0-0.1,0-0.2,0-0.3c-0.1-0.2-0.2-0.4-0.2-0.7c0,0.5,0.1,1.1,0.2,1.6c0-0.1,0-0.1,0-0.2
				S2.1,16.6,2.1,16.4z"/>
			<path class="st0" d="M27.4,12c-0.1-0.4-0.2-0.8-0.3-1.1c-0.1-0.2-0.2-0.4-0.4-0.6c0.3,0.7,0.5,1.5,0.6,2.3
				C27.3,12.4,27.4,12.2,27.4,12z"/>
			<path class="st0" d="M2.2,12.4c0-0.1,0-0.3,0-0.4c0-0.2,0-0.4,0.1-0.6c-0.2,1-0.4,2-0.4,3c0,0,0,0,0,0.1c0-0.3,0.1-0.6,0.2-0.9
				C2.1,13.2,2.1,12.8,2.2,12.4z"/>
			<path class="st0" d="M4.4,7c0-0.1,0-0.2,0.1-0.4C4.4,6.6,4.3,6.7,4.2,7l0.1-0.1C4.4,6.9,4.4,7,4.4,7z"/>
			<path class="st0" d="M10.5,2.4C9.8,2.6,9.2,2.9,8.6,3.2C8.5,3.3,8.5,3.4,8.4,3.5c1.1-0.6,2.4-1.1,3.8-1.4
				C11.5,2.2,11,2.3,10.5,2.4z"/>
			<path class="st0" d="M3.1,9.4c0-0.1,0-0.1,0-0.2c0-0.1,0-0.2,0-0.3c-0.4,0.8-0.6,1.5-0.9,2.4c0.1-0.2,0.3-0.5,0.5-0.8
				C2.8,10.1,2.9,9.8,3.1,9.4z"/>
			<path class="st0" d="M3.3,9C3.6,8.3,4,7.7,4.5,7.1C3.7,7.7,3.3,8.3,3.3,9z"/>
			<path class="st0" d="M14.7,27.3c-2.2,0-4.3-0.6-6.1-1.6c-0.4-0.2-0.8-0.3-1.2-0.5c2,1.4,4.6,2.3,7.3,2.3c2.6,0,5.1-0.8,7.1-2.1
				c-0.4,0.2-0.7,0.3-1.1,0.5C18.9,26.7,16.8,27.3,14.7,27.3z"/>
			<path class="st0" d="M27.4,14l0.1-0.1c0,0.1,0,0.1,0.1,0.2c0-0.5-0.1-0.9-0.1-1.3c0,0.1-0.1,0.2-0.1,0.4S27.4,13.7,27.4,14z"/>
			<path class="st0" d="M4.7,22.4c-0.2-0.2-0.4-0.4-0.6-0.6c0.6,0.9,1.4,1.8,2.3,2.5c0.3,0.2,0.7,0.4,1.1,0.6
				C6.5,24.2,5.5,23.4,4.7,22.4z"/>
			<path class="st0" d="M27.5,16.3c0-0.2,0.1-0.4,0.1-0.6c0,0.1-0.1,0.2-0.1,0.3C27.5,16.2,27.5,16.2,27.5,16.3z"/>
			<path class="st0" d="M26.5,9.6c0,0.1,0.1,0.2,0.1,0.3c0.1,0.1,0.2,0.2,0.3,0.3c-0.1-0.3-0.3-0.7-0.4-1l0,0
				C26.5,9.4,26.5,9.5,26.5,9.6z"/>
			<path class="st0" d="M25,7.2L25,7.2c0-0.1,0-0.2,0-0.4c-0.3-0.5-0.7-0.9-1.1-1.3c-0.2-0.1-0.3-0.2-0.5-0.3c0,0,0,0,0,0.1
				C23.9,5.7,24.5,6.4,25,7.2z"/>
			<path class="st0" d="M25,22c0.2-0.2,0.4-0.4,0.6-0.6c0.6-1,1.1-2,1.4-3.1c-0.1,0.3-0.3,0.6-0.5,0.9C26.2,20.1,25.7,21.1,25,22z"
				/>
			<path class="st0" d="M25.1,7.4C25.6,8,26,8.6,26.3,9.3c0-0.2,0-0.4-0.1-0.6c-0.2-0.4-0.4-0.8-0.7-1.2c-0.1-0.1-0.2-0.2-0.3-0.3
				C25.3,7.3,25.1,7.3,25.1,7.4z"/>
			<path class="st0" d="M25.1,22.1c-0.2,0.2-0.4,0.3-0.6,0.5c-0.8,1-1.7,1.8-2.8,2.5c0.3-0.2,0.7-0.3,1-0.5
				C23.6,23.8,24.4,23,25.1,22.1z"/>
			<path class="st0" d="M27.4,15.7c0.1-0.3,0.1-0.6,0.1-0.9c0-0.2,0-0.5-0.1-0.7c0,0.1,0,0.3,0,0.4C27.4,14.9,27.4,15.3,27.4,15.7z"
				/>
			<path class="st0" d="M23.1,4.9c-0.1-0.2-0.2-0.3-0.4-0.5h0.1c-0.6-0.5-1.2-0.9-1.9-1.2C21,3.3,21,3.4,21,3.5
				C21.7,3.9,22.4,4.4,23.1,4.9z"/>
			<path class="st0" d="M8.2,3.6c0.1,0,0.1-0.1,0.2-0.1c0-0.1,0.1-0.2,0.2-0.3C8.5,3.3,8.4,3.3,8.3,3.4C8.2,3.5,8.2,3.5,8.2,3.6
				L8.2,3.6z"/>
			<path class="st0" d="M16.9,2c0.2,0,0.4,0.1,0.6,0.1c1.7,0.2,2.8,0.7,3.1,1.2c0.1,0,0.2,0.1,0.2,0.1c0-0.1,0-0.2-0.1-0.3
				c-1-0.5-2.1-1-3.4-1.2c-0.4-0.1-0.8-0.1-1.2-0.1C16.5,1.9,16.8,2,16.9,2z"/>
			<path class="st0" d="M12.1,2.1L12.1,2.1C12.5,2,12.7,1.9,13,1.8c-0.3,0-0.5,0-0.8,0.1C11.6,2,11,2.2,10.5,2.3
				C11,2.3,11.5,2.2,12.1,2.1z"/>
			<path class="st0" d="M16.9,2c-0.2-0.1-0.4-0.1-0.6-0.2c-0.5,0-1.1-0.1-1.7-0.1c-0.6,0-1.1,0-1.6,0.1c-0.3,0.1-0.6,0.1-0.7,0.2
				c0.8-0.2,1.6-0.2,2.5-0.2C15.5,1.8,16.2,1.9,16.9,2z"/>
			<path class="st0" d="M23.3,5.2C23.3,5.1,23.3,5.1,23.3,5.2c-0.1-0.1-0.1-0.1-0.1-0.1S23.2,5.1,23.3,5.2z"/>
			<path class="st0" d="M6.2,5.1C6.3,5,6.3,5,6.4,4.9c0.1-0.2,0.3-0.3,0.5-0.5H6.8C6.6,4.5,6.4,4.7,6.2,4.9C6.2,4.9,6.2,5,6.2,5.1
				L6.2,5.1z"/>
			<path class="st0" d="M23.1,4.9C23.1,5,23.1,5,23.1,4.9c0.1,0,0.1,0,0.1-0.1l0,0l0,0c-0.2-0.1-0.3-0.3-0.5-0.4h-0.1
				C22.8,4.6,23,4.8,23.1,4.9z"/>
			<path class="st0" d="M25,7.2c0,0.1,0.1,0.1,0.2,0.2V7.3C25.1,7.2,25.1,7.2,25,7.2c0.1-0.1,0.1-0.1,0.1-0.1C25,7,25,6.9,24.9,6.9
				C25,6.9,25,7,25,7.2L25,7.2z"/>
			<path class="st0" d="M4.4,7.1C4.5,7,4.6,6.7,4.7,6.6c0.1-0.4,0.5-0.9,1.1-1.2c0.1-0.1,0.2-0.2,0.3-0.3c0,0,0,0,0-0.1l0,0
				C5.9,5.1,5.8,5.2,5.6,5.3C5.2,5.7,4.9,6.1,4.5,6.6C4.5,6.7,4.4,6.9,4.4,7.1C4.4,7,4.4,7.1,4.4,7.1z"/>
			<path class="st0" d="M23.3,5.1c0.2,0.1,0.4,0.2,0.5,0.3c-0.2-0.2-0.4-0.3-0.5-0.5c0,0,0,0-0.1,0C23.3,5,23.3,5,23.3,5.1z"/>
			<path class="st0" d="M23.3,5.1c0-0.1,0-0.1-0.1-0.2l0,0c0,0,0,0.1-0.1,0.1l0,0C23.2,5,23.2,5.1,23.3,5.1z"/>
			<path class="st0" d="M25.3,7.2c0.1,0.1,0.2,0.2,0.3,0.3c-0.1-0.1-0.2-0.3-0.3-0.4C25.3,7.1,25.3,7.1,25.3,7.2L25.3,7.2z"/>
			<path class="st0" d="M26.3,9.3c0,0.1,0.1,0.2,0.1,0.3c0-0.1,0-0.2,0-0.3l0,0c-0.1-0.2-0.2-0.3-0.2-0.5
				C26.3,8.9,26.3,9.1,26.3,9.3z"/>
			<path class="st0" d="M3.1,9.4C3.2,9.3,3.2,9.1,3.3,9c0.1-0.7,0.5-1.3,1.2-1.9l0,0l0,0V7C4.4,7,4.4,7.1,4.4,7.1
				C4,7.7,3.6,8.4,3.2,9.1c0,0.1,0,0.2,0,0.3C3,9.3,3.1,9.4,3.1,9.4z"/>
			<path class="st0" d="M25.3,7.2L25.3,7.2c0-0.1,0-0.1,0-0.1s0-0.1-0.1-0.1c0,0,0,0.1-0.1,0.1C25.1,7.2,25.1,7.2,25.3,7.2z"/>
			<path class="st0" d="M26.7,10.3c0.2,0.2,0.3,0.4,0.4,0.6c-0.1-0.2-0.1-0.4-0.2-0.7c-0.1-0.1-0.2-0.2-0.3-0.3
				C26.6,10,26.7,10.2,26.7,10.3z"/>
			<path class="st0" d="M27.3,12.6c0,0.1,0,0.2,0.1,0.4c0-0.1,0.1-0.2,0.1-0.4c0-0.2-0.1-0.4-0.1-0.6C27.4,12.2,27.3,12.4,27.3,12.6
				z"/>
			<path class="st0" d="M2.2,12.4c0.1-0.7,0.3-1.3,0.5-2c-0.2,0.4-0.4,0.7-0.5,1c0,0,0,0,0,0.1c0,0.2-0.1,0.4-0.1,0.6
				C2.1,12.2,2.2,12.3,2.2,12.4z"/>
			<path class="st0" d="M2.1,16c0-0.2,0-0.5,0-0.7c0-0.1,0-0.3,0-0.4v-0.1c0-0.1,0-0.1,0-0.2c0-0.3,0-0.5,0-0.8
				c-0.1,0.3-0.2,0.6-0.2,0.9s0,0.6,0,0.8c0,0.2,0.1,0.4,0.2,0.7C2.1,16,2.1,16,2.1,16z"/>
			<path class="st0" d="M27.4,14c0,0.1,0,0.1,0,0.2c0.1,0.2,0.1,0.5,0.1,0.7c0,0.3-0.1,0.6-0.1,0.9l0,0c0,0,0,0,0-0.1
				c0,0.1,0,0.3,0,0.4c0-0.1,0.1-0.2,0.1-0.3c0-0.4,0.1-0.8,0.1-1.2c0-0.2,0-0.3,0-0.5c0-0.1,0-0.1-0.1-0.2
				C27.5,13.9,27.5,14,27.4,14z"/>
			<path class="st0" d="M2.7,18.6c-0.2-0.5-0.3-1-0.4-1.5c0,0.1,0,0.3,0,0.5C2.4,18,2.5,18.3,2.7,18.6z"/>
			<path class="st0" d="M2.1,16.2C2.1,16.1,2.1,16.1,2.1,16.2C2,16.2,2,16.3,2,16.4c0,0.2,0,0.3,0,0.5c0-0.2,0-0.3,0.1-0.5
				C2.1,16.3,2.1,16.2,2.1,16.2z"/>
			<path class="st0" d="M27.3,16.4L27.3,16.4c0,0.6-0.1,1.1-0.4,1.7c-0.1,0.3-0.2,0.6-0.3,0.9c0.2-0.3,0.3-0.6,0.5-0.9
				c0.2-0.6,0.3-1.2,0.4-1.8c0-0.1,0-0.2,0-0.3C27.4,16.2,27.3,16.3,27.3,16.4z"/>
			<path class="st0" d="M27.3,16.4c0.1-0.1,0.1-0.2,0.2-0.3c0-0.1,0-0.3,0-0.4c0,0,0,0,0,0.1C27.4,16,27.3,16.2,27.3,16.4L27.3,16.4
				z"/>
			<path class="st0" d="M2.2,17.6C2.2,17.6,2.2,17.7,2.2,17.6c0,0.1,0,0.1,0,0.1C2.3,17.7,2.2,17.7,2.2,17.6z"/>
			<path class="st0" d="M25.1,22.1c0.2-0.2,0.3-0.5,0.5-0.7c-0.2,0.2-0.4,0.4-0.6,0.6c-0.2,0.2-0.3,0.4-0.5,0.6
				C24.7,22.4,24.9,22.2,25.1,22.1z"/>
			<path class="st0" d="M3.5,21c0.2,0.3,0.3,0.6,0.5,0.8c0.3,0.2,0.5,0.4,0.7,0.6c-0.2-0.2-0.4-0.5-0.5-0.7
				C3.9,21.5,3.7,21.2,3.5,21z"/>
			<path class="st0" d="M2.2,16.4c0,0.2,0,0.3-0.1,0.5c0,0.1,0,0.2,0,0.2c0-0.2,0-0.3,0.1-0.5C2.2,16.5,2.2,16.5,2.2,16.4z"/>
			<path class="st0" d="M7.5,24.9c-0.4-0.2-0.7-0.4-1.1-0.6c0.3,0.3,0.6,0.5,1,0.8c0.4,0.2,0.8,0.4,1.2,0.5
				C8.2,25.4,7.8,25.2,7.5,24.9z"/>
			<path class="st0" d="M21.7,25.1c-0.3,0.2-0.7,0.4-1.1,0.6c0.4-0.1,0.8-0.3,1.1-0.5c0.3-0.2,0.6-0.4,0.9-0.7
				C22.4,24.7,22.1,24.9,21.7,25.1z"/>
			<path class="st0" d="M2.3,17.2C2.3,17.1,2.3,17.1,2.3,17.2c0,0-0.1,0.1-0.1,0.3c0,0.1,0,0.1,0,0.2l0,0
				C2.3,17.5,2.3,17.3,2.3,17.2z"/>
			<path class="st0" d="M2.2,17.6c0-0.2-0.1-0.3-0.1-0.5c0,0,0,0,0,0.1C2.1,17.3,2.2,17.5,2.2,17.6C2.2,17.7,2.2,17.6,2.2,17.6
				L2.2,17.6z"/>
			<path class="st0" d="M2.2,17.4c0-0.1,0-0.2,0-0.4c0-0.1,0-0.3-0.1-0.4c0,0.2-0.1,0.3-0.1,0.5c0,0.2,0.1,0.3,0.1,0.5
				C2.2,17.5,2.2,17.5,2.2,17.4z"/>
		</g>
		<path class="st0" d="M20.7,4.1c-1.4-0.8-2.7-1.4-3.9-1.7c2.5,0.5,7,2.1,9.7,7.4l0.2-0.1C23.1,2.6,16.3,2.1,15.2,2
			c-0.2,0-0.3,0-0.3,0c-0.2-0.1-0.4,0.1-0.4,0.1l0,0l0,0c0,0-3,0.3-6,2.2C5.7,6,2.3,9.5,2.1,16c0,0,0,0.1,0.1,0.1
			c0.1,0,0.1,0,0.1-0.1C2.5,9.5,5.8,6.1,8.6,4.4c1.6-1,3.3-1.5,4.4-1.8c-1.2,0.5-3,1.3-4.7,2.7c-2.7,2.3-6,6.6-5.4,14
			c0,0,0,0.1,0.1,0.1l0,0c0,0,0.1,0,0.1-0.1C2.4,12,5.4,7.8,8.2,5.4c2.2-1.8,4.6-2.7,5.6-3C9.7,4.7,4.9,8.9,3.9,15.2
			c-0.6,4.1,0.6,7.1,0.6,7.1s0,0.1,0.1,0.1l0,0c0,0,0.1-0.1,0-0.1c0,0-1.2-3-0.6-7C5,9.1,9.6,5.1,13.6,2.7c-1,0.9-3,2.7-4.8,5.4
			c-2.2,3.6-4.5,9.2-2.1,16.6c0,0,0,0.1,0.1,0.1l0,0l0.1-0.1c-2.3-7.2-0.2-12.9,2-16.5c1.8-2.8,4-4.7,5-5.5
			c-0.8,0.9-2.7,3.6-4.3,7.1c-1.6,4.1-3,10.3,0,16.5c0,0,0,0,0.1,0l0,0c0,0,0.1-0.1,0-0.1C6.7,20,8.1,13.9,9.8,9.8s4.2-7,4.5-7.4
			C13.5,4.3,9.2,15.3,12,27l0.1,0.1l0.1-0.1C9.5,15.6,13.6,4.7,14.5,2.6v24.7c0,0,0,0.1,0.1,0.1c0,0,0.1,0,0.1-0.1V2.2
			c0.4,1.2,4.8,13,1.9,24.9c0,0,0,0.1,0.1,0.1l0,0c0,0,0.1,0,0.1-0.1c2.6-11.2-1-22.3-1.8-24.7c1.5,1.7,7.7,10,4.4,23.9
			c0,0,0,0.1,0.1,0.1c0,0,0.1,0,0.1-0.1c2-8.2,0.6-14.4-0.9-18.2c-1.1-2.6-2.3-4.5-3.1-5.4c1.1,0.9,3.1,2.9,4.8,5.6
			c2.2,3.7,4.4,9.4,1.6,16.5v0.1l0,0c0,0,0.1,0,0.1-0.1c2.8-7,0.7-12.9-1.6-16.6c-1.7-2.8-3.9-4.9-5-5.8c1.2,0.6,3.5,2.1,5.5,4.4
			c2.6,2.9,5.5,8,3.8,15.2c0,0,0,0.1,0.1,0.1c0,0,0.1,0,0.1-0.1c1.8-7.3-1.1-12.4-3.8-15.4C18.7,4,16.2,2.5,15.2,2
			c1,0.7,3.6,1.7,6,3.8c2.8,2.3,6,6.5,5.4,13.1c0,0,0,0.1,0.1,0.1l0,0c0,0,0.1,0,0.1-0.1c0.6-6.6-2.6-10.9-5.5-13.3
			c-2-1.7-4.2-2.7-5.4-3.3c1,0.2,2.8,0.8,4.7,1.9c2.6,1.6,6,4.9,6.8,11l0.1,0.1l0.1-0.1C26.8,9,23.3,5.7,20.7,4.1z"/>
	</g>
	<g>
		<g>
			<path class="st0" d="M22.8,33c0,0.2,0.8,0.5,2.2,0.5c1.3,0,2.2-0.3,2.2-0.5c0-0.1-0.3-0.3-0.8-0.4c-0.4,0-0.9-0.1-1.4-0.1
				s-0.9,0-1.3,0C23.1,32.7,22.8,32.9,22.8,33z"/>
			<path class="st0" d="M15.4,38.7c-0.1,0.3-0.2,0.6-0.3,0.9c0.1-0.2,0.2-0.3,0.4-0.5C15.4,39.1,15.4,38.8,15.4,38.7z"/>
			<path class="st0" d="M15.8,48.4c-0.5-0.8-0.8-1.7-1.1-2.6C14.8,46.7,15.2,47.6,15.8,48.4z"/>
			<path class="st0" d="M27.3,33c0,0.2-0.8,0.5-2.2,0.5c-1.3,0-2.2-0.3-2.2-0.5c0-0.1,0.3-0.3,0.8-0.4c-0.2,0-0.4,0-0.7,0.1
				c-0.2,0.1-0.3,0.2-0.3,0.3c0,0.4,1.2,0.7,2.3,0.7C26.1,33.7,27.3,33.5,27.3,33c0-0.1-0.1-0.2-0.3-0.3c-0.2,0-0.4,0-0.6-0.1
				C27,32.7,27.3,32.9,27.3,33z"/>
			<path class="st0" d="M27.5,32.7c-0.2,0-0.3-0.1-0.5-0.1h0.1C27.2,32.7,27.4,32.7,27.5,32.7z"/>
			<path class="st0" d="M26.5,32.6c-0.4-0.1-0.8-0.1-1.4-0.1c-0.5,0-1,0.1-1.4,0.1c0.4,0,0.9,0,1.3,0C25.6,32.6,26,32.6,26.5,32.6z"
				/>
			<path class="st0" d="M25,35.4c2.9,0,5.3-0.6,5.3-1.5c0,0,0,0,0-0.1c-0.1,0-0.1-0.1-0.2-0.1c0,0.1,0.1,0.1,0.1,0.2
				c0,0.6-2,1.3-5.2,1.3c-3,0-5.2-0.7-5.2-1.3l0,0c-0.1,0-0.1,0.1-0.1,0.1C19.8,34.8,22.1,35.4,25,35.4z"/>
			<path class="st0" d="M23.6,32.6c0.4-0.1,0.8-0.1,1.4-0.1s1,0.1,1.4,0.1c0.2,0,0.4,0,0.6,0.1H27c-0.6-0.1-1.2-0.2-1.8-0.2
				c-0.7,0-1.4,0.1-2.1,0.2l0,0C23.2,32.7,23.4,32.6,23.6,32.6z"/>
			<path class="st0" d="M17.9,35.3c0.1,1.1,3.1,1.9,7.1,1.9s7.1-0.9,7.1-2l0,0l-0.1-0.1l0,0l0,0c0,0,0,0-0.1-0.1c0,0.1,0,0.1,0,0.2
				c0,1-3.3,1.8-7,1.8s-7-0.8-7-1.8c0-0.1,0-0.1,0.1-0.2C18.1,35.1,18,35.1,17.9,35.3C18,35.2,18,35.2,17.9,35.3
				C18,35.3,18,35.3,17.9,35.3z"/>
			<path class="st0" d="M16.6,36.8L16.6,36.8c0,1.8,3.9,3.3,8.6,3.3c4.6,0,8.3-1.3,8.6-2.9c0-0.1-0.1-0.1-0.1-0.2
				c0,1.6-3.9,2.9-8.5,2.9s-8.5-1.3-8.5-2.9c0-0.1,0-0.2,0.1-0.3C16.7,36.6,16.6,36.6,16.6,36.8C16.6,36.7,16.6,36.7,16.6,36.8
				C16.6,36.7,16.6,36.8,16.6,36.8z"/>
			<path class="st0" d="M17.9,35.3C18,35.3,18,35.3,17.9,35.3C18,35.2,18,35.2,17.9,35.3C18,35.2,18,35.2,17.9,35.3
				C17.9,35.2,17.9,35.2,17.9,35.3L17.9,35.3z"/>
			<path class="st0" d="M15.6,39.1c0-0.1,0-0.2,0-0.4c0-0.1,0-0.1,0-0.2c-0.1,0.1-0.1,0.2-0.2,0.3c0,0.1,0,0.3,0.1,0.4
				C15.5,39.2,15.6,39.1,15.6,39.1z"/>
			<path class="st0" d="M34.7,39L34.7,39c0.1,0,0.1,0,0.1,0v-0.1c0-0.1-0.1-0.2-0.1-0.3l0,0C34.8,38.7,34.7,38.8,34.7,39z"/>
			<path class="st0" d="M16.6,36.7C16.6,36.8,16.5,36.8,16.6,36.7C16.6,36.8,16.6,36.8,16.6,36.7C16.6,36.8,16.6,36.7,16.6,36.7z"/>
			<path class="st0" d="M25.1,42.9c5,0,9-1.6,9.7-3.8l-0.1-0.1c-0.5,2.1-4.6,3.8-9.5,3.8c-4.9,0-8.9-1.6-9.5-3.7l-0.1,0.1
				C16.2,41.4,20.3,42.9,25.1,42.9z"/>
			<path class="st0" d="M15.6,39.1l-0.1,0.1c0,0,0,0.1,0.1,0.1l0.1-0.1C15.6,39.2,15.6,39.1,15.6,39.1z"/>
			<path class="st0" d="M34.9,39.1C34.8,39,34.8,39,34.9,39.1c-0.1-0.1-0.1-0.1-0.1,0v0.1l0.1,0.1C34.8,39.2,34.8,39.1,34.9,39.1z"
				/>
			<path class="st0" d="M25.1,48.4c5,0,9.2-1.6,10.5-3.9l0,0c0-0.1,0-0.2,0-0.2c-1,2.2-5.3,4-10.4,4c-4.9,0-9-1.6-10.3-3.8
				c0,0.1,0,0.1,0,0.2C16.2,46.9,20.3,48.4,25.1,48.4z"/>
			<path class="st0" d="M25,45.8c5.2,0,9.4-1.6,10.8-3.9l0,0c0-0.1,0-0.2,0-0.2c-1,2.2-5.5,4-10.7,4c-5.1,0-9.3-1.6-10.6-3.8
				c0,0.1,0,0.1-0.1,0.2C15.9,44.2,20.1,45.8,25,45.8z"/>
			<path class="st0" d="M14.7,44c-0.1-0.2-0.1-0.3-0.1-0.5c0,0.2,0,0.4,0,0.6C14.6,44.1,14.6,44,14.7,44C14.6,44,14.7,44,14.7,44z"
				/>
			<path class="st0" d="M25.1,50.4c-5.4,0-9.9-2.3-10.4-5.3v0.1c0.1,0.4,0.2,0.8,0.4,1.2c1.4,2.3,5.4,4.1,10.1,4.1
				c4.5,0,8.3-1.6,9.9-3.9c0.1-0.3,0.2-0.5,0.3-0.8C34.2,48.5,30,50.4,25.1,50.4z"/>
			<path class="st0" d="M14.6,44.3c0,0.1,0,0.1,0,0.2v-0.1C14.7,44.4,14.7,44.4,14.6,44.3z"/>
			<path class="st0" d="M35.6,44.2c0,0.1,0,0.2,0,0.2c0-0.2,0.1-0.3,0.1-0.5l0,0C35.6,44.1,35.6,44.2,35.6,44.2z"/>
			<path class="st0" d="M14.7,44.4c0-0.1,0-0.1,0.1-0.2c0-0.1,0-0.1-0.1-0.2c0,0,0,0-0.1-0.1c0,0.1,0,0.1,0,0.2s0,0.1,0,0.2
				C14.7,44.4,14.7,44.4,14.7,44.4z"/>
			<path class="st0" d="M16.4,49c0.1,0.2,0.3,0.4,0.4,0.6c1.9,1.6,5,2.6,8.3,2.6c3.3,0,6.2-0.9,8.1-2.4c0.1-0.2,0.3-0.3,0.4-0.5
				c-1.9,1.7-5,2.8-8.5,2.8C21.5,52,18.2,50.8,16.4,49z"/>
			<path class="st0" d="M14.8,44.3L14.8,44.3c-0.1,0-0.1,0.1-0.1,0.2l0,0C14.8,44.5,14.8,44.4,14.8,44.3z"/>
			<path class="st0" d="M14.8,44.2C14.8,44.2,14.7,44.2,14.8,44.2c0,0.1,0,0.1-0.1,0.2c0,0,0,0,0,0.1C14.7,44.4,14.7,44.3,14.8,44.2
				z"/>
			<path class="st0" d="M19.1,51.7c0.3,0.2,0.6,0.4,0.9,0.6c1.5,0.6,3.3,0.9,5.2,0.9c1.7,0,3.5-0.3,4.9-0.8c0.3-0.2,0.6-0.3,0.9-0.5
				c-1.6,0.8-3.7,1.2-5.8,1.2C22.9,53.1,20.8,52.6,19.1,51.7z"/>
			<path class="st0" d="M14.8,44.6C14.8,44.7,14.8,44.7,14.8,44.6c0.1,0,0.1-0.1,0.1-0.1s0,0,0-0.1C14.8,44.5,14.8,44.6,14.8,44.6z"
				/>
			<path class="st0" d="M14.8,44.6c0-0.1,0-0.1,0-0.2c0,0,0-0.1-0.1-0.1c0,0.1,0,0.1-0.1,0.2C14.8,44.6,14.8,44.6,14.8,44.6z"/>
			<path class="st0" d="M14.7,44.6v0.1c0,0.1,0,0.2,0.1,0.4c0-0.1,0-0.1,0-0.2"/>
			<path class="st0" d="M17.7,35.4c-0.5,0.3-0.8,0.7-0.9,1C17.1,36.1,17.4,35.8,17.7,35.4z"/>
			<path class="st0" d="M18,35.2c0-0.1,0-0.1,0.1-0.2c-0.2,0.1-0.3,0.3-0.5,0.5C17.7,35.3,17.8,35.2,18,35.2
				C17.9,35.1,18,35.1,18,35.2z"/>
			<path class="st0" d="M15.1,46.5c-0.2-0.3-0.3-0.6-0.4-0.9l0,0v0.1c0.2,0.9,0.6,1.8,1.1,2.6c0.2,0.2,0.3,0.4,0.5,0.6
				C15.8,48.2,15.4,47.4,15.1,46.5z"/>
			<path class="st0" d="M18.2,35c0.5-0.4,1-0.8,1.5-1.1c0,0,0,0,0-0.1v-0.1c-0.4,0.2-0.8,0.5-1.2,0.8h0.1
				C18.4,34.7,18.2,34.9,18.2,35z"/>
			<path class="st0" d="M35.3,46c0.2-0.4,0.3-0.9,0.3-1.4l0,0l0,0C35.5,45,35.4,45.5,35.3,46z"/>
			<path class="st0" d="M27.5,32.7c0.9,0.2,1.8,0.5,2.6,1C29.9,33.3,28.9,32.9,27.5,32.7z"/>
			<path class="st0" d="M14.6,44.5c0-0.1,0-0.2,0-0.3c-0.1-0.2-0.1-0.4-0.2-0.5c0,0.5,0.1,0.9,0.2,1.3v-0.1
				C14.6,44.8,14.6,44.7,14.6,44.5z"/>
			<path class="st0" d="M35.6,41c-0.1-0.3-0.1-0.6-0.2-0.9c-0.1-0.2-0.2-0.3-0.3-0.5c0.2,0.6,0.4,1.3,0.5,1.9
				C35.6,41.3,35.6,41.2,35.6,41z"/>
			<path class="st0" d="M14.7,41.3c0-0.1,0-0.2,0-0.3c0-0.2,0-0.3,0.1-0.5c-0.2,0.8-0.3,1.6-0.3,2.5l0,0c0-0.2,0.1-0.5,0.2-0.7
				C14.6,42,14.6,41.6,14.7,41.3z"/>
			<path class="st0" d="M16.6,36.7c0-0.1,0-0.2,0.1-0.3c-0.1,0.1-0.1,0.2-0.2,0.3l0.1-0.1C16.5,36.6,16.6,36.7,16.6,36.7z"/>
			<path class="st0" d="M21.6,32.9c-0.6,0.2-1.1,0.4-1.6,0.7c-0.1,0.1-0.1,0.2-0.1,0.2c0.9-0.5,2-0.9,3.1-1.2
				C22.5,32.7,22,32.8,21.6,32.9z"/>
			<path class="st0" d="M15.4,38.7v-0.1c0-0.1,0-0.2,0-0.2c-0.3,0.6-0.5,1.3-0.7,2c0.1-0.3,0.2-0.5,0.4-0.8
				C15.2,39.4,15.3,39.1,15.4,38.7z"/>
			<path class="st0" d="M15.6,38.4c0.3-0.6,0.6-1.1,1-1.6C16,37.3,15.7,37.8,15.6,38.4z"/>
			<path class="st0" d="M25.1,53.6c-1.8,0-3.6-0.5-5.1-1.3c-0.3-0.1-0.7-0.3-1-0.4c1.7,1.2,3.9,1.9,6.1,1.9c2.1,0,4.2-0.6,5.9-1.7
				c-0.3,0.1-0.6,0.3-0.9,0.4C28.6,53.2,26.9,53.6,25.1,53.6z"/>
			<path class="st0" d="M35.7,42.5l0.1-0.1c0,0.1,0,0.1,0,0.2c0-0.4,0-0.7-0.1-1.1c0,0.1-0.1,0.2-0.1,0.3
				C35.6,42,35.7,42.3,35.7,42.5z"/>
			<path class="st0" d="M16.8,49.5c-0.2-0.2-0.4-0.3-0.5-0.5c0.5,0.8,1.2,1.5,1.9,2.1c0.3,0.2,0.6,0.3,0.9,0.5
				C18.2,51.1,17.4,50.3,16.8,49.5z"/>
			<path class="st0" d="M35.7,44.5c0-0.2,0.1-0.3,0.1-0.5c0,0.1,0,0.2-0.1,0.3C35.7,44.3,35.7,44.4,35.7,44.5z"/>
			<path class="st0" d="M34.9,38.8c0,0.1,0.1,0.2,0.1,0.3c0.1,0.1,0.2,0.2,0.3,0.3c-0.1-0.3-0.2-0.6-0.3-0.8l0,0
				C34.9,38.7,34.9,38.8,34.9,38.8z"/>
			<path class="st0" d="M33.7,36.8L33.7,36.8c0-0.1,0-0.2,0-0.3c-0.3-0.4-0.6-0.7-0.9-1.1c-0.1-0.1-0.3-0.2-0.5-0.3c0,0,0,0,0,0.1
				C32.8,35.7,33.3,36.2,33.7,36.8z"/>
			<path class="st0" d="M33.7,49.2c0.2-0.2,0.4-0.3,0.5-0.5c0.5-0.8,0.9-1.7,1.2-2.6c-0.1,0.2-0.2,0.5-0.4,0.7
				C34.7,47.6,34.3,48.4,33.7,49.2z"/>
			<path class="st0" d="M33.9,37c0.3,0.5,0.6,1,0.9,1.6c0-0.2,0-0.3-0.1-0.5c-0.2-0.3-0.4-0.7-0.6-1c-0.1-0.1-0.2-0.2-0.3-0.3
				C33.9,36.9,33.9,37,33.9,37z"/>
			<path class="st0" d="M33.8,49.3c-0.2,0.1-0.3,0.3-0.5,0.4c-0.7,0.8-1.4,1.5-2.3,2.1c0.3-0.1,0.6-0.3,0.8-0.4
				C32.6,50.8,33.3,50.1,33.8,49.3z"/>
			<path class="st0" d="M35.6,44c0.1-0.2,0.1-0.5,0.1-0.7s0-0.4-0.1-0.6c0,0.1,0,0.2,0,0.3C35.7,43.3,35.7,43.6,35.6,44z"/>
			<path class="st0" d="M32.1,35.1c-0.1-0.1-0.2-0.3-0.4-0.4h0.1c-0.5-0.4-1-0.7-1.5-1c0.1,0.1,0.1,0.1,0.1,0.2
				C30.9,34.2,31.5,34.6,32.1,35.1z"/>
			<path class="st0" d="M19.7,33.9l0.1-0.1c0-0.1,0.1-0.2,0.1-0.2c-0.1,0.1-0.2,0.1-0.3,0.2C19.7,33.8,19.7,33.9,19.7,33.9
				L19.7,33.9z"/>
			<path class="st0" d="M27,32.6c0.2,0,0.3,0.1,0.5,0.1c1.4,0.2,2.4,0.6,2.6,1c0.1,0,0.1,0.1,0.2,0.1c0-0.1,0-0.2-0.1-0.2
				c-0.8-0.5-1.8-0.8-2.7-1c-0.3,0-0.7-0.1-1-0.1C26.7,32.4,26.9,32.6,27,32.6z"/>
			<path class="st0" d="M22.9,32.7C23,32.7,23,32.7,22.9,32.7c0.2-0.1,0.4-0.2,0.7-0.2c-0.2,0-0.5,0-0.7,0.1
				c-0.5,0.1-0.9,0.2-1.3,0.4C22,32.8,22.5,32.7,22.9,32.7z"/>
			<path class="st0" d="M27,32.6c-0.1-0.1-0.3-0.1-0.5-0.2c-0.4,0-0.9-0.1-1.4-0.1s-0.9,0-1.3,0c-0.2,0.1-0.5,0.1-0.6,0.2
				c0.7-0.1,1.4-0.2,2.1-0.2C25.8,32.4,26.4,32.4,27,32.6z"/>
			<path class="st0" d="M32.3,35.2L32.3,35.2c0-0.1-0.1-0.1-0.1-0.1C32.2,35.2,32.3,35.2,32.3,35.2z"/>
			<path class="st0" d="M18,35.2c0.1-0.1,0.1-0.1,0.2-0.2s0.2-0.3,0.4-0.4c0,0,0,0-0.1,0c-0.2,0.1-0.3,0.2-0.5,0.4
				C18,35,18,35.1,18,35.2L18,35.2z"/>
			<path class="st0" d="M32.1,35.1C32.2,35.1,32.2,35.1,32.1,35.1c0.1,0,0.1,0,0.1-0.1l0,0l0,0c-0.1-0.1-0.3-0.2-0.4-0.3h-0.1
				C32,34.8,32.1,34.9,32.1,35.1z"/>
			<path class="st0" d="M33.7,36.8c0,0.1,0.1,0.1,0.1,0.2v-0.1C33.8,36.9,33.8,36.8,33.7,36.8c0.1-0.1,0.1-0.1,0.1-0.1
				c0-0.1-0.1-0.1-0.1-0.2C33.7,36.6,33.7,36.7,33.7,36.8L33.7,36.8z"/>
			<path class="st0" d="M16.6,36.7c0.1-0.1,0.1-0.2,0.2-0.3c0.1-0.4,0.4-0.7,0.9-1c0.1-0.1,0.2-0.2,0.3-0.2c0,0,0,0,0-0.1l0,0
				c-0.1,0.1-0.3,0.2-0.4,0.3c-0.3,0.3-0.6,0.7-0.9,1C16.6,36.5,16.6,36.6,16.6,36.7L16.6,36.7z"/>
			<path class="st0" d="M32.3,35.2c0.2,0.1,0.3,0.2,0.5,0.3c-0.1-0.1-0.3-0.3-0.4-0.4c0,0,0,0-0.1,0C32.3,35.1,32.3,35.1,32.3,35.2z
				"/>
			<path class="st0" d="M32.3,35.2c0-0.1,0-0.1,0-0.2l0,0c0,0,0,0.1-0.1,0.1l0,0L32.3,35.2z"/>
			<path class="st0" d="M33.9,36.9c0.1,0.1,0.2,0.2,0.3,0.3C34.1,37.1,34,37,34,36.8C33.9,36.8,33.9,36.8,33.9,36.9
				C33.9,36.8,33.9,36.9,33.9,36.9z"/>
			<path class="st0" d="M34.8,38.6c0,0.1,0.1,0.2,0.1,0.3c0-0.1,0-0.2,0-0.2l0,0c-0.1-0.1-0.1-0.3-0.2-0.4
				C34.7,38.3,34.8,38.4,34.8,38.6z"/>
			<path class="st0" d="M15.4,38.7c0.1-0.1,0.1-0.2,0.2-0.3c0.1-0.6,0.4-1.1,1-1.6l0,0l0,0v-0.1l-0.1,0.1c-0.4,0.5-0.7,1.1-1,1.6
				c0,0.1,0,0.2,0,0.2C15.4,38.6,15.4,38.7,15.4,38.7z"/>
			<path class="st0" d="M33.9,36.9C33.9,36.9,33.9,36.8,33.9,36.9c0-0.1,0-0.1,0-0.1s0,0,0-0.1C33.8,36.7,33.8,36.8,33.9,36.9
				C33.8,36.8,33.8,36.9,33.9,36.9z"/>
			<path class="st0" d="M35.1,39.5c0.1,0.2,0.2,0.3,0.3,0.5c-0.1-0.2-0.1-0.4-0.2-0.6c-0.1-0.1-0.2-0.2-0.3-0.3
				C35,39.3,35.1,39.4,35.1,39.5z"/>
			<path class="st0" d="M35.6,41.5c0,0.1,0,0.2,0,0.3c0-0.1,0.1-0.2,0.1-0.3c0-0.2,0-0.3-0.1-0.5C35.6,41.2,35.6,41.3,35.6,41.5z"/>
			<path class="st0" d="M14.7,41.3c0.1-0.6,0.2-1.1,0.4-1.6c-0.2,0.2-0.3,0.5-0.4,0.8l0,0c0,0.2-0.1,0.3-0.1,0.5
				C14.6,41.1,14.7,41.2,14.7,41.3z"/>
			<path class="st0" d="M14.6,44.2c0-0.2,0-0.4,0-0.6c0-0.1,0-0.2,0-0.3v-0.1c0-0.1,0-0.1,0-0.2c0-0.2,0-0.4,0-0.7
				c-0.1,0.2-0.2,0.5-0.2,0.7s0,0.5,0,0.7C14.4,43.9,14.5,44.1,14.6,44.2L14.6,44.2z"/>
			<path class="st0" d="M35.7,42.5v0.1c0.1,0.2,0.1,0.4,0.1,0.6s-0.1,0.5-0.1,0.7l0,0l0,0c0,0.1,0,0.2,0,0.3c0-0.1,0.1-0.2,0.1-0.3
				c0-0.3,0.1-0.7,0.1-1c0-0.1,0-0.3,0-0.4c0-0.1,0-0.1,0-0.2C35.7,42.5,35.7,42.5,35.7,42.5z"/>
			<path class="st0" d="M15.1,46.5c-0.1-0.4-0.3-0.8-0.4-1.2c0,0.1,0,0.3,0,0.4C14.8,45.9,15,46.2,15.1,46.5z"/>
			<path class="st0" d="M14.6,44.3L14.6,44.3c0,0-0.1,0.1-0.1,0.2s0,0.3,0,0.4c0-0.1,0-0.3,0.1-0.4C14.7,44.5,14.6,44.4,14.6,44.3z"
				/>
			<path class="st0" d="M35.6,44.5L35.6,44.5c0,0.5-0.1,0.9-0.3,1.4c-0.1,0.3-0.2,0.5-0.3,0.8c0.2-0.2,0.3-0.5,0.4-0.7
				c0.1-0.5,0.2-1,0.3-1.5c0-0.1,0-0.1,0-0.2C35.7,44.4,35.6,44.4,35.6,44.5z"/>
			<path class="st0" d="M35.6,44.5c0-0.1,0.1-0.2,0.1-0.2c0-0.1,0-0.2,0-0.3l0,0C35.6,44.2,35.6,44.3,35.6,44.5L35.6,44.5z"/>
			<path class="st0" d="M33.8,49.3c0.1-0.2,0.3-0.4,0.4-0.6c-0.2,0.2-0.3,0.4-0.5,0.5c-0.1,0.2-0.2,0.3-0.4,0.5
				C33.5,49.6,33.7,49.4,33.8,49.3z"/>
			<path class="st0" d="M15.8,48.4c0.1,0.2,0.3,0.5,0.4,0.7c0.2,0.2,0.3,0.3,0.5,0.5c-0.1-0.2-0.3-0.4-0.4-0.6S16,48.6,15.8,48.4z"
				/>
			<path class="st0" d="M14.7,44.5c0,0.1,0,0.3-0.1,0.4c0,0.1,0,0.1,0,0.2c0-0.1,0-0.3,0.1-0.4C14.7,44.7,14.7,44.6,14.7,44.5z"/>
			<path class="st0" d="M19.1,51.7c-0.3-0.2-0.6-0.3-0.9-0.5c0.3,0.2,0.5,0.4,0.8,0.6c0.3,0.2,0.6,0.3,1,0.4
				C19.7,52.1,19.4,52,19.1,51.7z"/>
			<path class="st0" d="M30.9,51.9c-0.3,0.2-0.6,0.4-0.9,0.5c0.3-0.1,0.6-0.2,0.9-0.4c0.3-0.2,0.5-0.4,0.8-0.6
				C31.5,51.5,31.2,51.7,30.9,51.9z"/>
			<path class="st0" d="M14.8,45.2C14.8,45.1,14.8,45.1,14.8,45.2c0,0,0,0.1,0,0.2s0,0.1,0,0.2l0,0C14.7,45.5,14.8,45.4,14.8,45.2z"
				/>
			<path class="st0" d="M14.7,45.6c0-0.1-0.1-0.3-0.1-0.4c0,0,0,0,0,0.1C14.7,45.4,14.7,45.6,14.7,45.6
				C14.7,45.7,14.7,45.7,14.7,45.6L14.7,45.6z"/>
			<path class="st0" d="M14.7,45.5c0-0.1,0-0.2,0-0.3c0-0.1,0-0.2-0.1-0.4c0,0.1,0,0.3-0.1,0.4c0,0.1,0.1,0.3,0.1,0.4
				C14.7,45.6,14.7,45.5,14.7,45.5z"/>
		</g>
		<path class="st0" d="M30,34.4c-1.2-0.7-2.3-1.1-3.1-1.4c2,0.4,5.8,1.7,8,6.2l0.1-0.1c-2.9-5.9-8.6-6.4-9.5-6.4c-0.1,0-0.2,0-0.2,0
			c-0.1,0-0.4,0-0.4,0l0,0l0,0c0,0-2.5,0.3-5.1,1.8c-2.3,1.4-5.1,4.3-5.4,9.8c0,0,0,0.1,0.1,0.1c0,0,0.1,0,0.1-0.1
			c0.2-5.4,2.9-8.2,5.3-9.7c1.3-0.8,2.6-1.3,3.7-1.5c-1,0.4-2.5,1.1-4,2.3c-2.3,1.9-5,5.5-4.5,11.7c0,0,0,0.1,0.1,0.1l0,0
			c0,0,0.1,0,0.1-0.1c-0.5-6.1,2.1-9.7,4.4-11.5c1.8-1.5,3.8-2.2,4.7-2.5c-3.4,2-7.4,5.4-8.2,10.7c-0.5,3.4,0.5,5.9,0.5,5.9
			s0,0,0.1,0l0,0c0,0,0.1-0.1,0-0.1c0,0-1-2.5-0.5-5.8c0.8-5.1,4.6-8.4,7.9-10.5c-0.9,0.7-2.5,2.2-4,4.5c-1.9,2.9-3.8,7.7-1.7,13.8
			c0,0,0,0.1,0.1,0.1l0,0c0,0,0.1-0.1,0-0.1c-1.9-6.1-0.1-10.8,1.7-13.7c1.5-2.3,3.3-4,4.1-4.6c-0.6,0.8-2.2,2.9-3.6,5.9
			c-1.4,3.5-2.6,8.6-0.1,13.8c0,0,0,0,0.1,0l0,0c0,0,0.1-0.1,0-0.1c-2.5-5.1-1.3-10.3,0.1-13.6c1.4-3.5,3.5-5.8,3.8-6.2
			c-0.7,1.6-4.3,10.8-1.9,20.5l0.1,0.1l0.1-0.1C20.6,44,24,35.1,24.7,33.3v20.5c0,0,0,0.1,0.1,0.1c0.1,0,0.1,0,0.1-0.1V33
			c0.4,1,4,10.9,1.6,20.7c0,0,0,0.1,0.1,0.1l0,0c0,0,0.1,0,0.1-0.1c2.2-9.2-0.8-18.6-1.5-20.5c1.2,1.4,6.5,8.3,3.7,19.9
			c0,0,0,0.1,0.1,0.1c0,0,0.1,0,0.1-0.1c1.6-6.8,0.5-12-0.8-15.1c-0.9-2.2-1.9-3.7-2.6-4.5c0.9,0.8,2.6,2.4,4,4.7
			c1.9,3,3.7,7.9,1.3,13.7V52l0,0H31c2.3-5.9,0.6-10.8-1.3-13.8c-1.5-2.3-3.3-4.1-4.2-4.9c1,0.5,2.8,1.7,4.6,3.7
			c2.2,2.4,4.6,6.7,3.1,12.7c0,0,0,0.1,0.1,0.1c0,0,0.1,0,0.1-0.1c1.5-6.1-0.9-10.4-3.1-12.9c-1.9-2.1-4.1-3.4-4.9-3.9
			c0.8,0.3,2.8,1.1,4.9,2.8c2.3,1.9,5,5.5,4.5,11c0,0,0,0.1,0.1,0.1l0,0c0,0,0.1,0,0.1-0.1c0.5-5.5-2.2-9-4.6-11.1
			c-1.7-1.4-3.5-2.3-4.5-2.7c0.9,0.2,2.3,0.6,3.9,1.6c2.2,1.3,5,4.1,5.7,9.1c0,0,0,0.1,0.1,0.1c0,0,0.1,0,0.1-0.1
			C35.2,38.4,32.4,35.7,30,34.4z"/>
	</g>
	<g>
		<g>
			<path class="st0" d="M49.2,38.7c0,0.2,0.6,0.5,1.6,0.6s1.7-0.1,1.7-0.2S52.4,39,52,38.7c-0.3-0.1-0.7-0.1-1.1-0.2
				c-0.4,0-0.7-0.1-1-0.1C49.5,38.5,49.3,38.6,49.2,38.7z"/>
			<path class="st0" d="M43.1,42.5c-0.1,0.2-0.2,0.4-0.3,0.6c0.1-0.1,0.2-0.2,0.3-0.3C43.1,42.7,43.1,42.6,43.1,42.5z"/>
			<path class="st0" d="M42.6,49.9c-0.3-0.7-0.5-1.4-0.6-2.1C41.9,48.5,42.1,49.2,42.6,49.9z"/>
			<path class="st0" d="M52.7,39.2c0,0.2-0.7,0.3-1.7,0.2s-1.6-0.4-1.6-0.6c0-0.1,0.3-0.2,0.7-0.2c-0.2,0-0.3,0-0.5,0
				c-0.1,0.1-0.3,0.1-0.3,0.2c0,0.3,0.9,0.6,1.7,0.7c0.9,0.1,1.8,0,1.8-0.3c0-0.1-0.1-0.2-0.2-0.3c-0.2,0-0.3-0.1-0.5-0.1
				C52.5,38.8,52.7,39.1,52.7,39.2z"/>
			<path class="st0" d="M52.9,39c-0.1,0-0.2-0.1-0.4-0.1c0,0,0,0,0.1,0C52.7,38.8,52.8,38.8,52.9,39z"/>
			<path class="st0" d="M52.1,38.7c-0.3-0.1-0.6-0.2-1-0.2s-0.8,0-1,0c0.3,0,0.7,0,1,0.1C51.4,38.6,51.8,38.6,52.1,38.7z"/>
			<path class="st0" d="M50.7,40.8c2.3,0.3,4.2,0,4.2-0.7c0,0,0,0,0-0.1l-0.1-0.1c0,0.1,0,0.1,0,0.2c-0.1,0.5-1.7,0.8-4.1,0.6
				c-2.3-0.3-3.9-1-3.9-1.5l0,0c0,0-0.1,0-0.1,0.1C46.8,39.9,48.5,40.5,50.7,40.8z"/>
			<path class="st0" d="M49.9,38.5c0.3,0,0.6,0,1,0s0.8,0.1,1,0.2c0.2,0,0.3,0.1,0.5,0.1c0,0,0,0-0.1,0c-0.5-0.1-0.9-0.2-1.4-0.3
				c-0.5-0.1-1.1-0.1-1.6,0l0,0C49.6,38.4,49.7,38.4,49.9,38.5z"/>
			<path class="st0" d="M45.4,40.1c0,0.8,2.2,1.7,5.3,2.1c3,0.3,5.6-0.1,5.7-0.9l0,0l-0.1-0.1l0,0l0,0l0,0v0.1
				c-0.1,0.8-2.6,1.1-5.5,0.8c-2.9-0.3-5.3-1.2-5.2-2c0-0.1,0-0.1,0.1-0.2C45.5,40,45.5,40,45.4,40.1L45.4,40.1L45.4,40.1z"/>
			<path class="st0" d="M44.1,41.1L44.1,41.1c-0.2,1.4,2.6,2.7,6.3,3.1c3.6,0.4,6.5-0.3,6.9-1.5l-0.1-0.1c-0.2,1.2-3.1,1.9-6.8,1.5
				C46.9,43.7,44,42.4,44.1,41.1c0-0.1,0-0.2,0.1-0.3C44.2,41,44.2,41,44.1,41.1L44.1,41.1L44.1,41.1z"/>
			<path class="st0" d="M43.2,42.7c0-0.1,0-0.2,0-0.3c0-0.1,0-0.1,0-0.2c-0.1,0.1-0.1,0.2-0.2,0.2c0,0.1,0,0.2,0,0.3
				C43.1,42.8,43.1,42.8,43.2,42.7z"/>
			<path class="st0" d="M57.9,44.3L57.9,44.3c0.1,0,0.1,0,0.1,0v-0.1c0-0.1,0-0.1-0.1-0.2l0,0C57.9,44.1,57.9,44.2,57.9,44.3z"/>
			<path class="st0" d="M50.1,46.6c3.8,0.4,7.1-0.5,7.7-2c0,0,0-0.1-0.1-0.1c-0.6,1.5-3.9,2.4-7.6,2c-3.8-0.4-6.7-1.9-7-3.6L43,43
				C43.5,44.6,46.5,46.2,50.1,46.6z"/>
			<path class="st0" d="M43.2,42.7l-0.1,0.1v0.1l0.1-0.1C43.2,42.8,43.2,42.8,43.2,42.7z"/>
			<path class="st0" d="M58,44.4C58,44.3,57.9,44.3,58,44.4c-0.1-0.1-0.1-0.1-0.1,0c0,0,0,0,0,0.1c0,0,0,0.1,0.1,0.1
				C58,44.4,58,44.4,58,44.4z"/>
			<path class="st0" d="M49.7,50.7c3.9,0.4,7.2-0.5,8.3-2l0,0c0-0.1,0-0.1,0-0.2c-0.9,1.6-4.4,2.5-8.3,2.1c-3.8-0.4-6.8-2-7.5-3.8
				c0,0.1,0,0.1-0.1,0.2C42.9,48.8,46,50.3,49.7,50.7z"/>
			<path class="st0" d="M49.9,48.7c4,0.4,7.4-0.4,8.5-2l0,0c0-0.1,0-0.1,0-0.2c-1,1.6-4.5,2.5-8.5,2.1c-3.9-0.4-7-2-7.7-3.8
				c0,0.1,0,0.1-0.1,0.2C42.9,46.8,46.1,48.3,49.9,48.7z"/>
			<path class="st0" d="M49.5,52.3c-4.2-0.5-7.4-2.6-7.5-5c0,0,0,0,0,0.1c0,0.3,0.1,0.7,0.2,1c0.9,1.9,3.8,3.6,7.3,4
				c3.5,0.4,6.5-0.5,7.9-2.1c0.1-0.2,0.2-0.4,0.3-0.6C56.6,51.6,53.3,52.7,49.5,52.3z"/>
			<path class="st0" d="M58.1,48.5c0,0.1,0,0.1,0,0.2c0-0.1,0.1-0.2,0.1-0.4l0,0C58.1,48.4,58.1,48.4,58.1,48.5z"/>
			<path class="st0" d="M42,46.9c0-0.1,0-0.1,0.1-0.2c0-0.1,0-0.1,0-0.2c0,0,0,0,0-0.1v0.1C42,46.7,42,46.7,42,46.9
				C42,46.8,42,46.8,42,46.9z"/>
			<path class="st0" d="M42.9,50.4c0.1,0.2,0.2,0.3,0.3,0.5c1.3,1.4,3.6,2.4,6.2,2.7c2.5,0.3,4.9-0.2,6.5-1.1
				c0.1-0.1,0.2-0.2,0.3-0.4c-1.6,1.1-4.1,1.7-6.8,1.4C46.6,53.2,44.2,52,42.9,50.4z"/>
			<path class="st0" d="M42.1,46.8C42.1,46.8,42.1,46.7,42.1,46.8L42,46.9l0,0C42.1,46.9,42.1,46.8,42.1,46.8z"/>
			<path class="st0" d="M42.1,46.7L42.1,46.7c0,0,0,0.1-0.1,0.1c0,0,0,0,0,0.1C42.1,46.8,42.1,46.8,42.1,46.7z"/>
			<path class="st0" d="M44.8,52.8c0.2,0.2,0.4,0.4,0.6,0.5c1.1,0.6,2.4,1,3.9,1.1c1.3,0.1,2.6,0.1,3.9-0.2c0.2-0.1,0.5-0.2,0.7-0.3
				c-1.3,0.4-2.9,0.6-4.6,0.4C47.6,54.1,46,53.6,44.8,52.8z"/>
			<path class="st0" d="M42.1,47C42.1,47.1,42.1,47.1,42.1,47l0.1-0.1c0,0,0,0,0-0.1C42.1,46.9,42.1,47,42.1,47z"/>
			<path class="st0" d="M42.1,47c0-0.1,0-0.1,0.1-0.2v-0.1C42.1,46.8,42.1,46.9,42.1,47L42.1,47z"/>
			<path class="st0" d="M45.2,40.2c-0.4,0.2-0.7,0.4-0.8,0.7C44.6,40.7,44.9,40.4,45.2,40.2z"/>
			<path class="st0" d="M45.4,40c0-0.1,0-0.1,0.1-0.2c-0.1,0.1-0.3,0.2-0.4,0.3C45.2,40.1,45.3,40,45.4,40L45.4,40z"/>
			<path class="st0" d="M42.2,48.4c-0.1-0.2-0.2-0.5-0.2-0.7l0,0v0.1c0.1,0.7,0.3,1.4,0.6,2.1c0.1,0.2,0.2,0.3,0.4,0.5
				C42.6,49.8,42.3,49.1,42.2,48.4z"/>
			<path class="st0" d="M45.6,39.9c0.4-0.3,0.8-0.5,1.2-0.7l0,0v-0.1c-0.3,0.1-0.6,0.3-1,0.5c0,0,0,0,0.1,0
				C45.8,39.7,45.6,39.8,45.6,39.9z"/>
			<path class="st0" d="M57.7,49.7c0.2-0.3,0.3-0.7,0.3-1l0,0l0,0C58,49,57.9,49.4,57.7,49.7z"/>
			<path class="st0" d="M52.9,39c0.7,0.2,1.3,0.6,1.9,1C54.6,39.6,53.9,39.2,52.9,39z"/>
			<path class="st0" d="M41.9,46.9c0-0.1,0-0.1,0-0.2c0-0.1-0.1-0.3-0.1-0.4c0,0.4,0,0.7,0,1v-0.1C41.9,47.1,41.9,47,41.9,46.9z"/>
			<path class="st0" d="M58.4,46c0-0.2-0.1-0.5-0.1-0.7c-0.1-0.1-0.1-0.3-0.2-0.4c0.1,0.5,0.2,1,0.2,1.5
				C58.4,46.2,58.4,46.1,58.4,46z"/>
			<path class="st0" d="M42.3,44.4c0-0.1,0-0.2,0-0.3c0-0.1,0-0.3,0.1-0.4c-0.2,0.6-0.4,1.2-0.5,1.9l0,0c0-0.2,0.1-0.4,0.2-0.5
				C42.2,44.9,42.2,44.6,42.3,44.4z"/>
			<path class="st0" d="M44.1,41.1c0-0.1,0-0.2,0.1-0.2C44.1,41,44.1,41,44,41.1C44,41,44.1,41,44.1,41.1
				C44.1,41,44.1,41.1,44.1,41.1z"/>
			<path class="st0" d="M48.3,38.5c-0.4,0.1-0.9,0.2-1.3,0.4c-0.1,0.1-0.1,0.1-0.1,0.2c0.8-0.3,1.6-0.6,2.4-0.6
				C49,38.4,48.6,38.5,48.3,38.5z"/>
			<path class="st0" d="M43.1,42.5v-0.1c0-0.1,0-0.1,0-0.2c-0.3,0.5-0.5,0.9-0.7,1.5c0.1-0.2,0.2-0.4,0.3-0.5
				C42.8,42.9,42.9,42.7,43.1,42.5z"/>
			<path class="st0" d="M43.2,42.3c0.3-0.4,0.5-0.8,0.9-1.1C43.6,41.5,43.3,41.8,43.2,42.3z"/>
			<path class="st0" d="M49.2,54.7c-1.4-0.2-2.7-0.7-3.8-1.4c-0.2-0.1-0.5-0.3-0.7-0.4c1.2,1.1,2.7,1.8,4.5,2
				c1.6,0.2,3.3-0.1,4.7-0.8c-0.2,0.1-0.5,0.2-0.7,0.2C52,54.7,50.6,54.9,49.2,54.7z"/>
			<path class="st0" d="M58.3,47.2C58.3,47.2,58.4,47.1,58.3,47.2c0.1,0,0.1,0,0.1,0.1c0-0.3,0-0.6,0-0.9c0,0.1-0.1,0.1-0.1,0.2
				C58.3,46.8,58.3,47,58.3,47.2z"/>
			<path class="st0" d="M43.2,50.9c-0.1-0.1-0.3-0.3-0.4-0.4c0.3,0.6,0.8,1.2,1.3,1.8c0.2,0.2,0.4,0.3,0.6,0.5
				C44.1,52.3,43.6,51.5,43.2,50.9z"/>
			<path class="st0" d="M58.2,48.7c0-0.1,0.1-0.2,0.1-0.4c0,0.1-0.1,0.1-0.1,0.2S58.2,48.6,58.2,48.7z"/>
			<path class="st0" d="M58,44.3c0,0.1,0,0.1,0.1,0.2s0.1,0.2,0.2,0.2c-0.1-0.2-0.1-0.5-0.2-0.7l0,0C58,44.1,58,44.2,58,44.3z"/>
			<path class="st0" d="M57.2,42.6L57.2,42.6c0-0.1,0-0.2,0-0.2c-0.2-0.3-0.4-0.6-0.6-0.9c-0.1-0.1-0.2-0.2-0.3-0.2l0,0
				C56.6,41.7,56.9,42.1,57.2,42.6z"/>
			<path class="st0" d="M56.2,52.1c0.2-0.1,0.3-0.2,0.4-0.4c0.5-0.6,0.8-1.2,1.1-1.9c-0.1,0.2-0.2,0.3-0.4,0.5
				C57,50.9,56.6,51.5,56.2,52.1z"/>
			<path class="st0" d="M57.4,42.8c0.2,0.4,0.4,0.8,0.5,1.3c0-0.1,0-0.2,0-0.4c-0.1-0.3-0.2-0.5-0.3-0.8
				C57.5,42.8,57.5,42.8,57.4,42.8C57.4,42.7,57.4,42.7,57.4,42.8z"/>
			<path class="st0" d="M56.2,52.2c-0.1,0.1-0.3,0.2-0.4,0.3c-0.6,0.6-1.2,1-2,1.4c0.2-0.1,0.5-0.2,0.7-0.3
				C55.2,53.2,55.7,52.8,56.2,52.2z"/>
			<path class="st0" d="M58.2,48.3c0.1-0.2,0.1-0.4,0.2-0.5c0-0.2,0-0.3,0-0.5c0,0.1,0,0.2,0,0.3C58.3,47.8,58.2,48,58.2,48.3z"/>
			<path class="st0" d="M56.1,41.1c0-0.1-0.1-0.2-0.2-0.3c0,0,0,0,0.1,0c-0.3-0.3-0.7-0.6-1.1-0.9c0,0.1,0,0.1,0,0.2
				C55.4,40.4,55.8,40.7,56.1,41.1z"/>
			<path class="st0" d="M46.8,39.2c0,0,0.1,0,0.1-0.1S47,39,47,38.8c-0.1,0-0.1,0.1-0.2,0.1C46.8,39.1,46.8,39.2,46.8,39.2
				L46.8,39.2z"/>
			<path class="st0" d="M52.5,38.7c0.1,0,0.2,0.1,0.4,0.1c1.1,0.3,1.7,0.6,1.9,1l0.1,0.1c0-0.1,0-0.1,0-0.2c-0.6-0.4-1.3-0.8-2-1
				c-0.2-0.1-0.5-0.1-0.8-0.2C52.3,38.6,52.4,38.7,52.5,38.7z"/>
			<path class="st0" d="M49.4,38.4L49.4,38.4c0.2-0.1,0.4-0.1,0.5-0.1c-0.2,0-0.4,0-0.5,0c-0.4,0-0.7,0.1-1,0.2
				C48.6,38.5,49,38.4,49.4,38.4z"/>
			<path class="st0" d="M52.5,38.7c-0.1-0.1-0.2-0.1-0.4-0.2c-0.3-0.1-0.7-0.1-1.1-0.2c-0.4,0-0.7-0.1-1-0.1c-0.2,0-0.4,0.1-0.5,0.1
				c0.5,0,1.1,0,1.6,0C51.6,38.5,52.1,38.6,52.5,38.7z"/>
			<path class="st0" d="M56.3,41.3L56.3,41.3C56.2,41.2,56.2,41.2,56.3,41.3C56.2,41.2,56.2,41.2,56.3,41.3z"/>
			<path class="st0" d="M45.4,40c0.1,0,0.1-0.1,0.2-0.1c0.1-0.1,0.2-0.2,0.4-0.3c0,0,0,0-0.1,0c-0.1,0.1-0.3,0.2-0.4,0.2
				C45.4,39.9,45.4,40,45.4,40L45.4,40z"/>
			<path class="st0" d="M56.1,41.1C56.2,41.1,56.2,41.2,56.1,41.1C56.2,41.2,56.2,41.1,56.1,41.1c0.1,0,0.1,0,0.1,0l0,0
				c-0.1-0.1-0.2-0.2-0.3-0.3c0,0,0,0-0.1,0C56,40.9,56.1,41,56.1,41.1z"/>
			<path class="st0" d="M57.2,42.6l0.1,0.1v-0.1C57.4,42.7,57.4,42.6,57.2,42.6C57.4,42.6,57.4,42.6,57.2,42.6c0.1-0.1,0-0.2,0-0.2
				C57.2,42.5,57.2,42.5,57.2,42.6L57.2,42.6z"/>
			<path class="st0" d="M44.1,41.1c0.1-0.1,0.1-0.1,0.2-0.2c0.1-0.3,0.4-0.5,0.8-0.7c0.1-0.1,0.1-0.1,0.2-0.2l0,0l0,0
				c-0.1,0.1-0.2,0.1-0.3,0.2c-0.3,0.2-0.5,0.5-0.8,0.7C44.1,40.9,44.1,41,44.1,41.1L44.1,41.1z"/>
			<path class="st0" d="M56.3,41.2c0.1,0.1,0.2,0.2,0.3,0.2c-0.1-0.1-0.2-0.2-0.3-0.4l0,0C56.3,41.1,56.3,41.2,56.3,41.2z"/>
			<path class="st0" d="M56.3,41.2v-0.1l0,0C56.2,41.1,56.2,41.2,56.3,41.2C56.2,41.2,56.2,41.2,56.3,41.2
				C56.2,41.2,56.2,41.2,56.3,41.2z"/>
			<path class="st0" d="M57.4,42.7c0.1,0.1,0.1,0.1,0.2,0.2C57.5,42.8,57.5,42.7,57.4,42.7C57.4,42.6,57.4,42.6,57.4,42.7
				C57.4,42.6,57.4,42.7,57.4,42.7z"/>
			<path class="st0" d="M57.9,44.1c0,0.1,0.1,0.1,0.1,0.2c0-0.1,0-0.1,0-0.2l0,0c0-0.1-0.1-0.2-0.1-0.3C58,43.8,58,43.9,57.9,44.1z"
				/>
			<path class="st0" d="M43.1,42.5c0-0.1,0.1-0.2,0.2-0.2c0.1-0.4,0.4-0.8,0.9-1.1l0,0l0,0v-0.1l-0.1,0.1c-0.3,0.4-0.6,0.8-0.9,1.2
				c0,0.1,0,0.1,0,0.2C43.1,42.5,43.1,42.5,43.1,42.5z"/>
			<path class="st0" d="M58.1,44.7c0.1,0.1,0.1,0.3,0.2,0.4c0-0.1-0.1-0.3-0.1-0.4c-0.1-0.1-0.1-0.2-0.2-0.2
				C58.1,44.6,58.1,44.7,58.1,44.7z"/>
			<path class="st0" d="M58.3,46.4c0,0.1,0,0.2,0,0.2c0-0.1,0.1-0.1,0.1-0.2s0-0.3,0-0.4C58.4,46.1,58.4,46.2,58.3,46.4z"/>
			<path class="st0" d="M42.3,44.4c0.1-0.4,0.3-0.8,0.5-1.2c-0.1,0.2-0.3,0.4-0.3,0.5l0,0c0,0.1-0.1,0.2-0.1,0.4
				C42.3,44.2,42.3,44.3,42.3,44.4z"/>
			<path class="st0" d="M42,46.6c0-0.2,0-0.3,0-0.5c0-0.1,0-0.2,0-0.3v-0.1v-0.1c0-0.2,0.1-0.3,0.1-0.5c-0.1,0.2-0.2,0.3-0.2,0.5
				c0,0.2,0,0.4,0,0.5C41.9,46.4,41.9,46.6,42,46.6C42,46.7,42,46.7,42,46.6z"/>
			<path class="st0" d="M58.3,47.2v0.1c0,0.2,0,0.3,0,0.5c0,0.2-0.1,0.4-0.2,0.5l0,0l0,0c0,0.1,0,0.2,0,0.2c0-0.1,0.1-0.1,0.1-0.2
				c0.1-0.3,0.1-0.5,0.1-0.8C58.3,47.4,58.3,47.3,58.3,47.2C58.4,47.2,58.4,47.2,58.3,47.2C58.4,47.1,58.3,47.2,58.3,47.2z"/>
			<path class="st0" d="M42.2,48.4c-0.1-0.3-0.1-0.6-0.2-1c0,0.1,0,0.2-0.1,0.3C42,47.9,42.1,48.2,42.2,48.4z"/>
			<path class="st0" d="M42,46.8C42,46.8,42,46.7,42,46.8l-0.1,0.1c0,0.1,0,0.2,0,0.3c0-0.1,0-0.2,0.1-0.3V46.8z"/>
			<path class="st0" d="M58.1,48.7L58.1,48.7c0,0.4-0.2,0.7-0.3,1c-0.1,0.2-0.2,0.4-0.3,0.6c0.1-0.2,0.3-0.3,0.4-0.5
				c0.1-0.4,0.3-0.7,0.4-1.1c0-0.1,0-0.1,0-0.2C58.2,48.6,58.1,48.6,58.1,48.7z"/>
			<path class="st0" d="M58.1,48.7c0-0.1,0.1-0.1,0.1-0.2s0-0.2,0-0.2l0,0C58.1,48.4,58.1,48.5,58.1,48.7L58.1,48.7z"/>
			<path class="st0" d="M56.2,52.2c0.1-0.1,0.3-0.3,0.4-0.4C56.5,51.9,56.3,52,56.2,52.2c-0.2,0-0.3,0.2-0.4,0.3
				C56,52.4,56.1,52.3,56.2,52.2z"/>
			<path class="st0" d="M42.6,49.9c0.1,0.2,0.2,0.4,0.3,0.6c0.1,0.1,0.2,0.3,0.4,0.4c-0.1-0.2-0.2-0.3-0.3-0.5
				C42.8,50.2,42.7,50.1,42.6,49.9z"/>
			<path class="st0" d="M42,46.9c0,0.1-0.1,0.2-0.1,0.3v0.1c0-0.1,0.1-0.2,0.1-0.3C42,47,42,47,42,46.9z"/>
			<path class="st0" d="M44.8,52.8c-0.2-0.1-0.4-0.3-0.6-0.5C44.3,52.5,44.6,52.7,44.8,52.8c0.2,0.2,0.4,0.4,0.6,0.5
				C45.3,53.1,45,53,44.8,52.8z"/>
			<path class="st0" d="M53.9,53.9c-0.2,0.1-0.5,0.2-0.7,0.3c0.3-0.1,0.5-0.1,0.7-0.2c0.2-0.1,0.4-0.2,0.7-0.4
				C54.3,53.7,54.1,53.8,53.9,53.9z"/>
			<path class="st0" d="M42,47.4L42,47.4c0,0,0,0.1-0.1,0.2v0.1l0,0C42,47.6,42,47.5,42,47.4z"/>
			<path class="st0" d="M42,47.7c0-0.1,0-0.2,0-0.3l0,0C41.9,47.5,41.9,47.6,42,47.7L42,47.7L42,47.7z"/>
			<path class="st0" d="M42,47.6c0-0.1,0-0.2,0-0.2c0-0.1,0-0.2,0-0.3c0,0.1-0.1,0.2-0.1,0.3c0,0.1,0,0.2,0,0.3
				C42,47.7,42,47.6,42,47.6z"/>
		</g>
		<path class="st0" d="M54.7,40.4c-0.8-0.6-1.6-1.1-2.3-1.3c1.5,0.5,4.3,1.8,5.6,5.4h0.1c-1.7-4.8-6-5.6-6.7-5.8c-0.1,0-0.2,0-0.2,0
			c-0.1,0-0.3,0-0.3,0l0,0l0,0c0,0-1.9,0-4,1c-1.9,0.9-4.3,2.8-4.9,7v0.1h0.1c0.6-4.1,2.9-6,4.9-6.9c1.1-0.5,2.1-0.7,2.9-0.9
			c-0.8,0.2-2,0.6-3.3,1.4c-1.9,1.3-4.3,3.8-4.4,8.5c0,0,0,0.1,0.1,0.1l0,0c0,0,0.1,0,0.1-0.1c0.1-4.7,2.4-7.2,4.4-8.4
			c1.5-1,3-1.4,3.8-1.5c-2.7,1.2-6.1,3.5-7.2,7.5C42.7,49,43.3,51,43.3,51l0,0l0,0c0,0,0,0,0-0.1c0,0-0.5-2,0.1-4.5
			c1-3.9,4.3-6.1,7-7.3c-0.7,0.5-2.1,1.5-3.5,3c-1.7,2.1-3.5,5.6-2.5,10.5l0,0l0,0c0,0,0.1,0,0-0.1c-1-4.8,0.8-8.2,2.5-10.4
			c1.3-1.6,2.8-2.7,3.6-3.1c-0.6,0.5-2,2.1-3.3,4.3c-1.4,2.5-2.7,6.4-1.3,10.6l0,0l0,0c0,0,0,0,0-0.1c-1.5-4.2-0.1-7.9,1.2-10.5
			c1.4-2.5,3.1-4.2,3.4-4.4c-0.6,1.1-4.2,7.9-3.3,15.5c0,0,0,0.1,0.1,0.1c0,0,0.1,0,0-0.1c-0.9-7.5,2.4-14,3.1-15.4l-1.7,15.7
			c0,0,0,0.1,0.1,0.1c0,0,0.1,0,0.1-0.1l1.8-15.9c0.2,0.8,2.1,8.6-0.5,16.1V55l0,0h0.1c2.5-6.9,0.9-14.3,0.6-15.8
			c0.8,1.2,4.3,6.9,1.1,15.5v0.1h0.1c1.8-5.1,1.4-9.1,0.7-11.7c-0.5-1.7-1.2-2.9-1.6-3.7c0.6,0.7,1.8,2.1,2.6,4
			c1.2,2.4,2.1,6.3-0.2,10.6v0.1l0,0c0,0,0,0,0.1,0c2.3-4.3,1.3-8.2,0.2-10.7c-0.9-1.9-2.1-3.4-2.7-4.1c0.7,0.5,2,1.6,3.3,3.1
			c1.5,2.1,2.9,5.5,1.3,10.1v0.1H56c1.6-4.6,0.2-8-1.3-10.2c-1.3-1.8-2.8-2.9-3.5-3.4c0.6,0.3,2.1,1.1,3.6,2.6
			c1.6,1.7,3.4,4.6,2.5,8.7v0.1l0,0h0.1c0.8-4.2-0.9-7.1-2.5-8.8c-1.2-1.2-2.4-2-3.1-2.4C52.5,39.2,53.5,39.7,54.7,40.4
			c1.5,1.3,3.5,3.7,3.6,7.5c0,0,0,0.1,0.1,0.1c0,0,0.1,0,0.1-0.1C58.3,43.9,56.3,41.6,54.7,40.4z"/>
	</g>
	<g>
		<g>
			<path class="st0" d="M66.3,22.8c0,0.1,0.5,0.4,1.4,0.5s1.4,0,1.5-0.2c0-0.1-0.2-0.2-0.5-0.3c-0.3-0.1-0.6-0.1-0.9-0.1
				c-0.3,0-0.6-0.1-0.9-0.1C66.5,22.6,66.3,22.7,66.3,22.8z"/>
			<path class="st0" d="M61,26c-0.1,0.2-0.2,0.4-0.3,0.5c0.1-0.1,0.2-0.2,0.3-0.3C61,26.3,61,26.2,61,26z"/>
			<path class="st0" d="M60.5,32.3c-0.2-0.6-0.4-1.2-0.5-1.8C60,31.2,60.2,31.8,60.5,32.3z"/>
			<path class="st0" d="M69.2,23.1c0,0.1-0.6,0.3-1.5,0.2s-1.4-0.4-1.4-0.5s0.2-0.2,0.6-0.2c-0.1,0-0.3,0-0.4,0
				c-0.1,0-0.2,0.1-0.2,0.2c0,0.3,0.7,0.5,1.5,0.6C68.4,23.5,69.2,23.4,69.2,23.1c0.1-0.1,0-0.2-0.1-0.2c-0.1,0-0.3-0.1-0.4-0.1
				C69,22.9,69.2,23,69.2,23.1z"/>
			<path class="st0" d="M69.4,22.9c-0.1,0-0.2-0.1-0.3-0.1c0,0,0,0,0.1,0C69.2,22.9,69.3,22.9,69.4,22.9z"/>
			<path class="st0" d="M68.7,22.8c-0.2-0.1-0.5-0.1-0.9-0.2c-0.4,0-0.7,0-0.9,0c0.3,0,0.6,0,0.9,0.1C68.1,22.7,68.4,22.7,68.7,22.8
				z"/>
			<path class="st0" d="M67.5,24.5c1.9,0.2,3.6,0,3.7-0.6l0,0l-0.1-0.1v0.1C71.1,24.3,69.6,24.6,67.5,24.5c-2-0.3-3.4-0.9-3.3-1.3
				l0,0h-0.1C64.2,23.7,65.7,24.3,67.5,24.5z"/>
			<path class="st0" d="M66.9,22.6c0.2,0,0.5,0,0.9,0s0.7,0.1,0.9,0.2c0.1,0,0.3,0.1,0.4,0.1c0,0,0,0-0.1,0
				c-0.4-0.1-0.8-0.2-1.2-0.3c-0.5-0.1-0.9-0.1-1.4,0l0,0C66.6,22.6,66.7,22.6,66.9,22.6z"/>
			<path class="st0" d="M62.9,23.9c0,0.7,1.9,1.5,4.6,1.8c2.6,0.3,4.8,0,4.9-0.8l0,0c0,0,0-0.1-0.1-0.1l0,0l0,0l0,0v0.1
				c-0.1,0.6-2.2,1-4.8,0.7C65,25.3,62.9,24.6,62.9,23.9c0.1-0.1,0.1-0.1,0.2-0.2C63,23.8,63,23.8,62.9,23.9L62.9,23.9L62.9,23.9z"
				/>
			<path class="st0" d="M61.9,24.8L61.9,24.8c-0.1,1.2,2.3,2.4,5.5,2.7c3,0.3,5.6-0.2,5.9-1.3c0,0,0-0.1-0.1-0.1
				c-0.1,1.1-2.7,1.7-5.8,1.3C64.3,27.2,61.8,25.9,61.9,24.8c0.1,0,0.1-0.1,0.2-0.2C62,24.7,61.9,24.7,61.9,24.8L61.9,24.8
				L61.9,24.8z"/>
			<path class="st0" d="M61.1,26.3c0-0.1,0-0.2,0-0.3v-0.1c0,0.1-0.1,0.1-0.1,0.2C61,26.2,61,26.3,61.1,26.3
				C61,26.3,61,26.3,61.1,26.3z"/>
			<path class="st0" d="M73.7,27.6L73.7,27.6C73.7,27.6,73.7,27.7,73.7,27.6c0.1,0,0.1,0,0.1-0.1s0-0.1-0.1-0.2l0,0
				C73.7,27.5,73.7,27.6,73.7,27.6z"/>
			<path class="st0" d="M67.1,29.5c3.3,0.4,6.1-0.4,6.6-1.7c0,0,0-0.1-0.1-0.1C73.2,29,70.4,29.8,67.1,29.5c-3.1-0.5-5.7-1.8-6-3.1
				c0,0-0.1,0-0.1,0.1C61.3,27.8,63.9,29.2,67.1,29.5z"/>
			<path class="st0" d="M61.1,26.3C61,26.3,61,26.3,61.1,26.3C61,26.4,61,26.4,61,26.5c0,0,0.1,0,0.1-0.1S61.1,26.3,61.1,26.3z"/>
			<path class="st0" d="M73.8,27.7C73.7,27.7,73.7,27.6,73.8,27.7C73.7,27.6,73.7,27.6,73.8,27.7c-0.1,0-0.1,0-0.1,0
				S73.7,27.8,73.8,27.7C73.7,27.8,73.7,27.7,73.8,27.7z"/>
			<path class="st0" d="M66.7,33.1c3.3,0.4,6.2-0.4,7.1-1.7l0,0c0-0.1,0-0.1,0-0.2C73,32.6,70,33.4,66.7,33.1
				c-3.3-0.5-5.8-1.8-6.5-3.3v0.1C60.9,31.4,63.4,32.8,66.7,33.1z"/>
			<path class="st0" d="M66.8,31.4c3.4,0.4,6.4-0.4,7.3-1.7l0,0c0-0.1,0-0.1,0-0.2C73.3,30.9,70.4,31.6,66.8,31.4
				c-3.4-0.5-6-1.8-6.7-3.4v0.1C60.9,29.7,63.5,31,66.8,31.4z"/>
			<path class="st0" d="M66.5,34.5c-3.6-0.4-6.3-2.2-6.4-4.3c0,0,0,0,0,0.1c0,0.3,0.1,0.6,0.1,0.8C61,32.8,63.4,34.2,66.5,34.5
				c2.9,0.4,5.6-0.3,6.8-1.7c0.1-0.2,0.2-0.3,0.2-0.5C72.6,33.9,69.7,34.8,66.5,34.5z"/>
			<path class="st0" d="M73.8,31.1c0,0.1,0,0.1,0,0.2c0-0.1,0.1-0.2,0.1-0.3l0,0C73.9,31,73.9,31.1,73.8,31.1z"/>
			<path class="st0" d="M60.9,32.9c0.1,0.1,0.2,0.3,0.2,0.4c1.1,1.2,3,2,5.3,2.3c2.1,0.2,4.2-0.2,5.6-1c0.1-0.1,0.2-0.2,0.3-0.3
				c-1.3,1-3.6,1.5-5.8,1.2C64,35.2,61.9,34.2,60.9,32.9z"/>
			<path class="st0" d="M60.2,29.7C60.2,29.7,60.1,29.6,60.2,29.7c0,0,0,0.1-0.1,0.1l0,0C60.1,29.8,60.1,29.7,60.2,29.7z"/>
			<path class="st0" d="M60.1,29.6L60.1,29.6c0,0,0,0.1-0.1,0.1l0,0C60.1,29.7,60.1,29.7,60.1,29.6z"/>
			<path class="st0" d="M62.4,34.8c0.2,0.2,0.4,0.3,0.6,0.4c0.9,0.5,2.1,0.8,3.4,1c1.1,0.1,2.2,0,3.3-0.2c0.2-0.1,0.4-0.2,0.6-0.3
				c-1.1,0.4-2.5,0.5-3.9,0.4C64.9,36,63.5,35.5,62.4,34.8z"/>
			<path class="st0" d="M60.1,29.9C60.2,29.9,60.2,29.9,60.1,29.9C60.2,29.9,60.2,29.8,60.1,29.9c0.1-0.1,0.1-0.1,0-0.1
				C60.2,29.8,60.2,29.8,60.1,29.9z"/>
			<path class="st0" d="M62.7,24c-0.3,0.2-0.6,0.4-0.7,0.6C62.3,24.4,62.5,24.2,62.7,24z"/>
			<path class="st0" d="M62.9,23.8c0,0,0-0.1,0.1-0.1c-0.1,0.1-0.2,0.2-0.4,0.3C62.7,23.9,62.8,23.9,62.9,23.8L62.9,23.8z"/>
			<path class="st0" d="M60.2,31.1c-0.1-0.2-0.2-0.4-0.2-0.6l0,0c0,0,0,0,0,0.1c0.1,0.6,0.3,1.2,0.5,1.8c0.1,0.1,0.2,0.3,0.3,0.4
				C60.6,32.2,60.4,31.7,60.2,31.1z"/>
			<path class="st0" d="M63.1,23.8c0.3-0.2,0.7-0.4,1.1-0.6l0,0v-0.1c-0.3,0.1-0.6,0.3-0.8,0.4l0,0C63.2,23.6,63.1,23.7,63.1,23.8z"
				/>
			<path class="st0" d="M73.5,32.2c0.2-0.3,0.3-0.6,0.3-0.9l0,0l0,0C73.7,31.6,73.7,31.9,73.5,32.2z"/>
			<path class="st0" d="M69.4,22.9c0.6,0.2,1.1,0.5,1.6,0.8C71,23.5,70.4,23.2,69.4,22.9z"/>
			<path class="st0" d="M60,29.8c0-0.1,0-0.1,0-0.2c0-0.1-0.1-0.2-0.1-0.4c0,0.3,0,0.6,0,0.9V30C60,30,60,29.9,60,29.8z"/>
			<path class="st0" d="M74.1,29c0-0.2,0-0.4-0.1-0.6c0-0.1-0.1-0.2-0.2-0.4c0.1,0.4,0.2,0.9,0.2,1.3C74.1,29.2,74.1,29.1,74.1,29z"
				/>
			<path class="st0" d="M60.3,27.7c0-0.1,0-0.2,0-0.2c0-0.1,0-0.2,0.1-0.3c-0.2,0.5-0.3,1.1-0.4,1.6l0,0c0-0.2,0.1-0.3,0.2-0.5
				C60.2,28.1,60.3,27.9,60.3,27.7z"/>
			<path class="st0" d="M61.9,24.8c0-0.1,0-0.1,0.1-0.2c-0.1,0.1-0.1,0.1-0.2,0.2C61.8,24.7,61.8,24.7,61.9,24.8
				C61.9,24.7,61.9,24.7,61.9,24.8z"/>
			<path class="st0" d="M65.5,22.6c-0.4,0.1-0.8,0.2-1.1,0.3c-0.1,0-0.1,0.1-0.1,0.2c0.7-0.3,1.4-0.5,2.1-0.5
				C66.1,22.6,65.8,22.6,65.5,22.6z"/>
			<path class="st0" d="M61,26C61,26,61,25.9,61,26c0-0.1,0-0.2,0-0.2c-0.2,0.4-0.5,0.8-0.6,1.3c0.1-0.2,0.2-0.3,0.3-0.5
				C60.8,26.5,60.9,26.3,61,26z"/>
			<path class="st0" d="M61.1,25.8c0.2-0.4,0.5-0.7,0.8-1C61.5,25.1,61.2,25.4,61.1,25.8z"/>
			<path class="st0" d="M66.3,36.5c-1.2-0.1-2.3-0.6-3.3-1.2c-0.2-0.1-0.4-0.2-0.6-0.4C63.4,35.8,64.8,36.4,66.3,36.5
				c1.4,0.3,2.8,0,4-0.6C70,36,69.8,36,69.6,36.1C68.6,36.5,67.4,36.6,66.3,36.5z"/>
			<path class="st0" d="M74,30C74.1,30,74.1,30,74,30C74.1,30,74.1,30,74,30c0.1-0.2,0.1-0.4,0.1-0.7c0,0.1-0.1,0.1-0.1,0.2
				C74.1,29.7,74.1,29.8,74,30z"/>
			<path class="st0" d="M61.1,33.3c-0.1-0.1-0.2-0.2-0.3-0.4c0.3,0.6,0.7,1.1,1.1,1.5c0.2,0.1,0.4,0.3,0.5,0.4
				C61.9,34.4,61.5,33.9,61.1,33.3z"/>
			<path class="st0" d="M73.9,31.3c0-0.1,0.1-0.2,0.1-0.3c0,0.1,0,0.1-0.1,0.2C73.9,31.2,73.9,31.3,73.9,31.3z"/>
			<path class="st0" d="M73.8,27.6c0,0.1,0,0.1,0,0.2c0.1,0.1,0.1,0.1,0.1,0.2c0-0.2-0.1-0.4-0.2-0.6l0,0
				C73.8,27.5,73.8,27.5,73.8,27.6z"/>
			<path class="st0" d="M73.2,26.2L73.2,26.2c0-0.1,0-0.1,0-0.2c-0.2-0.3-0.3-0.5-0.5-0.8c-0.1-0.1-0.2-0.1-0.3-0.2l0,0
				C72.7,25.3,72.9,25.7,73.2,26.2z"/>
			<path class="st0" d="M72.3,34.3c0.1-0.1,0.3-0.2,0.4-0.3c0.4-0.5,0.7-1,1-1.6c-0.1,0.2-0.2,0.3-0.3,0.4
				C73,33.3,72.7,33.8,72.3,34.3z"/>
			<path class="st0" d="M73.3,26.3c0.2,0.4,0.3,0.7,0.5,1.1c0-0.1,0-0.2,0-0.3c-0.1-0.2-0.2-0.5-0.3-0.7
				C73.4,26.4,73.3,26.3,73.3,26.3L73.3,26.3z"/>
			<path class="st0" d="M72.3,34.4c-0.1,0.1-0.2,0.2-0.4,0.2c-0.5,0.5-1.1,0.9-1.7,1.2c0.2-0.1,0.4-0.1,0.6-0.2
				C71.4,35.2,71.9,34.8,72.3,34.4z"/>
			<path class="st0" d="M73.9,31c0.1-0.1,0.1-0.3,0.1-0.5c0-0.1,0-0.3,0-0.4c0,0.1,0,0.1,0,0.2C74,30.5,74,30.7,73.9,31z"/>
			<path class="st0" d="M72.3,24.8c0-0.1-0.1-0.2-0.2-0.3c0,0,0,0,0.1,0c-0.3-0.3-0.6-0.6-0.9-0.8c0,0.1,0,0.1,0,0.2
				C71.6,24.1,71.9,24.5,72.3,24.8z"/>
			<path class="st0" d="M64.2,23.2h0.1c0-0.1,0-0.1,0.1-0.2c-0.1,0-0.1,0.1-0.2,0.1C64.2,23.1,64.2,23.1,64.2,23.2
				C64.2,23.1,64.2,23.2,64.2,23.2z"/>
			<path class="st0" d="M69,22.8c0.1,0,0.2,0.1,0.3,0.1c0.9,0.2,1.5,0.6,1.6,0.8l0.1,0.1c0-0.1,0-0.1,0-0.2
				c-0.5-0.4-1.1-0.7-1.7-0.9c-0.2-0.1-0.4-0.1-0.7-0.1C68.8,22.7,68.9,22.8,69,22.8z"/>
			<path class="st0" d="M66.4,22.6L66.4,22.6c0.2,0,0.3-0.1,0.5-0.1C66.7,22.5,66.6,22.5,66.4,22.6c-0.3-0.1-0.6,0-0.9,0
				C65.8,22.6,66.1,22.6,66.4,22.6z"/>
			<path class="st0" d="M69,22.8c-0.1-0.1-0.2-0.1-0.3-0.1c-0.3-0.1-0.6-0.1-0.9-0.1c-0.3,0-0.6-0.1-0.9-0.1c-0.2,0-0.3,0-0.4,0.1
				c0.4,0,0.9,0,1.4,0C68.2,22.6,68.6,22.7,69,22.8z"/>
			<path class="st0" d="M62.9,23.9l0.1-0.1c0.1-0.1,0.2-0.2,0.3-0.2l0,0c-0.1,0.1-0.2,0.1-0.3,0.2C63,23.7,62.9,23.8,62.9,23.9
				C62.9,23.8,62.9,23.9,62.9,23.9z"/>
			<path class="st0" d="M72.3,24.8L72.3,24.8L72.3,24.8L72.3,24.8L72.3,24.8c0-0.1-0.1-0.2-0.2-0.3c0,0,0,0-0.1,0
				C72.2,24.6,72.2,24.7,72.3,24.8z"/>
			<path class="st0" d="M73.2,26.2c0,0,0,0.1,0.1,0.1C73.3,26.3,73.3,26.3,73.2,26.2C73.3,26.2,73.2,26.2,73.2,26.2
				S73.2,26,73.2,26.2c0-0.1,0-0.2,0-0.2C73.2,26,73.2,26,73.2,26.2L73.2,26.2z"/>
			<path class="st0" d="M61.9,24.8c0-0.1,0.1-0.1,0.1-0.2c0.1-0.2,0.3-0.4,0.7-0.6c0.1,0,0.1-0.1,0.2-0.1l0,0l0,0
				c-0.1,0-0.2,0.1-0.3,0.1c-0.2,0.2-0.5,0.4-0.7,0.6C61.9,24.6,61.9,24.7,61.9,24.8L61.9,24.8z"/>
			<path class="st0" d="M72.4,24.9c0.1,0.1,0.2,0.1,0.2,0.2C72.6,25,72.5,24.9,72.4,24.9c0-0.1,0-0.1,0-0.1V24.9z"/>
			<path class="st0" d="M72.4,24.9v-0.1l0,0C72.3,24.8,72.3,24.8,72.4,24.9C72.3,24.8,72.3,24.8,72.4,24.9
				C72.3,24.9,72.3,24.9,72.4,24.9z"/>
			<path class="st0" d="M73.3,26.2c0.1,0.1,0.1,0.1,0.1,0.2C73.4,26.3,73.3,26.3,73.3,26.2L73.3,26.2L73.3,26.2z"/>
			<path class="st0" d="M73.7,27.4c0,0.1,0,0.1,0.1,0.2C73.8,27.5,73.8,27.5,73.7,27.4C73.8,27.4,73.8,27.4,73.7,27.4
				c0.1-0.1,0-0.2,0-0.3C73.7,27.2,73.7,27.3,73.7,27.4z"/>
			<path class="st0" d="M61,26c0-0.1,0.1-0.1,0.1-0.2c0.1-0.4,0.3-0.7,0.8-1l0,0l0,0v-0.1c0,0-0.1,0-0.1,0.1c-0.3,0.3-0.5,0.6-0.8,1
				C61,25.8,61,25.9,61,26C61,25.9,61,26,61,26z"/>
			<path class="st0" d="M73.3,26.2L73.3,26.2L73.3,26.2c0-0.1,0-0.1,0-0.1C73.2,26,73.2,26.2,73.3,26.2
				C73.2,26.2,73.3,26.2,73.3,26.2z"/>
			<path class="st0" d="M73.9,28c0.1,0.1,0.1,0.2,0.2,0.4C74,28.2,74,28.1,73.9,28c0-0.1,0-0.2-0.1-0.2C73.8,27.9,73.9,27.9,73.9,28
				z"/>
			<path class="st0" d="M74.1,29.3c0,0.1,0,0.1,0,0.2C74.1,29.5,74.1,29.4,74.1,29.3c0.1-0.1,0.1-0.2,0.1-0.3
				C74.1,29.1,74.1,29.2,74.1,29.3z"/>
			<path class="st0" d="M60.3,27.7c0.1-0.4,0.2-0.7,0.4-1.1c-0.1,0.1-0.2,0.3-0.3,0.5l0,0c0,0.1-0.1,0.2-0.1,0.3
				C60.3,27.5,60.3,27.6,60.3,27.7z"/>
			<path class="st0" d="M60.1,29.6c0-0.1,0-0.3,0-0.4c0-0.1,0-0.1,0-0.2c0,0,0,0,0-0.1v-0.1c0-0.1,0-0.3,0.1-0.4
				c-0.1,0.1-0.1,0.3-0.2,0.5c0,0.2,0,0.3,0,0.5C60,29.4,60,29.5,60.1,29.6C60,29.6,60.1,29.6,60.1,29.6z"/>
			<path class="st0" d="M74,30C74,30,74,30.1,74,30c0,0.2,0,0.4,0,0.5c0,0.2-0.1,0.3-0.1,0.5l0,0l0,0c0,0.1,0,0.1,0,0.2
				c0-0.1,0.1-0.1,0.1-0.2c0-0.2,0.1-0.4,0.1-0.7C74.1,30.2,74.1,30.2,74,30C74.1,30,74.1,30,74,30C74.1,30,74.1,30,74,30z"/>
			<path class="st0" d="M60.2,31.1c-0.1-0.3-0.1-0.6-0.1-0.8c0,0.1,0,0.2,0,0.2C60.1,30.7,60.1,30.9,60.2,31.1z"/>
			<path class="st0" d="M60.1,29.7C60.1,29.7,60,29.6,60.1,29.7c0,0,0,0.1-0.1,0.1c0,0.1,0,0.2,0,0.3c0-0.1,0-0.2,0.1-0.2
				C60.1,29.8,60.1,29.7,60.1,29.7z"/>
			<path class="st0" d="M73.8,31.3L73.8,31.3c0,0.3-0.1,0.6-0.3,0.9c-0.1,0.2-0.1,0.3-0.2,0.5c0.1-0.1,0.2-0.3,0.3-0.4
				C73.7,31.9,73.8,31.6,73.8,31.3c0.1-0.1,0.1-0.1,0.1-0.1C73.9,31.2,73.9,31.3,73.8,31.3z"/>
			<path class="st0" d="M73.8,31.3l0.1-0.1c0-0.1,0-0.1,0-0.2l0,0C73.9,31.1,73.9,31.2,73.8,31.3L73.8,31.3z"/>
			<path class="st0" d="M60.1,29.6C60.1,29.6,60,29.6,60.1,29.6c0,0.1,0,0.1,0,0.1C60.1,29.6,60.1,29.6,60.1,29.6z"/>
			<path class="st0" d="M72.3,34.4c0.1-0.1,0.2-0.2,0.3-0.4C72.5,34.1,72.4,34.2,72.3,34.4c-0.2,0-0.3,0.1-0.4,0.2
				C72.1,34.5,72.2,34.4,72.3,34.4z"/>
			<path class="st0" d="M60.5,32.3c0.1,0.2,0.2,0.3,0.2,0.5c0.1,0.1,0.2,0.2,0.3,0.4c-0.1-0.1-0.2-0.3-0.2-0.4
				C60.7,32.7,60.6,32.6,60.5,32.3z"/>
			<path class="st0" d="M60.1,29.8c0,0.1,0,0.2-0.1,0.2v0.1C60,30,60,29.9,60.1,29.8C60.1,29.9,60.1,29.9,60.1,29.8z"/>
			<path class="st0" d="M62.4,34.8c-0.2-0.1-0.4-0.3-0.5-0.4C62,34.6,62.2,34.8,62.4,34.8c0.1,0.2,0.3,0.3,0.6,0.4
				C62.8,35.2,62.6,35,62.4,34.8z"/>
			<path class="st0" d="M70.3,35.8c-0.2,0.1-0.4,0.2-0.6,0.3C69.8,36,70,36,70.3,35.8c0.2,0,0.4-0.1,0.6-0.2
				C70.7,35.7,70.5,35.7,70.3,35.8z"/>
			<path class="st0" d="M60,30.4c0-0.1,0-0.1,0-0.2c0-0.1,0-0.2,0-0.2c0,0.1-0.1,0.2-0.1,0.3c0,0.1,0,0.2,0,0.3
				C60,30.4,60,30.4,60,30.4z"/>
		</g>
		<path class="st0" d="M71,24.2c-0.7-0.5-1.4-0.9-2-1.1c1.3,0.4,3.7,1.5,4.9,4.7h0.1c-1.5-4.1-5.2-4.9-5.8-5c-0.1,0-0.1,0-0.1,0
			c-0.1,0-0.2,0-0.2,0l0,0l0,0c0,0-1.7,0-3.5,0.8c-1.6,0.8-3.7,2.4-4.3,6v0.1h0.1c0.5-3.6,2.5-5.2,4.2-6c0.9-0.4,1.8-0.6,2.5-0.7
			c-0.7,0.2-1.7,0.5-2.7,1.2c-1.6,1.1-3.7,3.3-3.8,7.3c0,0,0,0,0,0.1l0,0c0,0,0,0,0.1,0c0.1-4.1,2.1-6.2,3.8-7.2
			c1.3-0.9,2.6-1.2,3.3-1.3c-2.3,1-5.3,3-6.2,6.4c-0.6,2.1-0.1,3.9-0.1,3.9l0,0l0,0c0,0,0,0,0-0.1c0,0-0.5-1.7,0.1-3.9
			c0.9-3.4,3.7-5.3,6-6.3c-0.6,0.4-1.8,1.3-2.9,2.6c-1.4,1.8-3,4.8-2.1,8.9l0,0l0,0c0,0,0,0,0-0.1c-0.8-4.2,0.7-7.1,2.1-8.8
			c1.1-1.4,2.4-2.3,3-2.7c-0.5,0.5-1.7,1.8-2.7,3.7c-1.2,2.1-2.3,5.5-1.1,9l0,0l0,0c0,0,0,0,0-0.1c-1.3-3.6-0.1-6.8,1.1-8.9
			c1.2-2.1,2.7-3.6,2.9-3.8c-0.5,1-3.6,6.8-2.7,13.4c0,0,0,0,0.1,0c0,0,0,0,0-0.1c-0.8-6.4,2.1-12.1,2.7-13.2l-1.5,13.5v0.1h0.1
			l1.5-13.7c0.2,0.7,1.8,7.4-0.4,13.7v0.1l0,0c0,0,0,0,0.1,0c2.1-6,0.8-12.3,0.5-13.6c0.7,1,3.7,5.9,0.9,13.3v0.1H69
			c1.6-4.4,1.2-7.8,0.6-10.1c-0.4-1.5-1-2.5-1.4-3.1c0.5,0.6,1.5,1.8,2.3,3.4c1,2.1,1.8,5.5-0.1,9.1v0.1l0,0l0,0
			c1.9-3.7,1.1-7,0.1-9.2c-0.8-1.6-1.8-2.9-2.3-3.5c0.6,0.4,1.7,1.3,2.7,2.7c1.3,1.8,2.5,4.8,1.1,8.6v0.1h0.1
			c1.4-3.9,0.2-6.9-1.1-8.7c-1.1-1.5-2.4-2.5-2.9-2.8c0.5,0.2,1.8,1,3,2.2c1.4,1.4,2.8,4,2.1,7.5V33l0,0c0,0,0,0,0.1,0
			c0.7-3.7-0.8-6.1-2.2-7.6c-1-1.1-2.1-1.7-2.7-2.1C69,23.2,69.9,23.6,71,24.2c1.3,1.1,2.9,3.1,3,6.5c0,0,0,0,0.1,0c0,0,0,0,0-0.1
			C74,27.3,72.4,25.2,71,24.2z"/>
	</g>
</g>
</svg>
