<?xml version="1.0" encoding="utf-8"?>
<!-- Generator: Adobe Illustrator 19.2.1, SVG Export Plug-In . SVG Version: 6.00 Build 0)  -->
<svg version="1.1" xmlns="http://www.w3.org/2000/svg" xmlns:xlink="http://www.w3.org/1999/xlink" x="0px" y="0px"
	 viewBox="0 0 297.6 166" style="enable-background:new 0 0 297.6 166;" xml:space="preserve">
<style type="text/css">
	.st0{fill:#008B4C;}
	.st1{fill:#B2B4B3;}
	.st2{fill:#E02241;}
	.st3{fill:#3D3D3D;}
	.st4{fill:#DC263F;}
	.st5{fill:#116EB7;}
	.st6{fill:#1070B8;}
</style>
<g id="Layer_1">
</g>
<g id="Layer_2">
	<g>
		<g>
			<path class="st0" d="M124,44.9C124,65.5,109.4,75,94.2,75C77.7,75,65,64.1,65,45.9S77,16,95.2,16C112.5,16,124,27.9,124,44.9z
				 M83.1,45.4c0,9.7,4,17,11.5,17c6.8,0,11.2-6.8,11.2-17c0-8.4-3.2-17-11.2-17C86.3,28.5,83.1,37.1,83.1,45.4z"/>
			<path class="st1" d="M144.1,51.1c0.6,7.3,7.7,10.7,15.9,10.7c6,0,10.9-0.8,15.6-2.3l2.3,11.9c-5.8,2.3-12.8,3.5-20.4,3.5
				c-19.2,0-30.1-11.1-30.1-28.8c0-14.3,8.9-30.1,28.5-30.1c18.2,0,25.2,14.2,25.2,28.2c0,3-0.3,5.7-0.6,6.9H144.1z M164.8,39.1
				c0-4.3-1.8-11.4-9.9-11.4c-7.4,0-10.4,6.7-10.9,11.4H164.8z"/>
			<path class="st2" d="M219.1,73.7l-1-5.7h-0.3c-3.7,4.5-9.5,6.9-16.2,6.9c-11.4,0-18.2-8.3-18.2-17.3c0-14.7,13.2-21.7,33.1-21.6
				v-0.8c0-3-1.6-7.3-10.3-7.3c-5.8,0-11.9,2-15.6,4.3l-3.2-11.3c3.9-2.2,11.7-5,21.9-5c18.8,0,24.8,11.1,24.8,24.4V60
				c0,5.4,0.2,10.6,0.8,13.7H219.1z M217,47c-9.2-0.1-16.4,2.1-16.4,8.9c0,4.5,3,6.7,6.9,6.7c4.4,0,8-2.9,9.1-6.5
				c0.2-0.9,0.3-2,0.3-3V47z"/>
		</g>
		<g>
			<path class="st3" d="M35.3,91.1c0,6.2-3.8,9.9-9.3,9.9c-5.6,0-8.9-4.2-8.9-9.6c0-5.7,3.6-9.9,9.2-9.9
				C32.2,81.6,35.3,85.9,35.3,91.1z M21.7,91.4c0,3.7,1.7,6.3,4.6,6.3c2.9,0,4.5-2.7,4.5-6.4c0-3.4-1.6-6.3-4.6-6.3
				C23.4,85,21.7,87.7,21.7,91.4z"/>
			<path class="st3" d="M38.4,91.7c0-1.8-0.1-3.3-0.1-4.6H42l0.2,1.9h0.1c1-1.5,2.6-2.2,4.6-2.2c3,0,5.7,2.6,5.7,7
				c0,5-3.2,7.3-6.2,7.3c-1.7,0-2.9-0.7-3.6-1.6h-0.1v6.8h-4.3V91.7z M42.6,94.9c0,0.3,0,0.6,0.1,0.9c0.3,1.1,1.3,2,2.5,2
				c1.8,0,2.9-1.5,2.9-3.9c0-2.2-1-3.8-2.9-3.8c-1.2,0-2.3,0.9-2.5,2.2c-0.1,0.2-0.1,0.5-0.1,0.8V94.9z"/>
			<path class="st3" d="M58.8,95.3c0.1,1.8,1.9,2.6,3.9,2.6c1.5,0,2.6-0.2,3.8-0.6l0.6,2.9c-1.4,0.6-3.1,0.8-5,0.8
				c-4.7,0-7.3-2.7-7.3-7c0-3.5,2.2-7.3,6.9-7.3c4.4,0,6.1,3.4,6.1,6.8c0,0.7-0.1,1.4-0.1,1.7H58.8z M63.8,92.4c0-1-0.4-2.8-2.4-2.8
				c-1.8,0-2.5,1.6-2.6,2.8H63.8z"/>
			<path class="st3" d="M70.6,91.6c0-2-0.1-3.3-0.1-4.5h3.7l0.1,2.5h0.1c0.7-2,2.4-2.8,3.7-2.8c0.4,0,0.6,0,0.9,0.1v4
				c-0.3-0.1-0.7-0.1-1.1-0.1c-1.6,0-2.6,0.8-2.9,2.2c-0.1,0.3-0.1,0.6-0.1,1v6.9h-4.3V91.6z"/>
			<path class="st3" d="M89,100.8l-0.3-1.4h-0.1c-0.9,1.1-2.3,1.7-3.9,1.7c-2.8,0-4.4-2-4.4-4.2c0-3.6,3.2-5.3,8-5.2v-0.2
				c0-0.7-0.4-1.8-2.5-1.8c-1.4,0-2.9,0.5-3.8,1L81.3,88c1-0.5,2.8-1.2,5.3-1.2c4.6,0,6,2.7,6,5.9v4.8c0,1.3,0.1,2.6,0.2,3.3H89z
				 M88.5,94.3c-2.2,0-4,0.5-4,2.2c0,1.1,0.7,1.6,1.7,1.6c1.1,0,1.9-0.7,2.2-1.6c0.1-0.2,0.1-0.5,0.1-0.7V94.3z"/>
			<path class="st3" d="M109.5,80.9v15.8c0,1.5,0.1,3.2,0.1,4.1h-3.8l-0.2-2h-0.1c-0.9,1.5-2.5,2.3-4.3,2.3c-3.2,0-5.9-2.8-5.9-7
				c0-4.6,2.9-7.3,6.1-7.3c1.7,0,3,0.6,3.6,1.5h0.1v-7.4H109.5z M105.3,92.9c0-0.2,0-0.5-0.1-0.8c-0.3-1.1-1.2-2.1-2.5-2.1
				c-1.9,0-2.9,1.7-2.9,3.9c0,2.3,1.1,3.8,2.9,3.8c1.2,0,2.2-0.8,2.5-2c0.1-0.3,0.1-0.6,0.1-1V92.9z"/>
			<path class="st3" d="M126.8,93.8c0,5-3.6,7.3-7.2,7.3c-4,0-7.1-2.6-7.1-7.1c0-4.4,2.9-7.3,7.3-7.3
				C124,86.7,126.8,89.6,126.8,93.8z M116.8,93.9c0,2.4,1,4.1,2.8,4.1c1.7,0,2.7-1.7,2.7-4.1c0-2-0.8-4.1-2.7-4.1
				C117.6,89.8,116.8,91.9,116.8,93.9z"/>
			<path class="st3" d="M129.7,91.6c0-2-0.1-3.3-0.1-4.5h3.7l0.1,2.5h0.1c0.7-2,2.4-2.8,3.7-2.8c0.4,0,0.6,0,0.9,0.1v4
				c-0.3-0.1-0.7-0.1-1.1-0.1c-1.6,0-2.6,0.8-2.9,2.2c-0.1,0.3-0.1,0.6-0.1,1v6.9h-4.3V91.6z"/>
			<path class="st3" d="M157.9,92.8H151v4.5h7.8v3.5h-12V81.9h11.7v3.5H151v3.9h6.9V92.8z"/>
			<path class="st3" d="M172,100.4c-0.8,0.3-2.2,0.6-3.8,0.6c-4.4,0-7.3-2.7-7.3-7c0-4,2.7-7.3,7.8-7.3c1.1,0,2.4,0.2,3.2,0.5
				l-0.7,3.2c-0.5-0.2-1.3-0.4-2.4-0.4c-2.2,0-3.7,1.6-3.7,3.8c0,2.5,1.7,3.8,3.8,3.8c1,0,1.8-0.2,2.4-0.4L172,100.4z"/>
			<path class="st3" d="M187.8,93.8c0,5-3.6,7.3-7.2,7.3c-4,0-7.1-2.6-7.1-7.1c0-4.4,2.9-7.3,7.3-7.3
				C185,86.7,187.8,89.6,187.8,93.8z M177.9,93.9c0,2.4,1,4.1,2.8,4.1c1.7,0,2.7-1.7,2.7-4.1c0-2-0.8-4.1-2.7-4.1
				C178.6,89.8,177.9,91.9,177.9,93.9z"/>
			<path class="st3" d="M190.7,91.4c0-1.7-0.1-3.2-0.1-4.4h3.7l0.2,1.9h0.1c0.6-0.9,2-2.2,4.2-2.2c2.8,0,4.9,1.8,4.9,5.9v8.1h-4.3
				v-7.6c0-1.8-0.6-3-2.2-3c-1.2,0-1.9,0.8-2.2,1.6c-0.1,0.3-0.2,0.7-0.2,1.1v7.9h-4.3V91.4z"/>
			<path class="st3" d="M220.9,93.8c0,5-3.6,7.3-7.2,7.3c-4,0-7.1-2.6-7.1-7.1c0-4.4,2.9-7.3,7.3-7.3
				C218.1,86.7,220.9,89.6,220.9,93.8z M211,93.9c0,2.4,1,4.1,2.8,4.1c1.7,0,2.7-1.7,2.7-4.1c0-2-0.8-4.1-2.7-4.1
				C211.8,89.8,211,91.9,211,93.9z M218.3,81.1l-3.4,4.3h-2.9l2.4-4.3H218.3z"/>
			<path class="st3" d="M223.9,91.4c0-1.7-0.1-3.2-0.1-4.4h3.6l0.2,1.8h0.1c0.6-0.9,1.8-2.2,4.1-2.2c1.8,0,3.2,0.9,3.8,2.3h0.1
				c0.5-0.7,1.1-1.3,1.8-1.7c0.8-0.4,1.6-0.7,2.6-0.7c2.6,0,4.6,1.8,4.6,5.9v8.1h-4.1v-7.5c0-2-0.6-3.1-2-3.1c-1,0-1.7,0.7-2,1.5
				c-0.1,0.3-0.2,0.8-0.2,1.1v8h-4.1v-7.7c0-1.7-0.6-2.9-2-2.9c-1.1,0-1.7,0.8-2,1.5c-0.1,0.3-0.2,0.7-0.2,1.1v8h-4.1V91.4z"/>
			<path class="st3" d="M252.6,83.2c0,1.2-0.9,2.1-2.3,2.1c-1.3,0-2.2-1-2.2-2.1c0-1.2,0.9-2.2,2.2-2.2
				C251.7,81.1,252.6,82,252.6,83.2z M248.2,100.8V87.1h4.3v13.7H248.2z"/>
			<path class="st3" d="M266.5,100.4c-0.8,0.3-2.2,0.6-3.8,0.6c-4.4,0-7.3-2.7-7.3-7c0-4,2.7-7.3,7.8-7.3c1.1,0,2.4,0.2,3.2,0.5
				l-0.7,3.2c-0.5-0.2-1.3-0.4-2.4-0.4c-2.2,0-3.7,1.6-3.7,3.8c0,2.5,1.7,3.8,3.8,3.8c1,0,1.8-0.2,2.4-0.4L266.5,100.4z"/>
			<path class="st3" d="M282.3,93.8c0,5-3.6,7.3-7.2,7.3c-4,0-7.1-2.6-7.1-7.1c0-4.4,2.9-7.3,7.3-7.3
				C279.5,86.7,282.3,89.6,282.3,93.8z M272.4,93.9c0,2.4,1,4.1,2.8,4.1c1.7,0,2.7-1.7,2.7-4.1c0-2-0.8-4.1-2.7-4.1
				C273.2,89.8,272.4,91.9,272.4,93.9z"/>
		</g>
		<g>
			<path class="st3" d="M84.5,120.8l-1.3,4.8h-4.4l5.8-18.9h5.6l5.9,18.9h-4.6l-1.5-4.8H84.5z M89.3,117.6l-1.2-4
				c-0.3-1.1-0.7-2.5-1-3.6h-0.1c-0.3,1.1-0.6,2.5-0.9,3.6l-1.1,4H89.3z"/>
			<path class="st3" d="M111.4,121.2c0,1.8,0.1,3.2,0.1,4.4h-3.7l-0.2-1.9h-0.1c-0.5,0.8-1.8,2.2-4.3,2.2c-2.8,0-4.8-1.7-4.8-6v-8
				h4.3v7.4c0,2,0.6,3.2,2.1,3.2c1.2,0,1.8-0.8,2.1-1.5c0.1-0.3,0.1-0.6,0.1-0.9v-8.2h4.3V121.2z"/>
			<path class="st3" d="M120.1,108v3.9h3.1v3.1h-3.1v5c0,1.7,0.4,2.4,1.7,2.4c0.5,0,1-0.1,1.3-0.1l0,3.2c-0.6,0.2-1.6,0.4-2.8,0.4
				c-1.4,0-2.5-0.5-3.2-1.2c-0.8-0.8-1.2-2.1-1.2-4.1V115h-1.8v-3.1h1.8v-3L120.1,108z"/>
			<path class="st3" d="M139.6,118.6c0,5-3.6,7.3-7.2,7.3c-4,0-7.1-2.6-7.1-7.1c0-4.4,2.9-7.3,7.3-7.3
				C136.8,111.6,139.6,114.5,139.6,118.6z M129.7,118.7c0,2.4,1,4.1,2.8,4.1c1.7,0,2.7-1.7,2.7-4.1c0-2-0.8-4.1-2.7-4.1
				C130.4,114.6,129.7,116.7,129.7,118.7z"/>
			<path class="st3" d="M142.8,116.4c0-2-0.1-3.3-0.1-4.5h3.7l0.1,2.5h0.1c0.7-2,2.4-2.8,3.7-2.8c0.4,0,0.6,0,0.9,0.1v4
				c-0.3-0.1-0.7-0.1-1.1-0.1c-1.6,0-2.6,0.8-2.9,2.2c-0.1,0.3-0.1,0.6-0.1,1v6.9h-4.3V116.4z"/>
			<path class="st3" d="M158.4,108.1c0,1.2-0.9,2.1-2.3,2.1c-1.3,0-2.2-1-2.2-2.1c0-1.2,0.9-2.2,2.2-2.2S158.4,106.9,158.4,108.1z
				 M154,125.6v-13.7h4.3v13.7H154z"/>
			<path class="st3" d="M161.1,123.2l4.3-5.4c0.8-0.9,1.4-1.6,2.2-2.4v-0.1h-6v-3.4h11.2v2.5l-4.1,5.2c-0.8,0.9-1.5,1.8-2.2,2.5v0.1
				h6.6v3.4h-11.9V123.2z"/>
			<path class="st3" d="M183.7,125.6l-0.3-1.4h-0.1c-0.9,1.1-2.3,1.7-3.9,1.7c-2.8,0-4.4-2-4.4-4.2c0-3.6,3.2-5.3,8-5.2v-0.2
				c0-0.7-0.4-1.8-2.5-1.8c-1.4,0-2.9,0.5-3.8,1l-0.8-2.7c1-0.5,2.8-1.2,5.3-1.2c4.6,0,6,2.7,6,5.9v4.8c0,1.3,0.1,2.6,0.2,3.3H183.7
				z M183.2,119.1c-2.2,0-4,0.5-4,2.2c0,1.1,0.7,1.6,1.7,1.6c1.1,0,1.9-0.7,2.2-1.6c0.1-0.2,0.1-0.5,0.1-0.7V119.1z"/>
			<path class="st3" d="M204.6,105.7v15.8c0,1.5,0.1,3.2,0.1,4.1h-3.8l-0.2-2h-0.1c-0.9,1.5-2.5,2.3-4.3,2.3c-3.2,0-5.9-2.8-5.9-7
				c0-4.6,2.9-7.3,6.1-7.3c1.7,0,3,0.6,3.6,1.5h0.1v-7.4H204.6z M200.3,117.7c0-0.2,0-0.5-0.1-0.8c-0.3-1.1-1.2-2.1-2.5-2.1
				c-1.9,0-2.9,1.7-2.9,3.9c0,2.3,1.1,3.8,2.9,3.8c1.2,0,2.2-0.8,2.5-2c0.1-0.3,0.1-0.6,0.1-1V117.7z"/>
			<path class="st3" d="M222.1,118.6c0,5-3.6,7.3-7.2,7.3c-4,0-7.1-2.6-7.1-7.1c0-4.4,2.9-7.3,7.3-7.3
				C219.3,111.6,222.1,114.5,222.1,118.6z M212.2,118.7c0,2.4,1,4.1,2.8,4.1c1.7,0,2.7-1.7,2.7-4.1c0-2-0.8-4.1-2.7-4.1
				C212.9,114.6,212.2,116.7,212.2,118.7z"/>
		</g>
		<g>
			<path class="st4" d="M106,142.8c-0.1-1.3-0.2-3-0.1-4.5h-0.1c-0.2,1.5-0.6,3.1-0.9,4.2l-1.2,4.9h-1.9l-1.1-4.8
				c-0.3-1.1-0.6-2.8-0.8-4.3h-0.1c0,1.5-0.1,3.2-0.2,4.5l-0.2,4.7h-2.3l1-13.6h2.8l1.1,4.9c0.4,1.7,0.7,3.2,1,4.8h0
				c0.2-1.5,0.5-3,0.9-4.8l1.1-4.9h2.8l0.8,13.6h-2.4L106,142.8z"/>
			<path class="st4" d="M127.1,141.6H124v3.7h3.5v2.3h-6.2V134h5.9v2.3H124v3.1h3.1V141.6z M127.5,131l-2.5,2.3h-1.9l1.7-2.3H127.5z
				"/>
			<path class="st4" d="M144.5,147.6l-0.9-2.5c-0.3-0.8-0.5-1.6-0.7-2.4h0c-0.2,0.9-0.4,1.7-0.6,2.5l-0.7,2.5h-2.6l2.5-7l-2.4-6.6
				h2.8l0.8,2.5c0.2,0.7,0.4,1.4,0.6,2.2h0c0.2-0.8,0.4-1.5,0.6-2.2l0.7-2.5h2.6l-2.5,6.8l2.7,6.8H144.5z"/>
			<path class="st4" d="M161.7,134v13.6h-2.6V134H161.7z"/>
			<path class="st4" d="M181.4,147.4c-0.4,0.2-1.1,0.3-2.1,0.3c-3.5,0-5.1-2.9-5.1-6.7c0-5.1,2.8-7.1,5.5-7.1c0.9,0,1.6,0.2,1.8,0.4
				l-0.4,2.2c-0.3-0.1-0.6-0.3-1.2-0.3c-1.5,0-2.8,1.3-2.8,4.7c0,3.3,1.2,4.5,2.8,4.5c0.4,0,0.9-0.1,1.3-0.2L181.4,147.4z"/>
			<path class="st4" d="M201.4,140.6c0,5.1-1.8,7.2-4.4,7.2c-3.1,0-4.3-3.3-4.3-7c0-3.7,1.5-6.9,4.5-6.9
				C200.5,133.8,201.4,137.5,201.4,140.6z M195.4,140.8c0,3.1,0.6,4.7,1.7,4.7c1.1,0,1.5-2,1.5-4.8c0-2.4-0.4-4.5-1.6-4.5
				C196,136.1,195.4,137.9,195.4,140.8z"/>
		</g>
		<circle class="st5" cx="59.6" cy="141.4" r="6.3"/>
		<circle class="st5" cx="81.1" cy="141.4" r="6.3"/>
		<circle class="st6" cx="218.6" cy="141.4" r="6.3"/>
		<circle class="st6" cx="240.1" cy="141.4" r="6.3"/>
	</g>
</g>
</svg>
