<?xml version="1.0" encoding="utf-8"?>
<!-- Generator: Adobe Illustrator 19.2.1, SVG Export Plug-In . SVG Version: 6.00 Build 0)  -->
<svg version="1.1" id="Layer_1" xmlns="http://www.w3.org/2000/svg" xmlns:xlink="http://www.w3.org/1999/xlink" x="0px" y="0px"
	 viewBox="0 0 200 200" style="enable-background:new 0 0 200 200;" xml:space="preserve">
<style type="text/css">
	.st0{fill:#AE1A17;}
</style>
<g>
	<g>
		<g id="Layer_2_29_">
			<g>
				<path class="st0" d="M139.2,149.4c-0.6,0-1.3-0.2-1.8-0.5l-10.8-6.4c-0.2-0.1-0.7-0.2-0.9-0.2l-22.4,4.7
					c-1.2,0.3-2.8-0.1-3.8-0.8L76.3,130c-0.9-0.6-1.8-1.9-2.1-3l-4.4-15.3c-0.2-0.6-0.6-1.5-0.8-1.8l-23.8-36
					c-0.2-0.2-0.4-0.5-0.6-0.7h-0.8l16.3,40c0.7,1.6,0,3.4-1.6,4.2l-2.8,1.4c-1.5,0.8-3.4,0.2-4.3-1.3L37.6,94.5
					c-0.2-0.3-0.7-0.8-1-1.2l-0.2-0.2L28,85c-0.3-0.3-1.3-1.2-0.7-2.5c0.5-1.3,1.8-1.2,2.2-1.2l4.1,0l-6.7-25.1
					c-0.2-0.9-0.1-1.8,0.5-2.6c0.5-0.7,1.4-1.1,2.3-1.1h12.6c1,0,2.5,0.3,3.5,1.1L56.4,62c0,0,0.3,0.1,1.1,0.1h6.2v-1.3
					c0-2,2.4-3.5,3.9-3.5h10.1c1.1,0,2.7,0.5,3.6,1.6l8.3,10.3c0.2,0,0.4,0,0.6,0h7.7c1.7,0,3.1,1.6,3.6,2.3l13.6,18.7
					c0.7,0.9,1.1,2.4,1,3.6c-0.3,3.6-1.7,21.9,5.9,30.3c2.6,2.8,5.8,4.2,10,4.2c14.7,0,17.6-6.9,18.1-9.8c0-0.2,0.4-1.9,1.1-3.1
					l3.6-5.6c0.7-1,2.1-2.2,3.6-2.2H171c0.9,0,1.7,0.4,2.3,1.1c0.6,0.8,0.8,1.8,0.6,2.7l-1.9,7.9c-0.3,1-1,2.3-1.7,3l-15.9,15.9
					l1.4,2.7c0.5,0.9,0.4,2-0.1,2.8c-0.5,0.8-1.4,1.3-2.3,1.3h-7.6c-0.3,0-0.7,0.1-0.8,0.2l-3.3,3.1
					C141.1,149,140.2,149.4,139.2,149.4z M139,145.6C139,145.6,139,145.6,139,145.6L139,145.6z M125.9,138.4c1,0,2,0.3,2.8,0.7
					l10.6,6.3l3.1-3c0.9-0.9,2.5-1.3,3.5-1.3h5.8l-0.7-1.4c-0.7-1.3-0.4-3.2,0.7-4.3l15.9-15.9c0.2-0.2,0.6-0.9,0.7-1.2l1.7-6.9
					h-11.5c0,0-0.2,0.3-0.3,0.4l-3.6,5.6c-0.2,0.2-0.4,1-0.6,1.7c-0.6,3-3.9,13-21.9,13c-5.2,0-9.6-1.8-12.9-5.5
					c-8.4-9.3-7.4-27.8-6.8-33.2c0-0.2-0.1-0.7-0.2-0.9L98.3,73.9c-0.2-0.3-0.5-0.6-0.7-0.7h-7.3c-1,0-2.6,0-3.6-1.2l-8.5-10.6
					c-0.1-0.1-0.4-0.2-0.5-0.2h-9.9c0,0-0.1,0.1-0.2,0.1l0,2.3c0,0.4,0,1.1-0.6,1.8C66.4,66,65.7,66,65.1,66h-7.6
					c-1.6,0-2.7-0.3-3.5-0.9l-10.6-8.4c-0.1-0.1-0.7-0.3-1-0.3H31L37.6,81c0.3,1,0,2.2-0.6,3c-0.5,0.7-1.3,1.1-2.2,1.1h-1.1l5.5,5.4
					c0.5,0.5,1.2,1.2,1.6,1.9l13.6,22.6l1.8-0.9L39.8,73.6c-0.4-1-0.3-2.2,0.3-3.1c0.5-0.8,1.3-1.2,2.3-1.2h2.5c1.9,0,3.3,2,3.6,2.4
					l23.8,36c0.5,0.8,1.1,2.1,1.3,2.9l4.4,15.3c0.1,0.3,0.4,0.8,0.6,0.9l23.2,16.2c0.2,0.1,0.6,0.2,0.8,0.2l22.4-4.7
					C125.2,138.5,125.5,138.4,125.9,138.4z M152.3,142.7C152.3,142.7,152.3,142.7,152.3,142.7L152.3,142.7z M56.5,114.7
					C56.5,114.7,56.5,114.7,56.5,114.7L56.5,114.7z M171,111.5L171,111.5L171,111.5z M170.1,110.6
					C170.1,110.6,170.1,110.6,170.1,110.6L170.1,110.6z M33.9,82C33.9,82,33.9,82,33.9,82L33.9,82z M97.5,73.1L97.5,73.1L97.5,73.1z
					 M43.4,72.2L43.4,72.2C43.4,72.2,43.4,72.2,43.4,72.2z M89.8,69.5L89.8,69.5C89.8,69.5,89.8,69.5,89.8,69.5z M30.7,55.2
					L30.7,55.2L30.7,55.2z"/>
			</g>
		</g>
	</g>
	<g>
		<g>
			<path class="st0" d="M100,197.7c-53.9,0-97.7-43.8-97.7-97.7S46.1,2.3,100,2.3c53.9,0,97.7,43.8,97.7,97.7S153.9,197.7,100,197.7
				z M100,7.3C48.9,7.3,7.3,48.9,7.3,100s41.6,92.7,92.7,92.7s92.7-41.6,92.7-92.7S151.1,7.3,100,7.3z"/>
		</g>
	</g>
</g>
</svg>
