<?xml version="1.0" encoding="utf-8"?>
<!-- Generator: Adobe Illustrator 19.2.1, SVG Export Plug-In . SVG Version: 6.00 Build 0)  -->
<svg version="1.1" id="Layer_1" xmlns="http://www.w3.org/2000/svg" xmlns:xlink="http://www.w3.org/1999/xlink" x="0px" y="0px"
	 viewBox="0 0 200 200" style="enable-background:new 0 0 200 200;" xml:space="preserve">
<style type="text/css">
	.st0{fill:#AE1A17;}
</style>
<g>
	<g>
		<g>
			<path class="st0" d="M100,197.7c-53.9,0-97.7-43.8-97.7-97.7S46.1,2.3,100,2.3c53.9,0,97.7,43.8,97.7,97.7S153.9,197.7,100,197.7
				z M100,7.3C48.9,7.3,7.3,48.9,7.3,100s41.6,92.7,92.7,92.7s92.7-41.6,92.7-92.7S151.1,7.3,100,7.3z"/>
		</g>
	</g>
</g>
<g>
	<g>
		<g>
			<path class="st0" d="M159.3,136.2L131,108c-1-1-2.5-1-3.5,0l-4.1,4.1l-5-5l13.9-13.9c7.3-7.2,7.4-18.9,0.4-25.9
				c-7-7-18.7-6.9-25.9,0.4L93,81.5l-5-5l4.1-4.1c1-1,1-2.5,0-3.5L63.8,40.8c-1-0.9-2.5-0.9-3.5,0L46.2,54.8c-1,1-1,2.5,0,3.5
				l28.2,28.2c1,1,2.5,1,3.5,0l6.5-6.5l5,5l-13,13c-1,1-1,2.5,0,3.5l0.9,0.9c-6.9-0.8-13.8,1.6-18.7,6.5c-1,1-1,2.5,0,3.5l28.9,28.9
				c1,1,2.5,1,3.5,0c4.3-4.3,6.7-10.1,6.7-16.2c0-0.8,0-1.7-0.1-2.5l0.9,0.9c1,1,2.5,1,3.5,0l13-12.9l5,5l-6.5,6.5c-1,1-1,2.5,0,3.5
				l28.2,28.2c1,1,2.5,1,3.5,0l14.1-14.1C160.2,138.7,160.2,137.2,159.3,136.2z M76.2,81.3L51.5,56.6L62,46l24.7,24.7L76.2,81.3z
				 M89.2,136L64,110.8c7-5.3,16.8-4.7,23.1,1.3l0.9,0.9c3,3.3,4.7,7.6,4.7,12.1C92.8,129.1,91.5,132.9,89.2,136z M100.3,118.3
				l-8.6-8.6c-0.2-0.2-0.4-0.4-0.6-0.6c-0.2-0.2-0.4-0.4-0.6-0.6l-8.7-8.7l28.7-28.7c5.3-5.3,13.8-5.5,18.9-0.4
				c5.1,5.1,4.9,13.6-0.4,18.9L100.3,118.3z M143.4,148.5l-24.7-24.7l10.6-10.6L154,138L143.4,148.5z"/>
			<path class="st0" d="M73.6,147.6c-5.9,5.9-15.4,5.9-21.2,0s-5.9-15.4,0-21.2c0.9-1,0.9-2.6,0-3.5c-1-0.9-2.5-0.9-3.5,0
				c-7.8,7.8-7.8,20.5,0,28.3c7.8,7.8,20.5,7.8,28.3,0c0.9-1,0.9-2.6,0-3.5C76.1,146.7,74.5,146.7,73.6,147.6z"/>
			<path class="st0" d="M61.8,127.9c-1-1-2.5-1-3.5,0c-3.8,3.8-3.8,10,0,13.8c3.8,3.8,10,3.8,13.8,0c0.9-1,0.9-2.6,0-3.5
				c-1-0.9-2.5-0.9-3.5,0c-1.9,1.9-4.9,1.9-6.8,0c-1.9-1.9-1.9-4.9,0-6.8C62.8,130.4,62.8,128.9,61.8,127.9z"/>
		</g>
	</g>
</g>
</svg>
