<?xml version="1.0" encoding="utf-8"?>
<!-- Generator: Adobe Illustrator 19.2.1, SVG Export Plug-In . SVG Version: 6.00 Build 0)  -->
<svg version="1.1" id="Layer_1" xmlns="http://www.w3.org/2000/svg" xmlns:xlink="http://www.w3.org/1999/xlink" x="0px" y="0px"
	 viewBox="0 0 200 200" style="enable-background:new 0 0 200 200;" xml:space="preserve">
<style type="text/css">
	.st0{fill:#AE1A17;}
</style>
<g>
	<g>
		<g>
			<path class="st0" d="M100,197.7c-53.9,0-97.7-43.8-97.7-97.7S46.1,2.3,100,2.3c53.9,0,97.7,43.8,97.7,97.7S153.9,197.7,100,197.7
				z M100,7.3C48.9,7.3,7.3,48.9,7.3,100s41.6,92.7,92.7,92.7s92.7-41.6,92.7-92.7S151.1,7.3,100,7.3z"/>
		</g>
	</g>
</g>
<g>
	<path class="st0" d="M89.3,70.5c-8.3,0-15,6.4-15,14.2c0,6.8,5,12.5,11.7,13.9c0.2-0.4,0.4-0.7,0.7-1c2.2-3.1,5.2-3.6,6.2-3.7
		c0.4,0,0.8-0.1,1.2-0.1c1.4,0,3.4,0.3,5.4,1.3c2.9-2.6,4.7-6.3,4.7-10.4C104.3,76.8,97.6,70.5,89.3,70.5z M99.6,86.9
		c0,0.4-0.2,2.1-0.7,2.1c-0.3,0-0.7,0-1,0c-0.7,0-0.7-1.5-0.9-0.8c-0.1,0.8-0.3,0.9-0.7,1.7c-0.3,0.6-0.5,0.3-1.1,0.1
		c-0.5-0.1-1-0.4-1.5-0.6c-0.6-0.2-0.6-0.4-0.4-0.9c0.5-0.8,0.7-1.8,0.9-2.7c0.1-0.6,0-1.2-0.2-1.8c-0.5-1-1.8-1.2-2.5-0.3
		c-0.3,0.3-0.5,0.6-0.6,1c-0.4,0.9-0.7,1.9-1.3,2.7c-0.9,1.4-2.1,2.3-3.9,2.2c-2-0.1-3.3,0.3-4-1.4c-0.3-0.7-0.3,0.8-1.1,0.8
		c-0.3,0-0.5,0-0.8,0c-0.6,0-0.8-3.2-0.8-3.8c0-0.2,0-0.4,0-0.5c0-1.2,0-1.2,1.3-1.2c0.9,0,0.9,0,1.1-0.9c0.1-0.7,0.3-1.3,0.6-1.9
		c0.2-0.3,0.4-0.5,0.8-0.4c0.6,0.1,1.1,0.3,1.7,0.5c0.5,0.1,0.6,0.3,0.4,0.8c-0.5,1-0.7,1.9-0.6,3c0,0.3,0,0.6,0.2,0.8
		c0.4,0.9,1.5,1,2.1,0.3c0.3-0.4,0.6-0.8,0.8-1.3c0.4-0.8,0.7-1.6,1.1-2.4c1.4-2.4,4.6-3.1,6.9-1.4c0.8,0.6,1.3,1.4,1.6,2.4
		c0.1,0.4,0.3,0.6,0.8,0.6c0.5,0,0.9,0,1.3,0c0.4,0,0.6,0.9,0.6,1.3C99.6,85.3,99.6,86.5,99.6,86.9z"/>
	<path class="st0" d="M136,103c-1.4-1-17.5-13.7-21-16.3l0.1,37.3H115V85V47.2c0-4.4-3.7-5.2-8.3-5.2H69.2c-4.6,0-8.2,0.9-8.2,5.2
		v73.8c0,4.4,3.6,9.9,8.2,9.9h25.2l0.7,3.3c0,0,2.8,9.2,9.8,16.3v2.1c0,1.1,0.6,7.3,1.8,7.3H130c1.1,0,2-3.4,2.1-4.5
		c0.8-7.3,4-35.9,5.9-40c0.3-0.7,0.6-2,0.7-2.7C139.2,110.5,139.4,105.5,136,103z M112,124h-1.1l-1.1-2.1c-1.7-1.9-5.7-8.6-5.7-8.6
		s-1.5-15.9-9.7-15.9c-0.2,0-0.4-0.2-0.7-0.2c0,0-6.2,1.5-1.1,18.5L94,128H75.3c0.2,0,0.3-2.3,0.3-3c0-4.1-3.4-8-7.8-8
		c-1,0-0.8-0.3-2.8,0.1V52.7c2,0.2,1.3,0.3,2,0.3c4.3-0.1,7.8-2.4,7.7-6.6c0-0.8-0.3,0.6-0.5-1.4h27.3c-0.1,2-0.2,0.1-0.2,0.7
		c0.1,4.1,3.6,6.9,8,6.9c1,0,2.8-0.7,2.8-1V124z"/>
</g>
</svg>
