<?xml version="1.0" encoding="utf-8"?>
<!-- Generator: Adobe Illustrator 19.2.1, SVG Export Plug-In . SVG Version: 6.00 Build 0)  -->
<svg version="1.1" id="Layer_1" xmlns="http://www.w3.org/2000/svg" xmlns:xlink="http://www.w3.org/1999/xlink" x="0px" y="0px"
	 viewBox="0 0 200 200" style="enable-background:new 0 0 200 200;" xml:space="preserve">
<style type="text/css">
	.st0{fill:#AE1A17;}
</style>
<g>
	<g>
		<g>
			<path class="st0" d="M100,197.7c-53.9,0-97.7-43.8-97.7-97.7S46.1,2.3,100,2.3c53.9,0,97.7,43.8,97.7,97.7S153.9,197.7,100,197.7
				z M100,7.3C48.9,7.3,7.3,48.9,7.3,100s41.6,92.7,92.7,92.7s92.7-41.6,92.7-92.7S151.1,7.3,100,7.3z"/>
		</g>
	</g>
</g>
<g>
	<g>
		<path class="st0" d="M135.8,71.7L135.8,71.7C135.8,71.7,135.8,71.7,135.8,71.7c0-0.1,0-0.2,0-0.3c0,0,0-0.1,0-0.1c0,0,0-0.1,0-0.1
			c0,0,0-0.1,0-0.1c0,0,0-0.1,0-0.1c0-0.1,0-0.1-0.1-0.1c0,0,0-0.1,0-0.1c0,0,0-0.1-0.1-0.1c0,0,0-0.1,0-0.1c0,0,0-0.1-0.1-0.1
			c0,0,0-0.1-0.1-0.1c0,0,0-0.1-0.1-0.1c0,0-0.1-0.1-0.1-0.1c0,0,0,0-0.1-0.1c0,0-0.1-0.1-0.1-0.1c0,0,0,0-0.1-0.1
			c0,0-0.1-0.1-0.1-0.1c0,0-0.1-0.1-0.1-0.1c0,0-0.1,0-0.1-0.1c-0.1,0-0.1-0.1-0.2-0.1c0,0,0,0,0,0l0,0c0,0,0,0,0,0L86.7,43.2
			c-0.8-0.4-1.7-0.4-2.5,0L36.3,69.5c0,0,0,0,0,0c0,0,0,0-0.1,0c0,0-0.1,0.1-0.1,0.1c0,0-0.1,0.1-0.1,0.1c0,0-0.1,0.1-0.1,0.1
			c0,0-0.1,0.1-0.1,0.1c0,0-0.1,0.1-0.1,0.1c0,0-0.1,0.1-0.1,0.1c0,0.1-0.1,0.1-0.1,0.2c0,0-0.1,0.1-0.1,0.1c0,0.1-0.1,0.1-0.1,0.2
			c0,0,0,0.1-0.1,0.1c0,0.1-0.1,0.2-0.1,0.2c0,0,0,0.1,0,0.1c0,0.1-0.1,0.2-0.1,0.3c0,0,0,0.1,0,0.1c0,0.1,0,0.2,0,0.3v43.8
			c0,1.4,1.2,2.6,2.6,2.6s2.6-1.2,2.6-2.6V76l9.3,4.9v14c0,1.4,1.2,2.6,2.6,2.6s2.6-1.2,2.6-2.6V84.1l13.1,7V112l-14.5-7.8
			c-1.3-0.7-2.8-0.2-3.5,1.1c-0.7,1.3-0.2,2.8,1.1,3.5l18.3,9.8c0.4,0.2,0.8,0.3,1.2,0.3c0.5,0,0.9-0.1,1.3-0.4
			c0.8-0.5,1.3-1.3,1.3-2.2V93.1l9.9,5.2v52l-44.1-22.9c-1.3-0.7-2.8-0.2-3.5,1.1c-0.7,1.3-0.2,2.8,1.1,3.5l47.8,24.9
			c0,0,0.1,0,0.1,0c0,0,0.1,0,0.1,0.1c0.1,0,0.1,0,0.2,0.1c0,0,0.1,0,0.1,0c0.1,0,0.1,0,0.2,0c0,0,0.1,0,0.1,0c0.1,0,0.2,0,0.3,0
			l0,0l0,0c0.1,0,0.2,0,0.3,0c0,0,0.1,0,0.1,0c0.1,0,0.1,0,0.2,0c0,0,0.1,0,0.1,0c0.1,0,0.1,0,0.2-0.1c0,0,0.1,0,0.1-0.1
			c0,0,0.1,0,0.1,0l47.8-24.9c0.9-0.4,1.4-1.3,1.4-2.3L135.8,71.7C135.8,71.7,135.8,71.7,135.8,71.7z M58.2,79.5L76,70.1l11.9,6.2
			l-16.9,9.9L58.2,79.5z M88,150.3v-52l34.1-17.8c1.3-0.7,1.8-2.2,1.1-3.5c-0.7-1.3-2.2-1.8-3.5-1.1L85.6,93.7L76.5,89l18.1-10.6
			c0.8-0.5,1.3-1.4,1.3-2.3c0-0.9-0.6-1.8-1.4-2.2l-17.3-9c-0.8-0.4-1.6-0.4-2.4,0L52.6,76.6l-9.5-5l42.3-23.2l45.2,24.8v54.9
			L88,150.3z"/>
		<path class="st0" d="M121.9,121.1l-20.4,10.6c-1.3,0.7-1.8,2.2-1.1,3.5c0.5,0.9,1.4,1.4,2.3,1.4c0.4,0,0.8-0.1,1.2-0.3l20.4-10.6
			c1.3-0.7,1.8-2.2,1.1-3.5C124.7,120.9,123.2,120.4,121.9,121.1z"/>
		<path class="st0" d="M121.9,109.2l-20.4,10.6c-1.3,0.7-1.8,2.2-1.1,3.5c0.5,0.9,1.4,1.4,2.3,1.4c0.4,0,0.8-0.1,1.2-0.3l20.4-10.6
			c1.3-0.7,1.8-2.2,1.1-3.5C124.7,109,123.2,108.5,121.9,109.2z"/>
		<path class="st0" d="M121.9,97.3l-11.7,6.1c-1.3,0.7-1.8,2.2-1.1,3.5c0.5,0.9,1.4,1.4,2.3,1.4c0.4,0,0.8-0.1,1.2-0.3l11.7-6.1
			c1.3-0.7,1.8-2.2,1.1-3.5C124.7,97.1,123.2,96.6,121.9,97.3z"/>
	</g>
	<g>
		<g>
			<path class="st0" d="M159.5,149.3c7.3-7.3,7.3-19.2,0-26.6c-7.3-7.3-19.2-7.3-26.6,0c-7.3,7.3-7.3,19.2,0,26.6
				C140.3,156.7,152.2,156.7,159.5,149.3z M139.5,133.2l4.2,4.2l9.2-9.2l3.3,3.3l-9.2,9.2l-3.3,3.3l-3.3-3.3l-4.2-4.2L139.5,133.2z"
				/>
		</g>
	</g>
</g>
</svg>
