<?xml version="1.0" encoding="utf-8"?>
<!-- Generator: Adobe Illustrator 19.2.1, SVG Export Plug-In . SVG Version: 6.00 Build 0)  -->
<svg version="1.1" id="Layer_1" xmlns="http://www.w3.org/2000/svg" xmlns:xlink="http://www.w3.org/1999/xlink" x="0px" y="0px"
	 viewBox="0 0 200 200" style="enable-background:new 0 0 200 200;" xml:space="preserve">
<style type="text/css">
	.st0{fill:#AE1A17;}
</style>
<g>
	<g>
		<g>
			<path class="st0" d="M100,197.7c-53.9,0-97.7-43.8-97.7-97.7S46.1,2.3,100,2.3c53.9,0,97.7,43.8,97.7,97.7S153.9,197.7,100,197.7
				z M100,7.3C48.9,7.3,7.3,48.9,7.3,100s41.6,92.7,92.7,92.7s92.7-41.6,92.7-92.7S151.1,7.3,100,7.3z"/>
		</g>
	</g>
</g>
<g>
	<g>
		<path class="st0" d="M136.2,71.7L136.2,71.7C136.2,71.7,136.2,71.7,136.2,71.7c0-0.1,0-0.2,0-0.3c0,0,0-0.1,0-0.1c0,0,0-0.1,0-0.1
			c0,0,0-0.1,0-0.1c0,0,0-0.1,0-0.1c0-0.1,0-0.1-0.1-0.1c0,0,0-0.1,0-0.1c0,0,0-0.1-0.1-0.1c0,0,0-0.1,0-0.1c0,0,0-0.1-0.1-0.1
			c0,0,0-0.1-0.1-0.1c0,0,0-0.1-0.1-0.1c0,0-0.1-0.1-0.1-0.1c0,0,0,0-0.1-0.1c0,0-0.1-0.1-0.1-0.1c0,0,0,0-0.1-0.1
			c0,0-0.1-0.1-0.1-0.1c0,0-0.1-0.1-0.1-0.1c0,0-0.1,0-0.1-0.1c-0.1,0-0.1-0.1-0.2-0.1c0,0,0,0,0,0l0,0c0,0,0,0,0,0L87,43.2
			c-0.8-0.4-1.7-0.4-2.5,0L36.7,69.5c0,0,0,0,0,0c0,0,0,0-0.1,0c0,0-0.1,0.1-0.1,0.1c0,0-0.1,0.1-0.1,0.1c0,0-0.1,0.1-0.1,0.1
			c0,0-0.1,0.1-0.1,0.1c0,0-0.1,0.1-0.1,0.1c0,0-0.1,0.1-0.1,0.1c0,0.1-0.1,0.1-0.1,0.2c0,0-0.1,0.1-0.1,0.1c0,0.1-0.1,0.1-0.1,0.2
			c0,0,0,0.1-0.1,0.1c0,0.1-0.1,0.2-0.1,0.2c0,0,0,0.1,0,0.1c0,0.1-0.1,0.2-0.1,0.3c0,0,0,0.1,0,0.1c0,0.1,0,0.2,0,0.3v43.8
			c0,1.4,1.2,2.6,2.6,2.6c1.4,0,2.6-1.2,2.6-2.6V76l9.3,4.9v14c0,1.4,1.2,2.6,2.6,2.6s2.6-1.2,2.6-2.6V84.1l13.1,7V112l-14.5-7.8
			c-1.3-0.7-2.8-0.2-3.5,1.1c-0.7,1.3-0.2,2.8,1.1,3.5l18.3,9.8c0.4,0.2,0.8,0.3,1.2,0.3c0.5,0,0.9-0.1,1.3-0.4
			c0.8-0.5,1.3-1.3,1.3-2.2V93.1l9.9,5.2v51.9l-44-22.9c-1.3-0.7-2.8-0.2-3.5,1.1c-0.7,1.3-0.2,2.8,1.1,3.5l47.8,24.8
			c0,0,0.1,0,0.1,0c0,0,0.1,0,0.1,0.1c0.1,0,0.1,0,0.2,0.1c0,0,0.1,0,0.1,0c0.1,0,0.1,0,0.2,0c0,0,0.1,0,0.1,0c0.1,0,0.2,0,0.3,0
			l0,0l0,0c0.1,0,0.2,0,0.3,0c0,0,0.1,0,0.1,0c0.1,0,0.1,0,0.2,0c0,0,0.1,0,0.1,0c0.1,0,0.1,0,0.2-0.1c0,0,0.1,0,0.1-0.1
			c0,0,0.1,0,0.1,0l47.8-24.8c0.9-0.4,1.4-1.3,1.4-2.3V71.7C136.2,71.8,136.2,71.7,136.2,71.7z M58.6,79.5l17.8-9.4l11.9,6.2
			l-16.9,9.8L58.6,79.5z M88.4,150.3V98.3l34.1-17.8c1.3-0.7,1.8-2.2,1.1-3.5c-0.7-1.3-2.2-1.8-3.5-1.1L86,93.8L76.9,89L95,78.5
			c0.8-0.5,1.3-1.4,1.3-2.3c0-0.9-0.6-1.8-1.4-2.2l-17.2-9c-0.8-0.4-1.6-0.4-2.4,0L53,76.6l-9.5-5l42.3-23.2L131,73.3v54.8
			L88.4,150.3z"/>
		<path class="st0" d="M122.2,121l-20.4,10.6c-1.3,0.7-1.8,2.2-1.1,3.5c0.5,0.9,1.4,1.4,2.3,1.4c0.4,0,0.8-0.1,1.2-0.3l20.4-10.6
			c1.3-0.7,1.8-2.2,1.1-3.5C125.1,120.9,123.5,120.4,122.2,121z"/>
		<path class="st0" d="M122.2,109.2l-20.4,10.6c-1.3,0.7-1.8,2.2-1.1,3.5c0.5,0.9,1.4,1.4,2.3,1.4c0.4,0,0.8-0.1,1.2-0.3l20.4-10.6
			c1.3-0.7,1.8-2.2,1.1-3.5C125.1,109,123.5,108.5,122.2,109.2z"/>
		<path class="st0" d="M122.2,97.3l-11.7,6.1c-1.3,0.7-1.8,2.2-1.1,3.5c0.5,0.9,1.4,1.4,2.3,1.4c0.4,0,0.8-0.1,1.2-0.3l11.7-6.1
			c1.3-0.7,1.8-2.2,1.1-3.5C125.1,97.1,123.5,96.6,122.2,97.3z"/>
	</g>
	<g>
		<g>
			<g>
				<path class="st0" d="M145.5,136.9c-1.1,0-2,0.9-2,2c0,0.7,0.4,1.4,1,1.7v2.2h2v-2.2c0.6-0.3,1-1,1-1.7
					C147.5,137.8,146.6,136.9,145.5,136.9z"/>
				<path class="st0" d="M145.5,127.2c-1.7,0-3,1.4-3,3v3.2h6.1v-3.2C148.5,128.6,147.1,127.2,145.5,127.2z"/>
				<path class="st0" d="M145.5,116.3c-10.6,0-19.1,8.6-19.1,19.1c0,10.6,8.6,19.1,19.1,19.1c10.6,0,19.1-8.6,19.1-19.1
					C164.6,124.8,156,116.3,145.5,116.3z M151.4,145.2h-11.8c-1.2,0-2.2-1-2.2-2.2v-7.3c0-1.1,0.8-2,1.8-2.2v-3.3
					c0-3.5,2.8-6.3,6.3-6.3c3.5,0,6.3,2.8,6.3,6.3v3.3c1,0.2,1.8,1.1,1.8,2.2v7.3h0C153.6,144.2,152.6,145.2,151.4,145.2z"/>
			</g>
		</g>
	</g>
</g>
</svg>
