<?xml version="1.0" encoding="utf-8"?>
<!-- Generator: Adobe Illustrator 19.2.1, SVG Export Plug-In . SVG Version: 6.00 Build 0)  -->
<svg version="1.1" id="Layer_1" xmlns="http://www.w3.org/2000/svg" xmlns:xlink="http://www.w3.org/1999/xlink" x="0px" y="0px"
	 viewBox="0 0 200 200" style="enable-background:new 0 0 200 200;" xml:space="preserve">
<style type="text/css">
	.st0{fill:#AE1A17;}
</style>
<g>
	<g>
		<g>
			<path class="st0" d="M100,197.7c-53.9,0-97.7-43.8-97.7-97.7S46.1,2.3,100,2.3c53.9,0,97.7,43.8,97.7,97.7S153.9,197.7,100,197.7
				z M100,7.3C48.9,7.3,7.3,48.9,7.3,100s41.6,92.7,92.7,92.7s92.7-41.6,92.7-92.7S151.1,7.3,100,7.3z"/>
		</g>
	</g>
</g>
<g>
	<g>
		<path class="st0" d="M86.7,112.1H67c-13.3,0-23.9,10.6-24.2,23.7c-0.7,4-1.7,10.9,0.7,13.3c6.7,6.4,21.7,8.9,33.3,8.9
			c11.8,0,26.6-2.5,33.3-8.9c2.5-2.5,1.5-9.4,0.7-13.3C110.7,122.7,99.8,112.1,86.7,112.1z M107,145.4c-4.7,4.7-16.3,7.7-29.8,7.7
			c-13.6,0-25.4-3-29.8-7.4c-0.5-1-2.9-27.8,19.7-28.9c5.1-0.3,20,0,20,0C109.1,116.8,107.5,144.7,107,145.4L107,145.4z"/>
		<path class="st0" d="M76.6,107.7c10.8,0,19.7-8.9,19.5-19.5c0-10.9-8.6-19.5-19.5-19.5c-10.6,0-19.5,8.9-19.5,19.5
			C57.1,99,65.8,107.7,76.6,107.7z M76.6,73.6c8.1,0,14.8,6.7,14.8,14.6s-6.7,14.6-14.8,14.6S61.8,96,61.8,88.1S68.5,73.6,76.6,73.6
			z"/>
		<path class="st0" d="M99.3,45.2v29.5c0,1.8,1.4,3.2,3.2,3.2h1.3c1.8,0,3.2,1.4,3.2,3.2v6.7c0,2.8,3.4,4.3,5.4,2.2l11.2-11.2
			c0.6-0.6,1.4-0.9,2.2-0.9h29c1.8,0,3.2-1.4,3.2-3.2V45.2c0-1.8-1.4-3.2-3.2-3.2h-52.4C100.7,42,99.3,43.4,99.3,45.2z M150.2,73.1
			h-26.1c-0.8,0-1.7,0.3-2.3,0.9l-9.2,9.3c-0.3,0.3-0.7,0.1-0.7-0.3v-6.7c0-1.8-1.4-3.2-3.2-3.2h-1.3c-1.8,0-3.2-1.4-3.2-3.2V50.1
			c0-1.8,1.4-3.2,3.2-3.2h42.7c1.8,0,3.2,1.4,3.2,3.2v19.8C153.3,71.7,151.9,73.1,150.2,73.1z"/>
		<path class="st0" d="M128.2,53.8c0.2-0.5,0.7-0.7,1.2-0.7s1,0.2,1,0.2c0.2,0.5,0.5,1,0.5,1.5c0,0.7-0.2,1.2-0.5,1.5l-2,2.2
			c-0.5,0.7-1,1.2-1.2,1.7c-0.2,0.5-0.2,1.2-0.2,2v2.2h4.5v-2c0-0.5,0-1,0.2-1.2c0.2-0.2,0.5-0.5,1-1c0.5-0.5,1-1,1.5-1.5
			c0-0.2,0.2-0.5,0.5-0.7c0.2-0.2,0.5-0.5,0.5-0.7c0.2,0,0.2-0.2,0.5-0.7c0.2-0.2,0.2-1,0.2-1.7c0-1.7-0.5-3.2-1.7-4.2
			c-1.2-1-2.7-1.5-4.7-1.5c-1.7,0-3.5,0.5-4.7,1.7c-1.2,1-2,2.7-2.2,4.7h4.9C127.7,54.8,127.9,54.3,128.2,53.8L128.2,53.8z"/>
		<path class="st0" d="M129.4,65.4c-0.7,0-1.5,0.2-2,0.7c-0.5,0.5-0.7,1.2-0.7,2s0.2,1.5,0.7,2c0.5,0.5,1,0.7,2,0.7
			c0.7,0,1.5-0.2,2-0.7c0.5-0.5,0.7-1.2,0.7-2s-0.2-1.5-0.7-2C130.9,65.7,130.2,65.4,129.4,65.4z"/>
	</g>
</g>
</svg>
