<?xml version="1.0" encoding="utf-8"?>
<!-- Generator: Adobe Illustrator 19.2.1, SVG Export Plug-In . SVG Version: 6.00 Build 0)  -->
<svg version="1.1" id="Layer_1" xmlns="http://www.w3.org/2000/svg" xmlns:xlink="http://www.w3.org/1999/xlink" x="0px" y="0px"
	 viewBox="0 0 200 200" style="enable-background:new 0 0 200 200;" xml:space="preserve">
<style type="text/css">
	.st0{fill:#AE1A17;}
</style>
<g>
	<g>
		<g>
			<path class="st0" d="M100,197.7c-53.9,0-97.7-43.8-97.7-97.7S46.1,2.3,100,2.3c53.9,0,97.7,43.8,97.7,97.7S153.9,197.7,100,197.7
				z M100,7.3C48.9,7.3,7.3,48.9,7.3,100s41.6,92.7,92.7,92.7s92.7-41.6,92.7-92.7S151.1,7.3,100,7.3z"/>
		</g>
	</g>
</g>
<g>
	<g>
		<path class="st0" d="M87.6,116.7c-4.8,0-8.8,3.9-8.8,8.8c0,4.8,3.9,8.8,8.8,8.8c4.8,0,8.8-3.9,8.8-8.8
			C96.4,120.6,92.4,116.7,87.6,116.7z M87.6,131.8c-3.5,0-6.3-2.8-6.3-6.3c0-3.5,2.8-6.3,6.3-6.3c3.5,0,6.3,2.8,6.3,6.3
			C93.9,128.9,91.1,131.8,87.6,131.8z"/>
		<path class="st0" d="M87.6,134.7c-5.1,0-9.2-4.1-9.2-9.2c0-5.1,4.1-9.2,9.2-9.2c5.1,0,9.2,4.1,9.2,9.2
			C96.8,130.6,92.7,134.7,87.6,134.7z M87.6,117.2c-4.6,0-8.3,3.7-8.3,8.3s3.7,8.3,8.3,8.3c4.6,0,8.3-3.7,8.3-8.3
			S92.2,117.2,87.6,117.2z M87.6,132.2c-3.7,0-6.7-3-6.7-6.7c0-3.7,3-6.7,6.7-6.7c3.7,0,6.7,3,6.7,6.7
			C94.3,129.2,91.3,132.2,87.6,132.2z M87.6,119.7c-3.2,0-5.8,2.6-5.8,5.8c0,3.2,2.6,5.8,5.8,5.8c3.2,0,5.8-2.6,5.8-5.8
			C93.4,122.3,90.8,119.7,87.6,119.7z"/>
	</g>
	<g>
		<path class="st0" d="M146.1,120.2c-4.1,0-7.5,3.4-7.5,7.5s3.4,7.5,7.5,7.5s7.5-3.4,7.5-7.5C153.5,123.5,150.2,120.2,146.1,120.2z
			 M146.1,132.6c-2.7,0-5-2.2-5-5c0-2.7,2.2-5,5-5s5,2.2,5,5S148.8,132.6,146.1,132.6z"/>
		<path class="st0" d="M146.1,135.6c-4.4,0-7.9-3.6-7.9-7.9c0-4.4,3.6-7.9,7.9-7.9s7.9,3.6,7.9,7.9C154,132,150.4,135.6,146.1,135.6
			z M146.1,120.6c-3.9,0-7,3.1-7,7c0,3.9,3.1,7,7,7c3.9,0,7-3.1,7-7C153.1,123.8,149.9,120.6,146.1,120.6z M146.1,133.1
			c-3,0-5.4-2.4-5.4-5.4s2.4-5.4,5.4-5.4c3,0,5.4,2.4,5.4,5.4S149,133.1,146.1,133.1z M146.1,123.1c-2.5,0-4.5,2-4.5,4.5
			c0,2.5,2,4.5,4.5,4.5c2.5,0,4.5-2,4.5-4.5C150.6,125.2,148.5,123.1,146.1,123.1z"/>
	</g>
	<g>
		<path class="st0" d="M144,97.6V61.9c0-0.7-0.6-1.2-1.2-1.2h-21.6c-10.5,0-20.3,5.6-25.5,14.7c-0.7,1.2-1.4,2.5-2,3.7
			c-2.9,6.2-4.6,13.1-5,20h-6.1V62.8c0-0.7-0.6-1.2-1.2-1.2H75c-0.7,0-1.2,0.6-1.2,1.2v19.3h-4.8c-0.7,0-1.2,0.6-1.2,1.2v22.9
			l-30.9,2.8c-0.6,0.1-1.1,0.5-1.1,1.2l-0.2,3.5c0,0.3,0.1,0.7,0.3,0.9c0.2,0.3,0.6,0.4,0.9,0.4h37.1c0,0,0,10.4,0,10.4
			c0,7.6,6.2,13.9,13.9,13.9c5.5,0,10.3-3.3,12.5-7.9H135c1.6,4.6,5.9,7.9,11.1,7.9c5.1,0,9.5-3.3,11.1-8c0.2,0,6.2,0,6.2,0
			c0.7,0,1.2-0.6,1.2-1.2v-10.8C164.6,107.8,155.5,98.3,144,97.6z M162.1,119.4v4.8h-4.9c-1.5-4.8-5.9-8.3-11.2-8.3
			c-5.3,0-9.7,3.5-11.2,8.3h-33.5c-0.4-4.8-3.3-8.9-7.4-11.1h20.3c0.7,0,1.2-0.6,1.2-1.2c0-6.5,5.3-11.8,11.8-11.8h15.4
			C153.4,100.1,162.1,108.7,162.1,119.4z M88.7,109.7v2c-0.4,0-0.7,0-1.1,0c-1.8,0-3.4,0.3-5,0.9v-2.9L88.7,109.7L88.7,109.7z
			 M107.6,110.7H91.2v-9.1c0-2.1,0.1-4.3,0.4-6.4C100.2,95.3,107.2,102.1,107.6,110.7z M124.5,97.6v-2.5h11.1v2.5H124.5z
			 M135.6,92.6h-2.5V77.2h2.5V92.6z M141.5,63.1v2.3h-31.2c3.4-1.5,7-2.3,10.8-2.3H141.5z M96,80.2c0.6-1.2,1.2-2.4,1.9-3.6
			c2-3.5,4.8-6.5,8-8.7h35.7v29.7h-3.4V76c0-0.7-0.6-1.2-1.2-1.2h-5c-0.7,0-1.2,0.6-1.2,1.2v16.6h-7.4c-0.7,0-1.2,0.6-1.2,1.2v4.8
			c-4.9,2-8.5,6.6-9,12.1h-3c-0.2-4.8-2.2-9.2-5.3-12.4l6-6l2.3,2.3c0.2,0.2,0.6,0.4,0.9,0.4s0.6-0.1,0.9-0.4c0.5-0.5,0.5-1.3,0-1.8
			l-7-7c-0.5-0.5-1.3-0.5-1.8,0c-0.5,0.5-0.5,1.3,0,1.8l2.9,2.9l-6.1,6.1c-3-2.4-6.8-3.8-10.9-4C92.8,88.3,94.1,84.1,96,80.2z
			 M88.7,107.2h-8.4v-5.6h8.4V107.2z M76.2,70.4h3.9v3.3h-3.9V70.4z M80.1,64.1v3.8h-3.9v-3.8H80.1z M70.2,89.3c0,0,3.6,0,3.6,0v2.1
			c0,0-3.6,0-3.6,0V89.3z M73.7,84.6v2.2c0,0,0,0,0,0h-3.5v-2.2L73.7,84.6L73.7,84.6z M38,112.6l0.1-1.1l31-2.8
			c0.6-0.1,1.1-0.6,1.1-1.2V93.9h3.5c0,0,0,0,0,0v18.7L38,112.6L38,112.6z M76.2,76.2h3.9v22.9H79c-0.7,0-1.2,0.6-1.2,1.2v8.1
			c0,0.7,0.6,1.2,1.2,1.2h1.1v4.1c-1.5,1-2.9,2.3-3.9,3.7V76.2z M87.6,136.9c-6.3,0-11.4-5.1-11.4-11.4c0,0,0-0.1,0-0.1
			c0-6.2,5.1-11.3,11.4-11.3c6.3,0,11.4,5.1,11.4,11.4C99,131.8,93.9,136.9,87.6,136.9z M101.1,128.9c0.2-0.7,0.3-1.4,0.4-2.2h33
			c0,0.3,0,0.6,0,0.9c0,0.4,0,0.8,0.1,1.2C134.4,128.9,101.1,128.9,101.1,128.9z M146.1,136.9c-5.1,0-9.2-4.1-9.2-9.2
			c0-5.1,4.1-9.2,9.2-9.2s9.2,4.1,9.2,9.2C155.3,132.7,151.1,136.9,146.1,136.9z M157.7,128.9c0-0.4,0.1-0.8,0.1-1.2
			c0-0.3,0-0.6,0-0.9h4.4v2.2H157.7z"/>
		<path class="st0" d="M146.1,139.8c-5.1,0-9.6-3.2-11.4-7.9h-34.2c-2.4,4.8-7.4,7.9-12.8,7.9c-7.9,0-14.3-6.4-14.3-14.3l0-10H36.6
			c-0.5,0-0.9-0.2-1.2-0.5c-0.3-0.3-0.5-0.8-0.5-1.3l0.2-3.5c0.1-0.8,0.7-1.5,1.5-1.6l30.5-2.8V83.4c0-0.9,0.8-1.7,1.7-1.7h4.4V62.8
			c0-0.9,0.8-1.7,1.7-1.7h6.4c0.9,0,1.7,0.8,1.7,1.7v35.8h5.3c0.4-6.8,2.1-13.6,5-19.7c0.6-1.3,1.3-2.5,2-3.8
			c5.3-9.2,15.2-14.9,25.9-14.9h21.6c0.9,0,1.7,0.8,1.7,1.7v35.3c11.6,0.9,20.6,10.6,20.6,22.2v10.8c0,0.9-0.8,1.7-1.7,1.7
			c0,0-4.6,0-5.9,0C155.7,136.6,151.2,139.8,146.1,139.8z M99.9,131h35.4l0.1,0.3c1.5,4.6,5.8,7.6,10.6,7.6c4.8,0,9.1-3.1,10.6-7.6
			l0.1-0.3l0.3,0c0.2,0,6.2,0,6.2,0c0.4,0,0.8-0.4,0.8-0.8v-10.8c0-11.3-8.8-20.7-20.1-21.3l-0.4,0V61.9c0-0.4-0.4-0.8-0.8-0.8
			h-21.6c-10.3,0-19.9,5.6-25.1,14.5c-0.7,1.2-1.3,2.5-1.9,3.7c-2.9,6.1-4.6,13-4.9,19.8l0,0.4h-7V62.8c0-0.4-0.4-0.8-0.8-0.8H75
			c-0.4,0-0.8,0.4-0.8,0.8v19.8h-5.3c-0.4,0-0.8,0.4-0.8,0.8v23.3l-31.3,2.8c-0.4,0-0.7,0.3-0.7,0.7l-0.2,3.5c0,0.2,0.1,0.4,0.2,0.6
			c0.1,0.2,0.4,0.2,0.6,0.2h37.5l0,10.9c0,7.4,6,13.4,13.4,13.4c5.2,0,9.9-3,12.1-7.7L99.9,131z M146.1,137.3
			c-5.3,0-9.6-4.3-9.6-9.6c0-5.3,4.3-9.6,9.6-9.6c5.3,0,9.6,4.3,9.6,9.6C155.7,133,151.4,137.3,146.1,137.3z M146.1,118.9
			c-4.8,0-8.7,3.9-8.7,8.7s3.9,8.7,8.7,8.7c4.8,0,8.7-3.9,8.7-8.7S150.9,118.9,146.1,118.9z M87.6,137.3c-6.5,0-11.8-5.3-11.8-11.8
			c0-6.6,5.3-11.8,11.8-11.8c6.5,0,11.8,5.3,11.8,11.8S94.1,137.3,87.6,137.3z M87.6,114.6c-6,0-10.9,4.9-10.9,10.9
			c0,6.1,4.9,11,10.9,11c6,0,10.9-4.9,10.9-10.9C98.5,119.5,93.6,114.6,87.6,114.6z M134.9,129.4l-0.6-0.1c-0.3,0-33,0-33.3,0h-0.6
			l0.1-0.6c0.2-0.7,0.3-1.4,0.4-2.1l0-0.4h33.9l0,0.5c0,0.3,0,0.6,0,0.9c0,0.4,0,0.8,0.1,1.2L134.9,129.4z M124.7,128.5
			c6.1,0,8.4,0,9.3,0c0-0.3,0-0.5,0-0.8c0-0.2,0-0.3,0-0.5h-32.1c-0.1,0.4-0.1,0.9-0.2,1.3C112.5,128.5,119.8,128.5,124.7,128.5z
			 M162.6,129.4h-5.4l0.1-0.5c0-0.4,0.1-0.8,0.1-1.2c0-0.3,0-0.6,0-0.9l0-0.5h5.3V129.4z M158.2,128.5h3.5v-1.3h-3.5
			c0,0.2,0,0.3,0,0.5C158.2,127.9,158.2,128.2,158.2,128.5z M162.6,124.7h-5.7l-0.1-0.3c-1.4-4.7-5.9-7.9-10.7-7.9
			c-4.9,0-9.3,3.3-10.7,7.9l-0.1,0.3H101l0-0.4c-0.4-4.6-3.1-8.6-7.2-10.7l-1.6-0.9h22.1c0.4,0,0.8-0.4,0.8-0.8
			c0-6.8,5.5-12.3,12.3-12.3h15.4c10.9,0,19.8,8.9,19.8,19.8V124.7z M157.6,123.8h4.1v-4.4c0-10.4-8.5-18.9-18.9-18.9h-15.4
			c-6.3,0-11.4,5.1-11.4,11.4c0,0.9-0.8,1.7-1.7,1.7H95.6c3.4,2.3,5.7,6,6.2,10.2h32.7c1.7-4.9,6.3-8.3,11.5-8.3
			C151.2,115.5,155.9,118.9,157.6,123.8z M75.8,119V75.8h4.8v23.8H79c-0.4,0-0.8,0.4-0.8,0.8v8.1c0,0.4,0.4,0.8,0.8,0.8h1.5v4.8
			l-0.2,0.1c-1.5,1-2.8,2.2-3.8,3.6L75.8,119z M76.7,76.7v39.5c0.9-1,1.9-1.9,3-2.7v-3.4H79c-0.9,0-1.7-0.8-1.7-1.7v-8.1
			c0-0.9,0.8-1.7,1.7-1.7h0.6v-22H76.7z M82.2,113.2v-4h7v2.9l-0.5,0c-2-0.2-4,0.1-5.9,0.9L82.2,113.2z M83.1,110.1v1.8
			c1.7-0.6,3.4-0.8,5.2-0.7v-1H83.1z M74.2,113H37.5l0.1-2l31.4-2.8c0.4,0,0.7-0.4,0.7-0.8v-14h4.5l0,0.4V113z M38.5,112.1h34.8
			V94.3l-2.7,0v13.1c0,0.9-0.7,1.6-1.5,1.7l-30.6,2.8L38.5,112.1z M113.5,111.1h-3.9l0-0.4c-0.2-4.5-2-8.8-5.2-12.1l-0.3-0.3
			l6.6-6.6l2.7,2.7c0.3,0.3,0.8,0.3,1.1,0c0.3-0.3,0.3-0.8,0-1.1l-7-7c-0.3-0.3-0.8-0.3-1.1,0c-0.3,0.3-0.3,0.8,0,1.1l3.2,3.2
			l-6.7,6.7l-0.3-0.2c-3.1-2.4-6.7-3.7-10.6-3.9l-0.5,0l0.1-0.5c0.8-4.4,2.1-8.6,4-12.6l0,0c0.6-1.2,1.2-2.4,1.9-3.6
			c2-3.5,4.8-6.5,8.1-8.8l0.1-0.1H142V98h-4.3V76c0-0.4-0.4-0.8-0.8-0.8h-5c-0.4,0-0.8,0.4-0.8,0.8V93h-7.8c-0.4,0-0.8,0.4-0.8,0.8
			v5.1l-0.3,0.1c-4.8,1.9-8.2,6.5-8.7,11.7L113.5,111.1z M110.5,110.2h2.2c0.6-5.2,4.1-9.8,8.9-11.9v-4.5c0-0.9,0.8-1.7,1.7-1.7h6.9
			V76c0-0.9,0.8-1.7,1.7-1.7h5c0.9,0,1.7,0.8,1.7,1.7v21.2h2.5V68.4H106c-3.2,2.2-5.8,5.1-7.8,8.5c-0.7,1.2-1.3,2.3-1.8,3.5l0,0
			c-1.8,3.7-3.1,7.7-3.9,11.9c3.7,0.2,7.3,1.5,10.3,3.8l5.5-5.5l-2.5-2.5c-0.3-0.3-0.5-0.7-0.5-1.2c0-0.5,0.2-0.9,0.5-1.2
			c0.7-0.7,1.7-0.7,2.4,0l7,7c0.7,0.7,0.7,1.7,0,2.4c-0.6,0.6-1.8,0.6-2.4,0l-2-2l-5.3,5.3C108.4,101.6,110.2,105.8,110.5,110.2z
			 M108,111.1H90.7v-9.6c0-2.1,0.1-4.3,0.4-6.5l0.1-0.4l0.4,0c8.8,0.1,16,7.1,16.4,16L108,111.1z M91.6,110.2h15.4
			c-0.6-8-7.1-14.3-15.1-14.6c-0.2,2-0.4,4-0.4,6V110.2z M89.2,107.6h-9.3v-6.5h9.3V107.6z M80.7,106.7h7.5V102h-7.5V106.7z
			 M136.1,98h-12v-3.4h12V98z M125,97.1h10.2v-1.6H125V97.1z M136.1,93h-3.4V76.8h3.4V93z M133.6,92.1h1.6V77.7h-1.6V92.1z
			 M74.2,91.9l-0.5-0.1c-0.1,0-3.5,0-3.5,0h-0.5v-3l4.5,0V91.9z M70.6,90.9c1.5,0,2.3,0,2.7,0v-1.2l-2.7,0V90.9z M74.2,87.3l-4.5,0
			v-3.1h4.5V87.3z M70.6,86.4h2.7v-1.3h-2.7V86.4z M80.6,74.2h-4.8V70h4.8V74.2z M76.7,73.3h3v-2.4h-3V73.3z M80.6,68.4h-4.8v-4.7
			h4.8V68.4z M76.7,67.5h3v-2.9h-3V67.5z M142,65.9h-33.8l2-0.9c3.5-1.5,7.2-2.3,11-2.3H142V65.9z M112.7,65h28.4v-1.4h-19.9
			C118.3,63.6,115.4,64.1,112.7,65z"/>
	</g>
</g>
</svg>
