<?xml version="1.0" encoding="utf-8"?>
<!-- Generator: Adobe Illustrator 19.2.1, SVG Export Plug-In . SVG Version: 6.00 Build 0)  -->
<svg version="1.1" id="Layer_1" xmlns="http://www.w3.org/2000/svg" xmlns:xlink="http://www.w3.org/1999/xlink" x="0px" y="0px"
	 viewBox="0 0 200 200" style="enable-background:new 0 0 200 200;" xml:space="preserve">
<style type="text/css">
	.st0{fill:#AE1A17;}
</style>
<g>
	<g>
		<g>
			<path class="st0" d="M100,197.7c-53.9,0-97.7-43.8-97.7-97.7S46.1,2.3,100,2.3c53.9,0,97.7,43.8,97.7,97.7S153.9,197.7,100,197.7
				z M100,7.3C48.9,7.3,7.3,48.9,7.3,100s41.6,92.7,92.7,92.7s92.7-41.6,92.7-92.7S151.1,7.3,100,7.3z"/>
		</g>
	</g>
</g>
<g>
	<g>
		<g>
			<path class="st0" d="M54.7,67.2c-6.7,0-12.2-5.5-12.2-12.2s5.5-12.2,12.2-12.2s12.2,5.5,12.2,12.2S61.4,67.2,54.7,67.2z
				 M54.7,46.6c-4.6,0-8.4,3.7-8.4,8.4s3.7,8.4,8.4,8.4s8.4-3.7,8.4-8.4S59.3,46.6,54.7,46.6z"/>
		</g>
		<g>
			<path class="st0" d="M54.7,157.3c-3.7,0-6.6-3-6.6-6.6v-37.7c-2.5-2-3.9-5-3.9-8.3V77.4c0-5.8,4.8-10.6,10.6-10.6
				c3.8,0,7,2,9.5,6c1,1.5,3.3,5.2,6.7,7c3.3,1.8,7.1,1.1,8.5,0.8c3.5-0.9,6.9,0.9,7.9,4.2v0c1,3.3-0.9,6.9-4.2,7.9
				c-0.3,0.1-3.2,0.9-7.1,0.9c-3.9,0-7.5-0.8-10.7-2.5v13.4c0,3.2-1.5,6.2-3.9,8.3v37.7C61.3,154.3,58.3,157.3,54.7,157.3z
				 M54.7,70.7c-3.7,0-6.7,3-6.7,6.7v27.2c0,2.3,1.1,4.4,3.1,5.6l0.9,0.6v39.7c0,1.5,1.2,2.8,2.8,2.8s2.8-1.2,2.8-2.8v-39.8l0.9-0.6
				c1.9-1.2,3.1-3.4,3.1-5.6V84l3.1,2.2c0.7,0.5,1.5,1,2.2,1.4c2.7,1.5,5.8,2.2,9.3,2.2c3.4,0,5.9-0.7,6-0.8c1.3-0.4,2-1.8,1.6-3.1
				c-0.4-1.3-1.7-2-3.2-1.6c-1.9,0.5-6.8,1.4-11.4-1.1c-4.2-2.3-7-6.6-8-8.2C59.1,72.1,57.1,70.7,54.7,70.7z"/>
		</g>
	</g>
	<g>
		<g>
			<path class="st0" d="M145.3,67.2c-6.7,0-12.2-5.5-12.2-12.2s5.5-12.2,12.2-12.2s12.2,5.5,12.2,12.2S152.1,67.2,145.3,67.2z
				 M145.3,46.6c-4.6,0-8.4,3.7-8.4,8.4s3.7,8.4,8.4,8.4c4.6,0,8.4-3.7,8.4-8.4S149.9,46.6,145.3,46.6z"/>
		</g>
		<g>
			<path class="st0" d="M145.3,157.3c-3.7,0-6.6-3-6.6-6.6v-37.7c-2.5-2-3.9-5-3.9-8.3V91.2c-3.2,1.6-6.8,2.5-10.7,2.5
				c-3.9,0-6.8-0.8-7.1-0.9c-3.3-1-5.2-4.6-4.2-7.9v0c1-3.3,4.6-5.2,7.9-4.2c0,0,4.7,1.3,8.5-0.8c3.4-1.8,5.7-5.5,6.6-6.8
				c2.7-4.1,5.9-6.2,9.6-6.2c5.8,0,10.6,4.8,10.6,10.6v27.2c0,3.2-1.5,6.2-3.9,8.3v37.7C152,154.3,149,157.3,145.3,157.3z M138.6,84
				v20.6c0,2.3,1.1,4.4,3.1,5.6l0.9,0.6v39.8c0,1.5,1.2,2.8,2.8,2.8c1.5,0,2.8-1.2,2.8-2.8v-39.7l0.9-0.6c1.9-1.3,3.1-3.4,3.1-5.6
				V77.4c0-3.7-3-6.7-6.7-6.7c-2.4,0-4.5,1.4-6.3,4.2c-1.1,1.8-3.9,6-8.1,8.3c-5.3,2.9-11.5,1.1-11.5,1c-1.2-0.4-2.6,0.4-3,1.7
				c-0.4,1.3,0.3,2.7,1.6,3.1c0.1,0,2.6,0.8,6,0.8c3.5,0,6.6-0.7,9.3-2.2c0.8-0.4,1.5-0.9,2.2-1.4L138.6,84z"/>
		</g>
	</g>
	<g>
		<path class="st0" d="M101.1,103.1H78.5c-2.9,0-5.3-2.4-5.3-5.3l0.1-3.3c0-0.2,0-0.5,0-0.8c-0.1-2.4-0.1-2.7,0.5-3.3l0.6-0.6l0.8,0
			c0.2,0,1.7-0.1,1.9-0.1c3.4-0.2,4.6-0.6,5-0.8l0,0c1.3-0.7,1.5-1.1,1.5-2.6c-0.2-1.2-0.5-1.8-2.2-2.1c-0.2,0-0.6,0.1-1.2,0.2
			l-0.4,0.1c-0.3,0-0.7,0.1-1,0.1C78,84.8,77,84.9,76,84.9c-0.3,0-0.5,0-0.6,0l-0.2,0l-0.4-0.1c-1.6-0.4-1.6-1.1-1.6-5.8v-5.6
			c0-2.9,2.4-5.3,5.3-5.3h8.3c1.2,0,2.2,1,2.2,2.2v3.4h1.5v-3.4c0-1.2,1-2.2,2.2-2.2h8.3c2.9,0,5.3,2.4,5.3,5.3v24.4
			C106.4,100.7,104,103.1,101.1,103.1z M77.1,95.8v2c0,0.8,0.6,1.4,1.4,1.4h22.6c0.8,0,1.4-0.6,1.4-1.4V73.4c0-0.8-0.6-1.4-1.4-1.4
			h-6.6v3c0,1.4-1.2,2.6-2.6,2.6h-4.1c-1.4,0-2.6-1.2-2.6-2.6v-3h-6.6c-0.8,0-1.4,0.6-1.4,1.4V79c0,0.7,0,1.4,0,1.9
			c0.4,0,0.7-0.1,1.1-0.2c0.4-0.1,0.8-0.1,1.2-0.2l0.2,0c1.1-0.2,1.7-0.3,2.3-0.2c3.5,0.7,5.2,2.4,5.6,5.6l0,0.3
			c0,3.1-1.1,4.9-3.8,6.3l-0.3,0.1c-0.6,0.2-2.2,0.8-6.1,1c0,0-0.1,0-0.2,0C77.2,94.8,77.2,95.4,77.1,95.8z M73.9,93.9
			c-0.1,0.1-0.1,0.1-0.2,0.2L73.9,93.9z"/>
	</g>
</g>
</svg>
