<?xml version="1.0" encoding="utf-8"?>
<!-- Generator: Adobe Illustrator 19.2.1, SVG Export Plug-In . SVG Version: 6.00 Build 0)  -->
<svg version="1.1" id="Layer_1" xmlns="http://www.w3.org/2000/svg" xmlns:xlink="http://www.w3.org/1999/xlink" x="0px" y="0px"
	 viewBox="0 0 137.3 200" style="enable-background:new 0 0 137.3 200;" xml:space="preserve">
<style type="text/css">
	.st0{fill:#1C1727;}
	.st1{fill:#20203E;}
	.st2{fill:#D5DBE7;}
	.st3{fill:#CBCAD2;}
	.st4{fill:#130708;}
	.st5{fill:#52302D;}
	.st6{fill:#483B42;}
	.st7{fill:#D8E4EF;}
	.st8{fill:#D6DFEC;}
	.st9{fill:#D4AC01;}
	.st10{fill:#CFD2DF;}
	.st11{fill:#D2D5E4;}
</style>
<g>
	<g>
		<path class="st0" d="M112,7c4.9,3,9.3,6.5,12.8,11.1c-1.2,0.6-1.7-1-2.8-1c-0.1-0.1-0.2-0.2-0.3-0.4c-0.5-0.5-0.6-1.3-1.5-1.4
			c-0.1-0.1-0.3-0.3-0.4-0.4c-0.2-0.2-0.4-0.3-0.6-0.5c-4.7-3.1-9.3-6.2-14.7-8.1c-4.8-1.7-9.4-2.6-14.3-1.4
			c-7,1.6-10.9,6.7-14.1,12.6c-3.8,7.1-6.3,15-11.4,21.4c-1.9,1-3.7,0.9-5.5-0.3c-0.4-0.3-1.1-0.1-1.7-0.2c-1.7-0.3-3.2-1.2-4.7-2.1
			c-4.3-2.6-9-3-13.9-2.5c-2.7,0.3-4.2,2-4.1,4.9c-0.3,0.3-0.6,0.6-0.9,0.9c-1.6-1.9-0.4-3.5,0.3-5.3c0.2-0.1,0.3-0.3,0.5-0.4
			c0.6-0.4,1.2-0.8,1.8-1.2l-0.1-0.1l0.1,0.1c4.8-1.7,9.5-0.8,14.1,0.8c0.8,0.3,1.6,0.6,2.4,1c2.7,1.8,5.7,3,8.7,4.2
			c0.2,0.1,0.4,0.1,0.5,0c0.6,0,1-0.4,1.3-0.8c0.6-0.4,0.9-1,1.1-1.6c0.6-0.5,1-1.1,1.1-1.9c2.4-3.8,3.9-8,5.7-12.2
			c2.8-6.4,6-12.5,11.5-17c1.6,0,2.7-1.1,4-1.8C89.2,3,91.1,2.6,93,2.2c0.4,0,0.8,0,1.1,0c5,0.4,9.9,1.8,14.6,3.4l0.1,0
			C109.9,6.1,111,6.5,112,7z"/>
		<path class="st1" d="M32.5,83c-5-2.6-8.1-6.9-10.2-12c-0.9-5.3-1.3-10.6,0-15.8c1.3-5.3,4.2-9.3,9.4-11.5c1-0.9,4.3,1.2,3.3-2.4
			c0.6,0.2,1.2,0.3,1.9,0.5l0,0c0.1,0.4,0.3,0.6,0.6,0.6c0.2,0,0.3,0.1,0.4,0.2c0,0.8,0.4,1.3,1.2,1.6c1.6,1.2,3.1,2.5,4.8,3.7
			c1.1,0.7,2.5,1,2.7,2.6c-1.4,0.4-1.2,1.4-1.1,2.5c0.1,0.9,0.3,1.8,0.5,2.7c-0.2,0.2-0.4,0.5-0.7,0.7c-1.6-3.1-3.1-6.3-5.8-8.8
			c-3.3-3-6.2-3.2-9.8-0.5c-6,4.6-6.7,11-6,17.8c0.7,7.1,4.2,12.7,9.7,17.2C33,82.4,32.8,82.7,32.5,83z"/>
		<path class="st1" d="M101.6,119.4c-0.7,0.6-1.5,1.2-1.7,2.2c-2,2.1-4.1,4.3-6.1,6.3c-0.7,0.7-1.1,1.5-1.1,2.5
			c-0.1,5-0.7,10-1.3,15c-0.6-0.1-1.6,0.8-1.7-0.7c1-4.7,0.7-9.5,1.1-14.2c0.1-1.5-0.8-1.4-1.9-1.4c-7.2,0-14.3-1.1-21.3-2.7
			c-2.1-0.5-4.1-0.9-4.6-3.5c-0.1-0.6-0.6-1.3-1.4-1c0.1-1.1,0.6-2.3,1.6-0.9c1.1,1.7,2.4,0.9,3.7,0.8c0,0.7-0.1,1.5-0.1,2.2
			c-0.2,0.2-0.8-0.2-0.6,0.5c0.2-0.2,0.4-0.3,0.6-0.5c6.3,2,12.8,3.1,19.5,2.8c2.7-0.1,5.6-0.1,7.5-2c5.2-5.2,9.7-11,11.9-18.3
			c0.4-1.3,0.7-2.9-0.6-4c-1.4-1.2-2.9-0.6-4.3,0.1c-2,0.9-3.7,2.4-5.8,2.9c-0.6-0.5-0.9-0.5-0.9,0.4l-0.1,0
			c-0.6-0.3-1.3-0.6-1.3-1.4c0.9-3.7,5.2-2.8,7-5.2c1.1,0,2.1,0,3.2,0c0.7,1.3,2.1,0.9,3.1,1.4c3,2.1,2.3,4.9,1.5,7.7
			c-0.9,3.1-2.6,5.9-4.1,8.7c-0.4,0.6-0.8,1.2-1.2,1.8C101.8,119,101.7,119.2,101.6,119.4z"/>
		<path class="st0" d="M102.6,99.4c-1.1,0-2.1,0-3.2,0c0-0.4,0-0.7-0.1-1.1c1.9-2.2,5.1-1.9,7.1-4.3c3-3.5,6.1-6.7,6.1-11.7
			c0-3.7,0-3.6-3.7-3.1c-0.7,0.1-2.4,0.2-2-0.4c1.1-1.9-1.4-1.8-1.2-2.9c0.7-1,2-1.6,2.3-2.9l0,0c0.7-0.1,1.1-0.4,1.1-1.2l0,0
			c0.2,0,0.4,0,0.6,0c0.7,0.3,1.4,0.6,2.2,0.2c0,0,0.1,0.1,0.1,0.1c0.1,0.2,0.2,0.3,0.2,0.5c0.1-0.1,0.2-0.3,0.3-0.4
			c0.1-0.2,0.2-0.3,0.4-0.2c0.1,0.7,0.3,1.3,0.9,1.7c-0.2,1.8,0,2.3,0.9,1.9c3.2-1.6,6.6-2,10.1-2.4c2.8-0.3,5.6-1.1,8.5-0.2l0.1,0
			c-1.6,1.5-3.6,1.2-5.4,1.3c-2,0.1-4.1-0.1-5.7,1.5c-0.6,0.1-1.1,0.1-1.7,0.2c-1.9-0.4-3.1,1.6-5,1.3c-0.7-0.1-0.9,0.8-0.8,1.6
			c0.1,1.1,0.1,2.3,0.2,3.4c-0.2,1-0.4,1.9-0.6,2.9c-0.8,2.9-2.1,5.5-3.8,7.9c-0.5,0.6-1,1.1-1.5,1.7c-1.7,0-2.7,0.9-3.1,2.5
			c-0.1,0-0.2,0.1-0.2,0.2C104.7,98,103.7,98.7,102.6,99.4z M112.6,76.1c-0.4,0-0.8,0.2-0.8,0.6c0.1,0.4,0.3,0.9,0.6,1.1
			c0.4,0.2,0.6-0.2,0.7-0.6C113.1,76.7,113.1,76.2,112.6,76.1z M110,75.6c-0.1,0.2-0.2,0.3-0.1,0.4c0.1,0.1,0.3,0.2,0.4,0.2
			c0.1-0.1,0.2-0.3,0.1-0.4C110.4,75.7,110.2,75.6,110,75.6z"/>
		<path class="st1" d="M130.8,69.4c-6.1-0.3-11.7,1.2-16.9,4.2c-0.6-0.4-0.8-1-0.9-1.7c5.7-2.5,11.4-4.6,17.8-3.8
			C130.8,68.5,130.8,69,130.8,69.4z"/>
		<path class="st0" d="M106,97.2c0.4-1.6,1.4-2.5,3.1-2.5"/>
		<path class="st2" d="M101.9,118.9c0.4-0.6,0.8-1.2,1.2-1.8C104,118.5,103.9,118.6,101.9,118.9z"/>
		<path class="st3" d="M106.8,100c0-0.1,0.1-0.1,0.1-0.2C106.9,99.8,106.9,99.9,106.8,100L106.8,100z"/>
		<path class="st4" d="M46.4,50.4c-0.2-1.6-1.6-1.9-2.7-2.6c-1.7-1.1-3.2-2.4-4.8-3.7c0-0.4,0-0.8-0.1-1.3c0.8,0.1,1.4,0.6,2,0.9
			c3.9,2.2,6.8,5.7,10.7,7.9c1.4,0.7,2,0.6,2.8-0.5c1.5-1.9,2.9-3.8,4.4-5.6c3.3-4.2,3.3-4.2-1.2-7.1c0.6,0,1.3-0.1,1.7,0.2
			c1.8,1.2,3.6,1.3,5.5,0.3c-1.8,4.6-5,8.2-8,12c-2.8,3.6-2.9,3.6-0.1,7.2c2.3,4.3,3.9,4.8,6.9,2.4c0.4-0.1,0.8-0.3,1.1-0.4
			c0.2-0.1,0.4-0.2,0.5-0.3c0.9-1.5,2.9-1.1,3.9-2.6c2.3-3.5,5.5-5.4,9.8-5.2c1.3,0.1,1.9-0.6,2.7-1.4c2.9-2.9,5.4-6.1,7.2-10.7
			c0.9,3.8,2.5,2.2,3.7,1.2c2.6-2.3,5.6-3.4,9-4.4c-0.8,2.7-2.4,4.3-4.6,5.6c-1.1,0.6-3.1,1-2.7,2.5c0.5,1.8,2.5,0.8,3.8,0.9
			c2.5,0.2,5,0,7.6,0c-1.4,1.6-2.9,2.6-4.3,3.6c-1.3,1-1.2,2.1,0.1,2.9c1.3,0.8,2.7,1.4,3.3,2.7c-0.6,1.2-2.2,0.1-2.6,1.5
			c-0.4,1.6,1.7,5.2,3.5,5.9c0.2,0.6,0.4,1.2,0.6,1.8c0,0.2-0.2,0.3-0.4,0.4c-0.7,0-1.4,0.1-2.1,0.1c-0.7-0.8-1.4-1.6-2.1-2.4
			c0.1-1.4-1-2.2-1.5-3.3c-0.3-0.7-1.3-1.7-1.6-1.3c-1.6,2.3-2.7-0.5-4-0.3c-0.5,0.1-1.1-0.9-1.8-0.4c-0.6,0.5-0.3,1.2-0.1,1.9
			c0.7,2.3,0.5,4.5-1.2,7c-0.4-1.4-0.4-2.6-1-3.4c-0.6-0.9-1.1-3.7-2.9-0.8c-0.8,1.2-1.8,0.7-1.9-0.5c-0.4-3-2.6-4.6-4.6-6.2
			c-2.9-2.3-7.3-1.1-9.2,2.1c-0.5,0.8-0.7,1.9-1.9,2.4c-3,1.4-6.1,2.4-8.8,4.4c-1.5,1-3.2,0.3-3.9-1.3c-1.9-4.5-6.2-6.9-8.5-11
			C48.4,50.8,47.5,50.4,46.4,50.4z M98.8,39c-1.3,0.5-3.3,0.3-2.9,2.9C97.3,41.1,98.6,40.7,98.8,39c0.2-0.1,0.7,0.2,0.6-0.4
			C99.2,38.7,99,38.8,98.8,39z M99,48.9c-1.5-0.6-2.8-1.4-4.5-0.6c-1.2,0.5-2.9,0.8-3.9-0.6c-0.8-1-1.9-0.4-2.6-1
			c-0.3-0.2-0.7,0.1-0.9,0.4c-0.2,0.4-0.1,0.8,0.4,0.9c1.8,0.5,1.8,1.7,1.2,3.2c-0.4,1.1,0.1,2,1.1,2.3c1.3,0.4,0.8-1,1.1-1.5
			c0.3-0.6,0.6-1.6,1.2-1.4C94.8,51.6,96.4,48.4,99,48.9z M98.8,52c-1.9-0.4-3.2-0.7-4.5,0.5c-0.7,0.7-0.6,1.4-0.1,2
			c0.7,0.9,1.3,0.3,1.5-0.3C96.2,52.8,97.6,53.1,98.8,52z M85.6,49c-1,0.1-1.6,0.7-1.7,1.4c-0.1,0.9,0.2,1.8,0.4,2.7
			c0,0.1,0.4,0.1,0.5,0.1c1-0.5,0.6-1.5,0.7-2.3C85.6,50.3,85.6,49.7,85.6,49z M88.1,45.4c0.2,0.1,0.3,0.2,0.4,0.2
			c0.1,0,0.1-0.3,0.2-0.4c-0.2-0.1-0.3-0.2-0.4-0.2C88.2,45.1,88.1,45.3,88.1,45.4z"/>
		<path class="st0" d="M130.5,30.1c0.2,0.5,0.4,1,0.7,1.6c0.5,7.3-0.5,14.2-5.3,20c-0.2-0.2-0.5-0.5-0.8-0.7
			c3.8-6.2,5.6-12.8,4.4-20C130.2,31,130.5,30.8,130.5,30.1z"/>
		<path class="st0" d="M106.3,64.4c-0.2-0.6-0.4-1.2-0.6-1.8c5.3,0.1,9.4-2.9,13.7-5.3c0,0.3,0.1,0.6,0.1,0.9
			C115.8,61.7,111.3,63.5,106.3,64.4z"/>
		<path class="st1" d="M107.2,70.6c0.5,0.8,1.3,0.4,2,0.6c0,0.2,0,0.4,0,0.6l0,0c-2-0.7-2.5,2.4-4.5,1.8c-0.3-1.2-0.5-2.3-0.8-3.5
			C105.1,69.1,106.1,70,107.2,70.6z"/>
		<path class="st0" d="M107.2,70.6c-1.1-0.5-2.1-1.5-3.4-0.5c-0.1-0.1-0.2-0.2-0.1-0.3c2.2-1.5,0.2-3.2,0.2-4.8
			c0.7,0,1.4-0.1,2.1-0.1C106.4,66.7,106.8,68.6,107.2,70.6z"/>
		<path class="st4" d="M119.6,58.3c0-0.3-0.1-0.6-0.1-0.9c2.2-1.9,4-4,5.7-6.4c0.2,0.2,0.5,0.5,0.7,0.7l0,0
			c-0.5,0.1-0.7,0.5-0.7,0.9C123.7,54.9,121.9,56.9,119.6,58.3z"/>
		<path class="st1" d="M111.9,72c-0.8,0.4-1.5,0.1-2.2-0.2c0-0.2,0-0.4,0-0.6C110.6,70.9,111.3,71.4,111.9,72z"/>
		<path class="st0" d="M125.2,52.6c0-0.5,0.2-0.8,0.7-0.9C125.7,52,125.4,52.3,125.2,52.6z"/>
		<path class="st1" d="M112.6,72.1c-0.1,0.1-0.2,0.3-0.3,0.4c-0.1-0.2-0.2-0.3-0.2-0.5C112.2,72,112.4,72.1,112.6,72.1z"/>
		<path class="st4" d="M109.7,71.1c0,0.2,0,0.4,0,0.6c-0.2,0-0.4,0-0.6,0c0-0.2,0-0.4,0-0.6C109.3,71.1,109.5,71.1,109.7,71.1z"/>
		<path class="st5" d="M130.5,30.1c0,0.7-0.3,0.9-0.9,0.9c-0.5-5.7-3.8-9.9-7.5-13.9c1,0,1.5,1.5,2.8,1l0,0c-0.2,1,0.1,1.6,1.1,1.9
			C128.9,22.7,129.8,26.3,130.5,30.1z"/>
		<path class="st0" d="M126,20c-1-0.2-1.4-0.9-1.1-1.9C125.6,18.5,125.7,19.3,126,20z"/>
		<path class="st1" d="M40.9,120c-2.1,2.6-4.9,4.2-7.9,5.5c-2.2,1-4.5,1.6-5.2,4.6c-0.4,1.7-2.5,2.1-4.3,2.2c0-0.6-0.1-1.2-0.1-1.8
			c0.8-0.4,1.2-1,1.3-1.9c3.4,1.2,1.2-1.4,1.6-2.3c1.1-0.1,2-0.6,1.6-1.8c-0.4-1.4-1.5-0.9-2.6-0.7c-1.3,0.2-3.4,0.9-3.7-0.7
			c-0.2-1.5,1.9-1.1,3.1-1.3c1-0.2,2.7,0,1.5-1.9c0-0.5,0.1-1.1,0.1-1.6c0.8-0.8,1.5-1.6,1-2.8c-0.5-1.1-1.7-0.6-2.6-0.7
			c-1.1-0.1-2.3-0.1-3.4,0.1c-3.7,0.5-3.7,0.6-3-3.2c0.8-4.4-0.2-5.7-4.7-6.1c2.1-2.3,5.5-1.7,6.5,1c0.5,1.5,0.3,3,0.4,5
			c3.2-1.4,6.2-2.7,9.3-3.8c1-0.3,1.1-1.7,1.6-2.6c2.4-5.1,4.7-10.3,8.3-14.7c0.8-1,1.6-2.2,2.8-2.8c0.6-0.2,1.2-0.4,1.8-0.6
			c1.3,3.3,3.7,5.8,5.8,8.5c-0.3,0.3-0.5,0.6-0.8,0.9c-2-1.4-3.5-3.3-4.5-5.5c-0.9-1.9-1.7-1.5-2.9-0.4c-4.4,4.4-6.5,10.1-8.7,15.7
			c-0.3,0.8-0.2,1.3,0.7,1.4c0.7,0.1,1.6,0,1.9,1.2c-3.2,1.1-7.2,0.3-10,3.2c5.7,2.3,5.7,2.3,4.9,6.3c-0.1,0.2-0.6,0.1-0.2,0.4
			c0.1-0.1,0.2-0.3,0.3-0.4c0.9,0.7,1,1.5,0.3,2.4c-0.4,0.5-1.7,0.8-0.7,1.7c0.8,0.7,1.6,1.4,3,0.8c2.5-1.2,4.9-2.5,6.7-4.7
			C40.2,119.3,40.5,119.7,40.9,120z M29.2,118c-0.3-0.2-0.5-0.3-0.6-0.5c-0.1,0.2-0.4,0.4-0.4,0.6c0,0.2,0.3,0.3,0.5,0.5
			C28.8,118.5,28.9,118.3,29.2,118z"/>
		<path class="st6" d="M13.6,105.7c4.5,0.4,5.5,1.7,4.7,6.1c-0.7,3.8-0.7,3.7,3,3.2c1.1-0.2,2.3-0.1,3.4-0.1c0.9,0,2-0.5,2.6,0.7
			c0.5,1.1-0.2,2-1,2.8c-0.3,0-0.6,0-0.9,0c-0.7,0.1-1.9-0.2-1.8,0.8c0,1.3,1.3,0.7,2,0.8c0.2,0,0.4-0.1,0.6-0.1
			c1.2,1.9-0.5,1.7-1.5,1.9c-1.2,0.2-3.4-0.2-3.1,1.3c0.2,1.6,2.4,0.9,3.7,0.7c1.1-0.2,2.2-0.7,2.6,0.7c0.4,1.2-0.5,1.7-1.6,1.8
			c-1,0-2.1,0-3.1,0c-0.7,0-1.7-0.4-1.7,0.8c0,0.8,0.8,1.2,1.6,1.4c0.5,0.1,1.1,0.1,1.7,0.1c-0.1,0.9-0.6,1.5-1.3,1.9
			c-2.5,1.6-4.7,1-6.9-0.6c0.1-0.8-0.2-1.8-0.8-2.1c-3.1-1.5-3.3-4.3-3.6-7.2c-0.2-1.6-0.6-3.2,0.5-4.7c0.5-0.6,0.3-1.3-0.4-1.7
			c0-0.6,1.3-0.8,0.7-1.7l0,0c0.6,0.3,0.5-0.2,0.5-0.5c1.2-1.8,0.9-3.3-0.6-4.8C12.9,106.7,13.1,106.2,13.6,105.7z"/>
		<path class="st0" d="M44.2,87.3c-0.6,0.2-1.2,0.4-1.8,0.6c0.3-1.9-0.2-2.9-2.3-2.8c-2.7,0.1-5.2-0.7-7.6-2.1
			c0.3-0.3,0.5-0.6,0.8-0.9c2.1,0.6,4.1,1.4,6.3,1.1c1-0.1,2.3-0.3,2.6-1.5c0.7-3.2,2.7-5.8,3.9-8.8c1.2-1.1,1.3-2.6,1.6-4
			c0.5,0,1,0,1.5,0c0.9,1.9-0.3,3.3-1.2,4.5C44.9,77.6,43.7,82.2,44.2,87.3z"/>
		<path class="st1" d="M12.3,114.3c0.7,0.5,0.8,1.1,0.4,1.7c-1.1,1.5-0.7,3-0.5,4.7c0.3,2.9,0.5,5.7,3.6,7.2
			c0.5,0.3,0.9,1.2,0.8,2.1c-0.6,0.5-0.5,1.2-0.6,1.9c-1.3-1.9-2.8-3.7-4.3-5.5c-1.2-1.5,0.3-3.9-0.9-5.7c-0.2-0.4-0.3-0.8-0.5-1.2
			c-0.1-0.4-0.2-0.8-0.3-1.2c0.1-0.8,0.2-1.5,0.3-2.3C10.9,115.5,11.6,114.9,12.3,114.3z"/>
		<path class="st1" d="M13,107.4c1.4,1.4,1.8,3,0.6,4.8c-0.3,0-0.8-0.1-0.5,0.5l0,0c0.1-0.5-0.2-0.7-0.5-0.9l0,0
			C12.7,110.2,12.1,108.7,13,107.4z"/>
		<path class="st7" d="M12.6,111.7C12.6,111.7,12.5,111.7,12.6,111.7c-1,1.1-2,2.2-3,3.3c-0.6,0-1.2,0.1-1.5-0.5
			c-0.3-0.7,0.2-1.1,0.7-1.3C10,112.4,10.9,111,12.6,111.7z"/>
		<path class="st8" d="M9.6,114.9c1-1.1,2-2.2,2.9-3.3c0.3,0.2,0.6,0.5,0.5,0.9c0.6,0.9-0.7,1.1-0.7,1.7c-0.7,0.6-1.4,1.2-2.1,1.8
			C9.7,115.9,9.6,115.4,9.6,114.9z"/>
		<path class="st8" d="M9.9,118.4c0.1,0.4,0.2,0.8,0.3,1.2c-0.3-0.1-0.8-0.2-0.9-0.5C9.1,118.6,9.6,118.5,9.9,118.4z"/>
		<path class="st9" d="M122.1,17.1c3.7,4,7,8.2,7.5,13.9c1.2,7.3-0.7,13.9-4.4,20c-1.6,2.4-3.5,4.5-5.7,6.4
			c-4.3,2.4-8.5,5.3-13.7,5.3c-1.8-0.7-3.9-4.3-3.5-5.9c0.4-1.4,2-0.3,2.6-1.5c-0.6-1.3-2-1.9-3.3-2.7c-1.3-0.9-1.4-2-0.1-2.9
			c1.4-1.1,2.9-2.1,4.3-3.6c-2.5,0-5,0.1-7.6,0c-1.3-0.1-3.3,1-3.8-0.9C94,43.5,96,43.1,97,42.5c2.1-1.3,3.7-2.9,4.6-5.6
			c-3.5,0.9-6.5,2.1-9,4.4c-1.1,1-2.8,2.7-3.7-1.2c-1.8,4.6-4.4,7.7-7.2,10.7c-0.7,0.8-1.4,1.4-2.7,1.4c-4.3-0.3-7.5,1.6-9.8,5.2
			c-1,1.5-3,1.1-3.9,2.6c-0.3-0.1-0.5,0-0.5,0.3c-0.4,0.1-0.8,0.3-1.1,0.4c-2.6,0.1-4.7-1.4-6.9-2.4c-2.7-3.7-2.7-3.6,0.1-7.2
			c3-3.8,6.2-7.4,8-12c5.1-6.5,7.6-14.3,11.4-21.4c3.2-5.9,7.1-11,14.1-12.6c4.9-1.1,9.5-0.2,14.3,1.4c5.4,1.9,10,5,14.7,8.1
			c0.2,0.2,0.4,0.3,0.6,0.5c0.1,0.1,0.3,0.3,0.4,0.4c0.3,0.7,0.5,1.5,1.5,1.4C121.9,16.9,122,17,122.1,17.1z"/>
		<path class="st9" d="M57.7,38.5c4.5,2.9,4.5,2.9,1.2,7.1c-1.5,1.9-2.9,3.7-4.4,5.6c-0.8,1-1.5,1.2-2.8,0.5
			c-4-2.1-6.8-5.7-10.7-7.9c-0.7-0.4-1.2-0.9-2-0.9c-0.3-0.4-0.7-0.4-1.1-0.4c-0.1-0.1-0.2-0.2-0.4-0.2c-0.2-0.2-0.4-0.4-0.6-0.6
			l0,0c-0.4-1.1-0.1-2.6-1.7-2.9c-0.1-2.9,1.5-4.6,4.1-4.9c4.8-0.6,9.5-0.2,13.9,2.5C54.5,37.3,56,38.1,57.7,38.5z"/>
		<path class="st5" d="M35,38.8c1.6,0.3,1.4,1.8,1.7,2.9c-0.6-0.2-1.2-0.3-1.9-0.5c-0.3-0.5-0.5-1-0.8-1.6
			C34.4,39.4,34.7,39.1,35,38.8z"/>
		<path class="st5" d="M121.8,16.7c-1,0.1-1.2-0.7-1.5-1.4C121.2,15.5,121.3,16.2,121.8,16.7z"/>
		<path class="st5" d="M119.9,14.9c-0.2-0.2-0.4-0.3-0.6-0.5C119.5,14.6,119.7,14.8,119.9,14.9z"/>
		<path class="st5" d="M44.2,87.3c-0.4-5.1,0.7-9.7,3.8-13.9c0.9-1.3,2.2-2.7,1.2-4.5c0.2-2-1.3-3.7-1-5.7c0-0.6,0.1-1.3-0.6-1.7
			l0,0c0-0.7,0.1-1.4-0.5-1.9c0-0.1,0-0.2,0-0.4c0-1.3-0.4-2.5-1.1-3.6c-0.2-0.9-0.4-1.8-0.5-2.7c-0.2-1-0.4-2.1,1.1-2.5
			c1,0,2,0.4,2.4,1.3c2.3,4.1,6.6,6.6,8.5,11c0.7,1.6,2.4,2.3,3.9,1.3c2.7-1.9,5.8-3,8.8-4.4c1.1-0.5,1.4-1.6,1.9-2.4
			c1.9-3.2,6.3-4.4,9.2-2.1c2.1,1.6,4.2,3.3,4.6,6.2c0.2,1.2,1.1,1.8,1.9,0.5c1.9-2.9,2.3-0.1,2.9,0.8c0.5,0.8,0.6,2,1,3.4
			c1.7-2.4,1.9-4.6,1.2-7c-0.2-0.7-0.5-1.4,0.1-1.9c0.7-0.5,1.3,0.4,1.8,0.4c1.4-0.1,2.4,2.6,4,0.3c0.3-0.4,1.3,0.6,1.6,1.3
			c0.5,1.1,1.6,2,1.5,3.3c-1.7-0.4-3.2-2.6-5.3-0.7c-0.5,0.5-1.1,0.9-1.6,1.4c-1.5,1.7-2.2,3.4-0.2,5.2c-0.2,1.5,1.8,2.3,1.3,3.9
			c-0.3,2.3,2.1,4.7,0,7c-1.5,1-4,1.3-2.9,4.1c0,0.4,0,0.7,0,1.1c-1.7,2.8-4.2,3.9-7.4,3.5c-0.9-0.1-1.9,0-2.9,0l0,0
			c0-0.5-0.2-0.9-0.6-1.1c-0.2-0.3-0.3-0.4-0.4,0.1c-1.2,0.9-1.9,0.1-2.6-0.7c-0.2-0.2-0.4-0.8-0.2-1c0.7-1,1.5,0.1,2.3-0.1
			c0.2,0,0.4,0,0.6,0c1.1,0.2,2.7,1.4,3.3-0.1c0.7-1.5-1.5-1.2-2.2-1.9c-1.1-0.9-2.5-2.3-2.2-3.2c0.5-1.4,2.1-0.2,3.3-0.2
			c0.2,0,0.4,0,0.6,0c0.8,1.2,2.3,0.4,3.3,1.1c2.1,0,3.1-0.7,1.8-2.9c-1.3-1.6-1.5-3.6-2.2-5.4c-0.4-0.9-0.5-2.1-1.9-2
			c-1-2.7-3.2-4.1-5.6-5.4c-4.6-0.5-5.8,1-5,5.7c0.5,2.9,2.3,4.9,3.4,7.4c0.3,0.6,1.2,1,0.7,1.7c-0.5,0.7-1.4,0.4-2.1,0.3
			c-3.6-0.4-7.3-0.6-11-0.5c-0.6,0-1.6-0.3-1.7,0.6c-0.2,0.8,0.8,0.9,1.4,1.2c0,0.8,0,1.5,0,2.3c-0.3,0.7-1.7,0.4-1.4,1.5
			c0.2,0.9,1.2,0.9,1.9,0.8c2.2-0.3,3.2,1,4.1,2.8c1.5,3.1,3.8,5.5,6.9,7.1c0.9,0.9,2,1.7,3.2,0.7c4-3.2,8.9-1.9,13.4-3.6
			c0-0.7,0-1.8,0-2.9c0-1.9,1-2.8,2.9-2.9c1.7,0.7,3.5,0.7,5.2,0.7c-0.1,0.7,0,1.8-0.4,2.2c-2.5,2.3-1.9,5.4-1.9,8.2
			c0,0.4,0,0.7,0.1,1.1c-1.8,2.4-6.1,1.5-7,5.2c-0.4,0-0.7,0-1.1,0c-0.2-0.3-0.4-0.3-0.7,0c-1.8-0.1-1.6,0.8-1,1.9
			c0.6,0.9,1.3,1.8,0.1,2.9c-1.2,1.2-2.7,1.1-4,0.6c-2.1-0.7-4.1-1.7-6.1-2.6c0-1.8,1.4-3.4,0.4-5.3c0,2.2-2.2,3-2.9,4.7
			c-0.3,0-0.6,0.1-1,0.1c-2.2-0.7-3.8-1.3-3.1-4.5c0.8-3.2,2.9-0.9,4.3-1.6c-0.6-0.7-1.3-1-1.9-0.8c-4,1.1-7.8-1.1-12-0.2
			c-4.4,0.9-8.7-1.2-12.7-3.3c-0.3-0.2-0.7-0.4-1-0.6l-0.1-0.1C47.9,93.1,45.4,90.6,44.2,87.3z"/>
		<path class="st2" d="M46.1,72.9c-1.2,3-3.2,5.6-3.9,8.8c-0.2,1.1-1.5,1.3-2.6,1.5c-2.2,0.3-4.3-0.5-6.3-1.1
			c-5.5-4.5-9-10.1-9.7-17.2c-0.7-6.8,0-13.2,6-17.8c3.5-2.7,6.5-2.5,9.8,0.5c2.7,2.4,4.2,5.6,5.8,8.8c-0.3,1.1,0.5,1.9,0.7,2.8
			c1,2.6,0.9,5.4,1.4,8.1c0,0.5-0.1,1.1-0.1,1.6c-1.2,1.8-3.2,1.4-4.9,1.8c-4.6,1.2-6.5,1.1-6.5-3.9c0-0.6,0-1.8-1.1-1.7
			c-1.1,0.2-1,1.3-0.9,2.1c0.1,0.7,0.3,1.3,0.5,1.9c0.1,0.7,0,1.1-0.8,1.1c-0.5,0-1.5-0.7-1.5,0.6c0,0.7,0.7,1.1,1.3,1.4
			c1.7,0.8,3.5,0.7,5.3,0.8C41.2,73.2,43.6,72.1,46.1,72.9z"/>
		<path class="st0" d="M45.9,59.1c-0.2-1-0.9-1.8-0.7-2.8c0.2-0.2,0.4-0.5,0.7-0.7c0.7,1.1,1.1,2.3,1.1,3.6
			C46.6,59.2,46.2,59.1,45.9,59.1z"/>
		<path class="st5" d="M37.8,42.5c0.4-0.1,0.8,0,1.1,0.4c0,0.4,0,0.8,0.1,1.3C38.2,43.8,37.8,43.3,37.8,42.5z"/>
		<path class="st5" d="M36.8,41.7c0.2,0.2,0.4,0.4,0.6,0.6C37,42.3,36.8,42.1,36.8,41.7z"/>
		<path class="st6" d="M64.3,177.7c-0.1,0.2-0.1,0.4-0.2,0.5c-5.6,0.9-7.5-0.5-7.9-6.1c-0.1-1.6,0-3.3,0-4.9c0-1.3,0.2-2.7-0.5-3.9
			c0-1.6,0-3.1,0-4.7c0.6-2.3,1.6-4.6,1.6-6.8c-0.1-1.9,1.9-3.4,0.7-5.3c0.2-1,0.4-1.9,0.7-2.9c1.3-1.5,2.2-3.6,4.6-4
			c0.4,0,0.8,0,1.2,0c0.3,0.2,0.8,0.5,1,0.4c3.6-1.6,7.4-1.1,11.2-1.1c0.2,0.2,0.4,0.3,0.6,0.5c0,0.3,0,0.5,0,0.8
			c-1.6,0.5-0.2,1.6-0.5,2.3c-0.4,0.4-1,0.7-1.2,1.1c-4.2,7.7-9.2,15.1-10.3,24.2c0.8,1.9-0.3,3.6-0.6,5.4
			C64.1,174.7,62.7,176.3,64.3,177.7z"/>
		<path class="st1" d="M57.8,146.6c1.3,1.9-0.7,3.4-0.7,5.3c0.1,2.2-1,4.5-1.6,6.8c-0.6-0.6,0-2.8-2.1-1.6c-1.2-1-1.4-2.4-1.1-4.4
			c-1.6,3.4-1.1,4.6,1.2,4.5c0.2,0.9,0.3,1.9,0.1,2.8c-0.5,1.8,0.1,2.9,1.9,3.4c0.7,1.2,0.5,2.6,0.5,3.9c0,1.6-0.1,3.3,0,4.9
			c0.4,5.6,2.3,7,7.9,6.1c-0.4,2.6-2.4,3.3-4.5,3.4c-2.1,0.1-3.5-1.4-4.6-3.1c-1.2-1.8-0.1-4.1-1.2-5.9c0-0.9,0-1.8,0-2.6
			c-0.1-1.3,0.3-2.7-0.5-4c-0.6-1.3-1.4-1.3-2.4-0.4c-1.4-0.2-2.8-0.3-4.3-0.5c-0.7-0.1-1.4-0.2-1.7,0.6c-1.9,4.3-2.4,0.7-3.2-0.6
			c-0.6-1.1-1.3-2.2-1.5-3.4c-1-4.8-4.5-6.3-8.7-7.2c-1.6-0.3-2,0.1-2.1,1.6c-0.2,4.3-1,8.5-2,12.7c-0.3,1.2,0.1,1.9,1.1,2.6
			c3.2,2.2,6.4,4.3,10.1,5.8c1.3,0.5,2.4,0.5,3.8,0.2c3.6-0.7,5.8-3.5,8.6-5.4c0.2,0.6,0.5,1.2,0.7,1.8l-0.1-0.1l0.1,0.1
			c-0.5,0-1.1,0-0.9,0.8l-0.2,0.1c-0.1,0-0.2-0.1-0.3-0.1c0.1,0.1,0.1,0.1,0.2,0.2c-5.5,5-10.5,5.6-16.9,1.9
			c-2.7-1.6-5.2-3.4-7.8-5.2c0-0.1-0.1-0.2-0.2-0.2c-0.8-2,0.5-3.8,0.7-5.7c0.1-1,0.3-1.8-0.7-2.4c0-0.5,0-1.1,0-1.6l0,0
			c0.2-0.2,0.4-0.4,0.6-0.5c1-2.4,0.7-4.4-1.6-5.8c1-0.2,2.4,0.7,2.8-1.1c0-0.5,0.2-1,0.1-1.4c-0.1-2,0.7-2.5,2.5-1.6
			c1.9,0.9,4,1,5.5,2.3c0-3.5,0-6.9,0-10.3c0.6-0.5,0.6-1.1,0-1.7c-0.1-0.8-0.1-1.6,0.3-2.3c0.5,0,1,0,1.5,0.1
			c-0.7,7.7,0.5,14.9,5,21.4c1.4,2,2.8,2.9,5.4,2.7c-1.6-4-2.9-7.9-2.9-12c0-1.6-0.3-3-1.5-4.1c-0.5-0.5-1.2-1-0.7-1.9
			c1-1.9,2.4,1.7,3.3-0.4c0.2,0.3,0.3,0.7,0.5,1c1,2.5,0.6,5.5,2.4,7.9c2.1-3.4,3.7-7.2,7.8-8.5C56.2,146.5,56.9,146.6,57.8,146.6z
			 M51.2,162.9c-0.1,0-0.1-0.1-0.2-0.1c0,0.1-0.1,0.2-0.1,0.2c0.1,0,0.1,0.1,0.2,0.1C51.1,163.1,51.1,163,51.2,162.9z"/>
		<path class="st1" d="M64.9,167.9c1.2-9,6.1-16.5,10.3-24.2c0.3-0.5,0.8-0.8,1.2-1.1c0.9,1-0.4,1.4-0.6,2.1
			c-0.5,1.6-2.1,2.8-1.2,4.8c-0.9,3.3-3.5,6-4.1,9.5c-0.1,0.7-0.8,1.6-0.2,2.1c0.9,0.7,1.5-0.3,2.2-0.8c4.4-3.2,6.8-7.8,9.3-12.5
			c1.1-2.1,1-3.3-1.5-3.7c-0.2-0.7-0.4-1.4-0.6-2.2c2.4,0.7,4.8,1.5,7.1,2.2c-0.7,0.4-1.5,0.6-1.9,1.3c-1,1.1-1.1,2.6-1.5,3.9
			c0,0.2-0.1,0.4-0.1,0.6c-0.3,0.6-0.6,1.2-0.9,1.7c-0.2,0.3-0.3,0.6-0.5,1c-2.9,4.3-6.2,8.1-10.7,10.8c-1.4,0.8-2.4,2.2-3.6,3.4
			C66.7,167.2,65.8,167.5,64.9,167.9z"/>
		<path class="st1" d="M4.5,176.6c0.2-0.2,0.3-0.3,0.5-0.5c6.4-4.3,9.1-10.8,10.7-17.9c0.3-1.4,0.6-2.7,1.8-3.7
			c0.9,0.7,0.6-0.2,0.7-0.5c0,0,0.1,0,0.1,0c0.7,0.2,1.4,0.5,2.2,0.7c-2.7,2.9-4,6.3-5.4,9.9c-1.1,3.2-2,6.7-5.1,9
			c-1.7,1.3-3.6,2.9-4.6,5c-1,2-0.4,3.2,1.8,3.7c1,0.2,2.1,0.5,3,0.9c2.8,1.4,5.4,1.3,8-0.5c0.1,0.5,0.2,0.9,0.6,1.2
			c-0.1,0.4-0.1,0.7-0.2,1.1c-1.6,0.7-3.3,0.8-5,0.6c-1.9,0.2-4,0.3-5.4-1.1c-1.2-1.2-2.4-1.4-3.8-0.9c-1.9-0.3-2-1.6-1.5-2.9
			C3.3,179.3,4,177.9,4.5,176.6z"/>
		<path class="st1" d="M64.9,188.3c2.7-1.4,5.4-2.6,5.9-6.1c0.9-1.1,0.8-3.5,3-3c0.4,2.5-0.9,4.4-1.5,6.4c-0.4,0.6-0.8,1.1-1.2,1.7
			c-2,1.1-3.6,2.8-5.8,3.8c-2,0.9-3.8,0.5-5.7,0.9c-0.7,0.1-1.3-0.2-1.5-1c-0.2-1,0.6-1.2,1.4-1.4C61.3,189.4,63.2,189.3,64.9,188.3
			z"/>
		<path class="st0" d="M18.8,184c-0.5-0.3-0.6-0.7-0.6-1.2c2.1-3.1,1.4-6.7,1.8-10.1c0.5-3.6,1-7.2,2.8-10.5c0.2,0.7,0.5,1.3,0.7,2
			c-0.8,2.3-0.5,4.8-0.7,7.2c-0.4,0.7-0.5,1.4-0.4,2.2c-0.9,3-1.8,6-2.7,8.9C19.4,182.9,19.1,183.5,18.8,184z"/>
		<path class="st1" d="M20.5,197.8c-0.5-0.2-1.3,0.1-1.5-0.6c-0.2-0.8,0.4-1.3,1-1.5c3.4-1.3,6.7-2.7,8.5-6.2
			c0.2-0.5,0.8-0.6,1.3-0.3c0.9,0.6,0.6,1.4,0.3,2c-1.1,2-2.7,3.7-4.7,4.8C23.7,196.8,22.2,197.6,20.5,197.8z"/>
		<path class="st1" d="M78.9,180.6c0.6-1.1-0.3-2-0.4-3c0-0.6-1.1-1.4,0.2-1.7c0.7-0.2,1.8-0.4,1.8,1.1c0,0.8,0.5,1.6,0.7,2.4
			c-0.5,4-1.7,5.4-4.7,5.9c-0.1-0.4-0.3-0.9-0.4-1.3C77.2,183,78.6,182.3,78.9,180.6z"/>
		<path class="st0" d="M64.9,167.9c0.9-0.3,1.8-0.7,2.7-1c-0.7,3-1.4,6.1-2.1,9.1c-0.2,0.7-0.1,1.6-1.1,1.8c-1.6-1.5-0.3-3,0-4.4
			C64.6,171.5,65.7,169.8,64.9,167.9z"/>
		<path class="st0" d="M53.8,170c0,0.9,0,1.8,0,2.6c-1.1-0.4-1.3,0.9-2.2,1.1c-0.2-0.6-0.5-1.2-0.7-1.8
			C51.8,171,52.7,170.4,53.8,170z"/>
		<path class="st10" d="M20.4,192.9c0.1,0.1,0.3,0.1,0.4,0.2c-0.1,0.1-0.1,0.4-0.2,0.4"/>
		<path class="st0" d="M50.8,174.5c-0.2-0.8,0.3-0.8,0.9-0.8C51.4,174,51.1,174.3,50.8,174.5z"/>
		<path class="st0" d="M50.5,174.8c-0.1-0.1-0.1-0.1-0.2-0.2c0.1,0,0.2,0.1,0.3,0.1L50.5,174.8z"/>
		<path class="st2" d="M79.7,107.4c2,0.9,4,1.9,6.1,2.6c1.3,0.4,2.7,0.6,4-0.6c1.1-1.1,0.5-2-0.1-2.9c1.4-0.1,2.8,0.3,4.1-0.5l0.1,0
			c0.3-0.1,0.6-0.2,0.9-0.4c2.2-0.5,3.9-2,5.8-2.9c1.4-0.6,2.9-1.3,4.3-0.1c1.3,1.1,1,2.7,0.6,4c-2.2,7.2-6.7,13.1-11.9,18.3
			c-1.9,1.9-4.9,1.9-7.5,2c-6.7,0.3-13.1-0.8-19.5-2.8l0,0c0-0.7,0.1-1.5,0.1-2.2c0.1-0.4,0.3-0.8,0.4-1.2c0.5-1.3,0.9-2.6,0.9-4
			c0.1-0.7,0.2-1.4,0.2-2.1c0.3-0.8,0.5-1.6,0.2-2.5c0.4-1.7-0.9-4.2,0.4-5.1c1.3-0.8,3.2,1,4.9,1.6c0.3,0.1,0.6,0.1,0.8,0.2
			c3.3,1.4,6.7,2.8,10,4.3c-1.7-2.6-4.9-2.9-6.5-5.4C78.7,107.5,79.2,107.5,79.7,107.4z"/>
		<path class="st11" d="M86.9,144.1c-2.4-0.7-4.8-1.5-7.1-2.2c-1.6-1,0.5-3-1-4.1c-0.2-0.7-0.6-1-1.3-1.1c-0.7-0.5-1.4-0.8-2.2-0.5
			c-2.2,0.4-4.6,0.2-6.8,0.8c-0.8,0.2-2.2,0.3-2.3-1c-0.4-4.1-3.4-7-4.5-10.8c-0.1-0.6-0.2-1.2-0.3-1.8c0-0.2,0-0.4,0-0.6
			c0-0.4,0-0.7,0.1-1.1l0,0.1c0.9-0.2,1.3,0.4,1.4,1c0.5,2.6,2.5,3,4.6,3.5c7,1.6,14.1,2.7,21.3,2.7c1,0,2,0,1.9,1.4
			c-0.4,4.7-0.1,9.5-1.1,14.2C88.7,144.6,87.8,144.4,86.9,144.1z"/>
		<path class="st0" d="M67.1,120.7c-0.1,0.4-0.3,0.8-0.4,1.2c-1.3,0.1-2.6,0.9-3.7-0.8c-0.9-1.4-1.5-0.3-1.6,0.9l0-0.1
			c-1.5,0.3-3.2,0.2-3.5,2.3c-0.3,0.2-0.5,0.5-0.8,0.7c-5.7-3-10.2-2.2-14.3,2.4c-3.1,3.4-4.6,7.5-5.5,12c-0.5,0-1,0-1.5-0.1
			c-0.1-1.2,0.1-2.3,0.5-3.4c0.7-0.2,1-0.5,0.4-1.2c0-0.5,0-0.9,0.5-1.2c0.4-0.1,0.6-0.3,0.1-0.6c0.8-3.7,2.6-6,8.8-11.3
			c-1.8-0.8-3.1-2.5-5.3-1.5c-0.3-0.3-0.6-0.7-0.9-1c-0.9-2.4-1.5-4.9-1.5-7.5c0.1-0.1,0.2-0.1,0.2-0.2c0-0.1-0.1-0.3-0.1-0.4
			c-0.1-0.4-0.2-0.7-0.3-1.1c0.5,0,0.9-0.1,1.4-0.1c0.4,1.8,0.7,3.6,1.2,5.4c0.6,2.4,3.2,4.2,4.8,3.1c1.6-1.1,2.9-0.7,4.2-0.1
			c5,2,9.7-0.2,14.5-0.9c0-0.4,0-0.7,0-1.1c2.3,0,1.5-1.7,1.7-2.9c0.7,0.4,1.5,0.9,2.2,1.3c-0.1,0.7-0.2,1.4-0.2,2.1
			C65.1,117.4,66.5,119.1,67.1,120.7z"/>
		<path class="st0" d="M86.9,144.1c0.9,0.2,1.7,0.4,2.6,0.6c0.1,1.4,1.1,0.5,1.7,0.7c0.2,0.9,0.8,2.1-1.1,1.4
			c-1.7-0.6-3.4-0.9-5.2-1.4C85.4,144.7,86.3,144.6,86.9,144.1z"/>
		<path class="st0" d="M93.7,106c-1.3,0.8-2.7,0.3-4.1,0.5c-0.6-1.1-0.7-2,1-1.9c0.2,0,0.4,0,0.7,0c0.4,0,0.7,0,1.1,0
			C92.5,105.4,93.1,105.7,93.7,106z"/>
		<path class="st0" d="M94.7,105.7c-0.3,0.1-0.6,0.2-0.9,0.4C93.8,105.2,94.2,105.1,94.7,105.7z"/>
		<path class="st0" d="M66.6,124.1c-0.2,0.2-0.4,0.3-0.6,0.5C65.8,123.9,66.4,124.3,66.6,124.1L66.6,124.1z"/>
		<path class="st5" d="M99.4,98.3c0.1-2.9-0.6-5.9,1.9-8.2c0.4-0.4,0.3-1.4,0.4-2.2c1.8,0,2.8-1.2,3.7-2.7c-2.8,0.6-5.5,0.3-8.2,0.3
			C96,84,94.3,85.1,93,84.4c0-0.4,0-0.7,0-1.1c1-0.2,1.9,0.3,2.8,0.3c1.5-0.1,3.1-0.3,3.9-1.7c0.6-1-0.5-1.4-1-2
			c-0.1-1.8,1.5-2.3,2.4-3.4c1.5-0.2,2.8-1.8,4.5-0.6c-0.1,1.1,2.4,1,1.2,2.9c-0.4,0.7,1.3,0.5,2,0.4c3.7-0.5,3.7-0.5,3.7,3.1
			c0,5-3.1,8.2-6.1,11.7C104.5,96.4,101.2,96.1,99.4,98.3z"/>
		<path class="st4" d="M105.6,75.8c-1.7-1.2-3,0.5-4.5,0.6c-0.3-0.1-0.6-0.1-0.9-0.2c-0.9-2-1.9-3.9-2.7-5.9c-0.3-0.7-0.8-1.5,0.1-2
			c0.8-0.5,1.4,0.1,2.1,0.5c1.4,1,2,2.5,2.6,4c0.4,1.2,1.1,2.2,2.3,0.7c2,0.6,2.5-2.5,4.5-1.8c0,0.8-0.4,1.1-1.1,1.2
			c-0.1,0-0.2-0.1-0.2-0.1c0.1,0,0.1,0.1,0.2,0.1C107.6,74.3,106.3,74.8,105.6,75.8z"/>
		<path class="st1" d="M112.6,76.1c0.6,0.2,0.5,0.7,0.5,1.1c0,0.4-0.3,0.8-0.7,0.6c-0.3-0.2-0.6-0.7-0.6-1.1
			C111.8,76.3,112.2,76.1,112.6,76.1z"/>
		<path class="st6" d="M110,75.6c0.1,0.1,0.3,0.1,0.4,0.3c0,0.1-0.1,0.3-0.1,0.4c-0.1-0.1-0.4-0.1-0.4-0.2
			C109.8,75.9,110,75.7,110,75.6z"/>
		<path class="st0" d="M20.5,154.6c-0.7-0.2-1.4-0.5-2.2-0.7c1.9-1.6,4-0.9,6.1-0.5c1,0.2,2,0.5,3,0.7c-0.4,1.8-1.8,0.9-2.8,1.1
			C23.2,155,21.9,154.8,20.5,154.6z"/>
		<path class="st0" d="M15.8,131.8c0.1-0.7,0-1.4,0.6-1.9c2.2,1.6,4.4,2.3,6.9,0.6c0,0.6,0.1,1.2,0.1,1.8
			C20.9,132.8,18.3,133.6,15.8,131.8z"/>
		<path class="st6" d="M36.7,134.5c0.6,0.6,0.3,0.9-0.4,1.2C36.2,135.2,36.4,134.9,36.7,134.5z"/>
		<path class="st6" d="M35.6,141.4c0.5,0.6,0.5,1.1,0,1.7C35.6,142.5,35.6,142,35.6,141.4z"/>
		<path class="st0" d="M18.2,153.9c-0.1,0.3,0.1,1.2-0.7,0.5C17.8,154.2,18,154.1,18.2,153.9z"/>
		<path class="st6" d="M37.4,132.8c0.5,0.3,0.3,0.5-0.1,0.6C37.3,133.2,37.4,133,37.4,132.8z"/>
		<path class="st0" d="M99,48.9c-2.6-0.5-4.2,2.7-6.9,1.8c-0.7-0.2-0.9,0.8-1.2,1.4c-0.3,0.6,0.2,1.9-1.1,1.5
			c-1-0.3-1.5-1.2-1.1-2.3c0.5-1.4,0.5-2.6-1.2-3.2C87,48,86.8,47.6,87,47.2c0.2-0.4,0.6-0.7,0.9-0.4c0.8,0.6,1.9,0,2.6,1
			c1,1.3,2.7,1.1,3.9,0.6C96.2,47.5,97.5,48.3,99,48.9z"/>
		<path class="st6" d="M96.5,61.8c2.1-1.8,3.5,0.3,5.3,0.7c0.7,0.8,1.4,1.6,2.1,2.4c0,1.6,2,3.3-0.2,4.8
			C102,66.5,100.9,62.7,96.5,61.8z"/>
		<path class="st5" d="M56.7,58.1c2.3,1,4.3,2.5,6.9,2.4C60.7,63,59.1,62.4,56.7,58.1z"/>
		<path class="st0" d="M98.8,52c-1.1,1.1-2.6,0.9-3,2.2c-0.2,0.6-0.8,1.2-1.5,0.3c-0.5-0.7-0.6-1.4,0.1-2
			C95.5,51.3,96.9,51.6,98.8,52z"/>
		<path class="st0" d="M85.6,49c0,0.7,0,1.3-0.1,1.9c-0.1,0.8,0.4,1.8-0.7,2.3c-0.1,0.1-0.5,0-0.5-0.1c-0.2-0.9-0.5-1.8-0.4-2.7
			C84,49.7,84.6,49.1,85.6,49z"/>
		<path class="st0" d="M98.8,39c-0.1,1.7-1.5,2.2-2.9,2.9C95.5,39.3,97.4,39.4,98.8,39L98.8,39z"/>
		<path class="st0" d="M88.1,45.4c0.1-0.2,0.1-0.4,0.2-0.4c0.1,0,0.3,0.1,0.4,0.2c-0.1,0.2-0.1,0.4-0.2,0.4
			C88.4,45.7,88.2,45.5,88.1,45.4z"/>
		<path class="st0" d="M98.8,39c0.2-0.1,0.4-0.3,0.6-0.4C99.5,39.2,99,38.8,98.8,39L98.8,39z"/>
		<path class="st5" d="M64.8,60.2c0.1-0.3,0.2-0.4,0.5-0.3C65.2,60,65,60.1,64.8,60.2z"/>
		<path class="st3" d="M96.5,61.8c4.4,0.9,5.5,4.7,7.2,8c0,0.1,0,0.2,0.1,0.3c0.3,1.2,0.5,2.3,0.8,3.5c-1.3,1.5-1.9,0.6-2.3-0.7
			c-0.5-1.6-1.2-3-2.6-4c-0.6-0.4-1.3-1-2.1-0.5c-0.9,0.6-0.4,1.4-0.1,2c0.9,2,1.8,3.9,2.7,5.9c-2.7,0-2.4-3.2-4.3-4
			c0.6-1.6-1.5-2.4-1.3-3.9c0.1-1.7,0.1-3.4,0.2-5.2C95.4,62.7,95.9,62.2,96.5,61.8z"/>
		<path class="st2" d="M38.2,109.8c0.1,0.4,0.2,0.7,0.3,1.1c0,0.2,0,0.4-0.1,0.6c0,2.6,0.6,5.1,1.5,7.5c-1.8,2.2-4.2,3.5-6.7,4.7
			c-1.4,0.7-2.2,0-3-0.8c-1-0.9,0.3-1.2,0.7-1.7c0.7-1,0.6-1.7-0.3-2.4l-0.1-0.1c0.9-3.9,0.9-3.9-4.9-6.3c2.8-2.9,6.7-2.1,10-3.2
			c-0.3-1.2-1.2-1-1.9-1.2c-0.9-0.2-1-0.6-0.7-1.4c2.2-5.6,4.3-11.3,8.7-15.7c1.2-1.2,2-1.6,2.9,0.4c1,2.1,2.5,4.1,4.5,5.5
			c0.3,0.4,0.6,0.7,1.1,0.7c0,0,0.2,0,0.2,0c-0.1,0.1-0.2,0.2-0.1,0.4c0,0.2,0,0.5,0.1,0.7c-0.9,0.1-1.9,0-2.1,1.3
			c-4.4,0.1-7.9,1.4-8.8,6.3C38.1,107.1,36.3,107.8,38.2,109.8z"/>
		<path class="st0" d="M24.7,128.7c-0.6,0-1.1,0-1.7-0.1c-0.8-0.2-1.6-0.6-1.6-1.4c0-1.1,1.1-0.7,1.7-0.8c1-0.1,2.1,0,3.1,0
			C25.9,127.3,28,130,24.7,128.7z"/>
		<path class="st0" d="M26.2,119.9c-0.2,0-0.4,0.1-0.6,0.1c-0.8-0.1-2,0.5-2-0.8c0-1,1.1-0.7,1.8-0.8c0.3,0,0.6,0,0.9,0
			C26.3,118.9,26.2,119.4,26.2,119.9z"/>
		<path class="st0" d="M29.2,118c-0.2,0.3-0.4,0.5-0.6,0.6c-0.2-0.2-0.5-0.3-0.5-0.5c0-0.2,0.2-0.4,0.4-0.6
			C28.7,117.7,28.9,117.8,29.2,118z"/>
		<path class="st4" d="M50.2,97.5c-0.5,0-0.8-0.3-1.1-0.7c0.3-0.3,0.5-0.6,0.8-0.9c0,0,0.1,0.1,0.1,0.1
			C50.1,96.4,50.1,96.9,50.2,97.5z"/>
		<path class="st0" d="M30.6,118.7c-0.1,0.1-0.2,0.3-0.3,0.4C29.9,118.8,30.4,118.8,30.6,118.7C30.5,118.7,30.6,118.7,30.6,118.7z"
			/>
		<path class="st8" d="M13,112.6c-0.2-0.6,0.2-0.5,0.5-0.5C13.5,112.5,13.6,112.9,13,112.6z"/>
		<path class="st1" d="M46.1,72.9c-2.5-0.8-4.9,0.3-7.4,0.2c-1.8-0.1-3.6,0-5.3-0.8C32.8,72,32,71.6,32,70.9c0-1.2,0.9-0.5,1.5-0.6
			c0.8-0.1,1-0.5,0.8-1.1c-0.1-0.7-0.4-1.3-0.5-1.9c-0.1-0.8-0.2-1.9,0.9-2.1c1.1-0.2,1.1,1,1.1,1.7c0,4.9,1.9,5.1,6.5,3.9
			c1.7-0.4,3.7,0,4.9-1.8l0.2,0l0.2,0C47.4,70.3,47.2,71.8,46.1,72.9z"/>
		<path class="st4" d="M47.6,68.9l-0.2,0l-0.2,0c0-0.5,0.1-1.1,0.1-1.6c1.4-1.3-0.3-2.8,0.3-4.2c0.2,0,0.4,0,0.6,0.1
			c-0.3,2,1.3,3.7,1,5.7C48.7,68.9,48.2,68.9,47.6,68.9z"/>
		<path class="st4" d="M65.4,81.6c-0.5-0.3-1.5-0.4-1.4-1.2c0.2-0.8,1.1-0.5,1.7-0.6c3.7,0,7.3,0.1,11,0.5c0.7,0.1,1.7,0.4,2.1-0.3
			c0.5-0.7-0.5-1.1-0.7-1.7c-1.1-2.5-2.9-4.5-3.4-7.4c-0.8-4.6,0.4-6.2,5-5.7c-4,0-5.1,3-2.7,7.7c0.8-2.4,2.3-2.2,4.1-1.3
			c2.1,1.2,3,3.2,3.4,5.4c0.3,1.6,1,2.3,2.6,2.1c-0.6,1.3-1.8,0.3-2.7,0.6c-0.2,0-0.4,0-0.6,0c-1.2,0-2.8-1.2-3.3,0.2
			c-0.3,0.9,1,2.3,2.2,3.2c0.8,0.6,2.9,0.3,2.2,1.9c-0.6,1.4-2.2,0.2-3.3,0.1c-0.2,0-0.4-0.1-0.6,0c-0.8,0.2-1.6-0.9-2.3,0.1
			c-0.1,0.2,0,0.8,0.2,1c0.7,0.8,1.4,1.6,2.6,0.7c0.1,0,0.3-0.1,0.4-0.1c0.4,0.2,0.6,0.6,0.6,1.1c-1.1,3.3-3.6,5.6-5.8,8.1
			c-3.2-1.5-5.4-4-6.9-7.1c-0.9-1.8-1.9-3-4.1-2.8c-0.7,0.1-1.7,0.1-1.9-0.8c-0.3-1,1.1-0.8,1.4-1.5c0.8-0.7,2.7-0.2,2.5-1.7
			C67.7,81.1,66.3,81.7,65.4,81.6z"/>
		<path class="st4" d="M50.3,97.9c-0.1-0.2-0.1-0.3,0.1-0.4c0.2-0.3,0.4-0.6,0.6-0.9c4,2,8.3,4.2,12.7,3.3c4.2-0.8,8,1.3,12,0.2
			c0.6-0.2,1.3,0.1,1.9,0.8c-1.4,0.7-3.5-1.5-4.3,1.6c-0.8,3.2,0.9,3.8,3.1,4.5c0,1.1-1.4,0.9-1.8,1.8c-0.3,0-0.6-0.1-0.8-0.2
			c-1.7-0.6-3.6-2.4-4.9-1.6c-1.3,0.8,0.1,3.3-0.4,5.1c-0.5,0.1-1,0-1.4-0.5c-0.1-0.4-0.3-0.3-0.5,0c-0.2,0-0.4,0-0.6,0
			c0.5-2.9-0.5-5-3.4-5.9c-1.6-1-3.2-2.2-5-3.1c-1.9-0.9-3.7-2.4-6-2C50.7,99.9,52.6,97.8,50.3,97.9z M68.7,105.3
			c1.2,0,2.7-0.3,2.9-2.1c0.1-1.5-1.2-2.3-2.4-2.4c-2.1-0.2-4.1,0.1-6,1.1c-0.5,0.3-0.6,0.8-0.2,1.2
			C64.5,104.5,66.3,105.2,68.7,105.3z"/>
		<path class="st10" d="M87.1,79.2c-1.6,0.2-2.3-0.4-2.6-2.1c-0.4-2.2-1.2-4.2-3.4-5.4c-1.7-1-3.2-1.1-4.1,1.3
			c-2.4-4.7-1.3-7.7,2.7-7.7c2.4,1.3,4.6,2.7,5.6,5.4C85.9,73.5,88.2,76,87.1,79.2z"/>
		<path class="st4" d="M76.9,96c2.1-2.5,4.6-4.8,5.8-8.1l0,0c0,0.9-0.1,1.9,1.4,1.4c1-0.4,2-0.2,3,0.4c2.1,1.3,4.3,1.5,6.5,0.6
			c0,1.1,0,2.3,0,2.9c-4.5,1.6-9.5,0.4-13.4,3.6C78.9,97.7,77.8,96.8,76.9,96z"/>
		<path class="st4" d="M93.6,90.2c-2.3,0.9-4.5,0.7-6.5-0.6c-1-0.6-1.9-0.7-3-0.4c-1.4,0.5-1.3-0.5-1.4-1.4c1,0,1.9-0.1,2.9,0
			c3.2,0.4,5.7-0.7,7.4-3.5c1.3,0.6,3-0.4,4.1,1.1c-0.2,0.6-0.4,1.1-0.7,1.7C94.6,87.3,93.6,88.3,93.6,90.2z"/>
		<path class="st4" d="M98.7,79.9c0.5,0.6,1.7,1,1,2c-0.9,1.4-2.5,1.7-3.9,1.7c-0.9,0-1.8-0.4-2.8-0.3c-1.1-2.8,1.4-3.1,2.9-4.1
			C96.8,79.4,97.8,79.6,98.7,79.9z"/>
		<path class="st0" d="M74.5,108.7c0.4-0.8,1.7-0.6,1.8-1.8c0.3,0,0.6-0.1,1-0.1c0.3,0.3,0.5,0.5,0.8,0.8c1.6,2.5,4.8,2.8,6.5,5.4
			C81.2,111.6,77.9,110.1,74.5,108.7z"/>
		<path class="st0" d="M96.4,87.2c0.2-0.6,0.4-1.1,0.7-1.7c2.7,0,5.5,0.3,8.2-0.3c-0.9,1.5-1.9,2.6-3.7,2.7
			C99.9,87.9,98.1,88,96.4,87.2z"/>
		<path class="st0" d="M98.7,79.9c-0.9-0.2-1.9-0.4-2.8-0.6c2.1-2.3-0.3-4.7,0-7c1.9,0.9,1.7,4,4.3,4c0.3,0.1,0.6,0.1,0.9,0.2
			C100.2,77.5,98.6,78.1,98.7,79.9z"/>
		<path class="st0" d="M87.1,79.2c1.1-3.2-1.1-5.7-1.7-8.5c1.4,0,1.5,1.1,1.9,2c0.7,1.8,1,3.8,2.2,5.4c0,1.3-1.3,1.9-1.8,2.9
			c-1-0.7-2.5,0.1-3.3-1.1C85.3,79.5,86.5,80.5,87.1,79.2z"/>
		<path class="st4" d="M78.1,107.6c-0.3-0.3-0.5-0.5-0.8-0.8c0.7-1.7,2.9-2.5,2.9-4.7c0.9,2-0.5,3.6-0.4,5.3
			C79.2,107.5,78.7,107.5,78.1,107.6z"/>
		<path class="st1" d="M47.5,63.1c-0.6,1.4,1.2,2.9-0.3,4.2c-0.5-2.7-0.4-5.5-1.4-8.1c0.4,0,0.8,0,1.1,0c0,0.1,0,0.2,0,0.4
			c-0.1,0.7-0.2,1.4,0.5,1.9l0,0C47.6,62,47.6,62.5,47.5,63.1z"/>
		<path class="st0" d="M94.8,63.2c-0.1,1.7-0.1,3.4-0.2,5.2C92.6,66.5,93.3,64.8,94.8,63.2z"/>
		<path class="st0" d="M65.4,81.6c0.9,0.1,2.3-0.5,2.5,0.6c0.2,1.5-1.7,1-2.5,1.7C65.4,83.1,65.4,82.3,65.4,81.6z"/>
		<path class="st6" d="M87.7,80.9c0.5-1,1.8-1.5,1.8-2.9C90.9,80.2,89.8,80.9,87.7,80.9z"/>
		<path class="st1" d="M51,96.5c-0.2,0.3-0.4,0.6-0.6,0.9c0,0-0.2,0-0.2,0c-0.1-0.5-0.2-1-0.3-1.6C50.3,96.1,50.7,96.3,51,96.5z"/>
		<path class="st0" d="M47.5,63.1c0-0.6,0-1.1,0-1.7c0.7,0.4,0.6,1.1,0.6,1.7C47.9,63.1,47.7,63.1,47.5,63.1z"/>
		<path class="st0" d="M47.6,61.4c-0.7-0.5-0.6-1.2-0.5-1.9C47.6,60,47.6,60.7,47.6,61.4z"/>
		<path class="st1" d="M91.3,104.6c-0.2,0-0.4,0-0.7,0C90.9,104.3,91.1,104.3,91.3,104.6z"/>
		<path class="st0" d="M82.1,86.8c-0.1,0-0.3,0-0.4,0.1C81.7,86.4,81.9,86.5,82.1,86.8z"/>
		<path class="st1" d="M57.2,124.8c0.3-0.2,0.5-0.5,0.8-0.7c1.4,0.1,2.3,1.6,3.8,1.2c1.1,3.8,4,6.7,4.5,10.8c0.1,1.3,1.5,1.3,2.3,1
			c2.2-0.7,4.6-0.4,6.8-0.8c0.7,0.5,1.2,1.4,2.2,0.5c0.7,0,1.2,0.4,1.3,1.1c-0.9,0.1-1.7,0.4-2.4,1.1c-3.8,0-7.6-0.6-11.2,1.1
			c-0.2,0.1-0.6-0.3-1-0.4c-0.3-0.4-0.7-0.6-1.1-0.6l0,0c0-0.4,0-0.8,0-1.2c1-0.8,0.6-1.7,0.3-2.6C62.3,131.2,60.3,127.7,57.2,124.8
			z"/>
		<path class="st0" d="M76.4,139c0.6-0.7,1.5-1,2.4-1.1c1.5,1.1-0.6,3,1,4.1c0.2,0.7,0.4,1.4,0.6,2.2c-2-0.8-3.1,0.2-3.9,1.9
			c-0.5,1.2-1.2,2.3-1.8,3.4c-0.9-1.9,0.7-3.2,1.2-4.8c0.2-0.7,1.5-1.1,0.6-2.1c0.3-0.7-1.1-1.8,0.5-2.3c0.9,0.8,1,0,1.1-0.6
			c0-0.1,0.1-0.1,0.1-0.2c0,0.1-0.1,0.1-0.1,0.2c-0.4-0.1-0.7-0.5-1.1-0.2C76.8,139.3,76.6,139.2,76.4,139z"/>
		<path class="st0" d="M53.5,157c2.1-1.2,1.4,1,2.1,1.6c0,1.6,0,3.1,0,4.7c-1.8-0.4-2.4-1.6-1.9-3.4c0.3-0.9,0.1-1.9-0.1-2.8
			C53.7,157.2,53.5,157,53.5,157z"/>
		<path class="st1" d="M63.1,139.7c-2.4,0.4-3.2,2.5-4.6,4c-0.4,0.2-0.8,0.4-1.3,0.6c-0.1-0.8-0.1-1.6,0.6-2.3
			c1.9-0.7,2.5-3.9,5.3-2.9l0,0C63.1,139.3,63.1,139.5,63.1,139.7z"/>
		<path class="st0" d="M57.2,144.3c0.4-0.2,0.8-0.4,1.3-0.6c-0.2,1-0.4,1.9-0.7,2.9c-0.9,0-1.6-0.1-1.1-1.3
			C56.9,145,57.1,144.6,57.2,144.3z"/>
		<path class="st1" d="M78.1,139.7c-0.1,0.6-0.2,1.4-1.1,0.6c0-0.3,0-0.5,0-0.8C77.4,139.1,77.7,139.6,78.1,139.7L78.1,139.7z"/>
		<path class="st0" d="M63.1,139.7c0-0.2,0-0.4,0-0.6c0.5,0,0.9,0.1,1.1,0.6C63.9,139.7,63.5,139.7,63.1,139.7z"/>
		<path class="st2" d="M57.2,144.3c-0.2,0.3-0.3,0.7-0.5,1c-4.1,1.3-5.7,5.1-7.8,8.5c-1.9-2.5-1.5-5.4-2.4-7.9
			c-0.1-0.4-0.3-0.7-0.5-1c-0.9,2.1-2.4-1.6-3.3,0.4c-0.5,1,0.2,1.4,0.7,1.9c1.2,1.1,1.5,2.5,1.5,4.1c0,4.2,1.3,8,2.9,12
			c-2.6,0.2-4-0.7-5.4-2.7c-4.5-6.5-5.7-13.7-5-21.4c0.9-4.4,2.4-8.5,5.5-12c4.1-4.6,8.6-5.4,14.3-2.4c3.2,2.8,5.2,6.4,6.2,10.4
			c0.2,0.9,0.7,1.9-0.3,2.6c-3-0.2-4.6,1.3-5.2,4.1C57.1,142.6,57.2,143.4,57.2,144.3z"/>
		<path class="st11" d="M53.8,170c-1.1,0.4-2,1-2.8,1.9c-2.8,1.9-5,4.7-8.6,5.4c-1.3,0.3-2.4,0.3-3.8-0.2c-3.7-1.4-6.9-3.6-10.1-5.8
			c-1-0.7-1.5-1.4-1.1-2.6c1.1-4.2,1.8-8.4,2-12.7c0.1-1.5,0.5-2,2.1-1.6c4.2,0.9,7.7,2.4,8.7,7.2c0.3,1.2,0.9,2.3,1.5,3.4
			c0.8,1.3,1.3,4.9,3.2,0.6c0.4-0.8,1.1-0.7,1.7-0.6c1.4,0.2,2.8,0.3,4.3,0.5c0.8,0.1,1.6,0.3,2.4,0.4
			C54.1,167.2,53.7,168.6,53.8,170z"/>
		<path class="st6" d="M20.5,154.6c1.4,0.2,2.7,0.4,4.1,0.6c2.3,1.4,2.7,3.4,1.6,5.8c-0.2,0.2-0.4,0.4-0.6,0.5l0,0
			c-0.8,0.1-1.7-0.2-2.3,0.6c-0.2,0-0.4,0-0.6,0.1c-1.8,3.3-2.4,6.9-2.8,10.5c-0.4,3.4,0.2,7-1.8,10.1c-2.6,1.8-5.2,1.9-8,0.5
			c-0.9-0.5-2-0.7-3-0.9c-2.2-0.5-2.8-1.7-1.8-3.7c1.1-2.1,2.9-3.7,4.6-5c3.1-2.4,4-5.9,5.1-9C16.5,160.9,17.8,157.5,20.5,154.6z"/>
		<path class="st3" d="M53.5,157c0,0,0.1,0.2,0.1,0.2c-2.4,0.1-2.8-1.1-1.2-4.5C52.1,154.6,52.4,156,53.5,157z"/>
		<path class="st0" d="M25.7,163.2c-0.5,0.1-1.1,0.2-1.6,0.3c-0.2-0.5-0.5-0.9-0.7-1.4c0.6-0.8,1.5-0.5,2.3-0.6
			C25.7,162.1,25.7,162.6,25.7,163.2z"/>
		<path class="st0" d="M53.4,166c-0.8-0.1-1.6-0.3-2.4-0.4C51.9,164.7,52.8,164.6,53.4,166z"/>
		<path class="st0" d="M51.2,162.9c0,0.1,0,0.1-0.1,0.2c-0.1,0-0.2,0-0.2-0.1c0,0,0-0.1,0.1-0.2C51,162.9,51.1,162.9,51.2,162.9z"/>
		<path class="st0" d="M25.7,161.5c0.2-0.2,0.4-0.4,0.6-0.5C26.1,161.2,25.9,161.4,25.7,161.5z"/>
		<path class="st10" d="M74.6,149.5c0.6-1.1,1.3-2.3,1.8-3.4c0.8-1.7,1.9-2.7,3.9-1.9c2.4,0.5,2.6,1.6,1.5,3.7
			c-2.5,4.7-4.9,9.3-9.3,12.5c-0.6,0.5-1.3,1.5-2.2,0.8c-0.6-0.5,0-1.4,0.2-2.1C71.1,155.5,73.7,152.8,74.6,149.5z"/>
		<path class="st1" d="M23.4,162.1c0.2,0.5,0.5,0.9,0.7,1.4c-0.2,0.2-0.3,0.4-0.5,0.6c-0.2-0.7-0.5-1.3-0.7-2
			C23,162.1,23.2,162.1,23.4,162.1z"/>
		<path class="st1" d="M66,111.5c0.2,0,0.4,0,0.6,0c0.2,0,0.3,0,0.5,0c0.3,0.5,0.8,0.6,1.4,0.5c0.3,0.9,0.2,1.7-0.2,2.5
			c-0.7-0.4-1.5-0.9-2.2-1.3C66,112.6,66,112.1,66,111.5z"/>
		<path class="st1" d="M67.1,120.7c-0.6-1.5-2-3.3,0.9-4C68.1,118.1,67.6,119.4,67.1,120.7z"/>
		<path class="st4" d="M61.7,125.4c-1.5,0.3-2.4-1.1-3.8-1.2c0.3-2,2-2,3.5-2.3c0,0.4,0,0.7-0.1,1.1c-0.1,0.1-0.2,0.1-0.2,0.2
			c0.1,0.1,0.2,0.3,0.2,0.4C61.5,124.2,61.6,124.8,61.7,125.4z"/>
		<path class="st0" d="M77.5,136.8c-1,0.9-1.6,0-2.2-0.5C76.1,136.1,76.8,136.3,77.5,136.8z"/>
		<path class="st0" d="M61.4,123.6c-0.1-0.1-0.2-0.3-0.2-0.4c0,0,0.1-0.1,0.2-0.2C61.3,123.2,61.4,123.4,61.4,123.6z"/>
		<path class="st5" d="M51.6,100.5c2.4-0.4,4.1,1.1,6,2c1.7,0.9,3.3,2,5,3.1c-0.6,1.7,1.7,1.8,1.7,3.2c-0.1,2.4,0,4.9,0,7.3
			c0,0.4,0,0.7,0,1.1c-3-0.8-5.9-0.3-8.9-0.1c-1.5,0.1-2.6,0.3-2.7-1.8c0-1.2-1.2-2.4-2-2c-2.3,1.2-4.8-1.6-6.9,0.5
			c-0.4,0.4-1.3,0.4-1.3-0.4c0-1.9-2-3.7-0.2-5.8c0.8-0.9,0.8-2.5,1.2-3.8c0.8-1.2,2-1.6,3.4-1.7C48.6,102.1,50.3,101.8,51.6,100.5z
			"/>
		<path class="st6" d="M43.5,103.9c-0.4,1.3-0.4,2.8-1.2,3.8c-1.8,2.1,0.2,3.9,0.2,5.8c0,0.8,0.9,0.8,1.3,0.4
			c2.1-2.1,4.6,0.7,6.9-0.5c0.8-0.4,1.9,0.8,2,2c0.1,2,1.2,1.9,2.7,1.8c3-0.2,5.9-0.7,8.9,0.1c-4.8,0.7-9.5,2.9-14.5,0.9
			c-1.3-0.5-2.7-1-4.2,0.1c-1.6,1.1-4.2-0.7-4.8-3.1c-0.5-1.8-0.8-3.6-1.2-5.4c0.3-0.9,0.7-1.9,1-2.9
			C41.5,105.8,41.5,103.9,43.5,103.9z"/>
		<path class="st6" d="M64.3,116.1c0-2.4-0.1-4.9,0-7.3c0-1.4-2.3-1.6-1.7-3.2c2.9,0.9,3.9,3,3.4,5.9c0,0.6,0,1.1,0,1.7
			C65.8,114.4,66.5,116.2,64.3,116.1z"/>
		<path class="st1" d="M40.6,106.9c-0.3,1-0.7,1.9-1,2.9c-0.5,0-0.9,0.1-1.4,0.1c-1.9-2-0.1-2.8,1.3-3.6
			C39.7,106.7,40.1,106.9,40.6,106.9z"/>
		<path class="st1" d="M38.4,111.5c0-0.2,0-0.4,0.1-0.6c0,0.1,0.1,0.3,0.1,0.4C38.6,111.4,38.5,111.4,38.4,111.5z"/>
		<path class="st0" d="M108,72.9c-0.1,0-0.1-0.1-0.2-0.1C107.8,72.8,107.9,72.9,108,72.9L108,72.9z"/>
		<path class="st0" d="M40.6,106.9c-0.5,0-0.9-0.2-1.1-0.6c0.9-4.9,4.4-6.2,8.8-6.3c0.9-0.1,1.7-0.3,2.1-1.3c0-0.2,0-0.5-0.1-0.7
			c2.3,0,0.4,2,1.3,2.6c-1.3,1.3-2.9,1.6-4.7,1.8c-1.4,0.1-2.6,0.5-3.4,1.7C41.5,103.9,41.5,105.8,40.6,106.9z"/>
		<path class="st4" d="M50.4,98.6c-0.3,1-1.2,1.2-2.1,1.3C48.4,98.6,49.5,98.7,50.4,98.6z"/>
		<path class="st5" d="M68.7,105.3c-2.4,0-4.2-0.8-5.7-2.2c-0.4-0.4-0.3-0.9,0.2-1.2c1.9-1,4-1.3,6-1.1c1.2,0.1,2.5,0.9,2.4,2.4
			C71.4,105,70,105.3,68.7,105.3z"/>
		<path class="st0" d="M67,111.5c-0.2,0-0.3,0-0.5,0C66.7,111.2,66.9,111.2,67,111.5z"/>
		<path class="st0" d="M57.8,142c0.6-2.8,2.3-4.3,5.2-4.1c0,0.4,0,0.8,0,1.2C60.3,138.1,59.7,141.3,57.8,142z"/>
		<path class="st1" d="M78.1,139.7c0-0.1,0.1-0.1,0.1-0.2C78.1,139.5,78.1,139.6,78.1,139.7L78.1,139.7z"/>
	</g>
	<path class="st1" d="M96.3,101.5c0,0-7,3.9-10.6,3.8c-3.7-0.1-8.3-1.1-9.9,0c-1.6,1.1-1.6,2.1-1.2,2.6c0.4,0.5,2.4,0.7,2.4,0.7
		s-0.1-0.8,1.2-0.9c1.2-0.1,12.3,0,14.6-1.4C95,104.8,98.7,102.9,96.3,101.5z"/>
	<path class="st2" d="M79.9,107.5c0,0,11.6,0.1,16.1-2.3c4.6-2.4,2.6,6.6,2.6,6.6s-9.7,3.4-9.8,3.4c-0.2,0-4.4-3.6-4.4-3.6
		S78.7,109.2,79.9,107.5z"/>
	<path class="st4" d="M85.6,71.1c0,0-4.2-7.1-8.3-5.6l-2,0.6c0,0,2.6-3.3,6-1.3c3.4,2,5.5,6.6,5.5,6.6L85.6,71.1z"/>
	<path class="st4" d="M98.3,75.6c0,0-3.4-5.3-3.5-8.5c-0.1-3.2,0.4-4.7,2.1-4.6s4.7,1.3,6.8,7.3l0.4-0.7c0,0-2.9-8.5-6.8-7.8
		c-3.9,0.7-4.1,4.5-3.5,6.7c0.6,2.2,3.8,8.1,3.8,8.1l0.7-0.3"/>
</g>
</svg>
